<?xml version="1.0" standalone="no"?>
<!DOCTYPE svg PUBLIC "-//W3C//DTD SVG 1.1//EN" "http://www.w3.org/Graphics/SVG/1.1/DTD/svg11.dtd" >
<svg xmlns="http://www.w3.org/2000/svg">
<metadata>
Created by FontPrep 20130207 at Sun Jul 26 20:28:37 2015
 By .%( spOoks )%.
Copyright 2013 Anton Koovit, Yassin Baggar.
</metadata>
<defs>
<font id="b74f1fdf5f6c23448cb5674651968079" horiz-adv-x='1024' >
  <font-face 
    font-family="Arvo-Italic"
    font-weight="400"
    font-style="italic"
    font-stretch="normal"
    units-per-em="2048"
    panose-1="2 6 6 3 4 2 2 2 3 4"
    ascent="1638"
    descent="-410"
    x-height="1036"
    cap-height="1516"
    bbox="-281 -532 2507 2078"
    underline-thickness="50"
    underline-position="-50"
    unicode-range="U+0020-FB02"
  />
<missing-glyph horiz-adv-x="748" 
d="M136 68h408v1229h-408v-1229zM68 0v1365h544v-1365h-544z" />
    <glyph glyph-name=".notdef" horiz-adv-x="748" 
d="M136 68h408v1229h-408v-1229zM68 0v1365h544v-1365h-544z" />
    <glyph glyph-name=".null" horiz-adv-x="471" 
 />
    <glyph glyph-name="nonmarkingreturn" horiz-adv-x="0" 
 />
    <glyph glyph-name="space" unicode=" " horiz-adv-x="449" 
 />
    <glyph glyph-name="exclam" unicode="!" horiz-adv-x="842" 
d="M198 119.5q0 54.5 39.5 92.5t79.5 38q41 0 65 -10.5t41.5 -28t28 -41.5t10.5 -64.5t-38.5 -81t-79.5 -40.5t-65 11t-52.5 40.5t-28.5 84zM514 1577h260l-312 -1167h-178z" />
    <glyph glyph-name="quotedbl" unicode="&#x22;" horiz-adv-x="745" 
d="M574 1059h-124l71 510l182 12zM288 1059h-125l71 510l183 12z" />
    <glyph glyph-name="numbersign" unicode="#" horiz-adv-x="1455" 
d="M551 561h357l193 451h-358zM374 1184h240l135 313h201l-134 -313h358l134 313h201l-134 -313h226l-90 -172h-209l-192 -451h243l-88 -172h-228l-165 -389h-203l166 389h-357l-165 -389h-207l167 389h-239l92 172h221l193 451h-256z" />
    <glyph glyph-name="dollar" unicode="$" horiz-adv-x="1278" 
d="M777.5 351.5q72.5 49.5 72.5 120.5t-54 102.5t-93 39.5l-158 43q-220 58 -220 250q0 155 112.5 237t275.5 98l74 317h196l-75 -324q7 -2 40 -9.5t101.5 -45t90.5 -118.5h82l-35 -137h-225q2 5 2.5 9.5t5.5 25.5t-6.5 48.5t-52.5 56.5t-119 29q-135 0 -207 -45.5
t-72 -121.5q0 -75 65 -94t91 -27l153 -49q224 -70 224 -253q0 -161 -118 -247.5t-270 -103.5l-77 -334h-197l77 335q-167 24 -209.5 94t-48.5 115h-80l35 137h233q-4 -16 -8 -31t-9.5 -55t51 -76t140.5 -36q140 0 212.5 49.5z" />
    <glyph glyph-name="percent" unicode="%" horiz-adv-x="1671" 
d="M1020 268q0 -52 36 -91.5t88 -39.5q94 0 160 62t66 148t-52 108t-88 22t-74.5 -15.5t-68.5 -42.5t-48.5 -63t-18.5 -88zM844 250q0 159 122 275t293 116q122 0 204.5 -82.5t82.5 -192.5q0 -155 -120 -273t-296 -118q-124 0 -205 83t-81 192zM1421 1540h225l-1400 -1556
h-226zM371.5 1034.5q37.5 -39.5 88.5 -39.5q94 0 160 62t66 149t-52 108t-88 21t-75 -15.5t-88 -59t-49 -114.5q0 -72 37.5 -111.5zM563 1499q133 0 216 -83t83 -193q0 -156 -120 -272.5t-296 -116.5q-125 0 -205.5 82t-80.5 176q0 95 32.5 166t89 124.5t132 85t149.5 31.5z
" />
    <glyph glyph-name="ampersand" unicode="&#x26;" horiz-adv-x="1382" 
d="M935 1200q0 74 -52 128t-117 54q-121 0 -197 -71.5t-76 -171.5q0 -62 26.5 -109.5t96.5 -138.5q319 136 319 309zM311 200.5q62 -63.5 162 -63.5q184 0 351 185l-277 370q-23 -9 -45 -17.5t-54 -22.5t-70.5 -44t-83.5 -91.5t-45 -157.5q0 -95 62 -158.5zM448 -31
q-160 0 -266.5 112t-106.5 271q0 160 109 282.5t266 186.5q-62 84 -94.5 148.5t-32.5 156.5q0 178 131 298t318 120q141 0 240.5 -96t99.5 -223q0 -188 -124 -287.5t-273 -172.5l226 -288q85 133 142 279h180q-86 -230 -216 -413l194 -247l-166 -116l-154 213
q-220 -224 -473 -224z" />
    <glyph glyph-name="quotesingle" unicode="'" horiz-adv-x="414" 
d="M275 1059h-125l71 510l183 12z" />
    <glyph glyph-name="parenleft" unicode="(" horiz-adv-x="825" 
d="M239 397q0 581 243.5 886.5t397.5 433.5l124 -124q-139 -128 -238 -249.5t-211.5 -355.5t-112.5 -605t153 -641l-163 -111q-193 335 -193 766z" />
    <glyph glyph-name="parenright" unicode=")" horiz-adv-x="948" 
d="M482 1712q193 -328 193 -812q0 -150 -46 -324.5t-169.5 -410t-453.5 -534.5l-118 118q423 392 504 706t81 483q0 392 -154 664z" />
    <glyph glyph-name="asterisk" unicode="*" horiz-adv-x="829" 
d="M535 1300l260 78l12 -137l-257 -76l101 -202l-125 -70l-98 202l-184 -194l-109 82l190 199l-225 78l66 122l225 -79l55 243h146z" />
    <glyph glyph-name="plus" unicode="+" horiz-adv-x="1270" 
d="M140 786h416l98 424h195l-98 -424h415l-39 -172h-416l-98 -428h-194l98 428h-416z" />
    <glyph glyph-name="comma" unicode="," horiz-adv-x="569" 
d="M205 283l219 -86l-256 -537l-171 67z" />
    <glyph glyph-name="hyphen" unicode="-" horiz-adv-x="856" 
d="M137 496l40 172h571l-40 -172h-571z" />
    <glyph glyph-name="period" unicode="." horiz-adv-x="514" 
d="M50 119.5q0 54.5 39.5 92.5t79.5 38q41 0 65 -10.5t41.5 -28t28 -41.5t10.5 -64.5t-38.5 -81t-79.5 -40.5t-65 11t-52.5 40.5t-28.5 84z" />
    <glyph glyph-name="slash" unicode="/" horiz-adv-x="1001" 
d="M1039 1556h248l-1137 -1556h-248z" />
    <glyph glyph-name="zero" unicode="0" horiz-adv-x="1409" 
d="M618 166q76 0 146.5 39.5t159 136.5t162 296.5t73.5 369.5q0 247 -94.5 300.5t-170.5 53.5t-146.5 -41.5t-159.5 -144.5t-162.5 -306.5t-73.5 -365.5q0 -238 95 -288t171 -50zM594 -18q-227 0 -339 140t-112 371t124 548.5t326.5 408t323.5 90.5q228 0 339.5 -144.5
t111.5 -376.5q0 -233 -125.5 -546.5t-328 -402t-320.5 -88.5z" />
    <glyph glyph-name="one" unicode="1" horiz-adv-x="844" 
d="M182 172h147l254 1109l-343 -167l47 209l477 236h80l-320 -1387h150l-39 -172h-492z" />
    <glyph glyph-name="two" unicode="2" horiz-adv-x="1143" 
d="M886 1296q-58 56 -155 56q-163 0 -224 -94.5t-77 -155.5h-207q47 203 198 321.5t329 118.5t285.5 -104t107.5 -240t-38 -206.5t-87 -128t-127 -130.5l-601 -561h621l-39 -172h-892l34 154l680 639q39 37 83 78t105.5 117.5t61.5 164.5q0 87 -58 143z" />
    <glyph glyph-name="three" unicode="3" horiz-adv-x="1124" 
d="M874.5 1307q-63.5 67 -161.5 67q-172 0 -227.5 -83.5t-59 -101t-5.5 -24t-5 -18.5l-201 2q29 179 172 288t333 109t307.5 -100.5t117.5 -263.5q0 -206 -105 -285t-183 -107q108 -53 131.5 -140t23.5 -136q0 -234 -163 -389.5t-409 -155.5q-145 0 -271.5 85t-137 185.5
t-8.5 131.5h200q2 -99 66.5 -164.5t157.5 -65.5q165 0 261.5 104t96.5 251q0 98 -64 158.5t-163 60.5h-89l35 157h74q146 0 243 83t97 184t-63.5 168z" />
    <glyph glyph-name="four" unicode="4" horiz-adv-x="1153" 
d="M59 596l752 920h231l-744 -906h392l58 250l200 14l-61 -264h225l-41 -172h-224l-62 -266h145l-39 -172h-492l39 172h150l62 266h-630z" />
    <glyph glyph-name="five" unicode="5" horiz-adv-x="1192" 
d="M639 973q206 0 328.5 -117t122.5 -302q0 -184 -86 -315.5t-227 -200.5t-309 -69t-292.5 92t-155.5 236l183 78q38 -154 134.5 -191t164.5 -37q148 0 266.5 106.5t118.5 285.5q0 113 -74 188.5t-192 75.5q-160 0 -283 -103l-154 29l185 787h864l-41 -173h-676l-101 -433
q113 63 224 63z" />
    <glyph glyph-name="six" unicode="6" horiz-adv-x="1229" 
d="M302 428q0 -120 75.5 -195t216.5 -75t254.5 112.5t113.5 291.5q0 125 -83 201t-221 76q-78 0 -158.5 -47.5t-126.5 -116.5t-58.5 -128t-12.5 -119zM739 994q77 0 158 -33t173 -122.5t92 -271.5q0 -253 -179.5 -415t-423.5 -162q-205 0 -331 124t-126 302q0 112 52 233
t172 270l479 597h244l-445 -539q58 17 135 17z" />
    <glyph glyph-name="seven" unicode="7" horiz-adv-x="1212" 
d="M100 172h138q269 461 783 1171h-573l-32 -137h-195l72 310h1001l-34 -150q-542 -726 -814 -1194h146l-39 -172h-492z" />
    <glyph glyph-name="eight" unicode="8" horiz-adv-x="1247" 
d="M512 1105q0 -90 56 -146t130 -56q134 0 229 83t95 182t-53.5 153.5t-130.5 54.5t-133 -23t-99 -61t-68.5 -88.5t-25.5 -98.5zM297 406q0 -115 65.5 -178.5t164.5 -63.5q179 0 281.5 99t102.5 233q0 99 -68 165t-158 66t-158 -26.5t-119 -71.5t-81 -104t-30 -119zM952 809
q152 -119 152 -312q0 -99 -44 -194.5t-167.5 -207t-374.5 -111.5q-190 0 -303 116.5t-113 274.5t93 283.5t241 188.5q-106 102 -106 245q0 185 153 318.5t361 133.5q156 0 259 -99.5t103 -248.5q0 -182 -99.5 -269.5t-154.5 -117.5z" />
    <glyph glyph-name="nine" unicode="9" horiz-adv-x="1294" 
d="M665 681q240 0 354 248q25 71 25 147q0 135 -75.5 210.5t-216.5 75.5t-254.5 -112.5t-113.5 -291.5q0 -125 82.5 -201t198.5 -76zM609 526q-79 0 -160 33t-173 122.5t-92 271.5q0 253 179.5 415t423.5 162q205 0 331 -124t126 -302q0 -112 -51 -230.5t-173 -272.5
l-481 -601h-244l447 543q-54 -17 -133 -17z" />
    <glyph glyph-name="colon" unicode=":" horiz-adv-x="543" 
d="M256 908q0 52 38 90t79 39q67 -1 105 -39t38 -78q0 -65 -38 -105t-78 -40q-40 1 -64 11t-42 28q-38 42 -38 94zM93 122q1 52 39 90t78 39q66 -1 104 -39t39 -78q0 -65 -38 -105t-78 -40q-40 1 -64 11q-23 10 -41 28q-38 42 -39 94z" />
    <glyph glyph-name="semicolon" unicode=";" horiz-adv-x="555" 
d="M242 908q0 52 38 90t79 39q67 -1 105 -39t38 -78q0 -65 -38 -105t-78 -40q-40 1 -64 11t-42 28q-38 42 -38 94zM104 283l219 -86l-256 -537l-171 67z" />
    <glyph glyph-name="less" unicode="&#x3c;" horiz-adv-x="1067" 
d="M26 653l850 295l-45 -186l-611 -192l521 -203l-37 -164l-711 305z" />
    <glyph glyph-name="equal" unicode="=" horiz-adv-x="1053" 
d="M253 877h750l-39 -172h-750zM169 508h750l-39 -172h-750z" />
    <glyph glyph-name="greater" unicode="&#x3e;" horiz-adv-x="1067" 
d="M782 498l-850 -295l45 186l611 192l-521 203l37 164l711 -305z" />
    <glyph glyph-name="question" unicode="?" horiz-adv-x="1128" 
d="M368 256q28 0 51.5 -10.5t41 -28t28 -41.5t10.5 -64.5t-38.5 -81t-79.5 -40.5t-65 11t-42 29.5t-28.5 43t-10.5 51.5t10.5 51t28.5 41.5t42 28t52 10.5zM834.5 1328q-55.5 50 -129.5 50q-75 0 -124.5 -18t-91 -59t-63 -88t-21.5 -76l-207 18q46 189 183.5 301.5
t323.5 112.5t291 -102t105 -238q0 -198 -114 -290.5t-205.5 -145.5t-137.5 -87t-80.5 -97.5t-66.5 -194.5h-198q41 203 92 280t108 119.5t117 80.5t113.5 73t107 87t53.5 138t-55.5 136z" />
    <glyph glyph-name="at" unicode="@" horiz-adv-x="2351" 
d="M1196 770q-152 0 -264.5 -105.5t-112.5 -240.5q0 -100 63.5 -165.5t168.5 -65.5q96 0 175 44t130 115l64 272q-21 66 -82 106t-142 40zM1607 150q160 0 263.5 159.5t103.5 364.5q0 278 -181.5 455.5t-458.5 177.5t-512.5 -128.5t-380.5 -351t-145 -497.5
q0 -274 179.5 -463t466.5 -189q229 0 448 117l57 -157q-267 -144 -528 -144q-352 0 -586.5 244t-234.5 616q0 140 47 292t172.5 346t409 346.5t600.5 152.5q249 0 440.5 -107t297 -290.5t105.5 -403.5q0 -281 -164.5 -493.5t-420.5 -212.5q-182 0 -232 136
q-152 -112 -330 -112t-288.5 118t-110.5 282q0 227 178.5 384.5t413.5 157.5q154 0 260 -85l21 91h184l-154 -663q-18 -91 14.5 -117t65.5 -26z" />
    <glyph glyph-name="A" unicode="A" horiz-adv-x="1458" 
d="M531 686h459l-75 688zM919 172h127l-37 342h-574l-191 -342h136l-38 -172h-492l39 172h131l760 1344h323l158 -1344h150l-39 -172h-492z" />
    <glyph glyph-name="B" unicode="B" horiz-adv-x="1500" 
d="M942 848q122 0 204 76.5t82 195.5q0 154 -67.5 188.5t-112.5 34.5h-323l-113 -495h330zM792 172q132 0 214.5 78.5t82.5 189.5t-49 172.5t-131 61.5h-337l-115 -502h335zM1169 753q137 -100 137 -297t-156 -326.5t-387 -129.5h-688l39 172h134l270 1171h-148l41 173h678
q167 0 261.5 -100.5t94.5 -254.5q0 -301 -276 -408z" />
    <glyph glyph-name="C" unicode="C" horiz-adv-x="1468" 
d="M75 655q0 247 111.5 451t308 321t438.5 117q170 0 302.5 -68.5t217.5 -189.5h156l-41 -172h-276q-71 164 -191.5 198t-189.5 34q-261 0 -436.5 -197t-175.5 -477q0 -223 128 -360.5t308 -137.5q293 0 467 250l192 -102q-245 -347 -682 -347q-274 0 -455.5 194.5
t-181.5 485.5z" />
    <glyph glyph-name="D" unicode="D" horiz-adv-x="1561" 
d="M675 172q259 0 421 155.5t200.5 291t38.5 235.5q0 203 -108 346t-279 143h-225l-268 -1171h220zM974 1516q261 0 420.5 -185t159.5 -449t-117 -462t-324.5 -309t-459.5 -111h-578l39 172h132l270 1171h-131l40 173h549z" />
    <glyph glyph-name="E" unicode="E" horiz-adv-x="1415" 
d="M411 1516h1100l-100 -433h-207l61 260h-540l-111 -485h446l-43 -172h-442l-118 -514h534l61 262h209l-100 -434h-1086l39 172h134l270 1171h-148z" />
    <glyph glyph-name="F" unicode="F" horiz-adv-x="1331" 
d="M407 1516h1102l-98 -429h-197l57 256h-550l-111 -487h522l-39 -172h-523l-117 -512h153l-39 -172h-492l39 172h130l270 1171h-148z" />
    <glyph glyph-name="G" unicode="G" horiz-adv-x="1616" 
d="M75 655q0 246 111 449.5t307.5 321.5t439.5 118q176 0 312 -74t208 -184h156l-41 -172h-276q-71 164 -191.5 198t-200.5 34t-159.5 -24t-182.5 -91.5t-181 -221.5t-78 -353t126.5 -340.5t309.5 -141.5q274 0 381.5 143.5t141.5 231.5h-423l41 176h643l-164 -725h-200
l50 222q-180 -247 -493 -247q-137 0 -254 52.5t-250 196.5t-133 431z" />
    <glyph glyph-name="H" unicode="H" horiz-adv-x="1933" 
d="M1476 1516h492l-41 -173h-137l-268 -1171h149l-39 -172h-492l39 172h134l126 545h-857l-125 -545h149l-39 -172h-492l39 172h134l270 1171h-148l41 173h492l-41 -173h-137l-105 -458h858l105 458h-148z" />
    <glyph glyph-name="I" unicode="I" horiz-adv-x="883" 
d="M425 1516h492l-41 -173h-141l-268 -1171h139l-39 -172h-492l39 172h144l270 1171h-143z" />
    <glyph glyph-name="J" unicode="J" horiz-adv-x="762" 
d="M390 1516h491l-41 -173h-141l-271 -1171q-22 -66 -135 -196t-200 -214l-168 15q131 148 215 269t96 159l263 1138h-150z" />
    <glyph glyph-name="K" unicode="K" horiz-adv-x="1642" 
d="M411 1516h492l-41 -173h-137l-268 -1171h149l-39 -172h-492l39 172h134l270 1171h-148zM1390 1343l41 173h389l-41 -173h-94l-837 -589l468 -582h158l-39 -172h-407l39 172l-469 602z" />
    <glyph glyph-name="L" unicode="L" horiz-adv-x="1376" 
d="M962 172q79 0 98 80l47 197h201l-104 -449h-1129l39 172h134l270 1171h-148l41 173h492l-41 -173h-137l-268 -1171h505z" />
    <glyph glyph-name="M" unicode="M" horiz-adv-x="2290" 
d="M114 172h136l270 1171h-150l41 173h459l197 -1301l784 1301h473l-41 -173h-137l-270 -1171h159l-39 -172h-491l39 172h132l266 1154l-800 -1326h-231l-202 1323l-266 -1151h163l-39 -172h-492z" />
    <glyph glyph-name="N" unicode="N" horiz-adv-x="1786" 
d="M1370 1516h491l-39 -173h-136l-308 -1343h-262l-413 1255l-249 -1083h152l-39 -172h-492l39 172h133l271 1171h-150l41 173h416l408 -1246l246 1073h-148z" />
    <glyph glyph-name="O" unicode="O" horiz-adv-x="1577" 
d="M730 172q263 0 440 199t177 493q0 215 -121.5 346t-314.5 131q-124 0 -235 -50t-244 -191.5t-133 -427.5q0 -215 123 -357.5t308 -142.5zM708 -31q-124 0 -239.5 49t-254.5 191t-139 446q0 254 115.5 458t312 317.5t447.5 113.5q250 0 435 -179.5t185 -483.5
q0 -263 -141.5 -525t-369 -324.5t-351.5 -62.5z" />
    <glyph glyph-name="P" unicode="P" horiz-adv-x="1313" 
d="M835 829q165 0 264 77.5t99 220.5q0 144 -88 180t-150 36h-237l-117 -514h229zM1017 1516q170 0 281 -109.5t111 -269.5q0 -213 -157.5 -346.5t-438.5 -133.5h-247l-111 -485h151l-39 -172h-492l39 172h132l270 1171h-148l41 173h608z" />
    <glyph glyph-name="Q" unicode="Q" horiz-adv-x="1559" 
d="M730 172q263 0 440 199t177 493q0 215 -121.5 346t-314.5 131q-124 0 -235 -50t-244 -191.5t-133 -427.5q0 -215 123 -357.5t308 -142.5zM502.5 1430.5q196.5 113.5 447.5 113.5q250 0 435 -179.5t185 -483.5q0 -378 -221.5 -629.5t-564.5 -279.5q42 -13 75.5 -33.5
t90 -53t123.5 -32.5q143 0 198 116l135 -69q-47 -106 -153.5 -166t-199.5 -60q-94 0 -153.5 28.5t-91.5 47.5t-84 43t-98 17q-47 -6 -67 -13l42 182q-226 39 -376 222.5t-150 445.5t115.5 466t312 317.5z" />
    <glyph glyph-name="R" unicode="R" horiz-adv-x="1438" 
d="M854 870q243 0 294.5 105t51.5 161q0 206 -240 207h-235l-108 -473h237zM1026 1516q173 0 279 -98.5t106 -254.5t-96.5 -267.5t-242.5 -158.5q39 -28 66 -84t29 -133l6 -348h129l-39 -172h-293l-6 461q-2 125 -57 183t-166 58h-163l-121 -530h149l-39 -172h-492l39 172
h134l270 1171h-150l41 173h617z" />
    <glyph glyph-name="S" unicode="S" horiz-adv-x="1278" 
d="M571 1277.5q-95 -80.5 -95 -198.5t83.5 -146t116.5 -40l187 -68q218 -73 253 -181t35 -198t-43 -182t-163 -193.5t-364 -101.5q-243 0 -349 87.5t-122 224.5h-95l39 159h272l-18 -74q-14 -108 63 -161t225 -53t245 80t97 205t-86 165t-131 55l-174 56q-276 87 -276 346
q0 209 155.5 344t414.5 135q258 0 337 -101t96 -159h101l-39 -160h-260q15 73 -1 113.5t-70.5 83.5t-196.5 43t-237 -80.5z" />
    <glyph glyph-name="T" unicode="T" horiz-adv-x="1362" 
d="M348 172h140l272 1180h-367l-53 -236h-205l92 400h1352l-93 -400h-204l53 236h-368l-270 -1180h142l-39 -172h-491z" />
    <glyph glyph-name="U" unicode="U" horiz-adv-x="1581" 
d="M724 176q174 0 285.5 106.5t169.5 356.5l162 704h-152l39 173h492l-39 -173h-133l-166 -722q-147 -646 -676 -646q-225 0 -366.5 129t-137.5 351q0 79 23 184l162 704h-144l39 173h492l-39 -173h-140l-161 -704q-77 -337 65.5 -400t224.5 -63z" />
    <glyph glyph-name="V" unicode="V" horiz-adv-x="1470" 
d="M1174 1516h492l-39 -173h-133l-746 -1343h-305l-129 1343h-139l39 173h491l-39 -173h-140l99 -1169l645 1169h-135z" />
    <glyph glyph-name="W" unicode="W" horiz-adv-x="2271" 
d="M2016 1516h491l-39 -173h-138l-703 -1343h-285l-53 1171l-586 -1171h-285l-89 1343h-154l39 173h491l-39 -173h-132l69 -1148l659 1321h213l49 -1321l605 1148h-152z" />
    <glyph glyph-name="X" unicode="X" horiz-adv-x="1487" 
d="M1115 1516h491l-41 -173h-104l-551 -579l284 -592h150l-39 -172h-491l38 172h137l-218 446l-424 -446h118l-39 -172h-491l39 172h121l590 621l-268 550h-146l41 173h491l-41 -173h-130l193 -402l382 402h-133z" />
    <glyph glyph-name="Y" unicode="Y" horiz-adv-x="1323" 
d="M214 1516h491l-39 -173h-122l175 -473l411 473h-122l39 173h492l-39 -173h-123l-586 -656l-120 -515h141l-39 -172h-492l39 172h141l120 519l-259 652h-147z" />
    <glyph glyph-name="Z" unicode="Z" horiz-adv-x="1298" 
d="M1390 1298l-1152 -1120h681l57 252h207l-98 -430h-1110l51 231l1135 1108h-660l-59 -258h-207l100 435h1102z" />
    <glyph glyph-name="bracketleft" unicode="[" horiz-adv-x="762" 
d="M466 1720h424l-34 -151h-220l-374 -1630h219l-35 -152h-424z" />
    <glyph glyph-name="backslash" unicode="\" horiz-adv-x="700" 
d="M101 1581h162l334 -1606h-162z" />
    <glyph glyph-name="bracketright" unicode="]" horiz-adv-x="762" 
d="M554 1569h-220l35 151h424l-444 -1933h-424l35 152h219z" />
    <glyph glyph-name="asciicircum" unicode="^" horiz-adv-x="1229" 
d="M781 1516l225 -791h-139l-167 627l-466 -627h-153l589 791h111z" />
    <glyph glyph-name="underscore" unicode="_" horiz-adv-x="1049" 
d="M-93 -154h1024l-24 -102h-1024z" />
    <glyph glyph-name="grave" unicode="`" horiz-adv-x="590" 
d="M100 1477h248l184 -299h-145l-287 282v17z" />
    <glyph glyph-name="a" unicode="a" horiz-adv-x="1307" 
d="M299 426q0 -126 67 -199t176 -73q149 0 272 103l129 554q-63 80 -226 80t-290.5 -128.5t-127.5 -336.5zM92 389q0 302 187 488t454 186q154 0 249 -81l13 54h201l-200 -864h161l-39 -172h-363l16 70q-131 -88 -287 -88t-274 122.5t-118 284.5z" />
    <glyph glyph-name="b" unicode="b" horiz-adv-x="1272" 
d="M339 235q64 -81 227 -81q164 0 292 128t128 336q0 126 -68 199.5t-178 73.5q-146 0 -274 -107zM509 971q134 92 291 92t274.5 -123t117.5 -301q0 -286 -187 -471.5t-454 -185.5q-155 0 -251 82l-15 -64h-200l318 1384h-192l41 172h392z" />
    <glyph glyph-name="c" unicode="c" horiz-adv-x="1135" 
d="M921 731q-64 160 -266 160q-49 0 -111.5 -28.5t-151 -119.5t-88.5 -282q0 -144 77.5 -225.5t177.5 -81.5t161.5 30.5t116.5 100.5l145 -109q-143 -201 -416 -201q-204 0 -337.5 137t-133.5 337q0 136 51 249.5t134 195.5t187.5 127.5t211.5 45.5q229 0 354 -164h125
l-28 -172h-209z" />
    <glyph glyph-name="d" unicode="d" horiz-adv-x="1285" 
d="M923 801q-77 90 -238 90t-282 -125t-121 -322q0 -132 73.5 -211t202.5 -79t241 110zM75 426q0 272 181 456.5t439 184.5q159 0 269 -86l93 403h-175l41 172h374l-319 -1384h172l-39 -172h-373l15 67q-127 -87 -235 -87q-197 0 -320 128.5t-123 317.5z" />
    <glyph glyph-name="e" unicode="e" horiz-adv-x="1171" 
d="M686 897q-115 0 -204 -70.5t-132 -181.5h590q3 185 -96.5 218.5t-157.5 33.5zM1012 164q-146 -195 -452 -195q-82 0 -165.5 32t-181.5 127.5t-98 315.5q0 260 172.5 441.5t427.5 181.5q188 0 303 -117t115 -280q0 -90 -19 -187h-796q-3 -42 -3 -74t20.5 -86t78 -116
t176.5 -62q174 0 274 127z" />
    <glyph glyph-name="f" unicode="f" horiz-adv-x="811" 
d="M848 1577q155 0 265 -61l-103 -154q-66 43 -158 43t-148 -44.5t-81 -152.5l-40 -172h282l-41 -172h-280l-306 -1335h-203l305 1335h-213l41 172h212l42 183q82 358 426 358z" />
    <glyph glyph-name="g" unicode="g" horiz-adv-x="1249" 
d="M312 426q0 -126 67 -199t161 -73q164 0 288 104l128 552q-64 81 -227 81t-290 -128.5t-127 -336.5zM105 389q0 302 187 488t454 186q154 0 249 -81l13 54h203l-238 -1024q-59 -256 -200 -369.5t-386 -113.5q-188 0 -287 55.5t-137 93.5l129 146q75 -81 169.5 -100
t154.5 -19q140 0 230 74t137 285q-117 -82 -280 -82t-280.5 122.5t-117.5 284.5z" />
    <glyph glyph-name="h" unicode="h" horiz-adv-x="1307" 
d="M521 930q160 125 328 125t252 -101.5t42 -287.5l-114 -494h147l-39 -172h-350l149 641q28 118 -18.5 178t-166.5 60t-266 -106l-178 -773h-202l318 1384h-200l41 172h402z" />
    <glyph glyph-name="i" unicode="i" horiz-adv-x="725" 
d="M391 1401.5q0 54.5 39.5 92.5t79.5 38q41 0 65 -10.5t41.5 -28t28 -41.5t10.5 -64.5t-38.5 -81t-79.5 -40.5t-65 11t-52.5 40.5t-28.5 84zM200 1036h387l-200 -864h166l-39 -172h-369l200 864h-186z" />
    <glyph glyph-name="j" unicode="j" horiz-adv-x="668" 
d="M396 1401.5q0 54.5 39.5 92.5t79.5 38q41 0 65 -10.5t41.5 -28t28 -41.5t10.5 -64.5t-38.5 -81t-79.5 -40.5t-65 11t-52.5 40.5t-28.5 84zM185 1036h405l-258 -1112q-64 -278 -211 -335.5t-231 -59.5l16 145q173 25 228 269l214 921h-204z" />
    <glyph glyph-name="k" unicode="k" 
d="M279 1556h387l-223 -964h112l340 288l37 156h336l-41 -172h-107l-389 -329l250 -365h125l-39 -170h-219l-311 469h-122l-108 -469h-202l318 1384h-185z" />
    <glyph glyph-name="l" unicode="l" horiz-adv-x="653" 
d="M264 1556h402l-320 -1384h172l-39 -172h-374l318 1384h-200z" />
    <glyph glyph-name="m" unicode="m" horiz-adv-x="2100" 
d="M1180 882q168 173 402 173q157 0 241.5 -101t41.5 -288l-114 -494h149l-39 -172h-352l149 641q28 118 -18 178t-140 60q-162 0 -297 -126l-173 -753h-203l149 641q28 118 -18 178t-140 60q-164 0 -297 -127l-173 -752h-203l200 864h-194l41 172h387l-25 -106
q150 125 334 125q106 0 183 -43t109 -130z" />
    <glyph glyph-name="n" unicode="n" horiz-adv-x="1368" 
d="M554 930q150 125 327 125q176 0 260.5 -101t41.5 -288l-114 -494h147l-39 -172h-350l149 641q28 118 -18 178t-140 60q-164 0 -297 -127l-173 -752h-203l200 864h-198l41 172h391z" />
    <glyph glyph-name="o" unicode="o" 
d="M284 475q0 -152 78 -237.5t217 -85.5t254 124t115 310q0 137 -80 221t-217 84q-138 0 -220.5 -88t-114.5 -167t-32 -161zM75 442q0 93 21.5 172t81 182.5t199 187t300.5 83.5q205 0 342.5 -136t137.5 -333q0 -258 -176.5 -440.5t-438.5 -182.5q-94 0 -181 36.5
t-151 100.5t-99.5 150.5t-35.5 179.5z" />
    <glyph glyph-name="p" unicode="p" horiz-adv-x="1333" 
d="M1049 618q0 126 -68 199.5t-195 73.5q-126 0 -256 -106l-127 -549q65 -82 227 -82q163 0 291 128t128 336zM568 968q137 95 295 95t275.5 -123t117.5 -284q0 -302 -187 -488t-454 -186q-155 0 -252 81l-83 -362h171l-39 -172h-377l311 1335h-198l41 172h393z" />
    <glyph glyph-name="q" unicode="q" horiz-adv-x="1246" 
d="M924 812q-64 79 -226 79t-289 -128.5t-127 -336.5q0 -126 67 -199t194 -73t254 103zM75 389q0 302 187 488t454 186q151 0 249 -80l15 53h197l-309 -1335h182l-39 -172h-381l124 541q-131 -88 -287 -88t-274 122.5t-118 284.5z" />
    <glyph glyph-name="r" unicode="r" horiz-adv-x="1053" 
d="M825 1044q95 0 199 -14l-66 -280h-203l29 122q-179 0 -277 -180l-120 -520h172l-39 -172h-375l200 864h-198l41 172h391l-33 -142q131 150 279 150z" />
    <glyph glyph-name="s" unicode="s" horiz-adv-x="1012" 
d="M418 869.5q-56 -39.5 -56 -105.5q0 -40 25.5 -66.5t80.5 -48.5l193 -69q180 -65 180 -263q0 -166 -115.5 -257t-301.5 -91q-185 0 -250 55t-83 91h-106l41 172h211q-9 -74 49.5 -117t175 -43t150 63t33.5 102q0 83 -111 122l-184 67q-89 35 -137 102.5t-48 146.5
q0 156 105 246.5t290 90.5q244 0 325 -147h112l-41 -172h-207q-3 116 -76.5 138.5t-136 22.5t-118.5 -39.5z" />
    <glyph glyph-name="t" unicode="t" horiz-adv-x="778" 
d="M365 212q0 -74 102 -73q57 0 137 33l17 -143q-176 -83 -339 -34.5t-110 281.5l144 588h-171l41 172h173l61 248l211 86l-79 -334h218l-41 -172h-218l-132 -559q-14 -57 -14 -93z" />
    <glyph glyph-name="u" unicode="u" horiz-adv-x="1290" 
d="M389.5 237q40.5 -87 181.5 -87t235 148l132 566h-136l41 172h336l-200 -864h155l-39 -172h-348l24 105q-119 -123 -308 -123q-50 0 -110.5 19t-93.5 51q-67 64 -90.5 156t11.5 243l95 413h-140l41 172h340l-123 -526q-44 -186 -3.5 -273z" />
    <glyph glyph-name="v" unicode="v" horiz-adv-x="1155" 
d="M135 1036h379l-41 -172h-79l62 -639l407 639h-84l41 172h378l-41 -172h-79l-594 -880h-176l-116 880h-97z" />
    <glyph glyph-name="w" unicode="w" horiz-adv-x="1649" 
d="M136 1036h379l-41 -172h-80l33 -624l416 796h192l41 -796l334 624h-96l41 172h379l-41 -172h-90l-482 -880h-196l-37 794h-4l-414 -794h-197l-74 880h-104z" />
    <glyph glyph-name="x" unicode="x" horiz-adv-x="1137" 
d="M626 172h75l-146 238l-237 -238h64l-38 -172h-379l39 172h85l389 365l-227 327h-108l41 172h379l-41 -172h-66l137 -222l225 222h-73l41 172h379l-41 -172h-74l-374 -341l234 -351h95l-39 -172h-379z" />
    <glyph glyph-name="y" unicode="y" horiz-adv-x="1165" 
d="M148 1036h379l-41 -172h-79l61 -639l408 639h-85l41 172h379l-41 -172h-87l-741 -1163h101l-43 -172h-410l43 172h101l185 290l-114 873h-98z" />
    <glyph glyph-name="z" unicode="z" horiz-adv-x="995" 
d="M10 117l718 760h-337l-35 -148h-197l72 307h790l-26 -121l-714 -755h366l41 178h196l-78 -338h-821z" />
    <glyph glyph-name="braceleft" unicode="{" horiz-adv-x="713" 
d="M643 1700h145l-29 -127h-65q-55 0 -87.5 -49t-54.5 -144q-22 -94 -41.5 -180t-36.5 -161q-29 -129 -93.5 -202.5t-145.5 -101.5q-1 -1 -1 -2t-1 -2q150 -63 100 -291q-20 -88 -40 -174t-41 -179t-15 -123q9 -43 24 -56.5t45 -13.5h66l-28 -127h-123q-99 0 -146.5 72
t-19.5 192l86 372q35 149 -8 208t-99 59l31 127q106 0 158.5 97t70.5 169q75 326 88 381q27 113 106 184.5t155 71.5z" />
    <glyph glyph-name="bar" unicode="|" horiz-adv-x="519" 
d="M393 1726h176l-461 -1996h-176z" />
    <glyph glyph-name="braceright" unicode="}" horiz-adv-x="734" 
d="M24 -106q55 0 88 49.5t54 142.5q22 94 42 180t37 160q55 242 238 305q1 1 1 2t1 2q-155 62 -95 310q82 342 87.5 396t-3 93t-51.5 39h-77l28 127h120q86 0 131.5 -54t45.5 -145q0 -22 -26 -139l-68 -299q-36 -150 9 -208t98 -58l-31 -127q-106 0 -158.5 -97.5
t-67.5 -156.5q-14 -60 -45.5 -200t-45.5 -194q-28 -113 -106.5 -184t-154.5 -71h-145l29 127h65z" />
    <glyph glyph-name="asciitilde" unicode="~" horiz-adv-x="1229" 
d="M397 659q83 0 190 -49t158 -71.5t89 -22.5q88 0 180 152l73 -115q-45 -84 -105.5 -130t-150.5 -46t-238.5 71.5t-197.5 71.5q-89 0 -180 -151l-74 114q94 176 256 176z" />
    <glyph glyph-name="NOBREAKSPACE" unicode="&#xa0;" horiz-adv-x="369" 
 />
    <glyph glyph-name="exclamdown" unicode="&#xa1;" horiz-adv-x="850" 
d="M346 936.5q0 54.5 39.5 92.5t79.5 38q41 0 65 -10.5t41.5 -28t28 -41.5t10.5 -64.5t-38.5 -81t-79.5 -40.5t-65 11t-52.5 40.5t-28.5 84zM294 -528h-260l312 1167h178z" />
    <glyph glyph-name="cent" unicode="&#xa2;" horiz-adv-x="1135" 
d="M674 891q-40 0 -80 -13t-103 -53t-119.5 -138.5t-56.5 -233.5q0 -136 77.5 -217.5t176.5 -81.5t161 30.5t117 100.5l146 -109q-134 -190 -395 -201l-50 -217h-196l57 245q-193 73 -248 209.5t-55 254.5t51 231.5t172 233t324 133.5l57 246h197l-62 -268q124 -42 199 -140
h125l-29 -172h-209q-47 118 -132 139t-125 21z" />
    <glyph glyph-name="sterling" unicode="&#xa3;" horiz-adv-x="1006" 
d="M276 985q0 88 36 207.5t151.5 190.5t260.5 71q144 0 223 -102t38 -252l-166 -10q17 82 -12 141t-99 59q-127 0 -182.5 -83.5t-52.5 -202.5q4 -119 12 -201h278l-32 -146h-235q7 -98 7 -151q0 -99 -56.5 -187.5t-159.5 -150.5h483l-39 -168h-799l39 168h110
q201 102 221 240t18.5 169.5t-10.5 79.5h-253l33 146h199q-13 94 -13 182z" />
    <glyph glyph-name="currency" unicode="&#xa4;" horiz-adv-x="1305" 
d="M411 704q0 -105 61.5 -171t144.5 -66q151 0 260.5 100.5t109.5 233.5q0 96 -62 161.5t-146 65.5q-83 0 -146 -27t-112.5 -72.5t-79.5 -106t-30 -118.5zM235 680q0 200 155 351l-126 177l143 117l133 -190q118 57 237.5 57t217.5 -68l190 166l113 -131l-188 -166
q47 -86 47 -186q0 -191 -144 -339l121 -169l-147 -113l-123 172q-124 -63 -249 -63t-221 69l-206 -180l-113 133l205 179q-45 86 -45 184z" />
    <glyph glyph-name="yen" unicode="&#xa5;" horiz-adv-x="1384" 
d="M217 1516h491l-39 -173h-122l175 -473l411 473h-122l39 173h492l-39 -173h-123l-442 -495h163l-32 -141h-271l-34 -148h270l-33 -141h-270l-57 -246h141l-39 -172h-492l39 172h141l57 246h-270l33 141h270l33 148h-268l33 141h170l-197 495h-147z" />
    <glyph glyph-name="brokenbar" unicode="&#xa6;" horiz-adv-x="647" 
d="M135 481h176l-172 -749h-176zM423 1729h177l-175 -750h-176z" />
    <glyph glyph-name="section" unicode="&#xa7;" horiz-adv-x="1202" 
d="M362 426q53 -31 125 -59l58 -23q138 4 217.5 71.5t79.5 172.5q0 73 -42 106t-112 61l-50 17q-155 -4 -242 -68t-87 -155q0 -92 53 -123zM375 -291q71 0 136.5 29t100.5 92.5t35 115.5q0 86 -43.5 127t-112.5 66l-149 54q-240 85 -240 333q0 131 70.5 225t201.5 146
q-87 98 -87 240q0 186 130 298.5t349 112.5q218 0 297.5 -81t92.5 -154h89l-39 -166h-250l8 36q8 51 -30 119t-169 68q-130 0 -200 -57.5t-70 -148.5q0 -92 61.5 -125t88.5 -44l158 -61q254 -99 254 -322q0 -90 -32.5 -171.5t-91.5 -136t-157 -92.5q86 -90 86 -212
q0 -225 -144 -349t-368 -124q-109 0 -200.5 38.5t-132.5 108.5t-45 136h-93l37 165h260l-7 -37q-31 -151 52 -190t154 -39z" />
    <glyph glyph-name="dieresis" unicode="&#xa8;" horiz-adv-x="1039" 
d="M621 1360q0 52 38.5 90.5t76.5 38.5q62 0 100.5 -38t38.5 -78q0 -67 -37.5 -106.5t-75.5 -39.5t-61.5 10.5t-51.5 40.5t-28 82zM162 1360q0 52 39 90.5t77 38.5q64 0 101 -38.5t37 -77.5q0 -66 -36.5 -106t-75.5 -40t-62.5 10.5t-51.5 40.5t-28 82z" />
    <glyph glyph-name="copyright" unicode="&#xa9;" horiz-adv-x="1919" 
d="M1190 1059q-92 88 -216 88t-213 -92.5t-89 -220t89 -218t218 -90.5q56 0 108.5 22.5t83.5 57.5l134 -129q-74 -97 -176.5 -121t-178.5 -24t-167.5 39t-198.5 146t-107 316t146 356.5t351 147.5t357 -147zM283 830q0 -141 52.5 -264.5t144 -215t214.5 -144t264 -52.5
t263.5 52.5t215 144t145 215t52.5 264.5t-52.5 270.5t-145 215.5t-215 138.5t-263.5 52.5t-264 -52.5t-214.5 -138.5t-144 -215.5t-52.5 -270.5zM102 830q0 233 115 429.5t311 311.5t430 115q233 0 430.5 -114.5t313 -311t115.5 -430.5t-115.5 -430t-313 -310.5
t-430.5 -114.5t-429.5 115t-311.5 311t-115 429z" />
    <glyph glyph-name="ordfeminine" unicode="&#xaa;" horiz-adv-x="834" 
d="M376 954q116 0 189 67l31 136h-156q-119 0 -148.5 -46.5t-29.5 -80.5t30 -55t84 -21zM540 908q-86 -70 -191 -70t-169 52.5t-64 124.5q0 130 101.5 187.5t213.5 57.5t185 -15l12 49q16 67 -20 98t-130 31t-190 -47l-26 97q129 77 291 77t196.5 -69t34.5 -107t-81 -387h81
l-29 -131h-227z" />
    <glyph glyph-name="guillemotleft" unicode="&#xab;" horiz-adv-x="981" 
d="M249 545l131 -373h-186l-139 395l319 391h197zM673 545l131 -373h-186l-139 395l319 391h197z" />
    <glyph glyph-name="logicalnot" unicode="&#xac;" horiz-adv-x="1382" 
d="M1273 999l-131 -567h-188l92 395h-905l39 172h1093z" />
    <glyph glyph-name="SOFTHYPHEN" unicode="&#xad;" horiz-adv-x="0" 
 />
    <glyph glyph-name="registered" unicode="&#xae;" horiz-adv-x="1919" 
d="M985 928q162 0 162 130t-170 130h-135v-260h143zM555 518h98v670h-102v158h483q144 0 231 -78.5t87 -206.5q0 -165 -160 -235q68 -37 92 -140l41 -168h82l2 -158h-256l-51 254q-26 158 -193 158h-67v-254h92v-158h-379v158zM283 830q0 -141 52.5 -264.5t144 -215
t214.5 -144t264 -52.5t263.5 52.5t215 144t145 215t52.5 241.5t-52.5 270.5t-145 238.5t-215 138.5t-263.5 52.5t-264 -52.5t-214.5 -138.5t-144 -215.5t-52.5 -270.5zM102 830q0 233 115 429.5t311 311.5t430 115q233 0 430.5 -114.5t313 -311t115.5 -430.5t-115.5 -430
t-313 -310.5t-430.5 -114.5t-429.5 115t-311.5 311t-115 429z" />
    <glyph glyph-name="macron" unicode="&#xaf;" horiz-adv-x="922" 
d="M864 1229h-743l26 117h744z" />
    <glyph glyph-name="degree" unicode="&#xb0;" horiz-adv-x="682" 
d="M205 1497q0 -28 10.5 -52.5t29 -43t43 -29t52.5 -10.5t52.5 10.5t43.5 29t30 43t11 52.5t-11 52.5t-30 43.5t-43.5 30t-52.5 11t-52.5 -11t-43 -30t-29 -43.5t-10.5 -52.5zM340 1737q49 0 92.5 -19t76.5 -52t52 -76.5t19 -92.5t-19 -92t-52 -75.5t-76.5 -51t-92.5 -18.5
t-92.5 18.5t-75.5 51t-51 75.5t-19 92t19 92.5t51 76.5t75.5 52t92.5 19z" />
    <glyph glyph-name="plusminus" unicode="&#xb1;" horiz-adv-x="1105" 
d="M-57 172h1024l-39 -172h-1024zM86 771h419l78 344h183l-78 -344h422l-43 -182h-421l-88 -354h-182l87 354h-420z" />
    <glyph glyph-name="twosuperior" unicode="&#xb2;" horiz-adv-x="609" 
d="M452 1382q0 28 -26 52t-76 24t-87.5 -30t-50.5 -78h-124q24 104 100 166.5t173 62.5t162.5 -55t65.5 -122t-22.5 -114.5t-83.5 -99.5l-278 -225h284l-29 -121h-487l22 102l338 277q92 71 105.5 102t13.5 59z" />
    <glyph glyph-name="threesuperior" unicode="&#xb3;" horiz-adv-x="622" 
d="M467 1374q0 40 -27 65.5t-74 25.5q-110 0 -137 -98h-137q9 52 71.5 134.5t204.5 82.5t186 -71.5t44 -123.5q0 -117 -131 -171q75 -41 75 -116t-36 -136t-107.5 -96.5t-143.5 -35.5t-156.5 37t-84.5 183h133q0 -99 107 -99q63 0 107 34t44 89q0 86 -106 86h-58l25 107h55
q64 0 105 31.5t41 71.5z" />
    <glyph glyph-name="acute" unicode="&#xb4;" horiz-adv-x="645" 
d="M537 1477v-17l-299 -282h-154l213 299h240z" />
    <glyph glyph-name="mu" unicode="&#xb5;" 
d="M425 -18q-115 0 -197 51l-116 -504h-201l349 1507h200l-135 -583q-81 -297 180 -303q101 0 161 55t85 94l172 737h201l-200 -864h202l-39 -172h-395l23 105q-116 -123 -290 -123z" />
    <glyph glyph-name="paragraph" unicode="&#xb6;" horiz-adv-x="1343" 
d="M178 1051q0 91 44 181.5t166 187t392 96.5h618l-41 -173h-94l-395 -1712h-187l395 1712h-223l-395 -1712h-186l247 1071q-156 12 -248.5 100.5t-92.5 248.5z" />
    <glyph glyph-name="periodcentered" unicode="&#xb7;" horiz-adv-x="612" 
d="M223 670q1 52 39 92q38 38 78 38q66 0 104 -38t39 -78q0 -65 -38 -106q-38 -40 -78 -40t-64 10q-23 10 -41 30q-38 40 -39 92z" />
    <glyph glyph-name="cedilla" unicode="&#xb8;" horiz-adv-x="940" 
d="M182 -303q104 2 174.5 65.5t87.5 159.5l150 -45q-36 -144 -145.5 -226.5t-255.5 -82.5z" />
    <glyph glyph-name="onesuperior" unicode="&#xb9;" horiz-adv-x="486" 
d="M100 956h84l103 436l-161 -75l35 143l244 119h61l-142 -623h81l-26 -116h-304z" />
    <glyph glyph-name="ordmasculine" unicode="&#xba;" horiz-adv-x="772" 
d="M281.5 1033.5q50.5 -52.5 113.5 -52.5q121 0 199.5 78.5t78.5 200.5t-70.5 149t-114.5 27t-92.5 -19t-106.5 -75.5t-58 -155.5q0 -100 50.5 -152.5zM75 1168q0 76 35 152.5t128.5 163.5t268.5 87q138 0 229 -87t91 -212q0 -185 -123 -304.5t-309 -119.5
q-137 0 -228.5 90.5t-91.5 229.5z" />
    <glyph glyph-name="guillemotright" unicode="&#xbb;" horiz-adv-x="981" 
d="M759 586l-131 372h187l139 -395l-320 -391h-196zM335 586l-131 372h187l139 -395l-320 -391h-196z" />
    <glyph glyph-name="onequarter" unicode="&#xbc;" horiz-adv-x="2058" 
d="M223 896h84l103 436l-161 -75l35 143l244 119h61l-142 -623h81l-26 -116h-304zM1716 1577h220l-1635 -1638h-219zM1169 303l387 457h148l-379 -455h182l39 164h135l-39 -164h113l-25 -110h-112l-46 -195h-135l45 195h-336z" />
    <glyph glyph-name="onehalf" unicode="&#xbd;" horiz-adv-x="1956" 
d="M223 896h84l103 436l-161 -75l35 143l244 119h61l-142 -623h81l-26 -116h-304zM1716 1577h220l-1635 -1638h-219zM1643 538q-1 32 -21 54q-20 20 -65 20t-80 -28t-45 -72h-156q23 110 109 175t188 65t166 -53q65 -53 65 -141t-44 -138q-18 -20 -46 -43l-282 -236h274
l-33 -141h-503l28 121l338 276q107 79 107 141z" />
    <glyph glyph-name="threequarters" unicode="&#xbe;" horiz-adv-x="2214" 
d="M1736 1577h220l-1635 -1638h-219zM1190 303l387 457h148l-379 -455h182l39 164h135l-39 -164h113l-25 -110h-112l-46 -195h-135l45 195h-336zM479 1328q0 40 -27 66t-74 25q-110 0 -137 -98h-137q9 51 51 107q83 110 225 110t202 -97q28 -46 28 -98q0 -117 -131 -171
q75 -41 75 -116t-36 -136q-36 -60 -108 -96t-143 -36q-72 0 -127 24q-114 50 -114 196h133q0 -99 107 -99q63 0 107 34t44 89q0 86 -106 86h-58l25 107h55q64 0 105 31q41 32 41 72z" />
    <glyph glyph-name="questiondown" unicode="&#xbf;" horiz-adv-x="1000" 
d="M810 931.5q0 -54.5 -39.5 -92.5t-79.5 -38q-41 0 -65 10.5t-41.5 28t-28 41.5t-10.5 64.5t38.5 81t79.5 40.5t65 -11t52.5 -40.5t28.5 -84zM198.5 -292q55.5 -50 129.5 -50q127 0 200 66.5t100 175.5l207 -19q-46 -189 -183 -301t-323 -112t-291.5 102t-105.5 237
q0 197 114.5 290t206 146t138 88t81.5 99.5t64 192.5h199q-40 -201 -92.5 -280t-109 -120.5t-116.5 -79.5t-113.5 -73t-107 -87.5t-53.5 -138.5t55.5 -136z" />
    <glyph glyph-name="Agrave" unicode="&#xc0;" horiz-adv-x="1458" 
d="M531 686h459l-75 688zM919 172h127l-37 342h-574l-191 -342h136l-38 -172h-492l39 172h131l760 1344h323l158 -1344h150l-39 -172h-492zM542 1956h248l184 -299h-145l-287 282v17z" />
    <glyph glyph-name="Aacute" unicode="&#xc1;" horiz-adv-x="1458" 
d="M531 686h459l-75 688zM919 172h127l-37 342h-574l-191 -342h136l-38 -172h-492l39 172h131l760 1344h323l158 -1344h150l-39 -172h-492zM1268 1956v-17l-299 -282h-154l213 299h240z" />
    <glyph glyph-name="Acircumflex" unicode="&#xc2;" horiz-adv-x="1458" 
d="M531 686h459l-75 688zM919 172h127l-37 342h-574l-191 -342h136l-38 -172h-492l39 172h131l760 1344h323l158 -1344h150l-39 -172h-492zM672 1650l297 273h111l151 -273h-170l-64 125l-119 -125h-206z" />
    <glyph glyph-name="Atilde" unicode="&#xc3;" horiz-adv-x="1458" 
d="M531 686h459l-75 688zM919 172h127l-37 342h-574l-191 -342h136l-38 -172h-492l39 172h131l760 1344h323l158 -1344h150l-39 -172h-492zM861 1755q-88 0 -108 -78l-109 53q45 164 225 164q71 0 155 -52q82 -52 126 -52q78 0 96 80l119 -35q-20 -85 -78 -131
q-59 -46 -127 -47t-107 15t-71 34t-60 34t-61 15z" />
    <glyph glyph-name="Adieresis" unicode="&#xc4;" horiz-adv-x="1458" 
d="M531 686h459l-75 688zM919 172h127l-37 342h-574l-191 -342h136l-38 -172h-492l39 172h131l760 1344h323l158 -1344h150l-39 -172h-492zM1084 1838q0 52 38 92q38 38 78 38q62 0 100 -38t38 -78q0 -66 -38 -106q-37 -40 -75 -40q-37 0 -61 10t-42 30q-38 40 -38 92z
M625 1838q1 52 39 92q38 38 76 38q64 0 102 -38q37 -38 37 -78q0 -66 -37 -106t-75 -40q-39 0 -63 10t-40 30q-38 40 -39 92z" />
    <glyph glyph-name="Aring" unicode="&#xc5;" horiz-adv-x="1456" 
d="M842 1638q0 -41 31.5 -72.5t72.5 -31.5t73 31.5t32 72.5t-32 73t-73 32t-72.5 -32t-31.5 -73zM530 686h461l-76 688zM754 1470q-64 77 -64 175t76.5 173.5t180.5 75.5t179.5 -75.5t75.5 -186.5t-90 -188l150 -1272h149l-39 -172h-491l39 172h127l-37 342h-576l-190 -342
h137l-39 -172h-492l39 172h131z" />
    <glyph glyph-name="AE" unicode="&#xc6;" horiz-adv-x="1991" 
d="M942 686l148 642l-473 -642h325zM-132 172h127l990 1344h1101l-100 -433h-207l62 260h-541l-111 -485h447l-43 -172h-443l-118 -514h534l62 262h209l-101 -434h-1085l39 172h133l79 342h-412l-252 -342h122l-39 -172h-491z" />
    <glyph glyph-name="Ccedilla" unicode="&#xc7;" horiz-adv-x="1468" 
d="M75 655q0 247 112 451t308 321t438 117q171 0 303 -68t217 -190h156l-41 -172h-276q-71 164 -252 215q-60 17 -129 17q-261 0 -436 -197q-176 -197 -176 -477q0 -223 128 -360q128 -138 308 -138q293 0 467 250l192 -102q-245 -347 -682 -347q-274 0 -455 194
q-182 195 -182 486zM551 -303q104 2 174 65q71 63 88 160l150 -45q-36 -144 -145 -226q-110 -83 -256 -83z" />
    <glyph glyph-name="Egrave" unicode="&#xc8;" horiz-adv-x="1415" 
d="M411 1516h1100l-100 -433h-207l61 260h-540l-111 -485h446l-43 -172h-442l-118 -514h534l61 262h209l-100 -434h-1086l39 172h134l270 1171h-148zM589 1957h248l184 -299h-145l-287 282v17z" />
    <glyph glyph-name="Eacute" unicode="&#xc9;" horiz-adv-x="1415" 
d="M411 1516h1100l-100 -433h-207l61 260h-540l-111 -485h446l-43 -172h-442l-118 -514h534l61 262h209l-100 -434h-1086l39 172h134l270 1171h-148zM1315 1957v-17l-299 -282h-154l213 299h240z" />
    <glyph glyph-name="Ecircumflex" unicode="&#xca;" horiz-adv-x="1415" 
d="M411 1516h1100l-100 -433h-207l61 260h-540l-111 -485h446l-43 -172h-442l-118 -514h534l61 262h209l-100 -434h-1086l39 172h134l270 1171h-148zM753 1651l297 273h111l151 -273h-170l-64 125l-119 -125h-206z" />
    <glyph glyph-name="Edieresis" unicode="&#xcb;" horiz-adv-x="1415" 
d="M411 1516h1100l-100 -433h-207l61 260h-540l-111 -485h446l-43 -172h-442l-118 -514h534l61 262h209l-100 -434h-1086l39 172h134l270 1171h-148zM1131 1840q1 52 39 90t76 39q62 0 101 -38q38 -38 38 -78q1 -67 -37 -107q-37 -40 -76 -39q-38 1 -62 11t-40 28
q-38 42 -39 94zM672 1840q0 52 38 90t78 39q64 0 101 -38t37 -78q0 -66 -37 -106t-75 -40q-38 1 -62 11t-42 28q-38 42 -38 94z" />
    <glyph glyph-name="Igrave" unicode="&#xcc;" horiz-adv-x="883" 
d="M425 1516h492l-41 -173h-141l-268 -1171h139l-39 -172h-492l39 172h144l270 1171h-143zM325 1957h248l184 -299h-145l-287 282v17z" />
    <glyph glyph-name="Iacute" unicode="&#xcd;" horiz-adv-x="883" 
d="M425 1516h492l-41 -173h-141l-268 -1171h139l-39 -172h-492l39 172h144l270 1171h-143zM1067 1957v-17l-299 -282h-154l213 299h240z" />
    <glyph glyph-name="Icircumflex" unicode="&#xce;" horiz-adv-x="883" 
d="M425 1516h492l-41 -173h-141l-268 -1171h139l-39 -172h-492l39 172h144l270 1171h-143zM446 1651l267 273h112l120 -273h-160l-44 125l-105 -125h-190z" />
    <glyph glyph-name="Idieresis" unicode="&#xcf;" horiz-adv-x="883" 
d="M425 1516h492l-41 -173h-141l-268 -1171h139l-39 -172h-492l39 172h144l270 1171h-143zM732 1840q0 53 38 91t76 38q67 0 104 -39q36 -39 36 -78q0 -64 -35 -104q-35 -41 -89 -41t-92 40t-38 93zM416 1840q0 53 38 91t77 38q66 0 102 -38q37 -38 37 -78q0 -67 -35 -106
q-35 -40 -89 -40t-92 40t-38 93z" />
    <glyph glyph-name="Eth" unicode="&#xd0;" horiz-adv-x="1561" 
d="M675 172q259 0 421 155.5t200.5 291t38.5 235.5q0 203 -108 346t-279 143h-225l-110 -481h241l-39 -172h-242l-118 -518h220zM974 1516q261 0 420.5 -185t159.5 -449t-117 -462t-324.5 -309t-459.5 -111h-578l39 172h132l119 518h-181l39 172h182l111 481h-131l40 173
h549z" />
    <glyph glyph-name="Ntilde" unicode="&#xd1;" horiz-adv-x="1786" 
d="M1370 1516h491l-39 -173h-136l-308 -1343h-262l-413 1255l-249 -1083h152l-39 -172h-492l39 172h133l271 1171h-150l41 173h416l408 -1246l246 1073h-148zM1057 1756q-88 0 -108 -78l-109 53q45 164 225 164q71 -1 155 -53q82 -52 126 -51q78 0 96 80l119 -35
q-20 -86 -78 -132q-59 -46 -127 -46t-107 16t-71 33t-60 33t-61 16z" />
    <glyph glyph-name="Ograve" unicode="&#xd2;" horiz-adv-x="1577" 
d="M730 172q262 0 440 200q176 199 177 492q0 215 -122 346t-314 131q-124 0 -235 -50q-111 -49 -195 -139q-182 -194 -182 -480q0 -215 123 -357q123 -143 308 -143zM708 -31q-124 0 -240 49q-116 48 -202 138q-190 195 -191 499q0 254 115 458t313 318q197 113 447 113
t435 -180t185 -483q0 -263 -114 -475q-168 -312 -512 -406q-112 -30 -236 -31zM569 1997h248l184 -299h-145l-287 282v17z" />
    <glyph glyph-name="Oacute" unicode="&#xd3;" horiz-adv-x="1577" 
d="M730 172q262 0 440 200q176 199 177 492q0 215 -122 346t-314 131q-124 0 -235 -50q-111 -49 -195 -139q-182 -194 -182 -480q0 -215 123 -357q123 -143 308 -143zM708 -31q-124 0 -240 49q-116 48 -202 138q-190 195 -191 499q0 254 115 458t313 318q197 113 447 113
t435 -180t185 -483q0 -263 -114 -475q-168 -312 -512 -406q-112 -30 -236 -31zM1295 1997v-17l-299 -282h-154l213 299h240z" />
    <glyph glyph-name="Ocircumflex" unicode="&#xd4;" horiz-adv-x="1577" 
d="M730 172q262 0 440 200q176 199 177 492q0 215 -122 346t-314 131q-124 0 -235 -50q-111 -49 -195 -139q-182 -194 -182 -480q0 -215 123 -357q123 -143 308 -143zM708 -31q-124 0 -240 49q-116 48 -202 138q-190 195 -191 499q0 254 115 458t313 318q197 113 447 113
t435 -180t185 -483q0 -263 -114 -475q-168 -312 -512 -406q-112 -30 -236 -31zM733 1691l297 273h111l151 -273h-170l-64 125l-119 -125h-206z" />
    <glyph glyph-name="Otilde" unicode="&#xd5;" horiz-adv-x="1577" 
d="M730 172q262 0 440 200q176 199 177 492q0 215 -122 346t-314 131q-124 0 -235 -50q-111 -49 -195 -139q-182 -194 -182 -480q0 -215 123 -357q123 -143 308 -143zM708 -31q-124 0 -240 49q-116 48 -202 138q-190 195 -191 499q0 254 115 458t313 318q197 113 447 113
t435 -180t185 -483q0 -263 -114 -475q-168 -312 -512 -406q-112 -30 -236 -31zM887 1796q-88 0 -108 -78l-109 53q45 164 225 164q71 -1 155 -53q82 -52 126 -51q78 0 96 80l119 -35q-20 -86 -78 -132q-59 -46 -127 -46t-107 16t-71 33t-60 33t-61 16z" />
    <glyph glyph-name="Odieresis" unicode="&#xd6;" horiz-adv-x="1577" 
d="M730 172q262 0 440 200q176 199 177 492q0 215 -122 346t-314 131q-124 0 -235 -50q-111 -49 -195 -139q-182 -194 -182 -480q0 -215 123 -357q123 -143 308 -143zM708 -31q-124 0 -240 49q-116 48 -202 138q-190 195 -191 499q0 254 115 458t313 318q197 113 447 113
t435 -180t185 -483q0 -263 -114 -475q-168 -312 -512 -406q-112 -30 -236 -31zM1110 1880q0 52 38 90t78 39q62 0 100 -38t38 -78q0 -67 -38 -107q-37 -40 -75 -39q-37 1 -61 11t-42 28q-38 42 -38 94zM651 1880q1 52 39 90t76 39q64 0 102 -38q37 -38 37 -78
q0 -66 -37 -106t-75 -40q-39 1 -63 11t-40 28q-38 42 -39 94z" />
    <glyph glyph-name="multiply" unicode="&#xd7;" horiz-adv-x="1221" 
d="M510 702l-256 426l160 117l244 -405l450 422l133 -140l-480 -452l273 -451l-164 -113l-257 425l-459 -431l-134 142z" />
    <glyph glyph-name="Oslash" unicode="&#xd8;" horiz-adv-x="1577" 
d="M730 172q90 0 169.5 24t183 92t184 226.5t80.5 347.5t-98 319l-703 -965q94 -44 184 -44zM896 1341q-110 0 -220.5 -50t-243.5 -191.5t-133 -427.5q0 -199 106 -337l701 963q-100 43 -210 43zM1384 1365q186 -184 186 -465q0 -282 -141.5 -544t-368 -324.5t-366.5 -62.5
t-275 72l-45 -61h-228l124 171q-195 201 -195 504q0 254 115.5 458t312 317.5t430.5 113.5q165 0 301 -71l46 63h228z" />
    <glyph glyph-name="Ugrave" unicode="&#xd9;" horiz-adv-x="1581" 
d="M724 176q174 0 286 106q111 106 169 357l162 704h-152l39 173h492l-39 -173h-133l-166 -722q-147 -646 -676 -646q-225 0 -366 129q-142 129 -138 351q0 79 23 184l162 704h-144l39 173h492l-39 -173h-140l-161 -704q-77 -337 149 -437q59 -26 141 -26zM606 1957h248
l184 -299h-145l-287 282v17z" />
    <glyph glyph-name="Uacute" unicode="&#xda;" horiz-adv-x="1581" 
d="M724 176q174 0 286 106q111 106 169 357l162 704h-152l39 173h492l-39 -173h-133l-166 -722q-147 -646 -676 -646q-225 0 -366 129q-142 129 -138 351q0 79 23 184l162 704h-144l39 173h492l-39 -173h-140l-161 -704q-77 -337 149 -437q59 -26 141 -26zM1347 1957v-17
l-299 -282h-154l213 299h240z" />
    <glyph glyph-name="Ucircumflex" unicode="&#xdb;" horiz-adv-x="1581" 
d="M724 176q174 0 286 106q111 106 169 357l162 704h-152l39 173h492l-39 -173h-133l-166 -722q-147 -646 -676 -646q-225 0 -366 129q-142 129 -138 351q0 79 23 184l162 704h-144l39 173h492l-39 -173h-140l-161 -704q-77 -337 149 -437q59 -26 141 -26zM770 1651l297 273
h111l151 -273h-170l-64 125l-119 -125h-206z" />
    <glyph glyph-name="Udieresis" unicode="&#xdc;" horiz-adv-x="1581" 
d="M724 176q174 0 286 106q111 106 169 357l162 704h-152l39 173h492l-39 -173h-133l-166 -722q-147 -646 -676 -646q-225 0 -366 129q-142 129 -138 351q0 79 23 184l162 704h-144l39 173h492l-39 -173h-140l-161 -704q-77 -337 149 -437q59 -26 141 -26zM1148 1840
q0 52 38 90t78 39q62 0 100 -38t38 -78q0 -67 -38 -107q-37 -40 -75 -39q-37 1 -61 11t-42 28q-38 42 -38 94zM689 1840q1 52 39 90t76 39q64 0 102 -38q37 -38 37 -78q0 -66 -37 -106t-75 -40q-39 1 -63 11t-40 28q-38 42 -39 94z" />
    <glyph glyph-name="Yacute" unicode="&#xdd;" horiz-adv-x="1323" 
d="M214 1516h491l-39 -173h-122l175 -473l411 473h-122l39 173h492l-39 -173h-123l-586 -656l-120 -515h141l-39 -172h-492l39 172h141l120 519l-259 652h-147zM1197 1957v-17l-299 -282h-154l213 299h240z" />
    <glyph glyph-name="Thorn" unicode="&#xde;" horiz-adv-x="1320" 
d="M847 559q142 0 233 75t91 214q0 85 -57 136.5t-181 51.5h-268l-109 -477h291zM976 1208q181 0 293.5 -92.5t112.5 -251.5q0 -211 -150 -344t-399 -133h-317l-49 -215h139l-39 -172h-492l39 172h144l270 1171h-143l40 173h492l-41 -173h-141l-31 -135h272z" />
    <glyph glyph-name="germandbls" unicode="&#xdf;" horiz-adv-x="1348" 
d="M674 174q58 0 129 27.5t160 107t89 234.5q0 113 -73 184.5t-175 71.5h-80l44 186h75q95 0 165.5 62t70.5 159q0 127 -75.5 156t-122.5 29q-93 0 -167 -65t-98 -169l-266 -1157h-398l39 172h195l233 1008q42 186 168.5 291.5t305.5 105.5t283 -102.5t104 -261.5
t-79 -228.5t-112 -93.5q164 -130 164 -328q0 -252 -179 -411.5t-440 -159.5q-54 0 -94 6l43 184q33 -8 91 -8z" />
    <glyph glyph-name="agrave" unicode="&#xe0;" horiz-adv-x="1307" 
d="M955 811q-63 80 -226 80t-291 -128q-127 -128 -127 -337q0 -126 67 -199t176 -73q149 0 272 103zM104 389q0 302 187 488t454 186q154 0 249 -81l13 54h201l-200 -864h161l-39 -172h-363l16 70q-131 -88 -287 -88t-274 123q-118 122 -118 284zM407 1477h248l184 -299
h-145l-287 282v17z" />
    <glyph glyph-name="aacute" unicode="&#xe1;" horiz-adv-x="1307" 
d="M955 811q-63 80 -226 80t-291 -128q-127 -128 -127 -337q0 -126 67 -199t176 -73q149 0 272 103zM104 389q0 302 187 488t454 186q154 0 249 -81l13 54h201l-200 -864h161l-39 -172h-363l16 70q-131 -88 -287 -88t-274 123q-118 122 -118 284zM1103 1477v-17l-299 -282
h-154l213 299h240z" />
    <glyph glyph-name="acircumflex" unicode="&#xe2;" horiz-adv-x="1307" 
d="M955 811q-63 80 -226 80t-291 -128q-127 -128 -127 -337q0 -126 67 -199t176 -73q149 0 272 103zM104 389q0 302 187 488t454 186q154 0 249 -81l13 54h201l-200 -864h161l-39 -172h-363l16 70q-131 -88 -287 -88t-274 123q-118 122 -118 284zM552 1171l297 273h111
l151 -273h-170l-64 125l-119 -125h-206z" />
    <glyph glyph-name="atilde" unicode="&#xe3;" horiz-adv-x="1307" 
d="M299 426q0 -126 67 -199t176 -73q149 0 272 103l129 554q-63 80 -226 80t-291 -128q-127 -129 -127 -337zM92 389q0 302 187 488t454 186q154 0 249 -81l13 54h201l-200 -864h161l-39 -172h-363l16 70q-131 -88 -287 -88t-274 123q-118 122 -118 284zM645 1276
q-88 0 -108 -78l-109 53q45 164 225 164q71 -1 155 -53q82 -52 126 -51q78 0 96 80l119 -35q-20 -86 -78 -132q-59 -46 -127 -46t-107 16t-71 33t-60 33t-61 16z" />
    <glyph glyph-name="adieresis" unicode="&#xe4;" horiz-adv-x="1307" 
d="M955 811q-63 80 -226 80t-291 -128q-127 -128 -127 -337q0 -126 67 -199t176 -73q149 0 272 103zM104 389q0 302 187 488t454 186q154 0 249 -81l13 54h201l-200 -864h161l-39 -172h-363l16 70q-131 -88 -287 -88t-274 123q-118 122 -118 284zM910 1360q0 52 38 90t78 39
q62 0 100 -38t38 -78q0 -67 -38 -107q-37 -40 -75 -39q-37 1 -61 11t-42 28q-38 42 -38 94zM451 1360q1 52 39 90t76 39q64 0 102 -38q37 -38 37 -78q0 -66 -37 -106t-75 -40q-39 1 -63 11t-40 28q-38 42 -39 94z" />
    <glyph glyph-name="aring" unicode="&#xe5;" horiz-adv-x="1307" 
d="M299 426q0 -126 67 -199t176 -73q149 0 272 103l129 554q-63 80 -226 80t-291 -128q-127 -129 -127 -337zM92 389q0 302 187 488t454 186q154 0 249 -81l13 54h201l-200 -864h161l-39 -172h-363l16 70q-131 -88 -287 -88t-274 123q-118 122 -118 284zM817 1598
q52 0 99 -20q48 -20 82 -56q34 -34 54 -81t21 -99q-1 -52 -21 -98t-54 -82t-82 -56q-47 -20 -99 -20q-53 0 -99 20t-81 56t-55 82t-21 98q1 52 21 99t55 81t81 56q46 20 99 20zM713 1342q1 -22 9 -40t22 -32t34 -24q18 -8 39 -8t40 8t33 24q14 14 24 32q8 18 8 40
q0 21 -8 40q-8 20 -24 34q-14 14 -33 22t-40 9q-21 -1 -39 -9t-34 -22q-14 -14 -22 -34q-8 -19 -9 -40z" />
    <glyph glyph-name="ae" unicode="&#xe6;" horiz-adv-x="1755" 
d="M1275 897q-114 0 -203.5 -70t-133.5 -182h590q3 185 -96 218.5t-157 33.5zM703 414q0 46 1 63h-230q-124 0 -207.5 -55t-83.5 -139q0 -156 172 -156q213 0 364 178q-16 63 -16 109zM1164 -31q-129 0 -233.5 56t-164.5 161q-115 -156 -240.5 -185.5t-193.5 -29.5
q-149 0 -243.5 69.5t-94.5 205.5q0 253 196 306.5t322 53.5t205 -21l23 95q38 160 -43 187.5t-129 27.5q-87 0 -173 -22t-141 -54l-30 129q133 76 240.5 93.5t156.5 17.5q224 0 290 -139q166 147 392 147q188 0 303 -117t115 -280q0 -90 -19 -187h-796q-2 -28 -2 -67
t20.5 -93t77 -116t176.5 -62q173 0 275 127l147 -108q-105 -139 -237.5 -167t-198.5 -28z" />
    <glyph glyph-name="ccedilla" unicode="&#xe7;" horiz-adv-x="1135" 
d="M921 731q-64 160 -266 160q-49 -1 -111 -29t-116 -83q-124 -127 -124 -318q0 -144 78 -225q78 -82 177 -82q100 0 161 30q62 30 117 101l145 -109q-143 -201 -416 -201q-204 0 -337 137q-134 137 -134 337q0 135 51 249t134 196q84 82 188 128t211 45q229 0 354 -164h125
l-28 -172h-209zM307 -303q104 2 174 65q71 63 88 160l150 -45q-36 -144 -145 -226q-110 -83 -256 -83z" />
    <glyph glyph-name="egrave" unicode="&#xe8;" horiz-adv-x="1171" 
d="M686 897q-115 0 -204 -70t-132 -182h590q3 185 -148 236q-48 16 -106 16zM1012 164q-146 -195 -452 -195q-82 0 -166 32t-146 93q-134 130 -133 350q0 260 173 442q173 181 427 181q188 0 303 -117t115 -280q0 -90 -19 -187h-796q-3 -42 -3 -74q1 -32 21 -86
q20 -53 56 -93q78 -85 198 -85q174 0 274 127zM323 1477h248l184 -299h-145l-287 282v17z" />
    <glyph glyph-name="eacute" unicode="&#xe9;" horiz-adv-x="1171" 
d="M686 897q-115 0 -204 -70t-132 -182h590q3 185 -148 236q-48 16 -106 16zM1012 164q-146 -195 -452 -195q-82 0 -166 32t-146 93q-134 130 -133 350q0 260 173 442q173 181 427 181q188 0 303 -117t115 -280q0 -90 -19 -187h-796q-3 -42 -3 -74q1 -32 21 -86
q20 -53 56 -93q78 -85 198 -85q174 0 274 127zM1049 1477v-17l-299 -282h-154l213 299h240z" />
    <glyph glyph-name="ecircumflex" unicode="&#xea;" horiz-adv-x="1171" 
d="M686 897q-115 0 -204 -70t-132 -182h590q3 185 -148 236q-48 16 -106 16zM1012 164q-146 -195 -452 -195q-82 0 -166 32t-146 93q-134 130 -133 350q0 260 173 442q173 181 427 181q188 0 303 -117t115 -280q0 -90 -19 -187h-796q-3 -42 -3 -74q1 -32 21 -86
q20 -53 56 -93q78 -85 198 -85q174 0 274 127zM487 1171l297 273h111l151 -273h-170l-64 125l-119 -125h-206z" />
    <glyph glyph-name="edieresis" unicode="&#xeb;" horiz-adv-x="1171" 
d="M686 897q-115 0 -204 -70t-132 -182h590q3 185 -148 236q-48 16 -106 16zM1012 164q-146 -195 -452 -195q-82 0 -166 32t-146 93q-134 130 -133 350q0 260 173 442q173 181 427 181q188 0 303 -117t115 -280q0 -90 -19 -187h-796q-3 -42 -3 -74q1 -32 21 -86
q20 -53 56 -93q78 -85 198 -85q174 0 274 127zM865 1360q1 52 39 90t76 39q62 0 101 -38q38 -38 38 -78q1 -67 -37 -107q-37 -40 -76 -39q-38 1 -62 11t-40 28q-38 42 -39 94zM406 1360q0 52 38 90t78 39q64 0 101 -38t37 -78q0 -66 -37 -106t-75 -40q-38 1 -62 11t-42 28
q-38 42 -38 94z" />
    <glyph glyph-name="igrave" unicode="&#xec;" horiz-adv-x="725" 
d="M198 1036h387l-200 -864h166l-39 -172h-369l200 864h-186zM125 1477h248l184 -299h-145l-287 282v17z" />
    <glyph glyph-name="iacute" unicode="&#xed;" horiz-adv-x="725" 
d="M198 1036h387l-200 -864h166l-39 -172h-369l200 864h-186zM785 1477v-17l-299 -282h-154l213 299h240z" />
    <glyph glyph-name="icircumflex" unicode="&#xee;" horiz-adv-x="725" 
d="M198 1036h387l-200 -864h166l-39 -172h-369l200 864h-186zM198 1171l267 273h112l120 -273h-160l-44 125l-105 -125h-190z" />
    <glyph glyph-name="idieresis" unicode="&#xef;" horiz-adv-x="725" 
d="M198 1036h387l-200 -864h166l-39 -172h-369l200 864h-186zM517 1360q0 53 38 91q39 38 77 38q67 0 103 -39t36 -78q0 -64 -35 -104q-35 -41 -89 -41t-92 40t-38 93zM201 1360q0 53 38 91t77 38q66 0 102 -38q37 -38 37 -78q0 -67 -35 -106q-35 -40 -89 -40t-92 40t-38 93
z" />
    <glyph glyph-name="eth" unicode="&#xf0;" horiz-adv-x="1251" 
d="M945 568q0 84 -15 133.5t-49.5 94.5t-93.5 70t-132 25t-152.5 -44t-150.5 -142.5t-71 -241.5q0 -215 103.5 -263t173.5 -48t139 30t124 86t89.5 136t34.5 164zM1146 544q0 -83 -47.5 -201.5t-141.5 -205.5t-208 -124.5t-210 -37.5t-184.5 36.5t-185.5 136t-97 301.5
q0 256 175 437t412 181q32 0 59 -3l-69 112l-169 -69l-66 159l143 59l-127 207h244l76 -128l156 64l66 -159l-133 -55l179 -298q84 -141 106 -235t22 -177z" />
    <glyph glyph-name="ntilde" unicode="&#xf1;" horiz-adv-x="1368" 
d="M554 930q150 125 327 125q176 0 260 -101t42 -288l-114 -494h147l-39 -172h-350l149 641q28 118 -18 178t-140 60q-164 0 -297 -127l-173 -752h-203l200 864h-198l41 172h391zM717 1276q-88 0 -108 -78l-109 53q45 164 225 164q71 -1 155 -53q82 -52 126 -51q78 0 96 80
l119 -35q-20 -86 -78 -132q-59 -46 -127 -46t-107 16t-71 33t-60 33t-61 16z" />
    <glyph glyph-name="ograve" unicode="&#xf2;" 
d="M284 475q0 -151 78 -237t217 -86t254 124t115 310q0 137 -80 221t-217 84q-138 1 -250 -119q-53 -56 -85 -136q-32 -79 -32 -161zM75 442q-1 93 21 172t62 148q79 138 218 222q139 83 301 83q205 0 343 -136q137 -136 137 -333q0 -258 -178 -442q-175 -181 -437 -181
q-94 1 -181 37t-151 100t-100 150t-35 180zM335 1477h248l184 -299h-145l-287 282v17z" />
    <glyph glyph-name="oacute" unicode="&#xf3;" 
d="M284 475q0 -151 78 -237t217 -86t254 124t115 310q0 137 -80 221t-217 84q-138 1 -250 -119q-53 -56 -85 -136q-32 -79 -32 -161zM75 442q-1 93 21 172t62 148q79 138 218 222q139 83 301 83q205 0 343 -136q137 -136 137 -333q0 -258 -178 -442q-175 -181 -437 -181
q-94 1 -181 37t-151 100t-100 150t-35 180zM1043 1477v-17l-299 -282h-154l213 299h240z" />
    <glyph glyph-name="ocircumflex" unicode="&#xf4;" 
d="M284 475q0 -151 78 -237t217 -86t254 124t115 310q0 137 -80 221t-217 84q-138 1 -250 -119q-53 -56 -85 -136q-32 -79 -32 -161zM75 442q-1 93 21 172t62 148q79 138 218 222q139 83 301 83q205 0 343 -136q137 -136 137 -333q0 -258 -178 -442q-175 -181 -437 -181
q-94 1 -181 37t-151 100t-100 150t-35 180zM457 1202l297 273h111l151 -273h-170l-64 125l-119 -125h-206z" />
    <glyph glyph-name="otilde" unicode="&#xf5;" 
d="M284 475q0 -151 78 -237t217 -86t254 124t115 310q0 137 -80 221t-217 84q-138 1 -250 -119q-53 -56 -85 -136q-32 -79 -32 -161zM75 442q-1 93 21 172t62 148q79 138 218 222q139 83 301 83q205 0 343 -136q137 -136 137 -333q0 -258 -178 -442q-175 -181 -437 -181
q-94 1 -181 37t-151 100t-100 150t-35 180zM617 1307q-88 0 -108 -78l-109 53q45 164 225 164q71 0 155 -52q82 -52 126 -52q78 0 96 80l119 -35q-20 -85 -78 -131q-59 -46 -127 -47t-107 15t-71 34t-60 34t-61 15z" />
    <glyph glyph-name="odieresis" unicode="&#xf6;" 
d="M284 475q0 -151 78 -237t217 -86t254 124t115 310q0 137 -80 221t-217 84q-138 1 -250 -119q-53 -56 -85 -136q-32 -79 -32 -161zM75 442q-1 93 21 172t62 148q79 138 218 222q139 83 301 83q205 0 343 -136q137 -136 137 -333q0 -258 -178 -442q-175 -181 -437 -181
q-94 1 -181 37t-151 100t-100 150t-35 180zM859 1390q1 52 39 92q38 38 76 38q62 0 101 -38q38 -38 38 -78q1 -66 -37 -106q-37 -40 -76 -40q-38 0 -62 10t-40 30q-38 40 -39 92zM400 1390q0 52 38 92q38 38 78 38q64 0 101 -38t37 -78q0 -66 -37 -106t-75 -40t-62 10
t-42 30q-38 40 -38 92z" />
    <glyph glyph-name="divide" unicode="&#xf7;" horiz-adv-x="1310" 
d="M496 303.5q0 54.5 39.5 92.5t79.5 38q41 0 65 -10.5t41.5 -28t28 -41.5t10.5 -64.5t-38.5 -81t-79.5 -40.5t-65 11t-52.5 40.5t-28.5 84zM650 1089.5q0 54.5 39.5 92.5t79.5 38q41 0 65 -10.5t41.5 -28t28 -41.5t10.5 -64.5t-38.5 -81t-79.5 -40.5t-65 11t-52.5 40.5
t-28.5 84zM225 614l39 172h946l-39 -172h-946z" />
    <glyph glyph-name="oslash" unicode="&#xf8;" 
d="M284 475q0 -82 21 -143l514 515q-62 44 -145 44t-151.5 -31.5t-121.5 -88t-85 -135.5t-32 -161zM557 152q160 0 275.5 124t115.5 310q0 70 -29 142l-522 -524q79 -52 160 -52zM677 1067q158 0 278 -84l151 152h219l-258 -259q90 -117 90 -278q0 -258 -144 -407
t-261 -182.5t-200 -33.5q-166 0 -291 92l-97 -97h-219l209 209q-79 118 -79 270q0 259 178 438.5t424 179.5z" />
    <glyph glyph-name="ugrave" unicode="&#xf9;" horiz-adv-x="1290" 
d="M390 237q40 -87 181 -87t235 148l132 566h-136l41 172h336l-200 -864h155l-39 -172h-348l24 105q-119 -123 -308 -123q-51 0 -111 20t-93 50q-67 64 -91 156q-23 92 12 243l95 413h-140l41 172h340l-123 -526q-43 -186 -3 -273zM345 1477h248l184 -299h-145l-287 282v17z
" />
    <glyph glyph-name="uacute" unicode="&#xfa;" horiz-adv-x="1290" 
d="M390 237q40 -87 181 -87t235 148l132 566h-136l41 172h336l-200 -864h155l-39 -172h-348l24 105q-119 -123 -308 -123q-51 0 -111 20t-93 50q-67 64 -91 156q-23 92 12 243l95 413h-140l41 172h340l-123 -526q-43 -186 -3 -273zM1037 1477v-17l-299 -282h-154l213 299
h240z" />
    <glyph glyph-name="ucircumflex" unicode="&#xfb;" horiz-adv-x="1290" 
d="M390 237q40 -87 181 -87t235 148l132 566h-136l41 172h336l-200 -864h155l-39 -172h-348l24 105q-119 -123 -308 -123q-51 0 -111 20t-93 50q-67 64 -91 156q-23 92 12 243l95 413h-140l41 172h340l-123 -526q-43 -186 -3 -273zM454 1171l297 273h111l151 -273h-170
l-64 125l-119 -125h-206z" />
    <glyph glyph-name="udieresis" unicode="&#xfc;" horiz-adv-x="1290" 
d="M390 237q40 -87 181 -87t235 148l132 566h-136l41 172h336l-200 -864h155l-39 -172h-348l24 105q-119 -123 -308 -123q-51 0 -111 20t-93 50q-67 64 -91 156q-23 92 12 243l95 413h-140l41 172h340l-123 -526q-43 -186 -3 -273zM832 1360q0 52 38 90t78 39q62 0 100 -38
t38 -78q0 -67 -38 -107q-37 -40 -75 -39q-37 1 -61 11t-42 28q-38 42 -38 94zM373 1360q1 52 39 90t76 39q64 0 102 -38q37 -38 37 -78q0 -66 -37 -106t-75 -40q-39 1 -63 11t-40 28q-38 42 -39 94z" />
    <glyph glyph-name="yacute" unicode="&#xfd;" horiz-adv-x="1165" 
d="M148 1036h379l-41 -172h-79l61 -639l408 639h-85l41 172h379l-41 -172h-87l-741 -1163h101l-43 -172h-410l43 172h101l185 290l-114 873h-98zM938 1508v-17l-299 -282h-154l213 299h240z" />
    <glyph glyph-name="thorn" unicode="&#xfe;" horiz-adv-x="1255" 
d="M550 154q164 0 292 128t128 336q0 126 -68 199.5t-178 73.5q-146 0 -274 -107l-126 -548q62 -82 226 -82zM523 -18q-144 0 -239 82l-84 -363h137l-38 -172h-492l39 172h154l388 1683h-194l41 172h393l-135 -585q134 92 291 92t275 -123t118 -284q0 -162 -51 -283
t-138.5 -208t-204 -135t-260.5 -48z" />
    <glyph glyph-name="ydieresis" unicode="&#xff;" horiz-adv-x="1165" 
d="M148 1036h379l-41 -172h-79l61 -639l408 639h-85l41 172h379l-41 -172h-87l-741 -1163h101l-43 -172h-410l43 172h101l185 290l-114 873h-98zM801 1390q1 52 39 92q38 38 76 38q62 0 101 -38q38 -38 38 -78q1 -66 -37 -106q-37 -40 -76 -40q-38 0 -62 10t-40 30
q-38 40 -39 92zM342 1390q0 52 38 92q38 38 78 38q64 0 101 -38t37 -78q0 -66 -37 -106t-75 -40t-62 10t-42 30q-38 40 -38 92z" />
    <glyph glyph-name="Amacron" unicode="&#x100;" horiz-adv-x="1458" 
d="M531 686h459l-75 688zM919 172h127l-37 342h-574l-191 -342h136l-38 -172h-492l39 172h131l760 1344h323l158 -1344h150l-39 -172h-492zM1331 1708h-743l26 117h744z" />
    <glyph glyph-name="amacron" unicode="&#x101;" horiz-adv-x="1307" 
d="M299 426q0 -126 67 -199t176 -73q149 0 272 103l129 554q-63 80 -226 80t-291 -128q-127 -129 -127 -337zM92 389q0 302 187 488t454 186q154 0 249 -81l13 54h201l-200 -864h161l-39 -172h-363l16 70q-131 -88 -287 -88t-274 123q-118 122 -118 284zM1116 1229h-743
l26 117h744z" />
    <glyph glyph-name="Abreve" unicode="&#x102;" horiz-adv-x="1458" 
d="M531 686h459l-75 688zM919 172h127l-37 342h-574l-191 -342h136l-38 -172h-492l39 172h131l760 1344h323l158 -1344h150l-39 -172h-492zM716 1721q-92 92 -84 238h141q3 -91 51 -145t155 -54t171 56t86 143h145q-24 -135 -134 -233q-109 -97 -274 -97t-257 92z" />
    <glyph glyph-name="abreve" unicode="&#x103;" horiz-adv-x="1307" 
d="M299 426q0 -126 67 -199t176 -73q149 0 272 103l129 554q-63 80 -226 80t-291 -128q-127 -129 -127 -337zM92 389q0 302 187 488t454 186q154 0 249 -81l13 54h201l-200 -864h161l-39 -172h-363l16 70q-131 -88 -287 -88t-274 123q-118 122 -118 284zM501 1241
q-92 92 -84 238h141q2 -91 50 -145t156 -54q106 0 170 56t87 143h145q-24 -135 -134 -233q-109 -97 -274 -97t-257 92z" />
    <glyph glyph-name="Aogonek" unicode="&#x104;" horiz-adv-x="1456" 
d="M530 686h461l-76 688zM1015 -471q-148 0 -226 56.5t-78 150.5q0 161 170 264l39 172h127l-37 342h-576l-190 -342h137l-39 -172h-492l39 172h131l760 1344h324l158 -1344h149l-39 -172h-151q-152 -8 -244 -76t-92 -149q0 -41 30.5 -70t97.5 -29t113 23l43 -127
q-69 -43 -154 -43z" />
    <glyph glyph-name="aogonek" unicode="&#x105;" horiz-adv-x="1319" 
d="M954 811q-63 80 -224 80t-290 -127.5t-129 -337.5q0 -129 67.5 -200.5t161.5 -71.5q165 0 287 102zM754 1063q140 0 241 -82l13 55h200l-200 -864h161l-39 -172h-100q-95 -4 -177.5 -77.5t-82.5 -147.5q0 -41 30.5 -70t96.5 -29t115 23l43 -127q-73 -43 -156 -43
q-145 0 -224 56.5t-79 151.5q0 159 172 263l16 70q-131 -88 -289 -88t-274.5 124t-116.5 285q0 160 51.5 281t138.5 208t203.5 135t256.5 48z" />
    <glyph glyph-name="Cacute" unicode="&#x106;" horiz-adv-x="1468" 
d="M75 655q0 247 112 451t308 321t438 117q171 0 303 -68t217 -190h156l-41 -172h-276q-71 164 -252 215q-60 17 -129 17q-261 0 -436 -197q-176 -197 -176 -477q0 -223 128 -360q128 -138 308 -138q293 0 467 250l192 -102q-245 -347 -682 -347q-274 0 -455 194
q-182 195 -182 486zM1237 1874v-17l-299 -282h-154l213 299h240z" />
    <glyph glyph-name="cacute" unicode="&#x107;" horiz-adv-x="1135" 
d="M921 731q-64 160 -266 160q-49 -1 -111 -29t-116 -83q-124 -127 -124 -318q0 -144 78 -225q78 -82 177 -82q100 0 161 30q62 30 117 101l145 -109q-143 -201 -416 -201q-204 0 -337 137q-134 137 -134 337q0 135 51 249t134 196q84 82 188 128t211 45q229 0 354 -164h125
l-28 -172h-209zM1057 1508v-17l-299 -282h-154l213 299h240z" />
    <glyph glyph-name="Ccaron" unicode="&#x10c;" horiz-adv-x="1468" 
d="M75 655q0 247 112 451t308 321t438 117q171 0 303 -68t217 -190h156l-41 -172h-276q-71 164 -252 215q-60 17 -129 17q-261 0 -436 -197q-176 -197 -176 -477q0 -223 128 -360q128 -138 308 -138q293 0 467 250l192 -102q-245 -347 -682 -347q-274 0 -455 194
q-182 195 -182 486zM1402 1923l-297 -273h-113l-149 273h166l67 -129l129 129h197z" />
    <glyph glyph-name="ccaron" unicode="&#x10d;" horiz-adv-x="1135" 
d="M921 731q-64 160 -266 160q-49 -1 -111 -29t-116 -83q-124 -127 -124 -318q0 -144 78 -225q78 -82 177 -82q100 0 161 30q62 30 117 101l145 -109q-143 -201 -416 -201q-204 0 -337 137q-134 137 -134 337q0 135 51 249t134 196q84 82 188 128t211 45q229 0 354 -164h125
l-28 -172h-209zM1126 1444l-297 -273h-113l-149 273h166l67 -129l129 129h197z" />
    <glyph glyph-name="Dcaron" unicode="&#x10e;" horiz-adv-x="1561" 
d="M675 172q259 0 455 188q128 123 179 303q26 91 26 191q0 203 -108 346t-279 143h-225l-268 -1171h220zM974 1516q261 0 420 -185q160 -185 160 -449t-117 -462q-117 -199 -324 -309q-207 -111 -460 -111h-578l39 172h132l270 1171h-131l40 173h549zM1193 1842l-297 -273
h-113l-149 273h166l67 -129l129 129h197z" />
    <glyph glyph-name="dcaron" unicode="&#x10f;" horiz-adv-x="1395" 
d="M923 801q-77 90 -238 90t-282 -125t-121 -322q0 -132 74 -211t202 -79q129 0 241 110zM75 426q0 272 181 457q181 184 439 184q159 0 269 -86l93 403h-175l41 172h374l-319 -1384h172l-39 -172h-373l15 67q-127 -87 -235 -87q-197 0 -320 128q-123 129 -123 318z
M1461 1059h-125l71 510l183 12z" />
    <glyph glyph-name="Dcroat" unicode="&#x110;" horiz-adv-x="1561" 
d="M675 172q259 0 455 188q128 123 179 303q26 91 26 191q0 203 -108 346t-279 143h-225l-110 -481h241l-39 -172h-242l-118 -518h220zM974 1516q261 0 420 -185q160 -185 160 -449t-117 -462q-117 -199 -324 -309q-207 -111 -460 -111h-578l39 172h132l119 518h-181l39 172
h182l111 481h-131l40 173h549z" />
    <glyph glyph-name="dcroat" unicode="&#x111;" horiz-adv-x="1307" 
d="M924 801q-77 90 -237 90t-282 -125.5t-122 -321.5q0 -135 73.5 -212.5t200.5 -77.5t242 108q30 135 62 269.5t63 269.5zM76 426q0 137 49 255t133 204t197.5 134t257.5 48t252 -86q10 41 18 79t18 79h-186l39 172h186q4 18 8.5 36.5t8.5 36.5h-174l20 86t21 86h374
q-14 -61 -28.5 -122.5t-28.5 -122.5h184l-39 -172h-184q-55 -242 -111.5 -483.5t-111.5 -483.5h172l-39 -172h-373q4 16 7.5 33.5t7.5 34.5q-120 -88 -254 -88q-177 0 -300.5 127.5t-123.5 318.5z" />
    <glyph glyph-name="Emacron" unicode="&#x112;" horiz-adv-x="1415" 
d="M411 1516h1100l-100 -433h-207l61 260h-540l-111 -485h446l-43 -172h-442l-118 -514h534l61 262h209l-100 -434h-1086l39 172h134l270 1171h-148zM1378 1709h-743l26 117h744z" />
    <glyph glyph-name="emacron" unicode="&#x113;" horiz-adv-x="1171" 
d="M686 897q-115 0 -204 -70t-132 -182h590q3 185 -148 236q-48 16 -106 16zM1012 164q-146 -195 -452 -195q-82 0 -166 32t-146 93q-134 130 -133 350q0 260 173 442q173 181 427 181q188 0 303 -117t115 -280q0 -90 -19 -187h-796q-3 -42 -3 -74q1 -32 21 -86
q20 -53 56 -93q78 -85 198 -85q174 0 274 127zM1112 1229h-743l26 117h744z" />
    <glyph glyph-name="Edotaccent" unicode="&#x116;" horiz-adv-x="1415" 
d="M411 1516h1100l-100 -433h-207l61 260h-540l-111 -485h446l-43 -172h-442l-118 -514h534l61 262h209l-100 -434h-1086l39 172h134l270 1171h-148zM874 1882q0 52 38 92q38 38 79 38q67 0 105 -38t38 -78q0 -65 -38 -106q-38 -40 -78 -40t-64 10t-42 30q-38 40 -38 92z
" />
    <glyph glyph-name="edotaccent" unicode="&#x117;" horiz-adv-x="1171" 
d="M686 897q-115 0 -204 -70t-132 -182h590q3 185 -148 236q-48 16 -106 16zM1012 164q-146 -195 -452 -195q-82 0 -166 32t-146 93q-134 130 -133 350q0 260 173 442q173 181 427 181q188 0 303 -117t115 -280q0 -90 -19 -187h-796q-3 -42 -3 -74q1 -32 21 -86
q20 -53 56 -93q78 -85 198 -85q174 0 274 127zM670 1402q0 52 38 92q38 38 79 38q67 0 105 -38t38 -78q0 -65 -38 -106q-38 -40 -78 -40t-64 10t-42 30q-38 40 -38 92z" />
    <glyph glyph-name="Eogonek" unicode="&#x118;" horiz-adv-x="1413" 
d="M651 -260q0 168 148 260h-723l39 172h133l270 1171h-147l41 173h1099l-100 -433h-207l62 260h-541l-111 -485h447l-43 -172h-443l-118 -514h534l62 262h209l-101 -434h-18q-140 -4 -229 -75.5t-89 -149.5q0 -41 31 -70t98 -29t113 23l43 -127q-73 -43 -156 -43
q-145 0 -224 56.5t-79 154.5z" />
    <glyph glyph-name="eogonek" unicode="&#x119;" horiz-adv-x="1169" 
d="M689 897q-118 0 -207 -71.5t-130 -180.5h590q4 118 -65.5 185t-187.5 67zM379 -260q0 128 121 235q-172 23 -277.5 146t-105.5 323q0 129 46 243t172.5 247t381.5 133q187 0 302.5 -117.5t115.5 -279.5q0 -90 -19 -187h-797l-2 -43q0 -126 78.5 -210.5t196.5 -84.5
q80 0 152.5 33t121.5 94l148 -108q-74 -98 -207 -152q-129 -58 -175 -98.5t-62.5 -71t-16.5 -69.5t30.5 -68t96.5 -29t115 23l43 -127q-73 -43 -156 -43q-145 0 -224 56.5t-79 154.5z" />
    <glyph glyph-name="Ecaron" unicode="&#x11a;" horiz-adv-x="1415" 
d="M411 1516h1100l-100 -433h-207l61 260h-540l-111 -485h446l-43 -172h-442l-118 -514h534l61 262h209l-100 -434h-1086l39 172h134l270 1171h-148zM1414 1924l-297 -273h-113l-149 273h166l67 -129l129 129h197z" />
    <glyph glyph-name="ecaron" unicode="&#x11b;" horiz-adv-x="1171" 
d="M686 897q-115 0 -204 -70t-132 -182h590q3 185 -148 236q-48 16 -106 16zM1012 164q-146 -195 -452 -195q-82 0 -166 32t-146 93q-134 130 -133 350q0 260 173 442q173 181 427 181q188 0 303 -117t115 -280q0 -90 -19 -187h-796q-3 -42 -3 -74q1 -32 21 -86
q20 -53 56 -93q78 -85 198 -85q174 0 274 127zM1148 1444l-297 -273h-113l-149 273h166l67 -129l129 129h197z" />
    <glyph glyph-name="Gbreve" unicode="&#x11e;" horiz-adv-x="1616" 
d="M75 655q0 246 111 449t307 322q196 118 440 118q176 0 312 -74t208 -184h156l-41 -172h-276q-71 164 -252 215q-60 17 -140 17t-159 -24q-80 -24 -148 -68q-138 -90 -216 -245q-78 -154 -78 -353t127 -340q127 -142 309 -142q274 0 437 218q52 70 86 157h-423l41 176h643
l-164 -725h-200l50 222q-180 -247 -493 -247q-137 1 -254 53t-202 144q-181 196 -181 483zM710 1720q-92 92 -84 238h141q3 -92 51 -146t155 -53q107 -1 171 55t86 144h145q-24 -135 -134 -233q-109 -97 -274 -97t-257 92z" />
    <glyph glyph-name="gbreve" unicode="&#x11f;" horiz-adv-x="1249" 
d="M312 426q0 -126 67 -199t161 -73q164 0 288 104l128 552q-64 81 -227 81t-290 -128q-127 -129 -127 -337zM105 389q0 302 187 488t454 186q154 0 249 -81l13 54h203l-238 -1024q-59 -256 -200 -369q-141 -114 -386 -114q-188 0 -336 83q-50 28 -88 66l129 146
q76 -81 220 -110q46 -9 104 -9q140 0 230 74t137 285q-117 -82 -280 -82t-281 123q-118 122 -117 284zM528 1241q-92 92 -84 238h141q3 -91 51 -145t155 -54t171 56t86 143h145q-24 -135 -134 -233q-109 -97 -274 -97t-257 92z" />
    <glyph glyph-name="Gcommaaccent" unicode="&#x122;" horiz-adv-x="1616" 
d="M75 655q0 246 111 449t307 322q196 118 440 118q176 0 312 -74t208 -184h156l-41 -172h-276q-71 164 -252 215q-60 17 -140 17t-159 -24q-80 -24 -148 -68q-138 -90 -216 -245q-78 -154 -78 -353t127 -340q127 -142 309 -142q274 0 437 218q52 70 86 157h-423l41 176h643
l-164 -725h-200l50 222q-180 -247 -493 -247q-137 1 -254 53t-202 144q-181 196 -181 483zM643 -41l211 -84l-180 -348l-144 53z" />
    <glyph glyph-name="gcommaaccent" unicode="&#x123;" horiz-adv-x="1249" 
d="M312 426q0 -126 67 -199t161 -73q164 0 288 104l128 552q-64 81 -227 81t-290 -128q-127 -129 -127 -337zM105 389q0 302 187 488t454 186q154 0 249 -81l13 54h203l-238 -1024q-59 -256 -200 -369q-141 -114 -386 -114q-188 0 -336 83q-50 28 -88 66l129 146
q76 -81 220 -110q46 -9 104 -9q140 0 230 74t137 285q-117 -82 -280 -82t-281 123q-118 122 -117 284zM899 1138l-189 74l181 349l121 -44z" />
    <glyph glyph-name="Imacron" unicode="&#x12a;" horiz-adv-x="883" 
d="M425 1516h492l-41 -173h-141l-268 -1171h139l-39 -172h-492l39 172h144l270 1171h-143zM1064 1709h-743l26 117h744z" />
    <glyph glyph-name="imacron" unicode="&#x12b;" horiz-adv-x="725" 
d="M198 1036h387l-200 -864h166l-39 -172h-369l200 864h-186zM814 1229h-743l26 117h744z" />
    <glyph glyph-name="Iogonek" unicode="&#x12e;" horiz-adv-x="883" 
d="M-76 -266q0 156 152 266l39 172h143l270 1171h-143l41 173h492l-41 -173h-142l-268 -1171h139l-39 -172h-139q-126 0 -228 -70t-102 -155q0 -41 31 -70t97 -29t114 23l43 -127q-73 -43 -156 -43q-145 0 -224 56.5t-79 148.5z" />
    <glyph glyph-name="iogonek" unicode="&#x12f;" horiz-adv-x="725" 
d="M391 1401q0 53 39 92t80 39q66 0 105.5 -38t39.5 -79q0 -70 -39.5 -109.5t-93.5 -39.5t-92.5 41t-38.5 94zM-12 -265q0 161 157 265l199 864h-184l41 172h387l-201 -864h166l-39 -172h-70q-120 -4 -201 -74.5t-81 -150.5q0 -41 30.5 -70t97.5 -29t113 23l43 -127
q-70 -43 -154 -43q-148 0 -226 56.5t-78 149.5z" />
    <glyph glyph-name="Idotaccent" unicode="&#x130;" horiz-adv-x="883" 
d="M425 1516h492l-41 -173h-141l-268 -1171h139l-39 -172h-492l39 172h144l270 1171h-143zM600 1882q0 52 38 92q38 38 79 38q67 0 105 -38t38 -78q0 -65 -38 -106q-38 -40 -78 -40t-64 10t-42 30q-38 40 -38 92z" />
    <glyph glyph-name="dotlessi" unicode="&#x131;" horiz-adv-x="725" 
d="M198 1036h387l-200 -864h166l-39 -172h-369l200 864h-186z" />
    <glyph glyph-name="Kcommaaccent" unicode="&#x136;" horiz-adv-x="1642" 
d="M411 1516h492l-41 -173h-137l-268 -1171h149l-39 -172h-492l39 172h134l270 1171h-148zM1390 1343l41 173h389l-41 -173h-94l-837 -589l468 -582h158l-39 -172h-407l39 172l-469 602zM683 -41l211 -84l-180 -348l-144 53z" />
    <glyph glyph-name="kcommaaccent" unicode="&#x137;" 
d="M279 1556h387l-223 -964h112l340 288l37 156h336l-41 -172h-107l-389 -329l250 -365h125l-39 -170h-219l-311 469h-122l-108 -469h-202l318 1384h-185zM453 -41l211 -84l-180 -348l-144 53z" />
    <glyph glyph-name="Lacute" unicode="&#x139;" horiz-adv-x="1376" 
d="M962 172q79 0 98 80l47 197h201l-104 -449h-1129l39 172h134l270 1171h-148l41 173h492l-41 -173h-137l-268 -1171h505zM1017 1874v-17l-299 -282h-154l213 299h240z" />
    <glyph glyph-name="lacute" unicode="&#x13a;" horiz-adv-x="653" 
d="M264 1556h402l-320 -1384h172l-39 -172h-374l318 1384h-200zM877 1918v-17l-299 -282h-154l213 299h240z" />
    <glyph glyph-name="Lcommaaccent" unicode="&#x13b;" horiz-adv-x="1376" 
d="M962 172q79 0 98 80l47 197h201l-104 -449h-1129l39 172h134l270 1171h-148l41 173h492l-41 -173h-137l-268 -1171h505zM558 -41l211 -84l-180 -348l-144 53z" />
    <glyph glyph-name="lcommaaccent" unicode="&#x13c;" horiz-adv-x="653" 
d="M264 1556h402l-320 -1384h172l-39 -172h-374l318 1384h-200zM208 -41l211 -84l-180 -348l-144 53z" />
    <glyph glyph-name="Lcaron" unicode="&#x13d;" horiz-adv-x="1376" 
d="M962 172q79 0 98 80l47 197h201l-104 -449h-1129l39 172h134l270 1171h-148l41 173h492l-41 -173h-137l-268 -1171h505zM1131 1009h-125l71 510l183 12z" />
    <glyph glyph-name="lcaron" unicode="&#x13e;" horiz-adv-x="780" 
d="M264 1556h402l-320 -1384h172l-39 -172h-374l318 1384h-200zM824 1059h-125l71 510l183 12z" />
    <glyph glyph-name="Lslash" unicode="&#x141;" horiz-adv-x="1374" 
d="M963 172q80 0 98 80l47 197h201l-105 -449h-1128l39 172h133l98 424l-262 -141l55 235l262 139l117 514h-147l41 173h491l-41 -173h-137l-88 -387l467 252l-55 -235l-465 -250l-127 -551h506z" />
    <glyph glyph-name="lslash" unicode="&#x142;" horiz-adv-x="651" 
d="M264 1556h402l-138 -593l299 161l-55 -235l-297 -160l-129 -557h172l-39 -172h-375l140 604l-281 -149l55 235l279 150l125 544h-199z" />
    <glyph glyph-name="Nacute" unicode="&#x143;" horiz-adv-x="1786" 
d="M1370 1516h491l-39 -173h-136l-308 -1343h-262l-413 1255l-249 -1083h152l-39 -172h-492l39 172h133l271 1171h-150l41 173h416l408 -1246l246 1073h-148zM1479 1957v-17l-299 -282h-154l213 299h240z" />
    <glyph glyph-name="nacute" unicode="&#x144;" horiz-adv-x="1368" 
d="M554 930q150 125 327 125q176 0 260 -101t42 -288l-114 -494h147l-39 -172h-350l149 641q28 118 -18 178t-140 60q-164 0 -297 -127l-173 -752h-203l200 864h-198l41 172h391zM1186 1477v-17l-299 -282h-154l213 299h240z" />
    <glyph glyph-name="Ncommaaccent" unicode="&#x145;" horiz-adv-x="1786" 
d="M1370 1516h491l-39 -173h-136l-308 -1343h-262l-413 1255l-249 -1083h152l-39 -172h-492l39 172h133l271 1171h-150l41 173h416l408 -1246l246 1073h-148zM733 -41l211 -84l-180 -348l-144 53z" />
    <glyph glyph-name="ncommaaccent" unicode="&#x146;" horiz-adv-x="1368" 
d="M554 930q150 125 327 125q176 0 260 -101t42 -288l-114 -494h147l-39 -172h-350l149 641q28 118 -18 178t-140 60q-164 0 -297 -127l-173 -752h-203l200 864h-198l41 172h391zM473 -41l211 -84l-180 -348l-144 53z" />
    <glyph glyph-name="Ncaron" unicode="&#x147;" horiz-adv-x="1786" 
d="M1370 1516h491l-39 -173h-136l-308 -1343h-262l-413 1255l-249 -1083h152l-39 -172h-492l39 172h133l271 1171h-150l41 173h416l408 -1246l246 1073h-148zM1508 1923l-297 -273h-113l-149 273h166l67 -129l129 129h197z" />
    <glyph glyph-name="ncaron" unicode="&#x148;" horiz-adv-x="1368" 
d="M554 930q150 125 327 125q176 0 260 -101t42 -288l-114 -494h147l-39 -172h-350l149 641q28 118 -18 178t-140 60q-164 0 -297 -127l-173 -752h-203l200 864h-198l41 172h391zM1218 1444l-297 -273h-113l-149 273h166l67 -129l129 129h197z" />
    <glyph glyph-name="napostrophe" unicode="&#x149;" horiz-adv-x="1368" 
d="M554 930q150 125 327 125q176 0 260 -101t42 -288l-114 -494h147l-39 -172h-350l149 641q28 118 -18 178t-140 60q-164 0 -297 -127l-173 -752h-203l200 864h-198l41 172h391zM503 1520l211 -84l-180 -349l-144 54z" />
    <glyph glyph-name="Omacron" unicode="&#x14c;" horiz-adv-x="1577" 
d="M730 172q262 0 440 200q176 199 177 492q0 215 -122 346t-314 131q-124 0 -235 -50q-111 -49 -195 -139q-182 -194 -182 -480q0 -215 123 -357q123 -143 308 -143zM708 -31q-124 0 -240 49q-116 48 -202 138q-190 195 -191 499q0 254 115 458t313 318q197 113 447 113
t435 -180t185 -483q0 -263 -114 -475q-168 -312 -512 -406q-112 -30 -236 -31zM1358 1749h-743l26 117h744z" />
    <glyph glyph-name="omacron" unicode="&#x14d;" 
d="M284 475q0 -151 78 -237t217 -86t254 124t115 310q0 137 -80 221t-217 84q-138 1 -250 -119q-53 -56 -85 -136q-32 -79 -32 -161zM75 442q-1 93 21 172t62 148q79 138 218 222q139 83 301 83q205 0 343 -136q137 -136 137 -333q0 -258 -178 -442q-175 -181 -437 -181
q-94 1 -181 37t-151 100t-100 150t-35 180zM1106 1260h-743l26 117h744z" />
    <glyph glyph-name="Ohungarumlaut" unicode="&#x150;" horiz-adv-x="1577" 
d="M730 172q262 0 440 200q176 199 177 492q0 215 -122 346t-314 131q-124 0 -235 -50q-111 -49 -195 -139q-182 -194 -182 -480q0 -215 123 -357q123 -143 308 -143zM708 -31q-124 0 -240 49q-116 48 -202 138q-190 195 -191 499q0 254 115 458t313 318q197 113 447 113
t435 -180t185 -483q0 -263 -114 -475q-168 -312 -512 -406q-112 -30 -236 -31zM1146 2034l-243 -321h-138l198 321h183zM1431 2034l-243 -321h-140l201 321h182z" />
    <glyph glyph-name="ohungarumlaut" unicode="&#x151;" 
d="M284 475q0 -151 78 -237t217 -86t254 124t115 310q0 137 -80 221t-217 84q-138 1 -250 -119q-53 -56 -85 -136q-32 -79 -32 -161zM75 442q-1 93 21 172t62 148q79 138 218 222q139 83 301 83q205 0 343 -136q137 -136 137 -333q0 -258 -178 -442q-175 -181 -437 -181
q-94 1 -181 37t-151 100t-100 150t-35 180zM894 1545l-243 -321h-138l198 321h183zM1179 1545l-243 -321h-140l201 321h182z" />
    <glyph glyph-name="OE" unicode="&#x152;" horiz-adv-x="2066" 
d="M289 677q0 -231 112 -368t306 -137h211l270 1171h-232q-122 0 -241 -53t-214 -146t-153.5 -219t-58.5 -248zM688 0q-278 0 -445 186.5t-167 452.5q0 182 73.5 342t198.5 278.5t289 187.5t344 69h1184l-99 -433h-204l57 260h-535l-110 -485h455l-41 -172h-455l-119 -514
h535l61 260h209l-100 -432h-1131z" />
    <glyph glyph-name="oe" unicode="&#x153;" horiz-adv-x="1995" 
d="M1308 825.5q-89 -71.5 -130 -180.5h589q4 120 -65.5 186t-186.5 66q-118 0 -207 -71.5zM285 463q0 -141 77.5 -226t215.5 -85t254 122t116 312q0 137 -80 221t-216 84t-251.5 -121t-115.5 -307zM1404 -31q-132 0 -235.5 56.5t-162.5 160.5q-84 -98 -201 -154.5
t-237 -56.5q-220 0 -356 136t-136 338q0 256 177 437t430 181q128 0 233.5 -59.5t166.5 -157.5q82 100 199.5 158.5t237.5 58.5q208 0 324 -117t116 -280q0 -95 -18 -187h-795q-2 -4 -2 -9t-2 -9v-25q0 -125 77.5 -210t196.5 -85q171 0 275 127l147 -108
q-67 -90 -185 -142.5t-250 -52.5z" />
    <glyph glyph-name="Racute" unicode="&#x154;" horiz-adv-x="1438" 
d="M854 870q243 0 320 157q26 53 26 109q0 206 -240 207h-235l-108 -473h237zM1026 1516q173 0 279 -99t106 -254q0 -156 -96 -268q-96 -111 -243 -158q39 -28 66 -84t29 -133l6 -348h129l-39 -172h-293l-6 461q-2 125 -57 183t-166 58h-163l-121 -530h149l-39 -172h-492
l39 172h134l270 1171h-150l41 173h617zM1235 1956v-17l-299 -282h-154l213 299h240z" />
    <glyph glyph-name="racute" unicode="&#x155;" horiz-adv-x="1053" 
d="M825 1044q95 0 199 -14l-66 -280h-203l29 122q-179 0 -277 -180l-120 -520h172l-39 -172h-375l200 864h-198l41 172h391l-33 -142q131 150 279 150zM990 1477v-17l-299 -282h-154l213 299h240z" />
    <glyph glyph-name="Rcommaaccent" unicode="&#x156;" horiz-adv-x="1438" 
d="M854 870q243 0 320 157q26 53 26 109q0 206 -240 207h-235l-108 -473h237zM1026 1516q173 0 279 -99t106 -254q0 -156 -96 -268q-96 -111 -243 -158q39 -28 66 -84t29 -133l6 -348h129l-39 -172h-293l-6 461q-2 125 -57 183t-166 58h-163l-121 -530h149l-39 -172h-492
l39 172h134l270 1171h-150l41 173h617zM670 -41l211 -84l-180 -348l-144 53z" />
    <glyph glyph-name="rcommaaccent" unicode="&#x157;" horiz-adv-x="1053" 
d="M825 1044q95 0 199 -14l-66 -280h-203l29 122q-179 0 -277 -180l-120 -520h172l-39 -172h-375l200 864h-198l41 172h391l-33 -142q131 150 279 150zM233 -41l211 -84l-180 -348l-144 53z" />
    <glyph glyph-name="Rcaron" unicode="&#x158;" horiz-adv-x="1438" 
d="M854 870q243 0 320 157q26 53 26 109q0 206 -240 207h-235l-108 -473h237zM1026 1516q173 0 279 -99t106 -254q0 -156 -96 -268q-96 -111 -243 -158q39 -28 66 -84t29 -133l6 -348h129l-39 -172h-293l-6 461q-2 125 -57 183t-166 58h-163l-121 -530h149l-39 -172h-492
l39 172h134l270 1171h-150l41 173h617zM1334 1923l-297 -273h-113l-149 273h166l67 -129l129 129h197z" />
    <glyph glyph-name="rcaron" unicode="&#x159;" horiz-adv-x="1053" 
d="M825 1044q95 0 199 -14l-66 -280h-203l29 122q-179 0 -277 -180l-120 -520h172l-39 -172h-375l200 864h-198l41 172h391l-33 -142q131 150 279 150zM1038 1444l-297 -273h-113l-149 273h166l67 -129l129 129h197z" />
    <glyph glyph-name="Sacute" unicode="&#x15a;" horiz-adv-x="1278" 
d="M571 1278q-95 -80 -95 -199q0 -118 132 -162q36 -12 68 -24l187 -68q218 -73 270 -233q18 -56 18 -146t-43 -182q-42 -92 -120 -158q-163 -138 -407 -137q-243 0 -349 87t-122 225h-95l39 159h272l-18 -74q-14 -108 63 -161t225 -53t245 80t97 205t-132 187
q-40 18 -85 33l-174 56q-276 87 -276 346q0 209 156 344t414 135q259 0 379 -154q38 -48 54 -106h101l-39 -160h-260q15 73 -1 114q-16 40 -52 68q-73 58 -215 58t-237 -80zM1187 1956v-17l-299 -282h-154l213 299h240z" />
    <glyph glyph-name="sacute" unicode="&#x15b;" horiz-adv-x="1012" 
d="M418 870q-56 -39 -56 -106q0 -40 26 -66t80 -49l193 -69q180 -65 180 -263q1 -166 -115 -257t-302 -91q-184 1 -282 83q-32 28 -51 63h-106l41 172h211q-9 -74 49 -117q59 -43 152 -43q140 0 190 95q16 31 17 70q0 83 -111 122l-184 67q-89 35 -137 103t-48 146
q0 156 105 247q105 90 290 90q244 0 325 -147h112l-41 -172h-207q-3 116 -115 150q-34 10 -98 11q-62 0 -118 -39zM937 1477v-17l-299 -282h-154l213 299h240z" />
    <glyph glyph-name="Scedilla" unicode="&#x15e;" horiz-adv-x="1278" 
d="M571 1278q-95 -80 -95 -199q0 -118 132 -162q36 -12 68 -24l187 -68q218 -73 270 -233q18 -56 18 -146t-43 -182q-42 -92 -120 -158q-163 -138 -407 -137q-243 0 -349 87t-122 225h-95l39 159h272l-18 -74q-14 -108 63 -161t225 -53t245 80t97 205t-132 187
q-40 18 -85 33l-174 56q-276 87 -276 346q0 209 156 344t414 135q259 0 379 -154q38 -48 54 -106h101l-39 -160h-260q15 73 -1 114q-16 40 -52 68q-73 58 -215 58t-237 -80zM182 -303q104 2 174 65q71 63 88 160l150 -45q-36 -144 -145 -226q-110 -83 -256 -83z" />
    <glyph glyph-name="scedilla" unicode="&#x15f;" horiz-adv-x="1012" 
d="M418 870q-56 -39 -56 -106q0 -40 26 -66t80 -49l193 -69q180 -65 180 -263q1 -166 -115 -257t-302 -91q-184 1 -282 83q-32 28 -51 63h-106l41 172h211q-9 -74 49 -117q59 -43 152 -43q140 0 190 95q16 31 17 70q0 83 -111 122l-184 67q-89 35 -137 103t-48 146
q0 156 105 247q105 90 290 90q244 0 325 -147h112l-41 -172h-207q-3 116 -115 150q-34 10 -98 11q-62 0 -118 -39zM57 -303q104 2 174 65q71 63 88 160l150 -45q-36 -144 -145 -226q-110 -83 -256 -83z" />
    <glyph glyph-name="Scaron" unicode="&#x160;" horiz-adv-x="1278" 
d="M571 1278q-95 -80 -95 -199q0 -118 132 -162q36 -12 68 -24l187 -68q218 -73 270 -233q18 -56 18 -146t-43 -182q-42 -92 -120 -158q-163 -138 -407 -137q-243 0 -349 87t-122 225h-95l39 159h272l-18 -74q-14 -108 63 -161t225 -53t245 80t97 205t-132 187
q-40 18 -85 33l-174 56q-276 87 -276 346q0 209 156 344t414 135q259 0 379 -154q38 -48 54 -106h101l-39 -160h-260q15 73 -1 114q-16 40 -52 68q-73 58 -215 58t-237 -80zM1218 1923l-297 -273h-113l-149 273h166l67 -129l129 129h197z" />
    <glyph glyph-name="scaron" unicode="&#x161;" horiz-adv-x="1012" 
d="M418 870q-56 -39 -56 -106q0 -40 26 -66t80 -49l193 -69q180 -65 180 -263q1 -166 -115 -257t-302 -91q-184 1 -282 83q-32 28 -51 63h-106l41 172h211q-9 -74 49 -117q59 -43 152 -43q140 0 190 95q16 31 17 70q0 83 -111 122l-184 67q-89 35 -137 103t-48 146
q0 156 105 247q105 90 290 90q244 0 325 -147h112l-41 -172h-207q-3 116 -115 150q-34 10 -98 11q-62 0 -118 -39zM968 1444l-297 -273h-113l-149 273h166l67 -129l129 129h197z" />
    <glyph glyph-name="Tcommaaccent" unicode="&#x162;" horiz-adv-x="1362" 
d="M348 172h140l272 1180h-367l-53 -236h-205l92 400h1352l-93 -400h-204l53 236h-368l-270 -1180h142l-39 -172h-491zM418 -41l211 -84l-180 -348l-144 53z" />
    <glyph glyph-name="tcommaaccent" unicode="&#x163;" horiz-adv-x="778" 
d="M365 212q0 -74 102 -73q57 0 137 33l17 -143q-176 -83 -326 -39q-176 52 -123 286l144 588h-171l41 172h173l61 248l211 86l-79 -334h218l-41 -172h-218l-132 -559q-14 -57 -14 -93zM303 -41l211 -84l-180 -348l-144 53z" />
    <glyph glyph-name="Tcaron" unicode="&#x164;" horiz-adv-x="1362" 
d="M348 172h140l272 1180h-367l-53 -236h-205l92 400h1352l-93 -400h-204l53 236h-368l-270 -1180h142l-39 -172h-491zM1258 1923l-297 -273h-113l-149 273h166l67 -129l129 129h197z" />
    <glyph glyph-name="tcaron" unicode="&#x165;" horiz-adv-x="780" 
d="M365 212q0 -74 102 -73q57 0 137 33l17 -143q-176 -83 -326 -39q-176 52 -123 286l144 588h-171l41 172h173l61 248l211 86l-79 -334h218l-41 -172h-218l-132 -559q-14 -57 -14 -93zM832 1059h-125l71 510l183 12z" />
    <glyph glyph-name="Umacron" unicode="&#x16a;" horiz-adv-x="1581" 
d="M724 176q174 0 286 106q111 106 169 357l162 704h-152l39 173h492l-39 -173h-133l-166 -722q-147 -646 -676 -646q-225 0 -366 129q-142 129 -138 351q0 79 23 184l162 704h-144l39 173h492l-39 -173h-140l-161 -704q-77 -337 149 -437q59 -26 141 -26zM1395 1709h-743
l26 117h744z" />
    <glyph glyph-name="umacron" unicode="&#x16b;" horiz-adv-x="1290" 
d="M390 237q40 -87 181 -87t235 148l132 566h-136l41 172h336l-200 -864h155l-39 -172h-348l24 105q-119 -123 -308 -123q-51 0 -111 20t-93 50q-67 64 -91 156q-23 92 12 243l95 413h-140l41 172h340l-123 -526q-43 -186 -3 -273zM1079 1229h-743l26 117h744z" />
    <glyph glyph-name="Uring" unicode="&#x16e;" horiz-adv-x="1581" 
d="M724 176q174 0 286 106q111 106 169 357l162 704h-152l39 173h492l-39 -173h-133l-166 -722q-147 -646 -676 -646q-225 0 -366 129q-142 129 -138 351q0 79 23 184l162 704h-144l39 173h492l-39 -173h-140l-161 -704q-77 -337 149 -437q59 -26 141 -26zM1096 2078
q52 0 99 -20t81 -56q34 -34 56 -81q20 -47 20 -99t-20 -98t-56 -82q-34 -36 -81 -56t-99 -20t-98 20t-82 56t-56 82t-20 98t20 99t56 81t82 56q46 20 98 20zM992 1822q0 -22 8 -40t24 -32q14 -14 32 -24q18 -8 40 -8q21 0 40 8q20 8 34 24q14 14 22 32t9 40q-1 21 -9 40
q-8 20 -22 34t-34 22q-19 8 -40 9q-22 -1 -40 -9t-32 -22t-24 -34q-8 -19 -8 -40z" />
    <glyph glyph-name="uring" unicode="&#x16f;" horiz-adv-x="1290" 
d="M390 237q40 -87 181 -87t235 148l132 566h-136l41 172h336l-200 -864h155l-39 -172h-348l24 105q-119 -123 -308 -123q-51 0 -111 20t-93 50q-67 64 -91 156q-23 92 12 243l95 413h-140l41 172h340l-123 -526q-43 -186 -3 -273zM780 1598q52 0 99 -20t81 -56
q34 -34 56 -81q20 -47 20 -99t-20 -98t-56 -82q-34 -36 -81 -56t-99 -20t-98 20t-82 56t-56 82t-20 98t20 99t56 81t82 56q46 20 98 20zM676 1342q0 -22 8 -40t24 -32q14 -14 32 -24q18 -8 40 -8q21 0 40 8q20 8 34 24q14 14 22 32t9 40q-1 21 -9 40q-8 20 -22 34t-34 22
q-19 8 -40 9q-22 -1 -40 -9t-32 -22t-24 -34q-8 -19 -8 -40z" />
    <glyph glyph-name="Uhungarumlaut" unicode="&#x170;" horiz-adv-x="1581" 
d="M724 176q174 0 286 106q111 106 169 357l162 704h-152l39 173h492l-39 -173h-133l-166 -722q-147 -646 -676 -646q-225 0 -366 129q-142 129 -138 351q0 79 23 184l162 704h-144l39 173h492l-39 -173h-140l-161 -704q-77 -337 149 -437q59 -26 141 -26zM1183 1994
l-243 -321h-138l198 321h183zM1468 1994l-243 -321h-140l201 321h182z" />
    <glyph glyph-name="uhungarumlaut" unicode="&#x171;" horiz-adv-x="1290" 
d="M390 237q40 -87 181 -87t235 148l132 566h-136l41 172h336l-200 -864h155l-39 -172h-348l24 105q-119 -123 -308 -123q-51 0 -111 20t-93 50q-67 64 -91 156q-23 92 12 243l95 413h-140l41 172h340l-123 -526q-43 -186 -3 -273zM867 1514l-243 -321h-138l198 321h183z
M1152 1514l-243 -321h-140l201 321h182z" />
    <glyph glyph-name="Uogonek" unicode="&#x172;" horiz-adv-x="1579" 
d="M471 -260q0 133 150 242q-190 25 -306 148t-112 325q0 76 22 184l162 704h-143l39 173h491l-39 -173h-139l-162 -704q-20 -88 -20 -153q0 -66 17.5 -119.5t55 -96.5t97 -68.5t187 -25.5t238 104.5t171.5 358.5l161 704h-151l39 173h491l-39 -173h-133l-166 -722
q-106 -475 -422 -599q-161 -63 -238 -121t-77 -126q0 -41 31 -70t97 -29t114 23l43 -127q-73 -43 -156 -43q-145 0 -224 56.5t-79 154.5z" />
    <glyph glyph-name="uogonek" unicode="&#x173;" horiz-adv-x="1288" 
d="M590 -265q0 162 158 265l22 104q-61 -65 -142.5 -93.5t-147.5 -28.5q-148 0 -228 77q-59 59 -82 149.5t10 242.5l94 413h-139l41 172h340l-123 -526q-43 -186 -3 -273t171 -87q60 0 127.5 34.5t118.5 112.5l131 567h-135l41 172h336l-201 -864h156l-39 -172h-49
q-122 -4 -202.5 -75.5t-80.5 -149.5q0 -41 30.5 -70t96.5 -29t115 23l43 -127q-73 -43 -156 -43q-145 0 -224 56.5t-79 149.5z" />
    <glyph glyph-name="Ydieresis" unicode="&#x178;" horiz-adv-x="1323" 
d="M214 1516h491l-39 -173h-122l175 -473l411 473h-122l39 173h492l-39 -173h-123l-586 -656l-120 -515h141l-39 -172h-492l39 172h141l120 519l-259 652h-147zM1013 1840q1 52 39 90t76 39q62 0 101 -38q38 -38 38 -78q1 -67 -37 -107q-37 -40 -76 -39q-38 1 -62 11t-40 28
q-38 42 -39 94zM554 1840q0 52 38 90t78 39q64 0 101 -38t37 -78q0 -66 -37 -106t-75 -40q-38 1 -62 11t-42 28q-38 42 -38 94z" />
    <glyph glyph-name="Zacute" unicode="&#x179;" horiz-adv-x="1298" 
d="M1390 1298l-1152 -1120h681l57 252h207l-98 -430h-1110l51 231l1135 1108h-660l-59 -258h-207l100 435h1102zM1212 1956v-17l-299 -282h-154l213 299h240z" />
    <glyph glyph-name="zacute" unicode="&#x17a;" horiz-adv-x="995" 
d="M10 117l718 760h-337l-35 -148h-197l72 307h790l-26 -121l-714 -755h366l41 178h196l-78 -338h-821zM937 1477v-17l-299 -282h-154l213 299h240z" />
    <glyph glyph-name="Zdotaccent" unicode="&#x17b;" horiz-adv-x="1298" 
d="M1390 1298l-1152 -1120h681l57 252h207l-98 -430h-1110l51 231l1135 1108h-660l-59 -258h-207l100 435h1102zM809 1882q1 52 39 90t78 39q66 -1 104 -39t39 -78q0 -65 -38 -105t-78 -40q-40 1 -64 11q-23 10 -41 28q-38 42 -39 94z" />
    <glyph glyph-name="zdotaccent" unicode="&#x17c;" horiz-adv-x="995" 
d="M10 117l718 760h-337l-35 -148h-197l72 307h790l-26 -121l-714 -755h366l41 178h196l-78 -338h-821zM477 1402q1 52 39 92q38 38 78 38q66 0 104 -38t39 -78q0 -65 -38 -106q-38 -40 -78 -40t-64 10q-23 10 -41 30q-38 40 -39 92z" />
    <glyph glyph-name="Zcaron" unicode="&#x17d;" horiz-adv-x="1298" 
d="M1390 1298l-1152 -1120h681l57 252h207l-98 -430h-1110l51 231l1135 1108h-660l-59 -258h-207l100 435h1102zM1287 1923l-297 -273h-113l-149 273h166l67 -129l129 129h197z" />
    <glyph glyph-name="zcaron" unicode="&#x17e;" horiz-adv-x="995" 
d="M10 117l718 760h-337l-35 -148h-197l72 307h790l-26 -121l-714 -755h366l41 178h196l-78 -338h-821zM1019 1444l-297 -273h-113l-149 273h166l67 -129l129 129h197z" />
    <glyph glyph-name="florin" unicode="&#x192;" horiz-adv-x="729" 
d="M-22 -322q193 0 237 203l231 1004h-200l35 151h200l37 162q84 358 435 358q150 0 245 -57l-88 -133q-74 41 -169 41q-192 0 -236 -203l-39 -168h239l-35 -151h-239l-232 -998q-39 -174 -149.5 -266t-270.5 -92t-260 57l88 133q75 -41 171 -41z" />
    <glyph glyph-name="Scommaaccent" unicode="&#x218;" horiz-adv-x="1278" 
d="M571 1278q-95 -80 -95 -199q0 -118 132 -162q36 -12 68 -24l187 -68q218 -73 270 -233q18 -56 18 -146t-43 -182q-42 -92 -120 -158q-163 -138 -407 -137q-243 0 -349 87t-122 225h-95l39 159h272l-18 -74q-14 -108 63 -161t225 -53t245 80t97 205t-132 187
q-40 18 -85 33l-174 56q-276 87 -276 346q0 209 156 344t414 135q259 0 379 -154q38 -48 54 -106h101l-39 -160h-260q15 73 -1 114q-16 40 -52 68q-73 58 -215 58t-237 -80zM433 -41l211 -84l-180 -348l-144 53z" />
    <glyph glyph-name="scommaaccent" unicode="&#x219;" horiz-adv-x="1012" 
d="M418 870q-56 -39 -56 -106q0 -40 26 -66t80 -49l193 -69q180 -65 180 -263q1 -166 -115 -257t-302 -91q-184 1 -282 83q-32 28 -51 63h-106l41 172h211q-9 -74 49 -117q59 -43 152 -43q140 0 190 95q16 31 17 70q0 83 -111 122l-184 67q-89 35 -137 103t-48 146
q0 156 105 247q105 90 290 90q244 0 325 -147h112l-41 -172h-207q-3 116 -115 150q-34 10 -98 11q-62 0 -118 -39zM308 -41l211 -84l-180 -348l-144 53z" />
    <glyph glyph-name="uni021A" unicode="&#x21a;" horiz-adv-x="1362" 
d="M348 172h140l272 1180h-367l-53 -236h-205l92 400h1352l-93 -400h-204l53 236h-368l-270 -1180h142l-39 -172h-491zM418 -41l211 -84l-180 -348l-144 53z" />
    <glyph glyph-name="uni021B" unicode="&#x21b;" horiz-adv-x="778" 
d="M365 212q0 -74 102 -73q57 0 137 33l17 -143q-176 -83 -326 -39q-176 52 -123 286l144 588h-171l41 172h173l61 248l211 86l-79 -334h218l-41 -172h-218l-132 -559q-14 -57 -14 -93zM215 -41l211 -84l-180 -348l-144 53z" />
    <glyph glyph-name="apostrophe" unicode="&#x2bc;" horiz-adv-x="340" 
d="M133 1520l211 -84l-180 -349l-144 54z" />
    <glyph glyph-name="circumflex" unicode="&#x2c6;" horiz-adv-x="860" 
d="M172 1171l297 273h111l151 -273h-170l-64 125l-119 -125h-206z" />
    <glyph glyph-name="caron" unicode="&#x2c7;" horiz-adv-x="778" 
d="M718 1444l-297 -273h-113l-149 273h166l67 -129l129 129h197z" />
    <glyph glyph-name="breve" unicode="&#x2d8;" horiz-adv-x="999" 
d="M206 1241q-92 92 -84 238h141q2 -92 50.5 -145.5t155.5 -53.5t170.5 55.5t86.5 143.5h145q-24 -135 -133.5 -232.5t-274.5 -97.5t-257 92z" />
    <glyph glyph-name="dotaccent" unicode="&#x2d9;" horiz-adv-x="612" 
d="M174 1402q0 52 38.5 91t78.5 39q66 0 104.5 -38t38.5 -78q0 -65 -38 -105.5t-78 -40.5t-64 10.5t-52 40t-28 81.5z" />
    <glyph glyph-name="ring" unicode="&#x2da;" horiz-adv-x="800" 
d="M406 1598q52 0 99 -20.5t81.5 -55t55 -81.5t20.5 -99t-20.5 -98.5t-55 -81.5t-81.5 -55.5t-99 -20.5t-98.5 20.5t-81.5 55.5t-55.5 81.5t-20.5 98.5t20.5 99t55.5 81.5t81.5 55t98.5 20.5zM302 1342q0 -21 8.5 -39.5t23 -33t33 -23t39.5 -8.5t40 8.5t33.5 23t23 33
t8.5 39.5t-8.5 40t-23 33.5t-33.5 23t-40 8.5t-39.5 -8.5t-33 -23t-23 -33.5t-8.5 -40z" />
    <glyph glyph-name="ogonek" unicode="&#x2db;" horiz-adv-x="705" 
d="M173 -205q0 -67 83 -67t131 22l50 -166q-75 -41 -157 -41t-123.5 13.5t-79 39.5t-53.5 64.5t-16 89.5t13 95.5t80 128.5t241 132l86 -77q-143 -63 -187 -101.5t-56 -68.5t-12 -64z" />
    <glyph glyph-name="tilde" unicode="&#x2dc;" horiz-adv-x="1000" 
d="M367 1276q-88 0 -108 -78l-109 53q45 164 225 164q70 0 153.5 -52t127.5 -52q78 0 96 80l119 -35q-20 -85 -78.5 -131.5t-126.5 -46.5t-107 15.5t-71 33.5t-60 33.5t-61 15.5z" />
    <glyph glyph-name="hungarumlaut" unicode="&#x2dd;" horiz-adv-x="808" 
d="M413 1508l-243 -321h-138l198 321h183zM698 1508l-243 -321h-140l201 321h182z" />
    <glyph glyph-name="Gamma" unicode="&#x393;" horiz-adv-x="1313" 
d="M113 172h131l272 1180h-129l39 164h1051l-93 -400h-204l53 236h-510l-270 -1180h151l-39 -172h-491z" />
    <glyph glyph-name="Pi" unicode="&#x3a0;" horiz-adv-x="1877" 
d="M419 1516h1493l-41 -173h-137l-268 -1171h137l-39 -172h-492l39 172h146l270 1171h-803l-268 -1171h141l-39 -172h-491l39 172h141l270 1171h-139z" />
    <glyph glyph-name="pi" unicode="&#x3c0;" horiz-adv-x="1382" 
d="M1072 152q50 0 116 26l-6 -160q-81 -34 -159 -34q-305 0 -232 311l131 569h-375l-160 -692h154l-39 -172h-492l39 172h135l160 692h-137l41 172h1141l-41 -172h-232l-123 -536q-23 -91 -16.5 -120.5t26 -42.5t69.5 -13z" />
    <glyph glyph-name="uni0400" unicode="&#x400;" horiz-adv-x="1415" 
d="M411 1516h1100l-100 -433h-207l61 260h-540l-111 -485h446l-43 -172h-442l-118 -514h534l61 262h209l-100 -434h-1086l39 172h134l270 1171h-148zM589 1957h248l184 -299h-145l-287 282v17z" />
    <glyph glyph-name="uni0401" unicode="&#x401;" horiz-adv-x="1415" 
d="M411 1516h1100l-100 -433h-207l61 260h-540l-111 -485h446l-43 -172h-442l-118 -514h534l61 262h209l-100 -434h-1086l39 172h134l270 1171h-148zM1131 1840q1 52 39 90t76 39q62 0 101 -38q38 -38 38 -78q1 -67 -37 -107q-37 -40 -76 -39q-38 1 -62 11t-40 28
q-38 42 -39 94zM672 1840q0 52 38 90t78 39q64 0 101 -38t37 -78q0 -66 -37 -106t-75 -40q-38 1 -62 11t-42 28q-38 42 -38 94z" />
    <glyph glyph-name="uni0402" unicode="&#x402;" horiz-adv-x="1632" 
d="M782 803q224 102 409 102t305 -103t120 -267q0 -233 -171 -388t-425 -155h-41l37 158q190 0 295.5 101t105.5 251q0 106 -75.5 173.5t-193.5 67.5q-182 0 -405 -106l-106 -465h149l-39 -172h-491l39 172h133l272 1180h-307l-53 -236h-205l92 400h1223l-92 -400h-205
l53 236h-299z" />
    <glyph glyph-name="uni0403" unicode="&#x403;" horiz-adv-x="1313" 
d="M113 172h131l272 1180h-129l39 164h1051l-93 -400h-204l53 236h-510l-270 -1180h151l-39 -172h-491zM1307 1956v-17l-299 -282h-154l213 299h240z" />
    <glyph glyph-name="uni0404" unicode="&#x404;" horiz-adv-x="1473" 
d="M72 655q0 189 64.5 350.5t179 281.5t272.5 188.5t334 68.5t309 -68.5t217 -189.5h158l-41 -172h-277q-43 105 -142 168.5t-222 63.5q-224 0 -384 -130t-216 -331h919l-39 -168h-909v-45q0 -222 128.5 -360t307.5 -138q295 0 467 250l193 -102q-248 -347 -682 -347
q-275 0 -456 194t-181 486z" />
    <glyph glyph-name="uni0405" unicode="&#x405;" horiz-adv-x="1278" 
d="M571 1278q-95 -80 -95 -199q0 -118 132 -162q36 -12 68 -24l187 -68q218 -73 270 -233q18 -56 18 -146t-43 -182q-42 -92 -120 -158q-163 -138 -407 -137q-243 0 -349 87t-122 225h-95l39 159h272l-18 -74q-14 -108 63 -161t225 -53t245 80t97 205t-132 187
q-40 18 -85 33l-174 56q-276 87 -276 346q0 209 156 344t414 135q259 0 379 -154q38 -48 54 -106h101l-39 -160h-260q15 73 -1 114q-16 40 -52 68q-73 58 -215 58t-237 -80z" />
    <glyph glyph-name="uni0406" unicode="&#x406;" horiz-adv-x="780" 
d="M425 1516h492l-41 -173h-141l-268 -1171h139l-39 -172h-492l39 172h144l270 1171h-143z" />
    <glyph glyph-name="uni0407" unicode="&#x407;" horiz-adv-x="883" 
d="M425 1516h492l-41 -173h-141l-268 -1171h139l-39 -172h-492l39 172h144l270 1171h-143zM737 1840q0 53 38 91q39 38 77 38q67 0 103 -39t36 -78q0 -64 -35 -104q-35 -41 -89 -41t-92 40t-38 93zM421 1840q0 53 38 91t77 38q66 0 102 -38q37 -38 37 -78q0 -67 -35 -106
q-35 -40 -89 -40t-92 40t-38 93z" />
    <glyph glyph-name="uni0408" unicode="&#x408;" horiz-adv-x="762" 
d="M390 1516h491l-41 -173h-141l-271 -1171q-22 -66 -178 -246q-70 -80 -157 -164l-168 15q131 148 215 269t96 159l263 1138h-150z" />
    <glyph glyph-name="uni0409" unicode="&#x409;" horiz-adv-x="2189" 
d="M1532 172q149 0 246.5 89t97.5 233q0 94 -63.5 155.5t-188.5 61.5h-273l-125 -539h306zM1665 883q186 0 305 -105.5t119 -277.5q0 -213 -163.5 -356.5t-426.5 -143.5h-662l39 172h142l270 1171h-471l-174 -598q-122 -396 -263 -568.5t-356 -176.5h-147l71 311h189
l-37 -155q119 27 179.5 136t95 212.5t75.5 236.5l180 602h-211l41 173h1239l-40 -173h-164l-105 -460h275z" />
    <glyph glyph-name="uni040A" unicode="&#x40a;" horiz-adv-x="2198" 
d="M1706 172q150 0 247 88.5t97 233.5q0 94 -63.5 155.5t-188.5 61.5h-272l-125 -539h305zM1839 883q187 0 305.5 -105t118.5 -278q0 -213 -163.5 -356.5t-426.5 -143.5h-661l39 172h141l125 539h-662l-125 -539h150l-39 -172h-491l38 172h134l270 1171h-148l41 173h492
l-41 -173h-137l-105 -460h662l106 460h-143l41 173h491l-41 -173h-141l-104 -460h274z" />
    <glyph glyph-name="uni040B" unicode="&#x40b;" horiz-adv-x="1717" 
d="M1153 907q133 0 216 -16.5t161.5 -84t27.5 -294.5l-80 -340h164l-39 -172h-491l39 172h158l75 322q36 155 -20 205.5t-196 50.5t-232 -20.5t-189 -53.5l-116 -504h151l-39 -172h-491l39 172h143l272 1180h-313l-53 -236h-205l92 400h1223l-92 -400h-205l53 236h-303
l-119 -521q236 76 369 76z" />
    <glyph glyph-name="uni040C" unicode="&#x40c;" horiz-adv-x="1642" 
d="M411 1516h492l-41 -173h-137l-268 -1171h149l-39 -172h-492l39 172h134l270 1171h-148zM1390 1343l41 173h389l-41 -173h-94l-837 -589l468 -582h158l-39 -172h-407l39 172l-469 602zM1447 1909v-17l-299 -282h-154l213 299h240z" />
    <glyph glyph-name="uni040D" unicode="&#x40d;" horiz-adv-x="1935" 
d="M413 1516h516l-41 -173h-159l-250 -1079l1110 1252h379l-41 -173h-135l-268 -1171h148l-39 -172h-493l39 172h135l252 1088l-1114 -1260h-377l41 176h137l268 1167h-149zM850 1956h248l184 -299h-145l-287 282v17z" />
    <glyph glyph-name="uni040E" unicode="&#x40e;" horiz-adv-x="1293" 
d="M-2 0q68 293 72 311h188q-10 -45 -20 -89t-21 -89q35 0 63 6t73 43q44 37 161 210l-230 951h-127l39 173h491l-39 -173h-161l166 -736l467 736h-133l39 173h492l-39 -173h-140q-163 -247 -326 -490t-293 -439t-215 -294q-123 -140 -274 -140q-83 0 -149 20h-84zM652 1720
q-92 92 -84 238h141q3 -92 51 -146t155 -53q107 -1 171 55t86 144h145q-24 -135 -134 -233q-109 -97 -274 -97t-257 92z" />
    <glyph glyph-name="uni040F" unicode="&#x40f;" horiz-adv-x="1882" 
d="M1425 1516h492l-41 -173h-138l-270 -1181h138l-37 -162h-642l-79 -348h-189l80 348h-672l37 162h143l272 1181h-148l41 173h493l-41 -173h-138l-270 -1181h803l273 1181h-148z" />
    <glyph glyph-name="uni0410" unicode="&#x410;" horiz-adv-x="1456" 
d="M531 686h459l-75 688zM919 172h127l-37 342h-574l-191 -342h136l-38 -172h-492l39 172h131l760 1344h323l158 -1344h150l-39 -172h-492z" />
    <glyph glyph-name="uni0411" unicode="&#x411;" horiz-adv-x="1464" 
d="M766 172q150 0 247 88.5t97 233.5q0 94 -63.5 155.5t-188.5 61.5h-272l-125 -539h305zM899 883q187 0 305.5 -105t118.5 -278q0 -213 -163.5 -356.5t-426.5 -143.5h-661l39 172h141l272 1180h-110l39 164h1067l-93 -400h-204l53 236h-545l-106 -469h274z" />
    <glyph glyph-name="uni0412" unicode="&#x412;" horiz-adv-x="1499" 
d="M942 848q122 0 204 77t82 195q0 154 -101 206q-34 18 -79 17h-323l-113 -495h330zM792 172q132 0 214 78q83 78 83 190q0 111 -49 172q-49 62 -131 62h-337l-115 -502h335zM1169 753q137 -100 137 -297t-156 -327q-156 -129 -387 -129h-688l39 172h134l270 1171h-148
l41 173h678q167 0 262 -101q94 -101 94 -254q0 -301 -276 -408z" />
    <glyph glyph-name="uni0413" unicode="&#x413;" horiz-adv-x="1313" 
d="M113 172h131l272 1180h-129l39 164h1051l-93 -400h-204l53 236h-510l-270 -1180h151l-39 -172h-491z" />
    <glyph glyph-name="uni0414" unicode="&#x414;" horiz-adv-x="1559" 
d="M545 717q-117 -403 -301 -545h702l271 1171h-492zM-115 172h54q228 21 307.5 241t111.5 328l174 602h-196l41 173h1235l-41 -173h-148l-268 -1171h145l-118 -520h-197l80 348h-1024l-80 -348h-194z" />
    <glyph glyph-name="uni0415" unicode="&#x415;" horiz-adv-x="1413" 
d="M411 1516h1100l-100 -433h-207l61 260h-540l-111 -485h446l-43 -172h-442l-118 -514h534l61 262h209l-100 -434h-1086l39 172h134l270 1171h-148z" />
    <glyph glyph-name="uni0416" unicode="&#x416;" horiz-adv-x="2038" 
d="M653 172h154l118 520h-112l-498 -520l-39 -172h-368l41 172h139l608 623l-352 548h-96l39 173h299l-41 -173l290 -479h129l113 479h-152l41 173h492l-41 -173h-145l-111 -479h129l502 479l39 173h317l-41 -173h-98l-625 -581l342 -590h144l-41 -172h-353l41 172l-270 520
h-125l-121 -520h146l-41 -172h-492z" />
    <glyph glyph-name="uni0417" unicode="&#x417;" horiz-adv-x="1167" 
d="M338.5 215q62.5 -49 181.5 -49t227.5 94t108.5 240q0 100 -63.5 159.5t-165.5 59.5h-86l34 151h70q145 0 245.5 86.5t100.5 212.5q0 127 -82 165t-142 38q-112 0 -190 -56t-104 -110q-6 -28 -12 -52t-12 -50h-246l20 86t21 86h71q67 120 192 195t244 75q208 0 322.5 -108
t114.5 -254q0 -187 -109.5 -273t-189.5 -114q69 -33 114.5 -110t45.5 -183t-48.5 -202.5t-127 -166t-180 -109.5t-197.5 -40q-184 0 -300 91.5t-124 248.5h-58l39 172h246l-33 -148q10 -86 72.5 -135z" />
    <glyph glyph-name="uni0418" unicode="&#x418;" horiz-adv-x="1935" 
d="M413 1516h516l-41 -173h-159l-250 -1079l1110 1252h379l-41 -173h-135l-268 -1171h148l-39 -172h-493l39 172h135l252 1088l-1114 -1260h-377l41 176h137l268 1167h-149z" />
    <glyph glyph-name="uni0419" unicode="&#x419;" horiz-adv-x="1935" 
d="M413 1516h516l-41 -173h-159l-250 -1079l1110 1252h379l-41 -173h-135l-268 -1171h148l-39 -172h-493l39 172h135l252 1088l-1114 -1260h-377l41 176h137l268 1167h-149zM951 1720q-92 92 -84 238h141q2 -92 50 -146t156 -53q106 -1 170 55t87 144h145
q-24 -135 -134 -233q-109 -97 -274 -97t-257 92z" />
    <glyph glyph-name="uni041A" unicode="&#x41a;" horiz-adv-x="1640" 
d="M411 1516h492l-41 -173h-137l-268 -1171h149l-39 -172h-492l39 172h134l270 1171h-148zM1390 1343l41 173h389l-41 -173h-94l-837 -589l468 -582h158l-39 -172h-407l39 172l-469 602z" />
    <glyph glyph-name="uni041B" unicode="&#x41b;" horiz-adv-x="1647" 
d="M895 172h147l271 1171h-496l-174 -598q-120 -395 -262.5 -568t-355.5 -177h-148l72 311h188l-37 -155q119 26 179.5 135.5t95.5 213t76 236.5l180 602h-211l41 173h1239l-41 -173h-139l-269 -1171h135l-38 -172h-492z" />
    <glyph glyph-name="uni041C" unicode="&#x41c;" horiz-adv-x="2290" 
d="M114 172h136l270 1171h-150l41 173h459l197 -1301l784 1301h473l-41 -173h-137l-270 -1171h159l-39 -172h-491l39 172h132l266 1154l-800 -1326h-231l-202 1323l-266 -1151h163l-39 -172h-492z" />
    <glyph glyph-name="uni041D" unicode="&#x41d;" horiz-adv-x="1931" 
d="M1476 1516h492l-41 -173h-137l-268 -1171h149l-39 -172h-492l39 172h134l126 545h-857l-125 -545h149l-39 -172h-492l39 172h134l270 1171h-148l41 173h492l-41 -173h-137l-105 -458h858l105 458h-148z" />
    <glyph glyph-name="uni041E" unicode="&#x41e;" horiz-adv-x="1577" 
d="M730 172q262 0 440 200q176 199 177 492q0 215 -122 346t-314 131q-124 0 -235 -50q-111 -49 -195 -139q-182 -194 -182 -480q0 -215 123 -357q123 -143 308 -143zM708 -31q-124 0 -240 49q-116 48 -202 138q-190 195 -191 499q0 254 115 458t313 318q197 113 447 113
t435 -180t185 -483q0 -263 -114 -475q-168 -312 -512 -406q-112 -30 -236 -31z" />
    <glyph glyph-name="uni041F" unicode="&#x41f;" horiz-adv-x="1877" 
d="M419 1516h1493l-41 -173h-137l-268 -1171h137l-39 -172h-492l39 172h146l270 1171h-803l-268 -1171h141l-39 -172h-491l39 172h141l270 1171h-139z" />
    <glyph glyph-name="uni0420" unicode="&#x420;" horiz-adv-x="1313" 
d="M835 829q165 0 264 77t99 221q0 143 -131 197q-45 18 -107 19h-237l-117 -514h229zM1017 1516q170 0 281 -110t111 -269q0 -213 -158 -346q-158 -134 -438 -134h-247l-111 -485h151l-39 -172h-492l39 172h132l270 1171h-148l41 173h608z" />
    <glyph glyph-name="uni0421" unicode="&#x421;" horiz-adv-x="1468" 
d="M75 655q0 247 112 451t308 321t438 117q171 0 303 -68t217 -190h156l-41 -172h-276q-71 164 -252 215q-60 17 -129 17q-261 0 -436 -197q-176 -197 -176 -477q0 -223 128 -360q128 -138 308 -138q293 0 467 250l192 -102q-245 -347 -682 -347q-274 0 -455 194
q-182 195 -182 486z" />
    <glyph glyph-name="uni0422" unicode="&#x422;" horiz-adv-x="1362" 
d="M348 172h140l272 1180h-367l-53 -236h-205l92 400h1352l-93 -400h-204l53 236h-368l-270 -1180h142l-39 -172h-491z" />
    <glyph glyph-name="uni0423" unicode="&#x423;" horiz-adv-x="1293" 
d="M-2 0q68 293 72 311h188q-10 -45 -20.5 -89t-20.5 -89q35 0 63.5 6t72 43.5t161.5 209.5l-230 951h-127l39 173h491l-39 -173h-161l166 -736l467 736h-133l39 173h492l-39 -173h-140q-163 -247 -326 -490t-293 -439t-234 -315t-255 -119q-83 0 -149 20h-84z" />
    <glyph glyph-name="uni0424" unicode="&#x424;" horiz-adv-x="1540" 
d="M351 534.5q97 -75.5 272 -79.5l163 708q-268 -7 -400 -130t-132 -273t97 -225.5zM1350 874q0 135 -93.5 209t-273.5 82l-164 -710q260 4 365.5 102t135.5 173.5t30 143.5zM1552 868q0 -112 -59 -219.5t-221 -229.5t-492 -126l-26 -121h145l-39 -172h-491l39 172h149
l27 121q-239 8 -386 130t-147 320q0 123 59.5 228.5t224 229.5t488.5 124l29 121h-141l34 151h476l-35 -151h-137l-29 -121q238 -8 385 -126t147 -331z" />
    <glyph glyph-name="uni0425" unicode="&#x425;" horiz-adv-x="1487" 
d="M1115 1516h491l-41 -173h-104l-551 -579l284 -592h150l-39 -172h-491l38 172h137l-218 446l-424 -446h118l-39 -172h-491l39 172h121l590 621l-268 550h-146l41 173h491l-41 -173h-130l193 -402l382 402h-133z" />
    <glyph glyph-name="uni0426" unicode="&#x426;" horiz-adv-x="1879" 
d="M1422 1516h492l-41 -173h-137l-271 -1181h201l-117 -510h-188l80 348h-1376l37 162h145l272 1181h-150l41 173h494l-41 -173h-137l-271 -1181h802l272 1181h-148z" />
    <glyph glyph-name="uni0427" unicode="&#x427;" horiz-adv-x="1579" 
d="M738 541q-150 0 -246.5 17t-185.5 94.5t-27 344.5l75 346h-139l39 173h491l-38 -173h-150l-74 -329q-43 -192 13.5 -245.5t221.5 -53.5t394 67l129 561h-154l39 173h492l-39 -173h-131l-268 -1171h135l-39 -172h-492l39 172h148l100 432q-183 -63 -333 -63z" />
    <glyph glyph-name="uni0428" unicode="&#x428;" horiz-adv-x="2423" 
d="M1972 1516h492l-41 -173h-137l-271 -1181h144l-37 -162h-2048l37 162h143l272 1181h-147l41 173h491l-41 -173h-137l-270 -1181h569l273 1181h-148l41 173h492l-41 -173h-138l-270 -1181h565l273 1181h-148z" />
    <glyph glyph-name="uni0429" unicode="&#x429;" horiz-adv-x="2431" 
d="M1972 1516h492l-41 -173h-137l-271 -1181h232l-117 -510h-188l79 348h-1947l37 162h143l272 1181h-147l41 173h491l-41 -173h-137l-270 -1181h569l273 1181h-148l41 173h492l-41 -173h-138l-270 -1181h565l273 1181h-148z" />
    <glyph glyph-name="uni042A" unicode="&#x42a;" horiz-adv-x="1567" 
d="M938 172q150 0 247 88.5t97 233.5q0 94 -63.5 155.5t-188.5 61.5h-274l-125 -539h307zM1071 883q187 0 305.5 -105t118.5 -278q0 -213 -163.5 -356.5t-426.5 -143.5h-661l39 172h139l272 1180h-299l-53 -236h-205l92 400h871l-39 -164h-160l-106 -469h276z" />
    <glyph glyph-name="uni042B" unicode="&#x42b;" horiz-adv-x="2044" 
d="M774 172q150 0 247 89t97 233q0 94 -64 156t-188 61h-272l-125 -539h305zM907 883q187 0 305 -105q119 -105 119 -278q0 -213 -163 -357q-163 -143 -427 -143h-661l39 172h141l270 1171h-143l41 173h491l-41 -173h-141l-104 -460h274zM1625 1516h492l-41 -173h-141
l-268 -1171h139l-39 -172h-492l39 172h144l270 1171h-143z" />
    <glyph glyph-name="uni042C" unicode="&#x42c;" horiz-adv-x="1397" 
d="M768 172q150 0 247 88.5t97 233.5q0 94 -63.5 155.5t-188.5 61.5h-272l-125 -539h305zM901 883q187 0 305.5 -105t118.5 -278q0 -213 -163.5 -356.5t-426.5 -143.5h-661l39 172h141l270 1171h-143l41 173h491l-41 -173h-141l-104 -460h274z" />
    <glyph glyph-name="uni042D" unicode="&#x42d;" horiz-adv-x="1602" 
d="M1346 897q0 49 -20.5 123t-80.5 163.5t-194 135.5q-77 22 -144 22q-155 0 -261.5 -55t-199.5 -170h-256l39 170h107q262 258 602 258q270 0 449.5 -179.5t179.5 -483.5q0 -201 -65.5 -369t-181.5 -289t-272.5 -187.5t-338.5 -66.5q-322 0 -435.5 151.5t-146.5 244.5
q47 24 94 47.5t94 48.5q102 -289 416 -289q216 0 379 139t215 346h-825l37 181h806q3 10 3 59z" />
    <glyph glyph-name="uni042E" unicode="&#x42e;" horiz-adv-x="2347" 
d="M2087 864q0 213 -120.5 345t-315.5 132q-123 0 -234.5 -50t-245 -191.5t-133.5 -427.5q0 -212 123 -356t330 -144q113 0 225.5 53.5t241.5 200t129 438.5zM1478 -31q-287 0 -475 190.5t-188 495.5v21q0 22 2 39h-227l-125 -543h139l-39 -172h-491l39 172h143l270 1171
h-143l41 173h491l-41 -173h-141l-104 -456h213q75 299 303 478t511 179t468.5 -179.5t185.5 -483.5q0 -201 -65.5 -369t-181 -289t-272.5 -187.5t-313 -66.5z" />
    <glyph glyph-name="uni042F" unicode="&#x42f;" horiz-adv-x="1464" 
d="M557 1036q0 -76 57.5 -123t155.5 -47h287l110 477h-264q-346 -1 -346 -307zM827 702q-110 0 -187 -58t-136 -183l-219 -461h-295l45 190h131l162 330q41 86 103.5 146.5t117.5 83.5q-88 34 -143.5 115.5t-55.5 184.5q0 207 162.5 336.5t407.5 129.5l636 2l-40 -175h-152
l-270 -1171h155l-39 -172h-491l39 172h139l123 530h-193z" />
    <glyph glyph-name="uni0430" unicode="&#x430;" horiz-adv-x="1307" 
d="M299 426q0 -126 67 -199t176 -73q149 0 272 103l129 554q-63 80 -226 80t-291 -128q-127 -129 -127 -337zM92 389q0 302 187 488t454 186q154 0 249 -81l13 54h201l-200 -864h161l-39 -172h-363l16 70q-131 -88 -287 -88t-274 123q-118 122 -118 284z" />
    <glyph glyph-name="uni0431" unicode="&#x431;" horiz-adv-x="1239" 
d="M590 152q68 0 138.5 31.5t151.5 123t81 279.5q0 131 -72 218t-172 87q-188 0 -305 -118t-117 -292t81 -251.5t214 -77.5zM395 950q131 119 328 119t320.5 -129t123.5 -342q0 -262 -176.5 -442.5t-411.5 -180.5q-236 0 -361.5 131t-125.5 343q0 106 39 239t45 154
q78 318 279 485.5t508 168.5h110l13 60h225l-49 -229h-342q-187 0 -326 -105.5t-199 -271.5z" />
    <glyph glyph-name="uni0432" unicode="&#x432;" horiz-adv-x="1204" 
d="M713 590q112 0 166.5 44t54.5 104q0 126 -158 126h-307l-63 -274h307zM625 172q219 0 219 147q0 52 -37 89.5t-119 37.5h-315l-64 -274h316zM1059 340q0 -142 -134.5 -241t-340.5 -99h-502l199 864h-119l41 172h612q160 0 249 -69.5t89 -184.5q0 -185 -213 -262
q119 -65 119 -180z" />
    <glyph glyph-name="uni0433" unicode="&#x433;" horiz-adv-x="1065" 
d="M670 1067q151 0 240 -71t89 -179q0 -141 -70 -201t-190.5 -99.5t-204 -69t-157.5 -66.5t-94.5 -69t-20.5 -80t50 -76.5t108 -28.5q112 0 187.5 38t94.5 118h213l-20 -86t-21 -86h-104q-131 -142 -352 -142q-161 0 -256.5 70.5t-95.5 183.5q0 255 344 357q116 36 193 60
t121 47.5t61.5 50t17.5 67.5q0 104 -158 104q-61 0 -125.5 -21.5t-99.5 -56.5t-43 -73h-205l41 172h98q130 137 359 137z" />
    <glyph glyph-name="uni0434" unicode="&#x434;" horiz-adv-x="1284" 
d="M285 459q0 -138 81 -222.5t228 -84.5q146 0 270 132t124 314q0 136 -93 214.5t-229 78.5q-141 0 -261 -125.5t-120 -306.5zM76 449q0 258 173.5 438t398.5 180t341 -104q-16 227 -150 323t-374 117l40 162q410 -20 561.5 -250.5t121.5 -636.5q-27 -316 -202 -508.5
t-403 -192.5t-367.5 135.5t-139.5 336.5z" />
    <glyph glyph-name="uni0435" unicode="&#x435;" horiz-adv-x="1169" 
d="M686 897q-115 0 -204 -70t-132 -182h590q3 185 -148 236q-48 16 -106 16zM1012 164q-146 -195 -452 -195q-82 0 -166 32t-146 93q-134 130 -133 350q0 260 173 442q173 181 427 181q188 0 303 -117t115 -280q0 -90 -19 -187h-796q-3 -42 -3 -74q1 -32 21 -86
q20 -53 56 -93q78 -85 198 -85q174 0 274 127z" />
    <glyph glyph-name="uni0436" unicode="&#x436;" horiz-adv-x="1847" 
d="M1444 864l41 172h393l-41 -172h-129l-397 -346l243 -346h125l-39 -172h-219l-301 442h-137l-63 -270h108l-39 -172h-295l103 449h-158l-320 -277l-38 -172h-342l38 172h127l402 348l-244 344h-125l39 172h219l301 -440h135l62 268h-109l41 172h295l-104 -446h180l317 274
h-69z" />
    <glyph glyph-name="uni0437" unicode="&#x437;" horiz-adv-x="975" 
d="M461 608q191 0 236.5 66.5t45.5 116.5q0 116 -182 116q-151 0 -207.5 -69.5t-68.5 -106.5h-195l39 172h72q67 72 168 120t197 48q180 0 274 -72.5t94 -189.5q0 -118 -76 -185t-158 -92q134 -51 134 -201t-133.5 -250.5t-323.5 -100.5q-259 0 -324 114.5t-73 184.5
q47 10 94 21l94 22q12 -179 225 -179q171 0 212.5 65.5t41.5 125.5t-56 89.5t-134 29.5h-99l35 155h68z" />
    <glyph glyph-name="uni0438" unicode="&#x438;" horiz-adv-x="1288" 
d="M390 237q40 -87 181 -87t235 148l132 566h-136l41 172h336l-200 -864h155l-39 -172h-348l24 105q-119 -123 -308 -123q-51 0 -111 20t-93 50q-67 64 -91 156q-23 92 12 243l95 413h-140l41 172h340l-123 -526q-43 -186 -3 -273z" />
    <glyph glyph-name="uni0439" unicode="&#x439;" horiz-adv-x="1290" 
d="M390 237q40 -87 181 -87t235 148l132 566h-136l41 172h336l-200 -864h155l-39 -172h-348l24 105q-119 -123 -308 -123q-51 0 -111 20t-93 50q-67 64 -91 156q-23 92 12 243l95 413h-140l41 172h340l-123 -526q-43 -186 -3 -273zM451 1241q-92 92 -84 238h141
q2 -91 50 -145t156 -54q106 0 170 56t87 143h145q-24 -135 -134 -233q-109 -97 -274 -97t-257 92z" />
    <glyph glyph-name="uni043A" unicode="&#x43a;" horiz-adv-x="1257" 
d="M184 1036h355l-103 -444h150l325 276l41 168h336l-41 -172h-96l-389 -329l250 -365h125l-39 -170h-219l-312 469h-159l-109 -469h-203l199 864h-152z" />
    <glyph glyph-name="uni043B" unicode="&#x43b;" horiz-adv-x="1475" 
d="M1262 172l-39 -172h-353q50 217 100 432t99 432h-317q-107 -376 -179.5 -550t-205.5 -244t-277 -70h-57l38 166q179 0 249.5 92t102.5 174t73 211l67 221h-143l41 172h958l-20 -86q-10 -43 -21 -86h-106q-41 -174 -80 -346t-80 -346h150z" />
    <glyph glyph-name="uni043C" unicode="&#x43c;" horiz-adv-x="1722" 
d="M4 -2h-53l31 168q60 0 100 13.5t79.5 62t100.5 262.5l103 358h-121l41 174h319l193 -717l557 717h368l-39 -174h-153l-156 -690h131l-39 -172h-319l166 737l-596 -747l-201 758l-88 -326q-28 -104 -56.5 -183t-96.5 -160t-271 -81z" />
    <glyph glyph-name="uni043D" unicode="&#x43d;" horiz-adv-x="1311" 
d="M190 1036h334l-92 -393h471l92 393h203l-201 -864h150l-39 -172h-352l110 477h-471l-110 -477h-203l199 864h-131z" />
    <glyph glyph-name="uni043E" unicode="&#x43e;" 
d="M284 475q0 -151 78 -237t217 -86t254 124t115 310q0 137 -80 221t-217 84q-138 1 -250 -119q-53 -56 -85 -136q-32 -79 -32 -161zM75 442q-1 93 21 172t62 148q79 138 218 222q139 83 301 83q205 0 343 -136q137 -136 137 -333q0 -258 -178 -442q-175 -181 -437 -181
q-94 1 -181 37t-151 100t-100 150t-35 180z" />
    <glyph glyph-name="uni043F" unicode="&#x43f;" horiz-adv-x="1432" 
d="M225 1036h1155l-41 -172h-141l-160 -692h150l-39 -172h-352l198 864h-471l-159 -692h145l-39 -172h-491l38 172h144l160 692h-138z" />
    <glyph glyph-name="uni0440" unicode="&#x440;" horiz-adv-x="1331" 
d="M1049 618q0 126 -68 200q-68 73 -195 73q-126 0 -256 -106l-127 -549q65 -82 227 -82q163 0 291 128t128 336zM568 968q137 95 295 95q157 0 275 -123t118 -284q0 -302 -187 -488t-454 -186q-155 0 -252 81l-83 -362h171l-39 -172h-377l311 1335h-198l41 172h393z" />
    <glyph glyph-name="uni0441" unicode="&#x441;" horiz-adv-x="1135" 
d="M921 731q-64 160 -266 160q-49 -1 -111 -29t-116 -83q-124 -127 -124 -318q0 -144 78 -225q78 -82 177 -82q100 0 161 30q62 30 117 101l145 -109q-143 -201 -416 -201q-204 0 -337 137q-134 137 -134 337q0 135 51 249t134 196q84 82 188 128t211 45q229 0 354 -164h125
l-28 -172h-209z" />
    <glyph glyph-name="uni0442" unicode="&#x442;" horiz-adv-x="2099" 
d="M1180 882q168 173 402 173q157 0 241 -101t42 -288l-114 -494h149l-39 -172h-352l149 641q28 118 -18 178t-140 60q-162 0 -297 -126l-173 -753h-203l149 641q28 118 -18 178t-140 60q-164 0 -297 -127l-173 -752h-203l200 864h-194l41 172h387l-25 -106q150 125 334 125
q106 0 183 -43t109 -130z" />
    <glyph glyph-name="uni0443" unicode="&#x443;" horiz-adv-x="1163" 
d="M-143 -471h-29v172h84q210 0 377 272q4 7 7 13t7 12l-143 866h-78l41 172h379l-41 -172h-113q61 -442 90 -659q103 166 203 329.5t203 329.5h-123l41 172h379q-11 -43 -21 -86l-20 -86h-62q-137 -217 -271.5 -434t-240.5 -384t-248 -342t-421 -175z" />
    <glyph glyph-name="uni0444" unicode="&#x444;" horiz-adv-x="1907" 
d="M1618 618q0 130 -67.5 201.5t-190.5 71.5t-227 -49q-37 -162 -74 -322t-74 -321q65 -45 175 -45q199 0 328.5 127.5t129.5 336.5zM319 444q0 -135 74 -212.5t204 -77.5t202 41l147 645q-67 51 -225 51q-157 0 -279.5 -126t-122.5 -321zM1383 1063q204 0 323 -123
t119 -285q0 -302 -188 -487.5t-466 -185.5q-137 0 -225 47q-18 -82 -37.5 -164t-38.5 -164h154l-39 -172h-340q29 123 55.5 242.5t55.5 242.5q-87 -34 -194 -34q-199 0 -324 127t-125 319q0 137 49 255t133 204t197.5 134t255.5 48t239 -53q23 92 42.5 185t41.5 185h-151
l20 86t21 86h337l-38 -172h-3q-25 -128 -81 -362q93 41 207 41z" />
    <glyph glyph-name="uni0445" unicode="&#x445;" horiz-adv-x="1137" 
d="M626 172h75l-146 238l-237 -238h64l-38 -172h-379l39 172h85l389 365l-227 327h-108l41 172h379l-41 -172h-66l137 -222l225 222h-73l41 172h379l-41 -172h-74l-374 -341l234 -351h95l-39 -172h-379z" />
    <glyph glyph-name="uni0446" unicode="&#x446;" horiz-adv-x="1292" 
d="M801 117q-120 -135 -333 -135q-50 0 -113.5 19t-96.5 51q-67 65 -90 156t10 243l94 413h-139l41 172h340l-123 -526q-43 -186 0 -273t174 -87q60 0 133.5 35.5t126.5 113.5l131 565h-147l41 172h348l-176 -768q-26 -106 63 -106h103l-103 -449h-182l66 287h-11
q-120 0 -138.5 48t-18.5 69z" />
    <glyph glyph-name="uni0447" unicode="&#x447;" horiz-adv-x="1174" 
d="M505 362q-108 0 -176.5 17.5t-138.5 89t-31.5 219.5t44.5 176h-109l41 172h297q-6 -22 -11 -46.5t-35 -147.5t-34 -177q-7 -91 35.5 -118t160.5 -27q119 0 197 15q29 127 59 250.5t58 250.5h189q-52 -217 -101 -432t-100 -432h147l-39 -172h-335q22 96 43.5 190.5
t44.5 190.5q-98 -19 -206 -19z" />
    <glyph glyph-name="uni0448" unicode="&#x448;" horiz-adv-x="2052" 
d="M1466 102q-116 -120 -321 -120q-88 0 -155.5 43t-104.5 108q-76 -82 -177.5 -116.5t-182.5 -34.5q-176 0 -272.5 108.5t-39.5 362.5q23 104 47.5 205.5t46.5 205.5h-153l20 86t21 86h356q-19 -80 -42.5 -166t-59.5 -230.5t-44 -263.5q-8 -118 39.5 -172t137.5 -54
t152.5 35.5t109.5 115.5q43 186 85 367.5t85 367.5h203q-19 -80 -78.5 -297.5t-67.5 -364.5q-12 -224 189 -224q63 0 129.5 35.5t115.5 113.5q33 141 65 282.5t64 282.5h-112l20 86t21 86h315q-51 -217 -100 -432t-101 -432h193l-39 -172h-387q6 27 11 51.5t11 50.5z" />
    <glyph glyph-name="uni0449" unicode="&#x449;" horiz-adv-x="1987" 
d="M1479 115q-118 -133 -331 -133q-91 0 -158.5 43t-104.5 108q-76 -82 -177.5 -116.5t-182.5 -34.5q-176 0 -272.5 108.5t-39.5 362.5q23 104 47.5 205.5t46.5 205.5h-153l20 86t21 86h356q-19 -80 -42.5 -166t-59.5 -230.5t-44 -263.5q-8 -118 39.5 -172t137.5 -54
t152.5 35.5t109.5 115.5q37 186 81 367.5t89 367.5h203q-19 -80 -78.5 -297.5t-67.5 -364.5q-12 -224 189 -224q61 0 126.5 33.5t114.5 109.5q35 143 66.5 285.5t66.5 285.5h-112l20 86t21 86h313q-45 -192 -87.5 -384t-68.5 -300t-24 -149t67 -41h103l-103 -449h-182
q28 127 66 287h-11q-86 0 -119.5 37t-37.5 78z" />
    <glyph glyph-name="uni044A" unicode="&#x44a;" horiz-adv-x="1262" 
d="M702 172q87 0 151.5 54.5t64.5 132.5q0 143 -144 143h-225l-76 -330h229zM805 674q139 0 223 -76t84 -181q0 -190 -137 -303.5t-320 -113.5h-411l200 864h-192l-31 -133h-192l71 305h574l-84 -362h215z" />
    <glyph glyph-name="uni044B" unicode="&#x44b;" horiz-adv-x="1604" 
d="M541 172q86 0 151 55q64 55 64 132q0 143 -144 143h-225l-76 -330h230zM643 674q139 0 223 -76t84 -181q0 -189 -136 -303t-320 -114h-412l201 864h-138l41 172h326l-84 -362h215zM1288 1036h203l-201 -864h166l-39 -172h-368z" />
    <glyph glyph-name="uni044C" unicode="&#x44c;" horiz-adv-x="1100" 
d="M541 172q86 0 150.5 54.5t64.5 132.5q0 143 -144 143h-225l-76 -330h230zM643 674q139 0 223 -76t84 -181q0 -189 -136.5 -303t-319.5 -114h-412l201 864h-138l41 172h326l-84 -362h215z" />
    <glyph glyph-name="uni044D" unicode="&#x44d;" horiz-adv-x="1145" 
d="M197 903q158 166 436 166q76 0 160 -37t177 -137t93 -297q0 -254 -173.5 -438.5t-430.5 -184.5q-150 0 -265.5 74t-168.5 199l188 84q25 -78 89.5 -129t180.5 -51t222.5 83t142.5 236h-578l35 154h551q-8 117 -92 191.5t-186 74.5q-96 0 -181.5 -46.5t-120.5 -113.5h-208
l38 172h91z" />
    <glyph glyph-name="uni044E" unicode="&#x44e;" horiz-adv-x="1726" 
d="M801 463q0 -146 74.5 -228.5t215.5 -82.5t251 123t110 311q0 141 -74.5 223t-211.5 82t-251 -121.5t-114 -306.5zM1526.5 932.5q134.5 -134.5 134.5 -334.5q0 -261 -172 -442t-422 -181q-205 0 -333 130t-128 337h-219l-102 -442h-203l199 864h-185l41 172h387l-98 -426
h199q48 198 204 327.5t359 129.5q204 0 338.5 -134.5z" />
    <glyph glyph-name="uni044F" unicode="&#x44f;" horiz-adv-x="1212" 
d="M625 877q-244 0 -244 -162q0 -58 48 -90.5t130 -32.5h201q16 72 32.5 142.5t32.5 142.5h-200zM326 502q-131 56 -131 206q0 70 34.5 132.5t128 128t287.5 65.5h217v2h295l-37 -159h-92q-41 -179 -82 -353t-82 -352h150l-39 -172h-352q26 111 50.5 221.5t51.5 220.5h-150
q-171 0 -250 -155q-40 -78 -77 -147.5t-72 -139.5h-278l39 172h139q26 49 86.5 167t163.5 163z" />
    <glyph glyph-name="uni0450" unicode="&#x450;" horiz-adv-x="1171" 
d="M686 897q-115 0 -204 -70t-132 -182h590q3 185 -148 236q-48 16 -106 16zM1012 164q-146 -195 -452 -195q-82 0 -166 32t-146 93q-134 130 -133 350q0 260 173 442q173 181 427 181q188 0 303 -117t115 -280q0 -90 -19 -187h-796q-3 -42 -3 -74q1 -32 21 -86
q20 -53 56 -93q78 -85 198 -85q174 0 274 127zM323 1477h248l184 -299h-145l-287 282v17z" />
    <glyph glyph-name="uni0451" unicode="&#x451;" horiz-adv-x="1171" 
d="M686 897q-115 0 -204 -70t-132 -182h590q3 185 -148 236q-48 16 -106 16zM1012 164q-146 -195 -452 -195q-82 0 -166 32t-146 93q-134 130 -133 350q0 260 173 442q173 181 427 181q188 0 303 -117t115 -280q0 -90 -19 -187h-796q-3 -42 -3 -74q1 -32 21 -86
q20 -53 56 -93q78 -85 198 -85q174 0 274 127zM865 1360q1 52 39 90t76 39q62 0 101 -38q38 -38 38 -78q1 -67 -37 -107q-37 -40 -76 -39q-38 1 -62 11t-40 28q-38 42 -39 94zM406 1360q0 52 38 90t78 39q64 0 101 -38t37 -78q0 -66 -37 -106t-75 -40q-38 1 -62 11t-42 28
q-38 42 -38 94z" />
    <glyph glyph-name="uni0452" unicode="&#x452;" horiz-adv-x="1372" 
d="M1002 1055q161 0 238 -92.5t30 -294.5l-172 -748q-41 -180 -154 -283.5t-276 -107.5l8 139q176 25 231 273l164 704q29 119 -18 180.5t-162 61.5t-277 -107l-180 -780h-203l263 1137h-125l34 151h125l23 96h-125l39 172h328l-62 -268h469l-35 -151h-469l-49 -215
q194 133 355 133z" />
    <glyph glyph-name="uni0453" unicode="&#x453;" horiz-adv-x="1065" 
d="M670 1067q151 0 240 -71t89 -179q-1 -141 -83 -212q-57 -49 -177 -89q-121 -38 -205 -68t-157 -67q-75 -37 -95 -69t-20 -80t50 -76t108 -29q112 0 187 38q76 38 95 118h213l-20 -86t-21 -86h-104q-131 -142 -352 -142q-161 0 -256 71q-96 71 -96 183q0 255 344 357
q116 36 193 60t121 48t62 50t17 67q0 104 -158 104q-61 1 -125 -21t-100 -57q-35 -35 -43 -73h-205l41 172h98q130 137 359 137zM986 1476v-17l-299 -282h-154l213 299h240z" />
    <glyph glyph-name="uni0454" unicode="&#x454;" horiz-adv-x="1116" 
d="M682 891q-120 0 -219.5 -80t-136.5 -205h553l-35 -151h-539q0 -141 78.5 -221t175.5 -80q96 0 157.5 28.5t121.5 102.5l145 -109q-143 -201 -416 -201q-200 0 -335.5 135.5t-135.5 338.5q0 135 51.5 248.5t134.5 195.5t187.5 128t208.5 46q236 0 356 -164h125l-29 -172
h-208q-33 80 -103.5 120t-136.5 40z" />
    <glyph glyph-name="uni0455" unicode="&#x455;" horiz-adv-x="1012" 
d="M418 870q-56 -39 -56 -106q0 -40 26 -66t80 -49l193 -69q180 -65 180 -263q1 -166 -115 -257t-302 -91q-184 1 -282 83q-32 28 -51 63h-106l41 172h211q-9 -74 49 -117q59 -43 152 -43q140 0 190 95q16 31 17 70q0 83 -111 122l-184 67q-89 35 -137 103t-48 146
q0 156 105 247q105 90 290 90q244 0 325 -147h112l-41 -172h-207q-3 116 -115 150q-34 10 -98 11q-62 0 -118 -39z" />
    <glyph glyph-name="uni0456" unicode="&#x456;" horiz-adv-x="725" 
d="M391 1401q0 55 39 93t80 38t65 -10q23 -10 41 -28t28 -42t11 -51q-1 -55 -39 -95t-79 -40t-65 11t-42 29q-39 40 -39 95zM200 1036h387l-200 -864h166l-39 -172h-369l200 864h-186z" />
    <glyph glyph-name="uni0457" unicode="&#x457;" horiz-adv-x="725" 
d="M198 1036h387l-200 -864h166l-39 -172h-369l200 864h-186zM528 1360q0 53 38 91t76 38q67 0 104 -39q36 -39 36 -78q0 -64 -35 -104q-35 -41 -89 -41t-92 40t-38 93zM212 1360q0 53 38 91t77 38q66 0 102 -38q37 -38 37 -78q0 -67 -35 -106q-35 -40 -89 -40t-92 40
t-38 93z" />
    <glyph glyph-name="uni0458" unicode="&#x458;" horiz-adv-x="668" 
d="M396 1401q0 55 39 93t80 38t65 -10t42 -28t28 -42t10 -51q0 -55 -38 -95t-80 -40q-41 0 -65 11t-42 29q-39 40 -39 95zM185 1036h405l-258 -1112q-64 -278 -286 -365q-72 -28 -156 -30l16 145q173 25 228 269l214 921h-204z" />
    <glyph glyph-name="uni0459" unicode="&#x459;" horiz-adv-x="1716" 
d="M1309 172q86 0 150.5 54.5t64.5 132.5q0 143 -144 143h-225l-76 -330h230zM1411 674q139 0 223 -76t84 -181q0 -189 -136.5 -303t-319.5 -114h-412l201 864h-303l-89 -291q-92 -307 -226 -441t-341 -134h-57l39 168q176 0 260.5 108.5t163.5 368.5l67 221h-149l41 172
h958l-41 -172h-135l-43 -190h215z" />
    <glyph glyph-name="uni045A" unicode="&#x45a;" horiz-adv-x="1784" 
d="M1331 172q88 0 151.5 55t63.5 132t-40 110t-103 33h-225l-76 -330h229zM1434 674q139 0 223 -76t84 -181q0 -190 -137 -303.5t-320 -113.5h-412l119 508h-442l-117 -508h-203l199 864h-131l41 172h334l-84 -362h442l84 362h189l-84 -362h215z" />
    <glyph glyph-name="uni045B" unicode="&#x45b;" horiz-adv-x="1319" 
d="M533 930q158 125 327 125t253.5 -100.5t42.5 -288.5l-115 -494h148l-39 -172h-351l150 641q29 117 -17.5 177.5t-164.5 60.5t-269 -107l-178 -772h-203l263 1137h-125l34 151h125l23 96h-125l39 172h328l-62 -268h469l-35 -151h-469z" />
    <glyph glyph-name="uni045C" unicode="&#x45c;" horiz-adv-x="1257" 
d="M184 1036h355l-103 -444h150l325 276l41 168h336l-41 -172h-96l-389 -329l250 -365h125l-39 -170h-219l-312 469h-159l-109 -469h-203l199 864h-152zM1067 1477v-17l-299 -282h-154l213 299h240z" />
    <glyph glyph-name="uni045D" unicode="&#x45d;" horiz-adv-x="1290" 
d="M390 237q40 -87 181 -87t235 148l132 566h-136l41 172h336l-200 -864h155l-39 -172h-348l24 105q-119 -123 -308 -123q-51 0 -111 20t-93 50q-67 64 -91 156q-23 92 12 243l95 413h-140l41 172h340l-123 -526q-43 -186 -3 -273zM323 1477h248l184 -299h-145l-287 282v17z
" />
    <glyph glyph-name="uni045E" unicode="&#x45e;" horiz-adv-x="999" 
d="M388 1241q-92 92 -84 238h141q3 -91 51 -145t155 -54t171 56t86 143h145q-24 -135 -134 -233q-109 -97 -274 -97t-257 92zM-143 -471h-29v172h84q210 0 377 272q4 7 7 13t7 12l-143 866h-78l41 172h379l-41 -172h-113q61 -442 90 -659q103 165 203 329t203 330h-123
l41 172h379q-11 -43 -21 -86l-20 -86h-62q-137 -217 -272 -434q-134 -217 -240 -384t-176 -254q-214 -263 -493 -263z" />
    <glyph glyph-name="uni045F" unicode="&#x45f;" horiz-adv-x="1401" 
d="M432 -135h189l-78 -336h-189zM480 -18q-148 0 -228 77q-59 59 -82 149.5t10 242.5l94 413h-139l41 172h340l-123 -526q-43 -186 -3 -273t171 -87q60 0 127.5 34.5t118.5 112.5l131 567h-135l41 172h336l-201 -864h156l-39 -172h-348l22 104q-61 -65 -142.5 -93.5
t-147.5 -28.5z" />
    <glyph glyph-name="uni0490" unicode="&#x490;" horiz-adv-x="1270" 
d="M170 172h131l272 1180h-137l39 164h848l61 266h203l-100 -430h-707l-270 -1180h152l-39 -172h-492z" />
    <glyph glyph-name="uni0491" unicode="&#x491;" horiz-adv-x="1022" 
d="M449 872h-162l39 164h694l66 285h194l-104 -449h-525l-162 -700h166l-39 -172h-368z" />
    <glyph glyph-name="uni04B0" unicode="&#x4b0;" horiz-adv-x="1270" 
d="M1007 1516h491l-39 -173h-123l-570 -638h340l-39 -173h-353l-84 -360h141l-39 -172h-491l38 172h142l83 360h-332l39 173h324l-254 638h-147l39 173h492l-39 -173h-123l176 -473l410 473h-121z" />
    <glyph glyph-name="uni04B1" unicode="&#x4b1;" horiz-adv-x="1067" 
d="M142 1036h379l-41 -172h-82l69 -677l416 677h-98l41 172h379l-41 -172h-94l-558 -864h295l-39 -172h-296l-69 -299h-186l69 299h-296l39 172h297l-117 864h-108z" />
    <glyph glyph-name="endash" unicode="&#x2013;" horiz-adv-x="1024" 
d="M40 647h1024l-40 -162h-1024z" />
    <glyph glyph-name="emdash" unicode="&#x2014;" horiz-adv-x="2048" 
d="M40 647h2048l-40 -162h-2048z" />
    <glyph glyph-name="quoteleft" unicode="&#x2018;" horiz-adv-x="487" 
d="M497 1561l127 -64l-264 -518l-182 80z" />
    <glyph glyph-name="quoteright" unicode="&#x2019;" horiz-adv-x="509" 
d="M439 1563l185 -80l-324 -504l-125 65z" />
    <glyph glyph-name="quotesinglbase" unicode="&#x201a;" horiz-adv-x="637" 
d="M215 266l186 -80l-323 -503l-127 63z" />
    <glyph glyph-name="quotedblleft" unicode="&#x201c;" horiz-adv-x="918" 
d="M499 1563l129 -66l-268 -516l-182 78zM927 1561l127 -64l-264 -518l-182 80z" />
    <glyph glyph-name="quotedblright" unicode="&#x201d;" horiz-adv-x="918" 
d="M710 979l-125 65l264 517l185 -78zM282 979l-125 65l264 519l185 -80z" />
    <glyph glyph-name="quotedblbase" unicode="&#x201e;" horiz-adv-x="920" 
d="M645 266l186 -80l-323 -503l-127 63zM215 266l186 -80l-323 -503l-127 63z" />
    <glyph glyph-name="dagger" unicode="&#x2020;" horiz-adv-x="1126" 
d="M291 1036h416l110 477h207l-111 -477h402l-31 -172h-412l-307 -1335h-207l308 1335h-406z" />
    <glyph glyph-name="daggerdbl" unicode="&#x2021;" horiz-adv-x="1126" 
d="M254 885h418l145 628h207l-145 -628h401l-39 -168h-401l-127 -545h401l-39 -172h-401l-109 -471h-207l109 471h-416l39 172h416l127 545h-418z" />
    <glyph glyph-name="bullet" unicode="&#x2022;" horiz-adv-x="989" 
d="M294 728q75 75 182.5 75t184 -74.5t76.5 -183.5t-76.5 -183.5t-183.5 -74.5t-182.5 74t-75.5 183t75 184z" />
    <glyph glyph-name="ellipsis" unicode="&#x2026;" horiz-adv-x="1899" 
d="M1512 119.5q0 54.5 39.5 92.5t79.5 38q41 0 65 -10.5t41.5 -28t28 -41.5t10.5 -64.5t-38.5 -81t-79.5 -40.5t-65 11t-52.5 40.5t-28.5 84zM879 119.5q0 54.5 39.5 92.5t79.5 38q41 0 65 -10.5t41.5 -28t28 -41.5t10.5 -64.5t-38.5 -81t-79.5 -40.5t-65 11t-52.5 40.5
t-28.5 84zM246 119.5q0 54.5 39.5 92.5t79.5 38q41 0 65 -10.5t41.5 -28t28 -41.5t10.5 -64.5t-38.5 -81t-79.5 -40.5t-65 11t-52.5 40.5t-28.5 84z" />
    <glyph glyph-name="perthousand" unicode="&#x2030;" horiz-adv-x="2359" 
d="M1020 268q0 -51 36 -91t88 -40q95 0 160.5 61t65.5 132t-38 109t-88 38t-89 -15.5t-68.5 -42t-48 -63.5t-18.5 -88zM1248 641q134 0 216 -82t82 -192q0 -155 -120.5 -273.5t-295.5 -118.5q-125 0 -205.5 82.5t-80.5 178.5t32.5 166.5t89 124t132.5 84t150 30.5zM1790 268
q0 -51 36 -91t88 -40q95 0 160.5 61t65.5 132t-38 109t-88 38t-89 -15.5t-68.5 -42t-48 -63.5t-18.5 -88zM2018 641q136 0 217 -82.5t81 -191.5q0 -155 -120.5 -273.5t-294.5 -118.5q-126 0 -206.5 82.5t-80.5 178.5t32.5 166.5t89 124t132.5 84t150 30.5zM1421 1540h226
l-1401 -1556h-226zM334 1126q0 -52 37 -91.5t89 -39.5q95 0 160.5 61t65.5 133q0 71 -38 108.5t-88 37.5t-89 -15t-69.5 -42t-49 -63.5t-18.5 -88.5zM563 1499q133 0 216 -83t83 -193q0 -156 -120.5 -272.5t-295.5 -116.5q-125 0 -205.5 81t-80.5 177t32.5 166.5t89 124
t132 85t149.5 31.5z" />
    <glyph glyph-name="guilsinglleft" unicode="&#x2039;" horiz-adv-x="557" 
d="M264 545l131 -373h-186l-139 395l319 391h197z" />
    <glyph glyph-name="guilsinglright" unicode="&#x203a;" horiz-adv-x="539" 
d="M350 586l-131 372h187l139 -395l-320 -391h-196z" />
    <glyph glyph-name="fraction" unicode="&#x2044;" horiz-adv-x="1444" 
d="M1511 1577h220l-1635 -1638h-219z" />
    <glyph glyph-name="foursuperior" unicode="&#x2074;" horiz-adv-x="866" 
d="M43 1145l387 457h147l-378 -455h183l38 164h135l-38 -164h112l-25 -110h-113l-46 -197h-135l46 197h-336z" />
    <glyph glyph-name="Euro" unicode="&#x20ac;" horiz-adv-x="1503" 
d="M428 653h625l-152 -186h-448q39 -131 132 -217t253 -86t287 82t247 248l160 -82q-214 -311 -423.5 -374t-334.5 -63t-230.5 49.5t-216 177.5t-110.5 394q0 184 76 356t203 303t296 210t353 79q260 0 354 -96t131 -154h96l-40 -178h-216q-40 115 -126.5 178.5t-257.5 63.5
t-332.5 -110.5t-249.5 -286.5h618l-151 -187h-531q-4 -31 -8 -60.5t-4 -60.5z" />
    <glyph glyph-name="uni2113" unicode="&#x2113;" horiz-adv-x="977" 
d="M862 1310q0 44 -18.5 56t-36.5 12q-93 0 -189 -150.5t-143 -381.5q17 12 30 23.5t65 51.5t112.5 97t100.5 107.5t59.5 95.5t19.5 89zM842 1563q106 0 162.5 -63.5t56.5 -165.5t-36 -177.5t-113.5 -157t-200.5 -180t-297 -235.5q-15 -64 -28.5 -126.5t-27.5 -118.5
q-25 -103 7 -156.5t114 -53.5t187 57q40 -128 41 -131q-134 -75 -278 -75t-219.5 90t-35.5 268q4 18 8 37.5t8 38.5q-22 -17 -41.5 -33t-42.5 -33l-83 146q57 45 113.5 89t113.5 89q14 57 27 113.5t35 153.5t73 218t158 263.5t299 142.5z" />
    <glyph glyph-name="uni2116" unicode="&#x2116;" horiz-adv-x="2558" 
d="M1886 692q0 -70 50 -123t114 -53q122 0 200.5 78t78.5 201q0 82 -51.5 129t-115.5 47t-111.5 -19.5t-84.5 -54.5t-58.5 -85t-21.5 -120zM1704 172h491l-38 -172h-492zM1731 702q0 76 34.5 153t128.5 164t269 87q133 0 226 -86.5t93 -212.5q0 -184 -122 -304t-310 -120
q-136 0 -227.5 89t-91.5 230zM1370 1516h492l-39 -173h-137l-308 -1343h-262l-414 1253l-247 -1081h151l-39 -172h-491l39 172h133l270 1171h-149l41 173h415l408 -1248l246 1075h-148z" />
    <glyph glyph-name="trademark" unicode="&#x2122;" horiz-adv-x="1706" 
d="M129 952h82l117 506h-113l-16 -74h-136l46 195h655l-45 -195h-133l16 74h-139l-117 -506h80l-25 -112h-297zM674 952h92l117 506h-92l28 121h295l57 -469l285 469h287l-29 -121h-94l-117 -506h94l-24 -112h-297l24 112h70l90 385l-243 -385h-164l-64 385l-90 -385h72
l-25 -112h-297z" />
    <glyph glyph-name="uni2126" unicode="&#x2126;" horiz-adv-x="1849" 
d="M1702 974q0 171 -121 282.5t-305 111.5q-117 0 -228.5 -43t-198.5 -116.5t-140.5 -172t-53.5 -189.5q0 -155 73.5 -247t184.5 -123l-110 -477h-629l82 354h193l-43 -182h243l47 203q-83 31 -166.5 147t-83.5 274t73 293.5t195 238t279 161.5t305 59q278 0 444.5 -153
t166.5 -391q0 -239 -137.5 -375.5t-221.5 -186t-137 -67.5l-47 -203h244l43 182h192l-82 -354h-628l110 477q185 48 280 142t136 179t41 176z" />
    <glyph glyph-name="estimated" unicode="&#x212e;" horiz-adv-x="1671" 
d="M821 1247q-82 0 -164 -18.5t-145 -47t-102 -65.5t-39 -76v-340q0 -32 30 -32h852q23 0 29 8t6 24v340q0 39 -43 77t-110.5 66.5t-149.5 46t-164 17.5zM841 -31q-327 0 -533 182t-206 482q0 164 60.5 289t211 251.5t467.5 126.5t510.5 -185.5t207.5 -500.5h-1160
q-12 0 -20 -5t-8 -27v-338q0 -29 32.5 -67t137 -96t269.5 -58t287 58t195 150h133q-131 -141 -275 -201.5t-309 -60.5z" />
    <glyph glyph-name="partialdiff" unicode="&#x2202;" horiz-adv-x="1233" 
d="M264 438q0 -120 78 -194t181 -74q195 0 321.5 116t126.5 312q0 38 -4 72q-62 166 -245 166t-320.5 -109t-137.5 -289zM516 -4q-205 0 -322.5 113.5t-117.5 304.5q0 131 55 238.5t142 184t194.5 119.5t219.5 43t183 -34l-208 561h233l215 -668q45 -162 45 -280
q0 -117 -58.5 -225.5t-151.5 -187.5t-209 -124t-220 -45z" />
    <glyph glyph-name="uni2206" unicode="&#x2206;" horiz-adv-x="1464" 
d="M1217 172l-197 1061l-692 -1061h889zM1038 1583h95l292 -1534l-12 -49h-1401l13 49z" />
    <glyph glyph-name="product" unicode="&#x220f;" horiz-adv-x="1536" 
d="M512 1556h1323l-39 -172h-133l-389 -1683h147l-39 -172h-491l39 172h135l389 1683h-639l-389 -1683h131l-39 -172h-491l39 172h151l389 1683h-133z" />
    <glyph glyph-name="summation" unicode="&#x2211;" horiz-adv-x="1522" 
d="M1149 59h209l-123 -532h-1262l25 104l838 858l-412 926l25 101h1243l-121 -523h-207l80 350h-764l401 -901l-735 -743h719z" />
    <glyph glyph-name="minus" unicode="&#x2212;" horiz-adv-x="1149" 
d="M123 614l39 172h846l-39 -172h-846z" />
    <glyph glyph-name="divisionslash" unicode="&#x2215;" horiz-adv-x="1423" 
d="M1161 1104h219l-1161 -1165h-219z" />
    <glyph glyph-name="radical" unicode="&#x221a;" horiz-adv-x="1272" 
d="M209 864h-162l39 172h287l151 -846h4l877 1326h211l-985 -1516h-269z" />
    <glyph glyph-name="infinity" unicode="&#x221e;" horiz-adv-x="1704" 
d="M436 535q202 0 361 272q-8 99 -75 172.5t-177 73.5t-207.5 -91t-97.5 -219q0 -86 53 -147t143 -61zM1505 844q0 90 -53.5 149.5t-153.5 59.5t-190 -72t-154 -178q28 -268 232 -268q119 0 219 93t100 216zM397 373q-143 0 -234 95t-91 243q0 100 44 192t115.5 161
t166 109.5t194.5 40.5q242 0 326 -241q210 241 436 241q144 0 232.5 -97t88.5 -243q0 -100 -44 -191t-115.5 -159.5t-165 -109.5t-191.5 -41q-245 0 -328 250q-203 -250 -434 -250z" />
    <glyph glyph-name="integral" unicode="&#x222b;" horiz-adv-x="1182" 
d="M1223 1405q-90 0 -146.5 -44t-81.5 -153l-303 -1321q-82 -358 -426 -358q-157 0 -264 61l102 154q73 -43 165 -43q93 0 150.5 63.5t90.5 215.5l258 1124q55 257 157 365t278 108t282 -61l-103 -154q-69 43 -159 43z" />
    <glyph glyph-name="approxequal" unicode="&#x2248;" horiz-adv-x="1229" 
d="M479 868q83 0 239 -72q58 -26 109 -48t89 -23q88 0 180 152l73 -115q-45 -84 -105 -130t-151 -46t-239 72q-149 72 -197 71q-89 0 -180 -151l-74 114q94 176 256 176zM397 521q83 1 239 -71q58 -26 109 -50q51 -22 89 -22q88 0 180 152l73 -115q-45 -84 -105 -130
t-151 -46q-91 -1 -239 71q-149 72 -197 72q-89 0 -180 -151l-74 114q94 176 256 176z" />
    <glyph glyph-name="notequal" unicode="&#x2260;" horiz-adv-x="989" 
d="M221 877h416l104 172h148l-105 -172h189l-39 -172h-254l-119 -197h328l-39 -172h-391l-119 -197h-147l118 197h-211l39 172h275l118 197h-348z" />
    <glyph glyph-name="lessequal" unicode="&#x2264;" horiz-adv-x="1194" 
d="M182 424h779l-39 -172h-779zM154 965l850 295l-46 -187l-612 -192l522 -203l-37 -164l-710 305z" />
    <glyph glyph-name="greaterequal" unicode="&#x2265;" horiz-adv-x="1124" 
d="M121 424h778l-39 -172h-778zM840 811l-850 -295l45 186l612 191l-522 205l37 164l710 -306z" />
    <glyph glyph-name="lozenge" unicode="&#x25ca;" horiz-adv-x="1182" 
d="M635 258l430 549l-168 502l-418 -539zM285 793l616 770h100l261 -772l-631 -791h-94z" />
    <glyph glyph-name="fi" unicode="&#xfb01;" horiz-adv-x="1534" 
d="M1200 1401q0 53 39 92t80 39q66 0 105.5 -38t39.5 -79q0 -70 -39 -109.5t-93 -39.5t-93 41t-39 94zM1010 1036h387l-201 -864h166l-39 -172h-369l199 864h-184zM849 1405q-89 0 -145.5 -44t-80.5 -153l-41 -172h282l-41 -172h-280l-305 -1335h-203l305 1335h-213l41 172
h211l43 183q84 358 426 358q157 0 264 -61l-102 -154q-72 43 -161 43z" />
    <glyph glyph-name="fl" unicode="&#xfb02;" horiz-adv-x="1460" 
d="M1087 1311q-87 94 -243 94q-178 0 -221 -197l-41 -172h282l-41 -172h-280l-305 -1335h-203l305 1335h-213l41 172h211l43 183q45 192 155.5 275t270.5 83t282 -86l15 65h203l-320 -1384h172l-39 -172h-375z" />
    <glyph glyph-name="fourinferior" horiz-adv-x="1141" 
d="M205 102h731v1311h-731v-1311zM102 1516h936v-1516h-936v1516z" />
    <glyph glyph-name="commabelow" horiz-adv-x="569" 
d="M133 -41l211 -84l-180 -348l-144 53z" />
    <glyph glyph-name="commaaccent" horiz-adv-x="340" 
d="M221 1138l-189 74l181 349l121 -44z" />
    <glyph glyph-name="macron#1" horiz-adv-x="922" 
d="M864 1229h-743l26 117h744z" />
    <glyph glyph-name="dieresis.i" horiz-adv-x="983" 
d="M547 1360q0 53 38.5 91t76.5 38q67 0 103 -38.5t36 -78.5q0 -64 -35 -104.5t-89 -40.5t-92 40t-38 93zM231 1360q0 53 38 91t77 38q66 0 102.5 -38t36.5 -78q0 -67 -35.5 -106.5t-88.5 -39.5q-54 0 -92 40t-38 93z" />
    <glyph glyph-name="circumflex.i" horiz-adv-x="799" 
d="M147 1171l267 273h112l120 -273h-160l-44 125l-105 -125h-190z" />
    <glyph glyph-name="breve.i" 
d="M427 1149q-156 0 -234.5 101t-65.5 229h111q-7 -148 65 -185t129 -37q101 0 168 83t80 139h111q-13 -118 -110.5 -224t-253.5 -106z" />
    <glyph glyph-name="caron.i" horiz-adv-x="778" 
d="M676 1444l-297 -273h-113l-149 273h166l67 -129l129 129h197z" />
    <glyph glyph-name="cyr.dotlessi" horiz-adv-x="664" 
d="M348 1036h203l-201 -864h166l-39 -172h-368z" />
    <glyph glyph-name="Ohm" horiz-adv-x="1849" 
d="M1702 974q0 171 -121 283q-121 111 -305 111q-116 0 -228 -43t-199 -117t-141 -172t-53 -189q0 -155 74 -247t184 -123l-110 -477h-629l82 354h193l-43 -182h243l47 203q-83 31 -166 147q-84 116 -84 274t73 294t195 238t278 161t306 59q278 0 444 -153
q167 -153 167 -391t-195 -432q-80 -80 -164 -130t-137 -67l-47 -203h244l43 182h192l-82 -354h-628l110 477q185 47 309 171q66 64 107 150q41 85 41 176z" />
    <glyph glyph-name="one.fract" horiz-adv-x="539" 
d="M184 899h84l103 436l-160 -75l35 143l243 119h62l-143 -623h81l-26 -117h-303z" />
    <glyph glyph-name="two.fract" horiz-adv-x="717" 
d="M453 538q0 32 -20.5 53t-65.5 21t-80 -28.5t-45 -71.5h-156q23 110 109 175t188 65t166.5 -53t64.5 -141q0 -89 -31.5 -124t-58.5 -57l-282 -236h274l-33 -141h-503l28 121l338 276q107 79 107 141z" />
    <glyph glyph-name="three.fract" horiz-adv-x="752" 
d="M743 1339q0 -118 -131 -172q29 -16 52.5 -50t23.5 -83q0 -100 -86 -175t-201 -75q-116 0 -188 60t-53 160h133q-4 -48 24.5 -73.5t84.5 -25.5t102.5 34t46.5 82q0 93 -107 93h-57l25 107h55q62 0 103.5 31t41.5 71q0 41 -26.5 66.5t-73.5 25.5t-87 -25.5t-50 -72.5h-137
q24 96 101 156.5t180 60.5t163.5 -55.5t60.5 -139.5z" />
    <glyph glyph-name="four.fract" horiz-adv-x="711" 
d="M43 303l387 457h148l-379 -455h182l39 164h135l-39 -164h113l-25 -110h-112l-46 -195h-135l45 195h-336z" />
    <glyph glyph-name="glyph449" horiz-adv-x="2075" 
d="M294 762q0 -122 40 -230t108 -188t162 -126t198 -46h240v1171h-240q-104 0 -198 -45q-94 -46 -162 -124t-108 -184t-40 -228zM814 0q-155 0 -288 60q-134 60 -232 162q-98 104 -154 243t-55 296q-1 157 55 295t154 240t232 160q133 60 288 60h1170v-429h-205v256h-541
v-485h455v-172h-455v-514h541v256h205v-428h-1170z" />
    </font>
</defs>
</svg>
