<?xml version="1.0" standalone="no"?>
<!DOCTYPE svg PUBLIC "-//W3C//DTD SVG 1.1//EN" "http://www.w3.org/Graphics/SVG/1.1/DTD/svg11.dtd" >
<svg xmlns="http://www.w3.org/2000/svg">
<metadata>
Created by FontPrep 20130207 at Sun Jul 26 20:28:35 2015
 By .%( spOoks )%.
Copyright 2013 Anton Koovit, Yassin Baggar.
</metadata>
<defs>
<font id="6868f5e2a1fc92976b7426fac22d5d96" horiz-adv-x='1024' >
  <font-face 
    font-family="Arvo-BoldItalic"
    font-weight="700"
    font-style="italic"
    font-stretch="normal"
    units-per-em="2048"
    panose-1="2 6 9 3 4 2 2 9 3 4"
    ascent="1638"
    descent="-410"
    x-height="1036"
    cap-height="1516"
    bbox="-246 -543 2798 2042"
    underline-thickness="50"
    underline-position="-50"
    unicode-range="U+0020-FB02"
  />
<missing-glyph horiz-adv-x="748" 
d="M136 68h408v1229h-408v-1229zM68 0v1365h544v-1365h-544z" />
    <glyph glyph-name=".notdef" horiz-adv-x="748" 
d="M136 68h408v1229h-408v-1229zM68 0v1365h544v-1365h-544z" />
    <glyph glyph-name=".null" horiz-adv-x="492" 
 />
    <glyph glyph-name="nonmarkingreturn" horiz-adv-x="0" 
 />
    <glyph glyph-name="space" unicode=" " horiz-adv-x="492" 
 />
    <glyph glyph-name="exclam" unicode="!" horiz-adv-x="866" 
d="M246 145q0 74 52 126t126 52t125.5 -52t51.5 -126t-51.5 -126t-125.5 -52t-126 52t-52 126zM533 1577h375l-286 -1061h-293z" />
    <glyph glyph-name="quotedbl" unicode="&#x22;" horiz-adv-x="913" 
d="M895 1059h-219l72 518l288 16zM465 1059h-219l71 518l289 16z" />
    <glyph glyph-name="numbersign" unicode="#" horiz-adv-x="1835" 
d="M795 561h318l155 363h-319zM539 1198h199l128 299h326l-127 -299h320l128 299h326l-128 -299h206l-123 -274h-199l-155 -363h205l-123 -274h-198l-122 -287h-328l122 287h-318l-121 -287h-332l123 287h-205l123 274h199l156 363h-205z" />
    <glyph glyph-name="dollar" unicode="$" horiz-adv-x="1292" 
d="M260 1035q0 223 130.5 346.5t361.5 152.5l53 229h332l-58 -249q109 -33 174 -96.5t76 -141.5h115l-60 -256h-362l11 49q20 90 -34.5 142.5t-152.5 52.5q-166 0 -204 -62t-38 -104t16.5 -66t42.5 -40t57.5 -26.5t61.5 -21.5l207 -76q246 -88 246 -366q0 -213 -139 -348.5
t-371 -168.5l-49 -214h-332l53 229q-113 32 -182.5 103.5t-81.5 172.5h-113l60 256h364l-18 -76q-14 -89 37 -142.5t165 -53.5t180 55.5t66 141.5t-68.5 115t-103.5 40l-172 60q-122 41 -196 141t-74 222z" />
    <glyph glyph-name="percent" unicode="%" horiz-adv-x="1927" 
d="M1440 423.5q-43 -39.5 -43 -90.5t24.5 -78.5t60.5 -27.5q67 0 112.5 42t45.5 94q0 51 -26.5 75.5t-78.5 24.5t-95 -39.5zM1104 280q0 185 141.5 322t341.5 137q148 0 244 -99.5t96 -238.5q0 -183 -138 -315.5t-343 -132.5q-149 0 -245.5 97.5t-96.5 229.5zM1565 1540h383
l-1401 -1556h-383zM503.5 1245q-42.5 -39 -42.5 -90q0 -106 92 -106q59 0 105.5 42.5t46.5 92.5q0 51 -26 75.5t-80 24.5q-53 0 -95.5 -39zM168 1122q0 78 37.5 160.5t141 180.5t302.5 98q149 0 245.5 -100t96.5 -236q0 -182 -140 -316.5t-341 -134.5q-149 0 -245.5 100
t-96.5 248z" />
    <glyph glyph-name="ampersand" unicode="&#x26;" horiz-adv-x="1300" 
d="M848 1168q0 46 -28 78t-70 32q-77 0 -128 -48.5t-51 -119.5q0 -28 10 -58.5t59 -92.5q86 43 118 63q90 59 90 146zM396.5 310.5q38.5 -40.5 100.5 -40.5q115 0 222 72l-199 269q-83 -46 -122.5 -91t-39.5 -107t38.5 -102.5zM41 385q0 203 138 307t186 128
q-89 122 -89 265q0 204 133 331.5t347 127.5q164 0 274.5 -106.5t110.5 -241.5q0 -187 -119 -282t-226 -154l133 -169q42 83 66 173h291q-51 -240 -166 -417l166 -210l-270 -196l-123 166q-189 -132 -434 -132q-178 0 -298 121.5t-120 288.5z" />
    <glyph glyph-name="quotesingle" unicode="'" horiz-adv-x="483" 
d="M465 1059h-219l71 518l289 16z" />
    <glyph glyph-name="parenleft" unicode="(" horiz-adv-x="874" 
d="M496 410q0 -443 143 -717l-285 -160q-190 327 -190 841q0 150 93 522.5t615 872.5l207 -172q-418 -422 -500.5 -740.5t-82.5 -446.5z" />
    <glyph glyph-name="parenright" unicode=")" horiz-adv-x="874" 
d="M481 894q0 435 -143 716l285 159q190 -327 190 -841q0 -150 -94 -524t-615 -871l-206 172q418 418 500.5 739.5t82.5 449.5z" />
    <glyph glyph-name="asterisk" unicode="*" horiz-adv-x="983" 
d="M708 1368l253 76l22 -256l-248 -74l94 -192l-237 -148l-92 191l-185 -195l-186 170l181 192l-208 72l134 242l208 -74l56 244h264z" />
    <glyph glyph-name="plus" unicode="+" horiz-adv-x="1237" 
d="M166 723h366l86 373h297l-86 -373h367l-63 -274h-368l-87 -377h-297l87 377h-366z" />
    <glyph glyph-name="comma" unicode="," horiz-adv-x="532" 
d="M205 283l305 -107l-285 -541l-205 78z" />
    <glyph glyph-name="hyphen" unicode="-" horiz-adv-x="831" 
d="M143 449l64 274h627l-64 -274h-627z" />
    <glyph glyph-name="period" unicode="." horiz-adv-x="539" 
d="M102 145q0 74 52 126t126 52t125.5 -52t51.5 -126t-51.5 -126t-125.5 -52t-126 52t-52 126z" />
    <glyph glyph-name="slash" unicode="/" horiz-adv-x="983" 
d="M860 1556h277l-824 -1556h-282z" />
    <glyph glyph-name="zero" unicode="0" horiz-adv-x="1360" 
d="M426 547q0 -254 197 -254q113 0 207 110.5t150 271.5t56 302q0 254 -194 254q-111 0 -231.5 -140t-152.5 -309t-32 -235zM555 -14q-234 0 -343.5 143t-109.5 383q0 368 173.5 628.5t338 327t292.5 66.5q237 0 345.5 -145t108.5 -387t-125 -546.5t-340 -387t-340 -82.5z
" />
    <glyph glyph-name="one" unicode="1" horiz-adv-x="813" 
d="M84 274h174l182 792l-266 -140l82 348l473 246l145 -2l-286 -1244h172l-64 -274h-676z" />
    <glyph glyph-name="two" unicode="2" horiz-adv-x="1137" 
d="M841.5 1203q-37.5 38 -95.5 38q-99 0 -149 -52.5t-75 -144.5h-329q54 237 208 366.5t363 129.5t332 -121t123 -293q0 -108 -40.5 -197.5t-140.5 -176.5l-515 -445h497l-72 -307h-989l59 260l654 557q116 94 161.5 157t45.5 127t-37.5 102z" />
    <glyph glyph-name="three" unicode="3" horiz-adv-x="1204" 
d="M1266 1174q0 -265 -228 -379q74 -53 90.5 -130.5t16.5 -117.5q0 -118 -52.5 -221t-196.5 -223.5t-433 -120.5q-206 0 -325 126.5t-91 307.5q2 14 2 31t6 40h342q-26 -151 37.5 -177.5t107.5 -26.5q94 0 169 65.5t75 145.5q0 157 -172 157h-139l64 273h141q101 0 164 54.5
t63 120.5t-41.5 109t-115.5 43q-109 0 -148.5 -64.5t-50.5 -123.5l-358 2q43 215 212.5 350t413.5 135q192 0 319.5 -110.5t127.5 -265.5z" />
    <glyph glyph-name="four" unicode="4" horiz-adv-x="1251" 
d="M76 670l737 846h363l-727 -848h298l68 293l315 4l-69 -297h211l-58 -254h-211l-33 -140h187l-63 -274h-676l63 274h175l33 140h-669z" />
    <glyph glyph-name="five" unicode="5" horiz-adv-x="1163" 
d="M699 969q190 0 309.5 -101.5t119.5 -279.5q0 -273 -193 -446t-476 -173q-190 0 -318 112t-118 296l329 84q-10 -91 41 -146t123 -55q128 0 205.5 81t77.5 189q0 72 -51 124.5t-146 52.5t-207 -48l-258 50l187 807h962l-72 -306h-649l-63 -273q100 32 197 32z" />
    <glyph glyph-name="six" unicode="6" horiz-adv-x="1133" 
d="M793 522q0 197 -204 197q-106 0 -185 -106q-52 -79 -52 -160q0 -125 68 -155.5t117 -30.5q101 0 178.5 78.5t77.5 176.5zM711 975q177 0 288 -130.5t111 -299.5q0 -114 -47.5 -215t-173.5 -220.5t-355 -119.5q-325 0 -399 172t-74 255q0 135 47.5 237.5t118.5 191.5
l528 670h387l-444 -541h13z" />
    <glyph glyph-name="seven" unicode="7" horiz-adv-x="1243" 
d="M143 274h150q239 357 400.5 592t231.5 338h-391l-40 -172h-328l113 484h1148l-53 -226q-517 -728 -712 -1016h157l-63 -274h-676z" />
    <glyph glyph-name="eight" unicode="8" horiz-adv-x="1196" 
d="M596 954q45 -41 105 -41q108 0 182.5 59.5t74.5 127.5t-45.5 111.5t-105.5 43.5t-104 -17t-98 -62t-54 -113t45 -109zM425 312q54 -50 125 -50q124 0 212 71.5t88 152.5t-54 128.5t-125 47.5q-70 0 -121.5 -18.5t-115 -68.5t-63.5 -132q0 -81 54 -131zM248 1029
q0 222 179 368.5t433 146.5q186 0 302 -105.5t116 -280.5q0 -174 -95 -260.5t-149 -118.5q129 -120 129 -279q0 -105 -49.5 -200t-187.5 -211t-410 -116q-201 0 -328 125.5t-127 305.5t110.5 274.5t172.5 128.5q-96 105 -96 222z" />
    <glyph glyph-name="nine" unicode="9" horiz-adv-x="1118" 
d="M444 1002q0 -197 204 -197q106 0 185 106q52 77 52 160q0 125 -68 155.5t-117 30.5q-101 0 -178.5 -78.5t-77.5 -176.5zM526 549q-177 0 -288 130.5t-111 299.5q0 228 173.5 391.5t402.5 163.5q325 0 399 -172t74 -255q0 -134 -46.5 -234t-119.5 -195l-531 -678h-387
l448 549h-14z" />
    <glyph glyph-name="colon" unicode=":" horiz-adv-x="600" 
d="M385.5 271q51.5 -52 51.5 -126t-51.5 -126t-125.5 -52t-126 52t-52 126t52 126t126 52t125.5 -52zM548 1033q52 -52 52 -126t-52 -126t-126 -52t-125.5 52t-51.5 126t51.5 126t125.5 52t126 -52z" />
    <glyph glyph-name="semicolon" unicode=";" horiz-adv-x="610" 
d="M143 283l305 -107l-284 -541l-205 78zM559.5 1033q51.5 -52 51.5 -126t-51.5 -126t-125.5 -52t-126 52t-52 126t52 126t126 52t125.5 -52z" />
    <glyph glyph-name="less" unicode="&#x3c;" horiz-adv-x="971" 
d="M158 705l813 270l-68 -287l-450 -124l393 -130l-58 -254l-686 285z" />
    <glyph glyph-name="equal" unicode="=" horiz-adv-x="1176" 
d="M281 1024h872l-63 -274h-873zM166 526h872l-63 -274h-873z" />
    <glyph glyph-name="greater" unicode="&#x3e;" horiz-adv-x="971" 
d="M854 451l-813 -271l68 287l449 123l-392 131l57 254l686 -285z" />
    <glyph glyph-name="question" unicode="?" horiz-adv-x="1085" 
d="M542 271q52 -52 52 -126t-52 -126t-126 -52t-125.5 52t-51.5 126t51.5 126t125.5 52t126 -52zM791 1136q0 27 -8 47.5t-22 35t-32 22.5t-54.5 8t-79 -36.5t-60.5 -127.5l-330 33q68 321 244.5 377.5t272.5 56.5q184 0 304.5 -106t120.5 -253t-35 -217.5t-81 -119
t-101 -84.5t-88 -55t-79.5 -49.5t-82.5 -75.5t-55 -121h-320q23 122 63 193.5t96 117t138 98.5q81 52 112 82.5t48 59.5t23 58t6 56z" />
    <glyph glyph-name="at" unicode="@" horiz-adv-x="2140" 
d="M1126 686q-88 0 -167.5 -76t-79.5 -161t45 -129t118 -44q124 0 217 118l38 162q-22 91 -77 110.5t-94 19.5zM1153 969q125 0 226 -65l12 52h286l-149 -647q-6 -21 -6 -59.5t50 -38.5t88 26.5t77 84.5t64.5 160.5t25.5 188.5t-40 183.5t-156 213.5t-356 116t-440 -107.5
t-318 -293.5t-118 -427t150.5 -398t398.5 -157q191 0 416 119l84 -227q-291 -156 -527 -156t-415.5 107t-281 291.5t-101.5 410.5q0 305 153.5 557.5t419.5 398.5t584 146q237 0 424.5 -105t291 -280.5t103.5 -382.5q0 -290 -164.5 -494t-425.5 -204q-163 0 -231 110
q-130 -108 -306 -108q-175 0 -289 119.5t-114 289.5q0 261 183 418.5t401 157.5z" />
    <glyph glyph-name="A" unicode="A" horiz-adv-x="1479" 
d="M711 772h243l-30 402zM907 274h84l-16 209h-418l-111 -209h127l-63 -274h-612l63 274h128l689 1242h436l114 -1242h192l-64 -274h-612z" />
    <glyph glyph-name="B" unicode="B" horiz-adv-x="1516" 
d="M1006 901q144 0 178.5 74.5t34.5 111.5q0 68 -37.5 111t-108.5 43h-220l-79 -340h232zM877 274q156 0 186.5 84t30.5 122q0 70 -35.5 108.5t-102.5 38.5h-246l-82 -353h249zM1317 747q117 -88 117 -278q0 -97 -40.5 -190t-153 -186t-380.5 -93h-799l64 274h153l224 967
h-172l63 275h766q187 0 292 -107t105 -276q0 -270 -239 -386z" />
    <glyph glyph-name="C" unicode="C" horiz-adv-x="1493" 
d="M1014 1544q308 0 473 -215h190l-63 -274h-389q-26 68 -91.5 110.5t-147.5 42.5t-146.5 -21.5t-149.5 -79.5t-155 -189.5t-70 -279.5t82 -240.5t219 -92.5q197 0 330 195l317 -158q-236 -373 -686 -373q-273 0 -449 177.5t-176 455.5q0 279 131 493.5t341.5 331.5
t439.5 117z" />
    <glyph glyph-name="D" unicode="D" horiz-adv-x="1585" 
d="M737 274q142 0 303 102.5t201.5 254.5t40.5 245q0 184 -90.5 274.5t-230.5 90.5h-106l-225 -967h107zM1020 1516q279 0 453 -166t174 -457q0 -384 -257.5 -638.5t-697.5 -254.5h-631l64 274h155l224 967h-156l64 275h608z" />
    <glyph glyph-name="E" unicode="E" horiz-adv-x="1505" 
d="M393 1516h1297l-119 -517h-350l55 242h-421l-76 -326h337l-67 -290h-337l-82 -351h396l61 269h351l-125 -543h-1252l64 274h155l224 967h-174z" />
    <glyph glyph-name="F" unicode="F" horiz-adv-x="1450" 
d="M348 1516h1305l-119 -517h-348l55 242h-390l-81 -348h363l-68 -291h-363l-76 -328h175l-64 -274h-676l64 274h151l224 967h-215z" />
    <glyph glyph-name="G" unicode="G" horiz-adv-x="1610" 
d="M720 -31q-114 0 -226 46.5t-241.5 178.5t-129.5 409q0 278 130.5 492t340.5 331.5t444 117.5t343 -85.5t143 -129.5h178l-64 -274h-389q-45 108 -127 133.5t-131 25.5q-102 0 -194 -48t-202 -175.5t-110 -349.5q0 -151 80.5 -248.5t214.5 -97.5t241.5 70.5t149.5 169.5
h-319l63 274h705l-188 -809h-299l53 228q-162 -259 -466 -259z" />
    <glyph glyph-name="H" unicode="H" horiz-adv-x="1946" 
d="M1413 1516h676l-64 -275h-155l-224 -967h175l-64 -274h-676l64 274h151l90 388h-666l-90 -388h171l-64 -274h-676l64 274h155l224 967h-172l63 275h676l-63 -275h-153l-72 -309h665l72 309h-170z" />
    <glyph glyph-name="I" unicode="I" horiz-adv-x="926" 
d="M393 1516h676l-63 -275h-151l-225 -967h171l-64 -274h-676l64 274h155l224 967h-174z" />
    <glyph glyph-name="J" unicode="J" horiz-adv-x="782" 
d="M352 1516h676l-63 -275h-149l-247 -1069q-42 -81 -75 -124.5t-121 -128.5q-77 -79 -174 -165l-281 23q161 172 220 254.5t91 173.5l239 1036h-179z" />
    <glyph glyph-name="K" unicode="K" horiz-adv-x="1745" 
d="M393 1516h676l-63 -275h-151l-225 -967h171l-64 -274h-676l64 274h155l224 967h-174zM1370 1243l64 273h618l-63 -275h-134l-642 -477l350 -490h147l-61 -274h-564l64 274l-377 519z" />
    <glyph glyph-name="L" unicode="L" horiz-adv-x="1317" 
d="M915 274q36 0 61.5 23.5t35.5 58.5l49 201h338l-127 -557h-1211l64 274h153l224 967h-172l63 275h676l-63 -275h-153l-225 -967h287z" />
    <glyph glyph-name="M" unicode="M" horiz-adv-x="2406" 
d="M115 274h136l224 967h-174l64 275h688l181 -1016l619 1016h707l-63 -275h-154l-225 -967h149l-63 -274h-613l64 274h115l189 814l-677 -1070h-301l-199 1082l-199 -826h144l-63 -274h-613z" />
    <glyph glyph-name="N" unicode="N" horiz-adv-x="1786" 
d="M1358 1516h612l-63 -275h-130l-286 -1241h-344l-386 935l-153 -661h129l-63 -274h-613l64 274h135l223 967h-164l64 275h516l374 -936l154 661h-133z" />
    <glyph glyph-name="O" unicode="O" horiz-adv-x="1597" 
d="M1292 875q0 148 -81 240.5t-220 92.5q-102 0 -194 -47t-202 -173t-110 -347q0 -151 82 -243.5t218 -92.5q202 0 354.5 171.5t152.5 398.5zM253 193q-130 131 -130 409q0 279 130.5 493t340.5 331.5t440 117.5q282 0 453.5 -177.5t171.5 -456.5q0 -278 -125 -491.5
t-334 -331.5t-459 -118q-129 0 -243.5 46.5t-244.5 177.5z" />
    <glyph glyph-name="P" unicode="P" horiz-adv-x="1354" 
d="M866 834q215 0 258 89.5t43 158.5t-51.5 114t-154.5 45h-106l-95 -407h106zM1098 1516q203 0 321.5 -115t118.5 -293q0 -377 -240 -461t-421 -84h-180l-67 -289h171l-64 -274h-676l64 274h155l224 967h-174l63 275h705z" />
    <glyph glyph-name="Q" unicode="Q" horiz-adv-x="1556" 
d="M765 305q68 0 131.5 21.5t148 78.5t156 189t71.5 280t-81.5 241t-216.5 93t-284 -101t-187 -247t-38 -220t21 -135.5t60.5 -106t95 -69t123.5 -24.5zM574.5 1427q210.5 117 439.5 117q282 0 453 -177t171 -456t-125 -492.5t-298 -311.5t-334 -125l69 -27q100 -61 160 -61
q158 -1 213 143l199 -111q-51 -145 -179.5 -233t-275.5 -88q-63 0 -119.5 26.5t-137 71.5t-146.5 45t-103 -12l58 241q-202 30 -359.5 188.5t-157.5 436.5q0 279 131 493.5t341.5 331.5z" />
    <glyph glyph-name="R" unicode="R" horiz-adv-x="1483" 
d="M1212 1085q0 156 -180 156h-198l-86 -367h190q197 0 235.5 78.5t38.5 132.5zM1180 1516q187 0 286 -114.5t99 -291.5t-87 -265.5t-144 -116.5t-81 -39q70 -63 74 -197l6 -218h144l-64 -274h-450l24 360q8 131 -38.5 187.5t-166.5 56.5h-96l-77 -330h128l-63 -274h-613
l64 274h134l225 967h-175l64 275h807z" />
    <glyph glyph-name="S" unicode="S" horiz-adv-x="1268" 
d="M808 315.5q66 55.5 66 141.5t-68.5 115t-103.5 40l-172 60q-122 41 -196 141t-74 230q0 246 170 372.5t453 126.5q191 0 310.5 -78.5t135.5 -187.5h115l-60 -256h-362q21 93 12 129t-48.5 75.5t-139.5 39.5q-166 0 -204 -62t-38 -104t16.5 -66t53 -42.5t108.5 -45.5
l207 -76q246 -88 246 -366q0 -242 -180 -384.5t-469 -142.5q-212 0 -325 89.5t-129 211.5h-112l60 256h364q-27 -101 -19 -143t47.5 -85.5t154.5 -43.5t181 55.5z" />
    <glyph glyph-name="T" unicode="T" horiz-adv-x="1368" 
d="M342 274h157l225 967h-194l-43 -186h-344l107 461h1425l-106 -461h-344l43 186h-194l-225 -967h169l-64 -274h-675z" />
    <glyph glyph-name="U" unicode="U" horiz-adv-x="1534" 
d="M962.5 359.5q71.5 74.5 112.5 252.5l145 629h-137l64 275h612l-63 -275h-130l-155 -674q-105 -461 -329 -529.5t-349 -68.5t-270.5 51.5t-216 221.5t-21.5 391l142 608h-150l64 275h612l-64 -275h-116l-146 -629q-21 -100 -12 -155.5t52.5 -113.5t163.5 -58t191.5 74.5z
" />
    <glyph glyph-name="V" unicode="V" horiz-adv-x="1399" 
d="M1114 1516h612l-63 -275h-120l-709 -1241h-408l-107 1241h-155l63 275h613l-64 -275h-113l62 -784l443 784h-117z" />
    <glyph glyph-name="W" unicode="W" horiz-adv-x="2200" 
d="M1915 1516h612l-63 -275h-119l-649 -1241h-410l-8 975l-477 -975h-410l-69 1241h-164l63 275h613l-64 -275h-125l39 -829l530 1104h361l16 -1100l417 825h-157z" />
    <glyph glyph-name="X" unicode="X" horiz-adv-x="1618" 
d="M1208 1516h676l-63 -275h-125l-558 -491l312 -476h170l-64 -274h-675l63 274h118l-170 260l-295 -260h101l-63 -274h-676l64 274h121l584 512l-297 455h-173l64 275h675l-63 -275h-117l156 -239l272 239h-100z" />
    <glyph glyph-name="Y" unicode="Y" horiz-adv-x="1393" 
d="M248 1516h612l-63 -275h-105l133 -328l25 26l262 302h-88l63 275h613l-64 -275h-101l-594 -626l-79 -341h170l-63 -274h-676l63 274h160l82 361l-280 606h-134z" />
    <glyph glyph-name="Z" unicode="Z" horiz-adv-x="1320" 
d="M1455 1202l-974 -928h430l59 258h348l-123 -532h-1175l71 313l956 928h-405l-59 -262h-344l125 537h1163z" />
    <glyph glyph-name="bracketleft" unicode="[" horiz-adv-x="772" 
d="M451 1835h567l-57 -246h-224l-377 -1630h224l-58 -248h-567z" />
    <glyph glyph-name="backslash" unicode="\" horiz-adv-x="829" 
d="M164 1589h235l185 -1677h-242z" />
    <glyph glyph-name="bracketright" unicode="]" horiz-adv-x="711" 
d="M412 1589h-224l58 246h567l-491 -2124h-568l58 248h223z" />
    <glyph glyph-name="asciicircum" unicode="^" horiz-adv-x="1073" 
d="M932 1516l219 -791h-248l-138 524l-394 -524h-269l600 791h230z" />
    <glyph glyph-name="underscore" unicode="_" horiz-adv-x="1083" 
d="M-23 -90h1024l-59 -256h-1024z" />
    <glyph glyph-name="grave" unicode="`" horiz-adv-x="774" 
d="M168 1489h326l196 -311h-229l-293 286v25z" />
    <glyph glyph-name="a" unicode="a" horiz-adv-x="1391" 
d="M699 758q-44 0 -93 -21.5t-107.5 -80t-58.5 -161.5t54 -152.5t151 -49.5t178 79l44 55l50 216q-60 115 -218 115zM786 79q-90 -95 -259 -95q-168 0 -296.5 122t-128.5 319t113 375.5t280.5 219.5t249.5 41q145 0 251 -76l12 51h340l-177 -762h191l-64 -274h-530z" />
    <glyph glyph-name="b" unicode="b" horiz-adv-x="1327" 
d="M1010 559q0 138 -75 165.5t-111 27.5q-156 0 -240 -133l-50 -219q54 -113 216 -113q44 0 93.5 21.5t108 80t58.5 170.5zM665 967q92 94 260 94q169 0 296 -121.5t127 -333.5q0 -270 -185.5 -446t-457.5 -176q-113 0 -207 47q-25 12 -43 26l-13 -57h-340l296 1282h-197
l63 274h537z" />
    <glyph glyph-name="c" unicode="c" horiz-adv-x="1171" 
d="M735 1067q187 0 318 -125h192l-63 -274h-330q-16 42 -59 68t-96 26q-110 0 -189.5 -85t-79.5 -187t51 -156.5t125 -54.5q149 0 230 139l272 -148q-67 -130 -209.5 -212.5t-333.5 -82.5t-326 134t-135 327q0 278 186 454.5t447 176.5z" />
    <glyph glyph-name="d" unicode="d" horiz-adv-x="1405" 
d="M705 764q-98 0 -175 -77t-77 -176t49 -151.5t123 -52.5q73 1 137 35t105 90l52 226q-53 106 -214 106zM722 1061q192 0 273 -72l68 293h-207l64 274h546l-295 -1282h191l-64 -274h-530l18 78q-85 -96 -280 -96q-73 0 -153.5 37t-165.5 132.5t-85 283.5q0 187 113 365.5
t281 219.5t226 41z" />
    <glyph glyph-name="e" unicode="e" horiz-adv-x="1178" 
d="M464 666h433q-4 55 -60 99t-120 44q-192 0 -253 -143zM1198 629q0 -92 -31 -189h-739q10 -117 75.5 -145.5t112.5 -28.5q81 0 138.5 28t117.5 81l220 -193q-195 -209 -517 -209q-201 0 -337 126.5t-136 332.5q0 278 186 456.5t447 178.5q198 0 330.5 -128.5t132.5 -309.5
z" />
    <glyph glyph-name="f" unicode="f" horiz-adv-x="801" 
d="M897 1288q-53 0 -92 -30t-53 -89l-31 -133h221l-68 -293h-222l-283 -1214h-338l284 1214h-200l67 293h202l40 170q42 186 167 279.5t293 93.5t222.5 -40t62.5 -54l-184 -232q-35 35 -88 35z" />
    <glyph glyph-name="g" unicode="g" horiz-adv-x="1303" 
d="M518 684q-80 -80 -80 -192q0 -138 75 -165.5t111 -27.5q151 0 233 128l54 232q-35 54 -83 79.5t-139 25.5t-171 -80zM777 79q-91 -79 -257 -79t-296 117.5t-130 320.5q0 266 184.5 444.5t458.5 178.5q74 0 129 -17t121 -55l17 72h339l-235 -1018q-95 -417 -316.5 -465.5
t-361.5 -48.5t-256.5 36.5t-193.5 96.5l176 264q140 -100 307 -100q117 0 173 34t87 77.5t47 111.5z" />
    <glyph glyph-name="h" unicode="h" horiz-adv-x="1370" 
d="M953 1067q185 0 265 -115.5t35 -312.5l-84 -365h191l-64 -274h-532l129 557q16 75 -10.5 122.5t-97.5 47.5t-195 -92l-146 -635h-350l296 1282h-187l63 274h537l-140 -604q25 25 110 70t180 45z" />
    <glyph glyph-name="i" unicode="i" horiz-adv-x="778" 
d="M434 1370q0 75 51 126.5t125 51.5t126 -52t52 -126t-52 -126t-126 -52t-125 51.5t-51 126.5zM207 1036h532l-176 -762h191l-64 -274h-532l176 762h-191z" />
    <glyph glyph-name="j" unicode="j" horiz-adv-x="707" 
d="M414 1370q0 75 51 126.5t125 51.5t126 -52t52 -126t-52 -126t-126 -52t-125 51.5t-51 126.5zM176 1036h569l-239 -1038q-84 -364 -274 -415.5t-304 -51.5l39 264q107 0 146.5 65t48.5 107l184 795h-233z" />
    <glyph glyph-name="k" unicode="k" horiz-adv-x="1311" 
d="M262 1556h539l-202 -874h114l159 169l43 185h457l-63 -274h-140l-235 -223l135 -265h156l-64 -274h-301l-196 406h-129l-93 -406h-340l296 1282h-199z" />
    <glyph glyph-name="l" unicode="l" horiz-adv-x="729" 
d="M262 1556h539l-296 -1282h189l-63 -274h-529l296 1282h-199z" />
    <glyph glyph-name="m" unicode="m" horiz-adv-x="2083" 
d="M1003 1061q237 0 301 -174q179 174 363 174t265.5 -112.5t35.5 -309.5l-84 -365h189l-64 -274h-530l129 557q16 75 -10.5 122.5t-81.5 47.5q-88 0 -210 -91l-147 -636h-350l129 557q17 73 -9.5 121.5t-81.5 48.5q-89 0 -211 -91l-147 -636h-350l176 762h-172l64 274h518
l-19 -93q154 118 297 118z" />
    <glyph glyph-name="n" unicode="n" horiz-adv-x="1421" 
d="M717 952q144 109 308 109t245.5 -113t36.5 -309l-85 -365h189l-63 -274h-531l129 557q17 73 -9.5 121.5t-81.5 48.5q-91 0 -210 -91l-147 -636h-351l176 762h-180l64 274h526l-15 -74z" />
    <glyph glyph-name="o" unicode="o" 
d="M477.5 329.5q49.5 -55.5 113.5 -55.5q119 0 202.5 85.5t83.5 194.5t-50.5 161.5t-116.5 52.5t-116 -23.5t-108 -87t-58 -167.5q0 -105 49.5 -160.5zM102 460q0 119 51.5 235.5t186 244t395.5 127.5q196 0 331.5 -134t135.5 -329q0 -271 -180.5 -450t-450.5 -179
q-198 0 -333.5 134t-135.5 351z" />
    <glyph glyph-name="p" unicode="p" horiz-adv-x="1366" 
d="M801 287q98 0 178 80t80 192q0 138 -75 165.5t-111 27.5q-153 0 -239 -131l-51 -220q34 -79 104 -96.5t114 -17.5zM712 963q91 98 261 98t297 -121.5t127 -333.5q0 -278 -193 -450t-450 -172q-113 0 -207 47q-26 12 -44 26l-59 -254h201l-63 -274h-541l286 1233h-188
l64 274h520z" />
    <glyph glyph-name="q" unicode="q" horiz-adv-x="1317" 
d="M705 758q-44 0 -93 -21.5t-107.5 -80t-58.5 -161.5t54 -152.5t151 -49.5t178 79q24 23 43 53l51 218q-60 115 -218 115zM544 -16q-178 0 -306.5 122t-128.5 332q0 280 192.5 451.5t450.5 171.5q108 0 205 -47q27 -13 46 -29l15 51h336l-285 -1233h182l-63 -274h-522
l127 551q-36 -40 -100 -68q-65 -28 -149 -28z" />
    <glyph glyph-name="r" unicode="r" horiz-adv-x="1145" 
d="M963 1036h284l-94 -403h-326l25 104q-109 0 -203 -94l-86 -369h217l-63 -274h-559l176 762h-191l64 274h530l-20 -90q100 90 246 90z" />
    <glyph glyph-name="s" unicode="s" horiz-adv-x="1018" 
d="M483 739q0 -43 60 -57l164 -35q145 -32 214.5 -113.5t69.5 -183.5q0 -190 -142.5 -285.5t-351.5 -95.5t-301 97h-165l63 274h299q-7 -43 -1.5 -62.5t31.5 -43t94 -23.5t108.5 24.5t40.5 58.5t-18 52t-66 31l-131 33q-137 35 -212 122.5t-75 183.5q0 174 134 262.5
t308 88.5t284 -66h210l-64 -274h-270q-9 86 -150 86q-92 0 -112.5 -28.5t-20.5 -45.5z" />
    <glyph glyph-name="t" unicode="t" horiz-adv-x="890" 
d="M686 27q-139 -52 -289 -52t-212.5 77t-16.5 263l105 447h-191l63 274h193l59 248l383 164l-98 -412h190l-63 -274h-192l-87 -371q-40 -151 54 -151q42 0 98 16z" />
    <glyph glyph-name="u" unicode="u" horiz-adv-x="1356" 
d="M793 81q-115 -93 -271 -93q-102 0 -183.5 39t-133 136t-4.5 263l77 336h-167l63 274h488l-136 -585q-20 -84 20 -135.5t129 -51.5t171 91l94 407h-158l64 274h477l-177 -762h191l-63 -274h-500z" />
    <glyph glyph-name="v" unicode="v" horiz-adv-x="1133" 
d="M104 1036h512l-63 -274h-81l69 -421l258 421h-88l63 274h512l-63 -274h-96l-492 -762h-338l-141 762h-115z" />
    <glyph glyph-name="w" unicode="w" horiz-adv-x="1780" 
d="M94 1036h512l-63 -274h-67l24 -316l340 590h334l61 -630l205 356h-92l63 274h512l-63 -274h-96l-459 -762h-336l-66 614h-4l-360 -614h-324l-82 762h-102z" />
    <glyph glyph-name="x" unicode="x" horiz-adv-x="1237" 
d="M678 274h73l-97 118l-157 -118h74l-63 -274h-498l64 274h75l328 264l-175 224h-122l64 274h512l-64 -274h-80l89 -104l136 104h-63l64 274h512l-64 -274h-101l-305 -246l189 -242h107l-64 -274h-498z" />
    <glyph glyph-name="y" unicode="y" horiz-adv-x="1126" 
d="M106 1036h512l-63 -274h-77l66 -393l246 393h-85l63 274h512l-63 -274h-81l-634 -959h125l-74 -274h-573l73 274h136l126 200l-167 759h-105z" />
    <glyph glyph-name="z" unicode="z" horiz-adv-x="1150" 
d="M62 164l574 606h-206l-36 -156h-260l96 422h907l-41 -180l-578 -588h222l43 183h260l-103 -451h-915z" />
    <glyph glyph-name="braceleft" unicode="{" horiz-adv-x="817" 
d="M466 -346q-60 0 -82.5 2t-52.5 8t-59.5 22.5t-48 43.5t-31 86.5t19.5 185.5l74 322q37 160 29.5 208.5t-23.5 62.5t-41 19t-133 15l45 190q171 15 215.5 59t74.5 170l91 396q38 153 83 211t107 97.5t173 39.5q112 0 161 -4l49 -4l-75 -328q-81 -4 -107 -19.5t-41.5 -38.5
t-34.5 -106l-86 -370q-19 -87 -57.5 -131t-98.5 -69q100 -62 59 -220l-87 -379q-20 -92 -5 -114.5t42 -30t74 -9.5l-72 -307q-102 -8 -162 -8z" />
    <glyph glyph-name="bar" unicode="|" horiz-adv-x="631" 
d="M522 1729h273l-461 -1999h-273z" />
    <glyph glyph-name="braceright" unicode="}" horiz-adv-x="938" 
d="M74 -346q-78 0 -176 8l75 328q81 4 107 19.5t41.5 38.5t34.5 106l86 370q28 90 72.5 137.5t83.5 62.5q-65 55 -69.5 105.5t3.5 84.5t56 244t49.5 239t-14.5 52.5t-108 27.5l72 307l51 4q52 4 146 4q70 -4 100 -10t74 -30.5t59 -97t-14 -210.5l-74 -322
q-37 -160 -29.5 -208.5t23.5 -62.5t41 -19t133 -15l-45 -190q-184 -17 -223 -62.5t-67 -166.5l-90 -418q-7 -30 -32 -100t-59 -111t-77.5 -67t-97.5 -37t-132 -11z" />
    <glyph glyph-name="asciitilde" unicode="~" horiz-adv-x="905" 
d="M260 590q-93 0 -96 -115l-172 37q0 179 84.5 253.5t187.5 74.5q52 0 192 -72t188 -72t70.5 27.5t30.5 87.5l185 -41q0 -198 -103 -261t-175 -63t-125 23.5t-101.5 50t-90.5 48.5t-75 22z" />
    <glyph glyph-name="NOBREAKSPACE" unicode="&#xa0;" horiz-adv-x="410" 
 />
    <glyph glyph-name="exclamdown" unicode="&#xa1;" horiz-adv-x="948" 
d="M846 889q0 -74 -52 -126t-126 -52t-125.5 52t-51.5 126t51.5 126t125.5 52t126 -52t52 -126zM559 -543h-375l287 1061h293z" />
    <glyph glyph-name="cent" unicode="&#xa2;" horiz-adv-x="1171" 
d="M102 430q0 243 137.5 408.5t352.5 213.5l65 277h332l-70 -299q75 -33 134 -88h192l-63 -274h-330q-16 42 -59 68t-96 26q-110 0 -189.5 -85t-79.5 -187t51 -156.5t125 -54.5q149 0 230 139l272 -148q-86 -170 -219 -222.5t-208 -63.5l-52 -226h-332l61 266
q-116 56 -185 167t-69 239z" />
    <glyph glyph-name="sterling" unicode="&#xa3;" horiz-adv-x="1180" 
d="M831 1458q332 0 375 -165t29 -275l-326 -12q23 115 -23 137t-72 22q-62 0 -113.5 -59t-27.5 -277h267l-57 -245h-171q-2 -165 -108 -310h420l-63 -274h-900l64 274h161q26 54 43 118t14.5 99.5t-8.5 92.5h-183l57 245h99l-1 45q0 277 151.5 430.5t372.5 153.5z" />
    <glyph glyph-name="currency" unicode="&#xa4;" horiz-adv-x="1497" 
d="M563 703q0 -96 55.5 -153.5t130.5 -57.5q137 0 234.5 90t97.5 209q0 88 -56 146t-130 58q-75 0 -132 -24.5t-101.5 -65.5t-71.5 -95.5t-27 -106.5zM270 662q0 197 128 359l-142 208l303 229l149 -217q107 39 216.5 39t207.5 -51l254 223l213 -248l-253 -221
q30 -81 30 -162q0 -197 -131 -362l133 -191l-303 -227l-140 199q-107 -37 -219 -37t-208 53l-234 -203l-213 246l236 206q-27 71 -27 157z" />
    <glyph glyph-name="yen" unicode="&#xa5;" horiz-adv-x="1511" 
d="M264 1516h613l-64 -275h-113l139 -317l282 317h-81l64 275h612l-63 -275h-111l-323 -317h145l-57 -248h-348l-16 -72h347l-57 -248h-347l-19 -82h182l-64 -274h-676l64 274h155l19 82h-363l58 248h362l15 72h-361l57 248h173l-161 317h-126z" />
    <glyph glyph-name="brokenbar" unicode="&#xa6;" horiz-adv-x="647" 
d="M135 481h272l-172 -749h-272zM423 1729h273l-175 -750h-272z" />
    <glyph glyph-name="section" unicode="&#xa7;" horiz-adv-x="1223" 
d="M546 483.5q28 -20.5 81 -38.5l71 -26q88 18 106.5 67t18.5 76q0 49 -58 80l-92 36q-107 -4 -131 -49.5t-24 -85.5q0 -39 28 -59.5zM1075 47q0 -232 -168.5 -374t-428.5 -142t-338 101.5t-90 164.5h-111l63 275h369l-18 -77q-19 -118 47 -140.5t112 -22.5q86 0 136 41.5
t50 102.5t-52.5 80.5t-74.5 27.5l-196 68q-161 57 -192 173.5t-31 184.5q0 232 191 354q-64 96 -64 219q0 226 161.5 345.5t409.5 119.5q184 0 301 -75.5t130 -176.5h108l-64 -274h-371l18 78q12 114 -51 138t-99 24q-79 0 -129 -33t-50 -100t65 -86t91 -29l143 -52
q146 -55 202 -121.5t56 -217.5q0 -213 -186 -364q61 -89 61 -212z" />
    <glyph glyph-name="dieresis" unicode="&#xa8;" horiz-adv-x="940" 
d="M578 1469q52 53 126 53t125.5 -53t51.5 -126.5t-51.5 -125.5t-125.5 -52t-126 52t-52 125.5t52 126.5zM98.5 1469.5q51.5 52.5 125.5 52.5t125.5 -53t51.5 -126.5t-51.5 -125.5t-125.5 -52t-125.5 51.5t-51.5 126t51.5 127z" />
    <glyph glyph-name="copyright" unicode="&#xa9;" horiz-adv-x="1919" 
d="M1148 973q-66 87 -171 87t-170.5 -67.5t-65.5 -161.5t65.5 -161t169.5 -67t173 83l190 -191q-152 -161 -364 -161t-357.5 145.5t-145.5 352.5t146 351.5t360 144.5t363 -160zM958 201q265 0 446.5 183t181.5 446.5t-181.5 446.5t-446.5 183t-446.5 -183t-181.5 -446.5
t181.5 -446.5t446.5 -183zM102 830q0 233 115 429.5t311 311.5t430 115q233 0 430.5 -114.5t313 -311t115.5 -430.5t-115.5 -430t-313 -310.5t-430.5 -114.5t-429.5 115t-311.5 311t-115 429z" />
    <glyph glyph-name="ordfeminine" unicode="&#xaa;" horiz-adv-x="1032" 
d="M554 1122q-122 0 -122 -64q0 -20 19 -39.5t90 -19.5t138 43l17 80h-142zM644 891q-91 -66 -199 -66t-174 62.5t-66 135.5q0 128 96 194.5t250 66.5q92 0 177 -16q13 52 -25 78t-133 26t-203 -49l-39 137q174 107 346 107t235.5 -67t63.5 -153q0 -85 -56 -294h95l-47 -211
h-332z" />
    <glyph glyph-name="guillemotleft" unicode="&#xab;" horiz-adv-x="1069" 
d="M356 545l166 -389h-223l-176 379l18 73l330 361h240zM796 545l167 -389h-224l-176 379l19 73l329 361h240z" />
    <glyph glyph-name="logicalnot" unicode="&#xac;" horiz-adv-x="1821" 
d="M1780 1036l-183 -788h-286l119 514h-1188l63 274h1475z" />
    <glyph glyph-name="SOFTHYPHEN" unicode="&#xad;" horiz-adv-x="0" 
 />
    <glyph glyph-name="registered" unicode="&#xae;" horiz-adv-x="2048" 
d="M958 188q270 0 455.5 187t185.5 455.5t-185.5 455.5t-455.5 187t-455.5 -187t-185.5 -455.5t185.5 -455.5t455.5 -187zM102 830q0 233 115 429.5t311 311.5t430 115q233 0 430.5 -114.5t313 -311t115.5 -430.5t-115.5 -430t-313 -310.5t-430.5 -114.5t-429.5 115
t-311.5 311t-115 429zM947 900q149 0 149 86q0 47 -38 71.5t-102 24.5h-75v-182h66zM528 585h95v497h-91v211h532q147 0 231.5 -84.5t84.5 -188.5t-55.5 -155.5t-103.5 -70.5q35 -14 56 -41t33 -88l15 -80h78v-212h-328l-15 194q-5 63 -14.5 85t-29.5 34t-69 12h-66v-113h79
v-212h-432v212z" />
    <glyph glyph-name="macron" unicode="&#xaf;" horiz-adv-x="831" 
d="M750 1176h-688l43 215h688z" />
    <glyph glyph-name="degree" unicode="&#xb0;" horiz-adv-x="815" 
d="M301.5 1286q43.5 -45 89.5 -45t74.5 11t48.5 31t31.5 48t11.5 62t-11 63t-31 49t-47.5 31.5t-59.5 11.5t-59 -12t-59 -45.5t-32 -96.5t43.5 -108zM627.5 1617q87.5 -89 87.5 -220t-88 -222.5t-218 -91.5q-129 0 -218 91t-89 221t90.5 220.5t219 90.5t216 -89z" />
    <glyph glyph-name="plusminus" unicode="&#xb1;" horiz-adv-x="1298" 
d="M64 274h1024l-63 -274h-1024zM219 957h363l63 296h297l-63 -296h364l-67 -297h-365l-71 -291h-297l71 291h-362z" />
    <glyph glyph-name="twosuperior" unicode="&#xb2;" horiz-adv-x="860" 
d="M645 1333q0 33 -47 33t-68 -63h-225q29 136 128 206t243 70t184.5 -70.5t40.5 -114.5q0 -76 -30 -118.5t-105 -95.5l-190 -133h249l-47 -205h-573l45 192l315 201q80 51 80 98z" />
    <glyph glyph-name="threesuperior" unicode="&#xb3;" horiz-adv-x="797" 
d="M537 1096q0 41 -58 41h-102l31 133h112q44 0 52 32.5t8 40.5q0 39 -39 39q-68 0 -84 -71h-219q21 118 113.5 194t234.5 76q98 0 164.5 -57.5t66.5 -146.5q0 -88 -80 -156q33 -35 33 -98q0 -118 -109 -203.5t-250 -85.5t-203.5 74.5t-35.5 193.5h219q-10 -52 14.5 -67
t51.5 -15t53.5 25t26.5 51z" />
    <glyph glyph-name="acute" unicode="&#xb4;" horiz-adv-x="680" 
d="M582 1489v-25l-306 -286h-235l215 311h326z" />
    <glyph glyph-name="mu" unicode="&#xb5;" horiz-adv-x="1348" 
d="M665 264q109 0 187 91l158 681h319l-176 -762h162l-64 -274h-471l19 81q-114 -93 -271 -93q-48 0 -101 11l-108 -470h-319l348 1507h320l-140 -601q-18 -121 44 -146t93 -25z" />
    <glyph glyph-name="paragraph" unicode="&#xb6;" horiz-adv-x="1446" 
d="M205 916q0 78 25 155.5t94.5 179t234 183.5t367.5 82h684l-64 -275h-141l-371 -1603h-293l371 1603h-172l-371 -1603h-293l207 895q-196 62 -237 183.5t-41 199.5z" />
    <glyph glyph-name="periodcentered" unicode="&#xb7;" horiz-adv-x="539" 
d="M446 779q52 -52 52 -126t-52 -126t-126 -52t-125.5 52t-51.5 126t51.5 126t125.5 52t126 -52z" />
    <glyph glyph-name="cedilla" unicode="&#xb8;" horiz-adv-x="705" 
d="M102 -289q147 34 185 112.5t51 129.5l264 -92q-86 -203 -221.5 -254t-208.5 -60z" />
    <glyph glyph-name="onesuperior" unicode="&#xb9;" horiz-adv-x="715" 
d="M229 1034h131l57 250l-157 -67l53 233l269 127h112l-125 -543h121l-45 -194h-461z" />
    <glyph glyph-name="ordmasculine" unicode="&#xba;" horiz-adv-x="823" 
d="M572 1069q68 0 120.5 50t52.5 122t-46.5 89.5t-78.5 17.5q-69 0 -122.5 -48t-53.5 -121t47 -91.5t81 -18.5zM640 1577q154 0 250.5 -97t96.5 -225q0 -172 -128 -292.5t-318 -120.5q-145 0 -240.5 94t-95.5 231q0 176 93.5 261.5t175.5 117t166 31.5z" />
    <glyph glyph-name="guillemotright" unicode="&#xbb;" horiz-adv-x="1069" 
d="M826 579l-156 390h223l176 -379l-18 -74l-330 -360h-240zM386 579l-157 390h224l176 -379l-19 -74l-329 -360h-240z" />
    <glyph glyph-name="onequarter" unicode="&#xbc;" horiz-adv-x="2025" 
d="M286 1034h131l57 250l-157 -67l53 233l269 127h112l-125 -543h121l-45 -194h-461zM1626 1577h301l-1624 -1638h-307zM1137 348l377 416h215l-381 -422h168l39 166h202l-39 -166h107l-37 -160h-106l-41 -182h-203l41 182h-377z" />
    <glyph glyph-name="onehalf" unicode="&#xbd;" horiz-adv-x="1964" 
d="M286 1034h131l57 250l-157 -67l53 233l269 127h112l-125 -543h121l-45 -194h-461zM1626 1577h301l-1624 -1638h-307zM1550 506q0 31 -38 31q-62 0 -78 -64h-226q49 207 239 261q59 16 113 16q109 0 176 -49q68 -49 68 -143t-62 -144q-13 -10 -18 -15l-243 -174h250
l-52 -225h-573l45 193l322 221q51 34 64 60t13 32z" />
    <glyph glyph-name="threequarters" unicode="&#xbe;" horiz-adv-x="2025" 
d="M1667 1577h301l-1624 -1638h-307zM1178 348l377 416h215l-381 -422h168l39 166h202l-39 -166h107l-37 -160h-106l-41 -182h-203l41 182h-377zM541 1052q0 41 -58 41h-102l31 133h112q44 0 57 52q3 12 3 21q0 39 -39 39q-68 0 -84 -71h-219q21 118 113 194q93 76 235 76
q98 0 165 -58q66 -58 66 -146t-80 -156q33 -35 33 -98q0 -118 -109 -203q-109 -86 -250 -86t-204 75q-62 75 -35 193h219q-9 -52 27 -74q12 -8 31 -8q35 0 62 25q26 25 26 51z" />
    <glyph glyph-name="questiondown" unicode="&#xbf;" horiz-adv-x="1044" 
d="M945 889q0 -74 -51.5 -126t-125.5 -52t-126 52t-52 126t52 126t126 52t125.5 -52t51.5 -126zM397 -102q0 -28 8 -48t21.5 -34.5t32 -22.5t55 -8t79 36.5t60.5 127.5l330 -33q-68 -321 -244.5 -377.5t-272.5 -56.5q-184 0 -304.5 107t-120.5 253q0 147 35 217.5
t80.5 118.5t100.5 84t88.5 55.5t79.5 49t82.5 75t55.5 121.5h320q-33 -175 -97 -246t-124.5 -111t-108.5 -72t-79 -62.5t-48 -59.5t-23 -57.5t-6 -56.5z" />
    <glyph glyph-name="Agrave" unicode="&#xc0;" horiz-adv-x="1479" 
d="M711 772h243l-30 402zM907 274h84l-16 209h-418l-111 -209h127l-63 -274h-612l63 274h128l689 1242h436l114 -1242h192l-64 -274h-612zM641 1969h326l196 -311h-229l-293 286v25z" />
    <glyph glyph-name="Aacute" unicode="&#xc1;" horiz-adv-x="1479" 
d="M711 772h243l-30 402zM907 274h84l-16 209h-418l-111 -209h127l-63 -274h-612l63 274h128l689 1242h436l114 -1242h192l-64 -274h-612zM1360 1969v-25l-306 -286h-235l215 311h326z" />
    <glyph glyph-name="Acircumflex" unicode="&#xc2;" horiz-adv-x="1479" 
d="M711 772h243l-30 402zM907 274h84l-16 209h-418l-111 -209h127l-63 -274h-612l63 274h128l689 1242h436l114 -1242h192l-64 -274h-612zM579 1658l357 325h239l197 -325h-248l-96 157l-172 -157h-277z" />
    <glyph glyph-name="Atilde" unicode="&#xc3;" horiz-adv-x="1479" 
d="M711 772h243l-30 402zM907 274h84l-16 209h-418l-111 -209h127l-63 -274h-612l63 274h128l689 1242h436l114 -1242h192l-64 -274h-612zM819 1737q-79 0 -127 -63l-152 70q25 97 115 156q89 59 158 59t138 -32q69 -33 105 -47t70 -14q86 0 133 68l158 -70
q-30 -90 -106 -153q-76 -62 -160 -62t-152 30t-104 44t-76 14z" />
    <glyph glyph-name="Adieresis" unicode="&#xc4;" horiz-adv-x="1479" 
d="M711 772h243l-30 402zM907 274h84l-16 209h-418l-111 -209h127l-63 -274h-612l63 274h128l689 1242h436l114 -1242h192l-64 -274h-612zM1153 1947q51 53 125 53t126 -53t52 -126q0 -74 -52 -126t-126 -52t-125 52q-52 52 -52 126q0 73 52 126zM673 1948q51 52 125 52
t126 -53t52 -126q0 -74 -52 -126t-126 -52q-74 -1 -124 51q-52 52 -52 127t51 127z" />
    <glyph glyph-name="Aring" unicode="&#xc5;" horiz-adv-x="1479" 
d="M854 1578q0 -47 37 -79.5t77 -32.5q65 0 102 32.5t37 67.5q0 60 -36 92t-76 32t-63.5 -8.5t-50.5 -32.5t-27 -71zM711 772h243l-30 402zM716 1404q-71 75 -71 184t99 193t237.5 84t238 -84.5t99.5 -200.5t-93 -198l102 -1108h192l-64 -274h-612l63 274h84l-16 209h-418
l-111 -209h127l-63 -274h-612l63 274h128z" />
    <glyph glyph-name="AE" unicode="&#xc6;" horiz-adv-x="2191" 
d="M1082 772l104 448l-349 -448h245zM-80 274h137l967 1242h1352l-119 -517h-350l55 242h-421l-76 -326h337l-67 -290h-337l-82 -351h396l62 269h350l-125 -543h-1096l112 483h-402l-163 -209h146l-64 -274h-675z" />
    <glyph glyph-name="Ccedilla" unicode="&#xc7;" horiz-adv-x="1493" 
d="M1014 1544q308 0 473 -215h190l-63 -274h-389q-25 69 -91 111t-148 42t-147 -22t-121 -60q-114 -78 -183 -208q-70 -131 -70 -280q0 -148 82 -240q82 -93 219 -93q197 0 330 195l317 -158q-236 -373 -686 -373q-273 0 -449 177t-176 456t131 493t341 332q211 117 440 117
zM340 -289q147 33 204 151q19 40 32 91l264 -92q-86 -203 -292 -281q-66 -24 -138 -33z" />
    <glyph glyph-name="Egrave" unicode="&#xc8;" horiz-adv-x="1505" 
d="M393 1516h1297l-119 -517h-350l55 242h-421l-76 -326h337l-67 -290h-337l-82 -351h396l61 269h351l-125 -543h-1252l64 274h155l224 967h-174zM747 1969h326l196 -311h-229l-293 286v25z" />
    <glyph glyph-name="Eacute" unicode="&#xc9;" horiz-adv-x="1505" 
d="M393 1516h1297l-119 -517h-350l55 242h-421l-76 -326h337l-67 -290h-337l-82 -351h396l61 269h351l-125 -543h-1252l64 274h155l224 967h-174zM1466 1969v-25l-306 -286h-235l215 311h326z" />
    <glyph glyph-name="Ecircumflex" unicode="&#xca;" horiz-adv-x="1505" 
d="M393 1516h1297l-119 -517h-350l55 242h-421l-76 -326h337l-67 -290h-337l-82 -351h396l61 269h351l-125 -543h-1252l64 274h155l224 967h-174zM685 1658l357 325h239l197 -325h-248l-96 157l-172 -157h-277z" />
    <glyph glyph-name="Edieresis" unicode="&#xcb;" horiz-adv-x="1505" 
d="M393 1516h1297l-119 -517h-350l55 242h-421l-76 -326h337l-67 -290h-337l-82 -351h396l61 269h351l-125 -543h-1252l64 274h155l224 967h-174zM1149 1947q51 53 125 53t126 -53t52 -126q0 -74 -52 -126t-126 -52t-125 52q-52 52 -52 126q0 73 52 126zM669 1948
q51 52 125 52t126 -53t52 -126q0 -74 -52 -126t-126 -52q-74 -1 -124 51q-52 52 -52 127t51 127z" />
    <glyph glyph-name="Igrave" unicode="&#xcc;" horiz-adv-x="926" 
d="M393 1516h676l-63 -275h-151l-225 -967h171l-64 -274h-676l64 274h155l224 967h-174zM383 1969h326l196 -311h-229l-293 286v25z" />
    <glyph glyph-name="Iacute" unicode="&#xcd;" horiz-adv-x="926" 
d="M393 1516h676l-63 -275h-151l-225 -967h171l-64 -274h-676l64 274h155l224 967h-174zM1102 1969v-25l-306 -286h-235l215 311h326z" />
    <glyph glyph-name="Icircumflex" unicode="&#xce;" horiz-adv-x="926" 
d="M393 1516h676l-63 -275h-151l-225 -967h171l-64 -274h-676l64 274h155l224 967h-174zM355 1658l357 325h239l197 -325h-248l-96 157l-172 -157h-277z" />
    <glyph glyph-name="Idieresis" unicode="&#xcf;" horiz-adv-x="926" 
d="M393 1516h676l-63 -275h-151l-225 -967h171l-64 -274h-676l64 274h155l224 967h-174zM801 1822q0 66 46 112q46 47 113 47q66 1 112 -45t46 -114t-46 -114t-112 -46q-67 0 -113 47t-46 113zM424 1822q0 66 46 112q46 47 113 47t113 -46q46 -45 46 -113t-46 -114t-113 -46
t-113 47t-46 113z" />
    <glyph glyph-name="Eth" unicode="&#xd0;" horiz-adv-x="1585" 
d="M656 274q142 0 303 102.5t201.5 254.5t40.5 245q0 184 -90.5 274.5t-230.5 90.5h-106l-76 -327h252l-64 -274h-252l-85 -366h107zM939 1516q279 0 453 -166t174 -457q0 -384 -257.5 -638.5t-697.5 -254.5h-631l64 274h155l85 366h-196l64 274h195l76 327h-156l64 275h608
z" />
    <glyph glyph-name="Ntilde" unicode="&#xd1;" horiz-adv-x="1786" 
d="M1358 1516h612l-63 -275h-130l-286 -1241h-344l-386 935l-153 -661h129l-63 -274h-613l64 274h135l223 967h-164l64 275h516l374 -936l154 661h-133zM965 1737q-79 0 -127 -63l-152 70q25 97 115 156q89 59 158 59t138 -32q69 -33 105 -47t70 -14q86 0 133 68l158 -70
q-30 -90 -106 -153q-76 -62 -160 -62t-152 30t-104 44t-76 14z" />
    <glyph glyph-name="Ograve" unicode="&#xd2;" horiz-adv-x="1597" 
d="M1292 875q0 148 -81 241q-81 92 -220 92q-102 0 -194 -47t-161 -126q-151 -173 -151 -394q0 -151 82 -243q82 -93 218 -93q202 0 355 172q152 171 152 398zM300 146q-176 178 -177 456q0 279 131 493t340 332q210 117 440 117q282 0 454 -178q171 -178 171 -456
t-125 -491t-334 -332q-209 -118 -459 -118q-129 1 -243 47t-198 130zM598 2009h326l196 -311h-229l-293 286v25z" />
    <glyph glyph-name="Oacute" unicode="&#xd3;" horiz-adv-x="1597" 
d="M1292 875q0 148 -81 241q-81 92 -220 92q-102 0 -194 -47t-161 -126q-151 -173 -151 -394q0 -151 82 -243q82 -93 218 -93q202 0 355 172q152 171 152 398zM300 146q-176 178 -177 456q0 279 131 493t340 332q210 117 440 117q282 0 454 -178q171 -178 171 -456
t-125 -491t-334 -332q-209 -118 -459 -118q-129 1 -243 47t-198 130zM1518 2009v-25l-306 -286h-235l215 311h326z" />
    <glyph glyph-name="Ocircumflex" unicode="&#xd4;" horiz-adv-x="1597" 
d="M1292 875q0 148 -81 241q-81 92 -220 92q-102 0 -194 -47t-161 -126q-151 -173 -151 -394q0 -151 82 -243q82 -93 218 -93q202 0 355 172q152 171 152 398zM300 146q-176 178 -177 456q0 279 131 493t340 332q210 117 440 117q282 0 454 -178q171 -178 171 -456
t-125 -491t-334 -332q-209 -118 -459 -118q-129 1 -243 47t-198 130zM737 1698l357 325h239l197 -325h-248l-96 157l-172 -157h-277z" />
    <glyph glyph-name="Otilde" unicode="&#xd5;" horiz-adv-x="1597" 
d="M1292 875q0 148 -81 241q-81 92 -220 92q-102 0 -194 -47t-161 -126q-151 -173 -151 -394q0 -151 82 -243q82 -93 218 -93q202 0 355 172q152 171 152 398zM300 146q-176 178 -177 456q0 279 131 493t340 332q210 117 440 117q282 0 454 -178q171 -178 171 -456
t-125 -491t-334 -332q-209 -118 -459 -118q-129 1 -243 47t-198 130zM883 1777q-79 0 -127 -63l-152 70q25 97 115 156q89 59 158 59t138 -32q69 -33 105 -47t70 -14q86 0 133 68l158 -70q-30 -90 -106 -153q-76 -62 -160 -62t-152 30t-104 44t-76 14z" />
    <glyph glyph-name="Odieresis" unicode="&#xd6;" horiz-adv-x="1597" 
d="M1292 875q0 148 -81 241q-81 92 -220 92q-102 0 -194 -47t-161 -126q-151 -173 -151 -394q0 -151 82 -243q82 -93 218 -93q202 0 355 172q152 171 152 398zM300 146q-176 178 -177 456q0 279 131 493t340 332q210 117 440 117q282 0 454 -178q171 -178 171 -456
t-125 -491t-334 -332q-209 -118 -459 -118q-129 1 -243 47t-198 130zM1201 1987q51 53 125 53t126 -53t52 -126q0 -74 -52 -126t-126 -52t-125 52q-52 52 -52 126q0 73 52 126zM721 1988q51 52 125 52t126 -53t52 -126q0 -74 -52 -126t-126 -52q-74 -1 -124 51
q-52 52 -52 127t51 127z" />
    <glyph glyph-name="multiply" unicode="&#xd7;" horiz-adv-x="1262" 
d="M466 680l-259 377l254 192l247 -359l427 372l188 -215l-453 -393l252 -365l-254 -191l-239 346l-410 -356l-188 213z" />
    <glyph glyph-name="Oslash" unicode="&#xd8;" horiz-adv-x="1597" 
d="M981 1208q-92 0 -184 -47t-202 -173t-110 -347q0 -61 14 -113l641 644q-67 36 -159 36zM773 305q80 0 144 21.5t149.5 79.5t155.5 189.5t70 276.5q0 68 -19 129l-647 -653q67 -43 147 -43zM123 608q0 273 130.5 487t340.5 331.5t431 117.5t379 -107l139 140h301
l-291 -293q106 -162 106 -407t-125 -458.5t-334 -331.5t-440 -118t-393 118l-147 -148h-307l306 308q-96 153 -96 361z" />
    <glyph glyph-name="Ugrave" unicode="&#xd9;" horiz-adv-x="1534" 
d="M963 359q72 74 112 253l145 629h-137l64 275h612l-63 -275h-130l-155 -674q-105 -461 -441 -564q-112 -34 -237 -34q-125 -1 -219 33q-196 70 -267 240t-22 391l142 608h-150l64 275h612l-64 -275h-116l-146 -629q-21 -100 -12 -156t39 -95q57 -76 177 -76t192 74z
M686 1969h326l196 -311h-229l-293 286v25z" />
    <glyph glyph-name="Uacute" unicode="&#xda;" horiz-adv-x="1534" 
d="M963 359q72 74 112 253l145 629h-137l64 275h612l-63 -275h-130l-155 -674q-105 -461 -441 -564q-112 -34 -237 -34q-125 -1 -219 33q-196 70 -267 240t-22 391l142 608h-150l64 275h612l-64 -275h-116l-146 -629q-21 -100 -12 -156t39 -95q57 -76 177 -76t192 74z
M1405 1969v-25l-306 -286h-235l215 311h326z" />
    <glyph glyph-name="Ucircumflex" unicode="&#xdb;" horiz-adv-x="1534" 
d="M963 359q72 74 112 253l145 629h-137l64 275h612l-63 -275h-130l-155 -674q-105 -461 -441 -564q-112 -34 -237 -34q-125 -1 -219 33q-196 70 -267 240t-22 391l142 608h-150l64 275h612l-64 -275h-116l-146 -629q-21 -100 -12 -156t39 -95q57 -76 177 -76t192 74z
M624 1658l357 325h239l197 -325h-248l-96 157l-172 -157h-277z" />
    <glyph glyph-name="Udieresis" unicode="&#xdc;" horiz-adv-x="1534" 
d="M963 359q72 74 112 253l145 629h-137l64 275h612l-63 -275h-130l-155 -674q-105 -461 -441 -564q-112 -34 -237 -34q-125 -1 -219 33q-196 70 -267 240t-22 391l142 608h-150l64 275h612l-64 -275h-116l-146 -629q-21 -100 -12 -156t39 -95q57 -76 177 -76t192 74z
M1088 1947q52 53 126 53t125 -53q52 -53 52 -126q0 -74 -52 -126q-51 -52 -125 -52t-126 52t-52 126q0 73 52 126zM608 1948q52 52 126 52t125 -53q52 -53 52 -126q0 -74 -52 -126q-51 -52 -125 -52q-74 -1 -126 51t-51 127q0 75 51 127z" />
    <glyph glyph-name="Yacute" unicode="&#xdd;" horiz-adv-x="1393" 
d="M248 1516h612l-63 -275h-105l133 -328l25 26l262 302h-88l63 275h613l-64 -275h-101l-594 -626l-79 -341h170l-63 -274h-676l63 274h160l82 361l-280 606h-134zM1358 1969v-25l-306 -286h-235l215 311h326z" />
    <glyph glyph-name="Thorn" unicode="&#xde;" horiz-adv-x="1370" 
d="M834 602q272 0 272 189q0 62 -48.5 98.5t-154.5 36.5h-122l-75 -324h128zM1030 1200q204 0 323.5 -110t119.5 -285t-153 -324t-485 -149h-191l-77 -332h-506l64 274h155l223 967h-173l63 275h525l-73 -316h185z" />
    <glyph glyph-name="germandbls" unicode="&#xdf;" horiz-adv-x="1479" 
d="M1264 885q155 -117 155 -343q0 -120 -50 -227.5t-181.5 -217t-409.5 -109.5q-58 0 -96 6l68 289q33 -7 74 -7q93 0 173 72.5t80 178.5t-64 134.5t-102 28.5h-67l65 289h74q69 0 117.5 52.5t48.5 119.5q0 66 -35.5 106.5t-87.5 40.5q-87 0 -142 -47.5t-73 -126.5
l-260 -1124h-531l64 274h188l209 906q40 173 196.5 285t351.5 112t312 -107t117 -256q0 -221 -194 -329z" />
    <glyph glyph-name="agrave" unicode="&#xe0;" horiz-adv-x="1391" 
d="M699 758q-44 0 -93 -22q-50 -22 -86 -58q-80 -80 -80 -183t54 -152q54 -50 151 -50t178 79l44 55l50 216q-60 115 -218 115zM786 79q-90 -95 -259 -95q-168 0 -296 122q-129 122 -129 319t94 345q132 208 388 272q80 20 161 19q145 0 251 -76l12 51h340l-177 -762h191
l-64 -274h-530zM420 1489h326l196 -311h-229l-293 286v25z" />
    <glyph glyph-name="aacute" unicode="&#xe1;" horiz-adv-x="1391" 
d="M699 758q-44 0 -93 -22q-50 -22 -86 -58q-80 -80 -80 -183t54 -152q54 -50 151 -50t178 79l44 55l50 216q-60 115 -218 115zM786 79q-90 -95 -259 -95q-168 0 -296 122q-129 122 -129 319t94 345q132 208 388 272q80 20 161 19q145 0 251 -76l12 51h340l-177 -762h191
l-64 -274h-530zM1139 1489v-25l-306 -286h-235l215 311h326z" />
    <glyph glyph-name="acircumflex" unicode="&#xe2;" horiz-adv-x="1391" 
d="M699 758q-44 0 -93 -22q-50 -22 -86 -58q-80 -80 -80 -183t54 -152q54 -50 151 -50t178 79l44 55l50 216q-60 115 -218 115zM786 79q-90 -95 -259 -95q-168 0 -296 122q-129 122 -129 319t94 345q132 208 388 272q80 20 161 19q145 0 251 -76l12 51h340l-177 -762h191
l-64 -274h-530zM390 1178l357 325h239l197 -325h-248l-96 157l-172 -157h-277z" />
    <glyph glyph-name="atilde" unicode="&#xe3;" horiz-adv-x="1391" 
d="M699 758q-44 0 -93 -22q-50 -22 -86 -58q-80 -80 -80 -183t54 -152q54 -50 151 -50t178 79l44 55l50 216q-60 115 -218 115zM786 79q-90 -95 -259 -95q-168 0 -296 122q-129 122 -129 319t94 345q132 208 388 272q80 20 161 19q145 0 251 -76l12 51h340l-177 -762h191
l-64 -274h-530zM629 1257q-79 0 -127 -63l-152 70q25 97 115 156q89 59 158 59t138 -32q69 -33 105 -47t70 -14q86 0 133 68l158 -70q-30 -90 -106 -153q-76 -62 -160 -62t-152 30t-104 44t-76 14z" />
    <glyph glyph-name="adieresis" unicode="&#xe4;" horiz-adv-x="1391" 
d="M699 758q-44 0 -93 -22q-50 -22 -86 -58q-80 -80 -80 -183t54 -152q54 -50 151 -50t178 79l44 55l50 216q-60 115 -218 115zM786 79q-90 -95 -259 -95q-168 0 -296 122q-129 122 -129 319t94 345q132 208 388 272q80 20 161 19q145 0 251 -76l12 51h340l-177 -762h191
l-64 -274h-530zM858 1469q52 53 125 53q74 0 126 -53t52 -126q0 -74 -52 -126q-51 -52 -125 -52t-126 52t-52 126q0 73 52 126zM378 1470q52 52 126 52t125 -53q52 -53 52 -126q0 -74 -52 -126q-51 -52 -125 -52q-74 -1 -126 51t-51 127q0 75 51 127z" />
    <glyph glyph-name="aring" unicode="&#xe5;" horiz-adv-x="1391" 
d="M699 758q-44 0 -93 -22q-50 -22 -86 -58q-80 -80 -80 -183t54 -152q54 -50 151 -50t178 79l44 55l50 216q-60 115 -218 115zM786 79q-90 -95 -259 -95q-168 0 -296 122q-129 122 -129 319t94 345q132 208 388 272q80 20 161 19q145 0 251 -76l12 51h340l-177 -762h191
l-64 -274h-530zM731 1409q0 -26 10 -49t27 -40q18 -16 40 -26t48 -10t48 10t40 26q16 17 26 40t9 49q1 27 -9 49t-26 38t-40 26q-22 10 -48 10t-48 -10t-40 -26q-17 -16 -27 -38t-10 -49zM856 1726q65 0 123 -25q57 -25 101 -68t69 -101t25 -123t-25 -123t-69 -102t-101 -68
q-58 -25 -123 -25t-123 25q-58 24 -101 68t-68 102t-25 123t25 123t68 101t101 68t123 25z" />
    <glyph glyph-name="ae" unicode="&#xe6;" horiz-adv-x="1849" 
d="M1353 809q-200 0 -259 -143h434q-4 55 -59.5 99t-115.5 44zM745 318q-12 51 -12 104h-203q-89 0 -144.5 -25t-55.5 -98q0 -88 137 -88q138 0 278 107zM41 268q0 165 133.5 267t355.5 102q122 0 225 -24l7 30q35 150 -164 150q-171 0 -319 -72l-52 194q229 144 449 144
t323 -105q165 113 364 113t332.5 -128t133.5 -302q0 -100 -31 -197h-739q14 -174 194 -174q127 0 250 109l219 -193q-194 -209 -516 -209q-182 0 -268 68.5t-118 111.5q-174 -178 -427 -178q-168 0 -260 84.5t-92 208.5z" />
    <glyph glyph-name="ccedilla" unicode="&#xe7;" horiz-adv-x="1171" 
d="M735 1067q187 0 318 -125h192l-63 -274h-330q-16 42 -59 68t-96 26q-110 0 -189 -85q-80 -85 -80 -187t51 -157q51 -54 125 -54q149 0 230 139l272 -148q-67 -130 -209 -213q-142 -82 -334 -82q-191 0 -326 134t-135 327q0 278 186 455q186 176 447 176zM208 -289
q147 33 204 151q19 40 32 91l264 -92q-86 -203 -292 -281q-66 -24 -138 -33z" />
    <glyph glyph-name="egrave" unicode="&#xe8;" horiz-adv-x="1178" 
d="M464 666h433q-4 55 -60 99t-120 44q-192 0 -253 -143zM1198 629q0 -92 -31 -189h-739q10 -118 103 -158q38 -16 85 -16q81 0 138 28q58 28 118 81l220 -193q-195 -209 -517 -209q-201 0 -337 126t-136 333q0 278 186 457q186 178 447 178q198 0 330 -128
q133 -129 133 -310zM408 1489h326l196 -311h-229l-293 286v25z" />
    <glyph glyph-name="eacute" unicode="&#xe9;" horiz-adv-x="1178" 
d="M464 666h433q-4 55 -60 99t-120 44q-192 0 -253 -143zM1198 629q0 -92 -31 -189h-739q10 -118 103 -158q38 -16 85 -16q81 0 138 28q58 28 118 81l220 -193q-195 -209 -517 -209q-201 0 -337 126t-136 333q0 278 186 457q186 178 447 178q198 0 330 -128
q133 -129 133 -310zM1127 1489v-25l-306 -286h-235l215 311h326z" />
    <glyph glyph-name="ecircumflex" unicode="&#xea;" horiz-adv-x="1178" 
d="M464 666h433q-4 55 -60 99t-120 44q-192 0 -253 -143zM1198 629q0 -92 -31 -189h-739q10 -118 103 -158q38 -16 85 -16q81 0 138 28q58 28 118 81l220 -193q-195 -209 -517 -209q-201 0 -337 126t-136 333q0 278 186 457q186 178 447 178q198 0 330 -128
q133 -129 133 -310zM346 1178l357 325h239l197 -325h-248l-96 157l-172 -157h-277z" />
    <glyph glyph-name="edieresis" unicode="&#xeb;" horiz-adv-x="1178" 
d="M464 666h433q-4 55 -60 99t-120 44q-192 0 -253 -143zM1198 629q0 -92 -31 -189h-739q10 -118 103 -158q38 -16 85 -16q81 0 138 28q58 28 118 81l220 -193q-195 -209 -517 -209q-201 0 -337 126t-136 333q0 278 186 457q186 178 447 178q198 0 330 -128
q133 -129 133 -310zM858 1469q52 53 125 53q74 0 126 -53t52 -126q0 -74 -52 -126q-51 -52 -125 -52t-126 52t-52 126q0 73 52 126zM378 1470q52 52 126 52t125 -53q52 -53 52 -126q0 -74 -52 -126q-51 -52 -125 -52q-74 -1 -126 51t-51 127q0 75 51 127z" />
    <glyph glyph-name="igrave" unicode="&#xec;" horiz-adv-x="860" 
d="M141 1036h564l-177 -762h240l-63 -274h-582l176 762h-221zM143 1489h326l196 -311h-229l-293 286v25z" />
    <glyph glyph-name="iacute" unicode="&#xed;" horiz-adv-x="860" 
d="M141 1036h564l-177 -762h240l-63 -274h-582l176 762h-221zM911 1489v-25l-306 -286h-235l215 311h326z" />
    <glyph glyph-name="icircumflex" unicode="&#xee;" horiz-adv-x="860" 
d="M141 1036h564l-177 -762h240l-63 -274h-582l176 762h-221zM100 1178l323 325h246l164 -325h-248l-66 157l-142 -157h-277z" />
    <glyph glyph-name="idieresis" unicode="&#xef;" horiz-adv-x="860" 
d="M141 1036h564l-177 -762h240l-63 -274h-582l176 762h-221zM610 1342q0 66 46 113t113 47t113 -46t45 -114q1 -68 -45 -114t-113 -45q-67 0 -113 47q-46 46 -46 112zM233 1342q0 66 46 113t113 47t113 -46t46 -114t-46 -113q-46 -46 -113 -46t-113 47q-46 46 -46 112z" />
    <glyph glyph-name="eth" unicode="&#xf0;" 
d="M428 498q0 -224 176 -224q102 0 187.5 87t85.5 206l-1 33q0 34 -18 73.5t-64 67t-89 27.5t-77.5 -10t-80 -38.5t-82.5 -95t-37 -126.5zM1202 604q0 -217 -119.5 -378t-256 -206t-246.5 -45t-195.5 36.5t-148.5 99t-98.5 146.5t-35.5 179t23.5 178t82.5 184t188 178
t262 77q35 0 63.5 0.5t51.5 -1.5q-23 41 -64 104l-170 -56l-86 260l66 21q-82 80 -201 175h405q68 -45 101 -74l189 63l85 -261l-71 -24q175 -268 175 -656z" />
    <glyph glyph-name="ntilde" unicode="&#xf1;" horiz-adv-x="1421" 
d="M717 952q144 109 308 109t246 -113t36 -309l-85 -365h189l-63 -274h-531l129 557q17 73 -9 122q-27 48 -82 48q-91 0 -210 -91l-147 -636h-351l176 762h-180l64 274h526l-15 -74zM709 1257q-79 0 -127 -63l-152 70q25 97 115 156q89 59 158 59t138 -32q69 -33 105 -47
t70 -14q86 0 133 68l158 -70q-30 -90 -106 -153q-76 -62 -160 -62t-152 30t-104 44t-76 14z" />
    <glyph glyph-name="ograve" unicode="&#xf2;" 
d="M477 330q49 -56 114 -56q119 0 203 86q83 86 83 194q-1 109 -51 161q-50 53 -116 53t-116 -24t-86 -63q-80 -87 -80 -191t49 -160zM102 460q0 120 52 236t138 198q182 172 443 173q196 0 332 -134q135 -134 135 -329q0 -271 -180 -450t-451 -179q-198 0 -334 134
q-135 134 -135 351zM348 1489h326l196 -311h-229l-293 286v25z" />
    <glyph glyph-name="oacute" unicode="&#xf3;" 
d="M477 330q49 -56 114 -56q119 0 203 86q83 86 83 194q-1 109 -51 161q-50 53 -116 53t-116 -24t-86 -63q-80 -87 -80 -191t49 -160zM102 460q0 120 52 236t138 198q182 172 443 173q196 0 332 -134q135 -134 135 -329q0 -271 -180 -450t-451 -179q-198 0 -334 134
q-135 134 -135 351zM1127 1489v-25l-306 -286h-235l215 311h326z" />
    <glyph glyph-name="ocircumflex" unicode="&#xf4;" 
d="M477 330q49 -56 114 -56q119 0 203 86q83 86 83 194q-1 109 -51 161q-50 53 -116 53t-116 -24t-86 -63q-80 -87 -80 -191t49 -160zM102 460q0 120 52 236t138 198q182 172 443 173q196 0 332 -134q135 -134 135 -329q0 -271 -180 -450t-451 -179q-198 0 -334 134
q-135 134 -135 351zM346 1178l357 325h239l197 -325h-248l-96 157l-172 -157h-277z" />
    <glyph glyph-name="otilde" unicode="&#xf5;" 
d="M477 330q49 -56 114 -56q119 0 203 86q83 86 83 194q-1 109 -51 161q-50 53 -116 53t-116 -24t-86 -63q-80 -87 -80 -191t49 -160zM102 460q0 120 52 236t138 198q182 172 443 173q196 0 332 -134q135 -134 135 -329q0 -271 -180 -450t-451 -179q-198 0 -334 134
q-135 134 -135 351zM570 1257q-79 0 -127 -63l-152 70q25 97 115 156q89 59 158 59t138 -32q68 -33 104 -47t71 -14q86 0 133 68l158 -70q-30 -90 -106 -153q-76 -62 -160 -62t-152 30t-104 44t-76 14z" />
    <glyph glyph-name="odieresis" unicode="&#xf6;" 
d="M477 330q49 -56 114 -56q119 0 203 86q83 86 83 194q-1 109 -51 161q-50 53 -116 53t-116 -24t-86 -63q-80 -87 -80 -191t49 -160zM102 460q0 120 52 236t138 198q182 172 443 173q196 0 332 -134q135 -134 135 -329q0 -271 -180 -450t-451 -179q-198 0 -334 134
q-135 134 -135 351zM868 1469q52 53 126 53t125 -53q52 -53 52 -126q0 -74 -52 -126q-51 -52 -125 -52t-126 52t-52 126q0 73 52 126zM388 1470q52 52 126 52t125 -53q52 -53 52 -126q0 -74 -52 -126q-51 -52 -125 -52q-74 -1 -126 51t-51 127q0 75 51 127z" />
    <glyph glyph-name="divide" unicode="&#xf7;" horiz-adv-x="1100" 
d="M50 383l64 275h975l-64 -275h-975zM654 271q52 -52 52 -126t-52 -126t-126 -52t-125.5 52t-51.5 126t51.5 126t125.5 52t126 -52zM817.5 1033q51.5 -52 51.5 -126t-51.5 -126t-125.5 -52t-126 52t-52 126t52 126t126 52t125.5 -52z" />
    <glyph glyph-name="oslash" unicode="&#xf8;" 
d="M406 469q0 -32 9 -62l351 353q-28 10 -76 10q-47 0 -101.5 -24.5t-118.5 -89.5t-64 -187zM899 565q0 32 -8 60l-347 -351q26 -8 70 -8t97.5 23.5t120.5 89t67 186.5zM102 411q0 116 23.5 200t86 189.5t208 186t298.5 80.5t266 -71l108 108h292l-253 -256q71 -113 71 -226
t-22 -195t-84 -189t-205.5 -188t-299.5 -81q-155 0 -266 67l-96 -97h-299l243 244q-71 112 -71 228z" />
    <glyph glyph-name="ugrave" unicode="&#xf9;" horiz-adv-x="1356" 
d="M793 81q-115 -93 -271 -93q-102 0 -184 39t-114 101q-70 132 -23 298l77 336h-167l63 274h488l-136 -585q-20 -84 20 -136q40 -51 129 -51t171 91l94 407h-158l64 274h477l-177 -762h191l-63 -274h-500zM387 1489h326l196 -311h-229l-293 286v25z" />
    <glyph glyph-name="uacute" unicode="&#xfa;" horiz-adv-x="1356" 
d="M793 81q-115 -93 -271 -93q-102 0 -184 39t-114 101q-70 132 -23 298l77 336h-167l63 274h488l-136 -585q-20 -84 20 -136q40 -51 129 -51t171 91l94 407h-158l64 274h477l-177 -762h191l-63 -274h-500zM1106 1489v-25l-306 -286h-235l215 311h326z" />
    <glyph glyph-name="ucircumflex" unicode="&#xfb;" horiz-adv-x="1356" 
d="M793 81q-115 -93 -271 -93q-102 0 -184 39t-114 101q-70 132 -23 298l77 336h-167l63 274h488l-136 -585q-20 -84 20 -136q40 -51 129 -51t171 91l94 407h-158l64 274h477l-177 -762h191l-63 -274h-500zM380 1178l357 325h239l197 -325h-248l-96 157l-172 -157h-277z" />
    <glyph glyph-name="udieresis" unicode="&#xfc;" horiz-adv-x="1356" 
d="M793 81q-115 -93 -271 -93q-102 0 -184 39t-114 101q-70 132 -23 298l77 336h-167l63 274h488l-136 -585q-20 -84 20 -136q40 -51 129 -51t171 91l94 407h-158l64 274h477l-177 -762h191l-63 -274h-500zM878 1469q52 53 126 53t125 -53q52 -53 52 -126q0 -74 -52 -126
q-51 -52 -125 -52t-126 52t-52 126q0 73 52 126zM398 1470q52 52 126 52t125 -53q52 -53 52 -126q0 -74 -52 -126q-51 -52 -125 -52q-74 -1 -126 51t-51 127q0 75 51 127z" />
    <glyph glyph-name="yacute" unicode="&#xfd;" horiz-adv-x="1126" 
d="M106 1036h512l-63 -274h-77l66 -393l246 393h-85l63 274h512l-63 -274h-81l-634 -959h125l-74 -274h-573l73 274h136l126 200l-167 759h-105zM1082 1520v-25l-306 -286h-235l215 311h326z" />
    <glyph glyph-name="thorn" unicode="&#xfe;" horiz-adv-x="1343" 
d="M547 387q53 -108 217 -108q42 0 90 21t104 78.5t56 180.5q0 122 -67.5 152t-121.5 30t-118.5 -36t-107.5 -96zM680 963q84 98 265 98q182 0 300.5 -131.5t118.5 -325.5q0 -270 -185.5 -446t-457.5 -176q-111 0 -171 27t-80 43l-57 -249h162l-63 -274h-676l64 274h173
l341 1479h-195l64 274h534z" />
    <glyph glyph-name="ydieresis" unicode="&#xff;" horiz-adv-x="1126" 
d="M106 1036h512l-63 -274h-77l66 -393l246 393h-85l63 274h512l-63 -274h-81l-634 -959h125l-74 -274h-573l73 274h136l126 200l-167 759h-105zM808 1498q52 53 126 53t125 -53q52 -53 52 -126q0 -74 -52 -126q-51 -52 -125 -52t-126 52t-52 126q0 73 52 126zM328 1499
q52 52 126 52t125 -53q52 -53 52 -126q0 -74 -52 -126q-51 -52 -125 -52t-126 52t-51 126q0 75 51 127z" />
    <glyph glyph-name="Amacron" unicode="&#x100;" horiz-adv-x="1479" 
d="M711 772h243l-30 402zM907 274h84l-16 209h-418l-111 -209h127l-63 -274h-612l63 274h128l689 1242h436l114 -1242h192l-64 -274h-612zM1301 1656h-688l43 215h688z" />
    <glyph glyph-name="amacron" unicode="&#x101;" horiz-adv-x="1391" 
d="M699 758q-44 0 -93 -22q-50 -22 -86 -58q-80 -80 -80 -183t54 -152q54 -50 151 -50t178 79l44 55l50 216q-60 115 -218 115zM786 79q-90 -95 -259 -95q-168 0 -296 122q-129 122 -129 319t94 345q132 208 388 272q80 20 161 19q145 0 251 -76l12 51h340l-177 -762h191
l-64 -274h-530zM1080 1176h-688l43 215h688z" />
    <glyph glyph-name="Abreve" unicode="&#x102;" horiz-adv-x="1479" 
d="M711 772h243l-30 402zM907 274h84l-16 209h-418l-111 -209h127l-63 -274h-612l63 274h128l689 1242h436l114 -1242h192l-64 -274h-612zM994 1838q145 0 193 123h250q-93 -324 -439 -324q-268 0 -382 186q-36 60 -60 138h252q41 -123 186 -123z" />
    <glyph glyph-name="abreve" unicode="&#x103;" horiz-adv-x="1391" 
d="M699 758q-44 0 -93 -22q-50 -22 -86 -58q-80 -80 -80 -183t54 -152q54 -50 151 -50t178 79l44 55l50 216q-60 115 -218 115zM786 79q-90 -95 -259 -95q-168 0 -296 122q-129 122 -129 319t94 345q132 208 388 272q80 20 161 19q145 0 251 -76l12 51h340l-177 -762h191
l-64 -274h-530zM759 1358q145 0 193 123h250q-93 -324 -439 -324q-267 0 -381 186q-36 60 -61 138h252q41 -123 186 -123z" />
    <glyph glyph-name="Aogonek" unicode="&#x104;" horiz-adv-x="1479" 
d="M711 772h241l-28 402zM971 -283q43 0 92 23l49 -170q-22 -12 -73 -26.5t-109 -14.5q-118 0 -202.5 56t-84.5 148q0 156 201 267l63 274h84l-16 209h-418l-111 -209h127l-63 -274h-612l63 274h127l690 1242h436l113 -1242h193l-64 -274h-194q-177 0 -280 -67.5
t-103 -147.5q0 -39 24.5 -53.5t67.5 -14.5z" />
    <glyph glyph-name="aogonek" unicode="&#x105;" horiz-adv-x="1391" 
d="M622 293q163 0 244 133l49 217q-26 55 -83.5 85t-117.5 30q-114 0 -194 -80t-80 -184t56 -152.5t126 -48.5zM813 -217q1 -68 97 -68q42 0 87 23l50 -170q-79 -41 -159 -41q-142 0 -226 56t-84 146q0 163 190 271l18 78q-87 -94 -256 -94q-168 0 -298 121.5t-130 332.5
q0 144 54.5 259.5t143.5 196.5t206 124t214 43q185 0 275 -76l13 51h340l-177 -762h191l-64 -274h-120q-123 0 -244 -69.5t-121 -147.5z" />
    <glyph glyph-name="Cacute" unicode="&#x106;" horiz-adv-x="1493" 
d="M1014 1544q308 0 473 -215h190l-63 -274h-389q-25 69 -91 111t-148 42t-147 -22t-121 -60q-114 -78 -183 -208q-70 -131 -70 -280q0 -148 82 -240q82 -93 219 -93q197 0 330 195l317 -158q-236 -373 -686 -373q-273 0 -449 177t-176 456t131 493t341 332q211 117 440 117
zM1382 1969v-25l-306 -286h-235l215 311h326z" />
    <glyph glyph-name="cacute" unicode="&#x107;" horiz-adv-x="1171" 
d="M735 1067q187 0 318 -125h192l-63 -274h-330q-16 42 -59 68t-96 26q-110 0 -189 -85q-80 -85 -80 -187t51 -157q51 -54 125 -54q149 0 230 139l272 -148q-67 -130 -209 -213q-142 -82 -334 -82q-191 0 -326 134t-135 327q0 278 186 455q186 176 447 176zM1062 1489v-25
l-306 -286h-235l215 311h326z" />
    <glyph glyph-name="Ccaron" unicode="&#x10c;" horiz-adv-x="1493" 
d="M1014 1544q308 0 473 -215h190l-63 -274h-389q-25 69 -91 111t-148 42t-147 -22t-121 -60q-114 -78 -183 -208q-70 -131 -70 -280q0 -148 82 -240q82 -93 219 -93q197 0 330 195l317 -158q-236 -373 -686 -373q-273 0 -449 177t-176 456t131 493t341 332q211 117 440 117
zM1546 1982l-356 -325h-240l-196 325h248l96 -157l172 157h276z" />
    <glyph glyph-name="ccaron" unicode="&#x10d;" horiz-adv-x="1171" 
d="M735 1067q187 0 318 -125h192l-63 -274h-330q-16 42 -59 68t-96 26q-110 0 -189 -85q-80 -85 -80 -187t51 -157q51 -54 125 -54q149 0 230 139l272 -148q-67 -130 -209 -213q-142 -82 -334 -82q-191 0 -326 134t-135 327q0 278 186 455q186 176 447 176zM1179 1503
l-356 -325h-240l-196 325h248l96 -157l172 157h276z" />
    <glyph glyph-name="Dcaron" unicode="&#x10e;" horiz-adv-x="1585" 
d="M737 274q143 0 271 82q193 123 254 352q20 75 20 168q0 184 -90 274t-231 91h-106l-225 -967h107zM1020 1516q279 0 453 -166t174 -457q0 -384 -258 -639q-258 -254 -697 -254h-631l64 274h155l224 967h-156l64 275h608zM1206 1901l-356 -325h-240l-196 325h248l96 -157
l172 157h276z" />
    <glyph glyph-name="dcaron" unicode="&#x10f;" horiz-adv-x="1638" 
d="M705 764q-98 0 -175 -77t-77 -176t49 -152q49 -52 123 -52q73 1 137 35t105 90l52 226q-53 106 -214 106zM722 1061q192 0 273 -72l68 293h-207l64 274h546l-295 -1282h191l-64 -274h-530l18 78q-85 -96 -280 -96q-74 0 -154 37t-136 99q-114 129 -114 317q0 187 94 335
q132 208 388 272q80 20 138 19zM1737 1059h-219l71 518l289 16z" />
    <glyph glyph-name="Dcroat" unicode="&#x110;" horiz-adv-x="1585" 
d="M656 274q142 0 270 82q193 123 255 352q20 75 20 168q-1 184 -91 274t-230 91h-106l-76 -327h252l-64 -274h-252l-85 -366h107zM939 1516q279 0 453 -166t174 -457q0 -384 -258 -639q-258 -254 -697 -254h-631l64 274h155l85 366h-196l64 274h195l76 327h-156l64 275h608
z" />
    <glyph glyph-name="dcroat" unicode="&#x111;" horiz-adv-x="1423" 
d="M624 307q72 0 136.5 33t107.5 92q13 55 26 111.5t26 111.5q-27 54 -85.5 81.5t-115.5 27.5q-114 0 -190 -77.5t-76 -176.5q0 -100 49.5 -151.5t121.5 -51.5zM786 78q-80 -96 -260 -96q-190 0 -307 133t-117 323q0 144 54.5 259.5t143.5 196.5t206 124t233 43t176 -27.5
t80 -44.5q6 29 13.5 55.5t13.5 55.5h-154l64 274h151q12 67 43 182h340q-10 -47 -21 -91t-22 -91h136q-8 -32 -64 -274h-135q-119 -525 -189 -826h191q-54 -232 -64 -274h-530q4 20 9 38.5t9 39.5z" />
    <glyph glyph-name="Emacron" unicode="&#x112;" horiz-adv-x="1505" 
d="M393 1516h1297l-119 -517h-350l55 242h-421l-76 -326h337l-67 -290h-337l-82 -351h396l61 269h351l-125 -543h-1252l64 274h155l224 967h-174zM1407 1656h-688l43 215h688z" />
    <glyph glyph-name="emacron" unicode="&#x113;" horiz-adv-x="1178" 
d="M464 666h433q-4 55 -60 99t-120 44q-192 0 -253 -143zM1198 629q0 -92 -31 -189h-739q10 -118 103 -158q38 -16 85 -16q81 0 138 28q58 28 118 81l220 -193q-195 -209 -517 -209q-201 0 -337 126t-136 333q0 278 186 457q186 178 447 178q198 0 330 -128
q133 -129 133 -310zM1067 1176h-688l43 215h688z" />
    <glyph glyph-name="Edotaccent" unicode="&#x116;" horiz-adv-x="1505" 
d="M393 1516h1297l-119 -517h-350l55 242h-421l-76 -326h337l-67 -290h-337l-82 -351h396l61 269h351l-125 -543h-1252l64 274h155l224 967h-174zM896 1850q0 74 52 126t124 52q74 0 126 -52t52 -126t-52 -126t-126 -52t-124 52q-52 52 -52 126z" />
    <glyph glyph-name="edotaccent" unicode="&#x117;" horiz-adv-x="1178" 
d="M464 666h433q-4 55 -60 99t-120 44q-192 0 -253 -143zM1198 629q0 -92 -31 -189h-739q10 -118 103 -158q38 -16 85 -16q81 0 138 28q58 28 118 81l220 -193q-195 -209 -517 -209q-201 0 -337 126t-136 333q0 278 186 457q186 178 447 178q198 0 330 -128
q133 -129 133 -310zM557 1370q-1 74 51 126t126 52t125 -52q52 -52 52 -126t-52 -126q-51 -52 -125 -52t-126 52t-51 126z" />
    <glyph glyph-name="Eogonek" unicode="&#x118;" horiz-adv-x="1505" 
d="M1066 -283q44 0 91 23l49 -170q-22 -12 -73.5 -26.5t-108.5 -14.5q-118 0 -202.5 56t-84.5 145q0 156 189 270h-865l64 274h156l223 967h-174l63 275h1297l-119 -517h-350l55 242h-422l-76 -326h338l-67 -290h-338l-80 -351h395l61 269h351l-125 -543h-2
q-158 0 -248 -69.5t-90 -145.5q0 -39 24.5 -53.5t68.5 -14.5z" />
    <glyph glyph-name="eogonek" unicode="&#x119;" horiz-adv-x="1178" 
d="M557.5 772q-65.5 -37 -94.5 -106h434q-4 54 -59.5 98.5t-135.5 44.5q-79 0 -144.5 -37zM559 -218q-1 -65 93 -65q44 0 91 23l50 -170q-79 -41 -159 -41q-141 0 -225.5 56t-84.5 155q0 144 129 248q-154 32 -252.5 152.5t-98.5 277.5q0 293 186.5 471t446.5 178
q197 0 330 -129t133 -301q0 -108 -31 -197h-739q11 -137 86.5 -155.5t131.5 -18.5q98 0 226 109l220 -193q-111 -119 -267 -170q-181 -71 -223.5 -132.5t-42.5 -97.5z" />
    <glyph glyph-name="Ecaron" unicode="&#x11a;" horiz-adv-x="1505" 
d="M393 1516h1297l-119 -517h-350l55 242h-421l-76 -326h337l-67 -290h-337l-82 -351h396l61 269h351l-125 -543h-1252l64 274h155l224 967h-174zM1564 1983l-356 -325h-240l-196 325h248l96 -157l172 157h276z" />
    <glyph glyph-name="ecaron" unicode="&#x11b;" horiz-adv-x="1178" 
d="M464 666h433q-4 55 -60 99t-120 44q-192 0 -253 -143zM1198 629q0 -92 -31 -189h-739q10 -118 103 -158q38 -16 85 -16q81 0 138 28q58 28 118 81l220 -193q-195 -209 -517 -209q-201 0 -337 126t-136 333q0 278 186 457q186 178 447 178q198 0 330 -128
q133 -129 133 -310zM1224 1503l-356 -325h-240l-196 325h248l96 -157l172 157h276z" />
    <glyph glyph-name="Gbreve" unicode="&#x11e;" horiz-adv-x="1610" 
d="M720 -31q-114 1 -226 47t-194 130q-176 180 -177 457q0 278 131 492t340 332q210 117 444 117t402 -132q50 -40 84 -83h178l-64 -274h-389q-45 108 -167 146q-42 13 -91 13q-102 0 -194 -48t-161 -128q-151 -175 -151 -397q0 -151 81 -249q81 -97 214 -97q134 0 242 70
q107 70 149 170h-319l63 274h705l-188 -809h-299l53 228q-162 -259 -466 -259zM995 1837q145 0 193 123h250q-93 -324 -439 -324q-267 0 -381 186q-36 60 -61 138h252q41 -123 186 -123z" />
    <glyph glyph-name="gbreve" unicode="&#x11f;" horiz-adv-x="1303" 
d="M518 684q-80 -80 -80 -192q0 -138 116 -180q34 -12 70 -13q151 0 233 128l54 232q-35 53 -68 71q-63 34 -154 34t-171 -80zM777 79q-91 -79 -257 -79t-296 117t-130 321q0 266 185 445q185 178 458 178q74 0 129 -17t121 -55l17 72h339l-235 -1018q-95 -417 -434 -491
q-104 -23 -244 -23q-140 1 -256 37t-194 96l176 264q140 -100 307 -100q117 0 173 34t87 78t47 111zM829 1358q145 0 193 123h250q-93 -324 -439 -324q-267 0 -381 186q-36 60 -61 138h252q41 -123 186 -123z" />
    <glyph glyph-name="Gcommaaccent" unicode="&#x122;" horiz-adv-x="1610" 
d="M737 -31q-17 0 -34 1l286 -103l-197 -338l-206 72l114 369q-240 13 -408 184q-169 172 -169 449q0 278 131 492t340 332q210 117 444 117t402 -132q50 -40 84 -83h178l-64 -274h-389q-45 108 -167 146q-42 13 -91 13q-102 0 -194 -48t-161 -128q-151 -175 -151 -397
q0 -151 81 -249q81 -97 214 -97q134 0 242 70q107 70 149 170h-319l63 274h705l-188 -809h-299l53 228q-100 -158 -260 -222q-92 -37 -189 -37z" />
    <glyph glyph-name="gcommaaccent" unicode="&#x123;" horiz-adv-x="1303" 
d="M518 684q-80 -80 -80 -192q0 -138 116 -180q34 -12 70 -13q151 0 233 128l54 232q-35 53 -68 71q-63 34 -154 34t-171 -80zM777 79q-91 -79 -257 -79t-296 117t-130 321q0 266 185 445q185 178 458 178q74 0 129 -17t121 -55l17 72h339l-235 -1018q-95 -417 -434 -491
q-104 -23 -244 -23q-140 1 -256 37t-194 96l176 264q140 -100 307 -100q117 0 173 34t87 78t47 111zM881 1112l-289 105l197 337l206 -71z" />
    <glyph glyph-name="Imacron" unicode="&#x12a;" horiz-adv-x="926" 
d="M393 1516h676l-63 -275h-151l-225 -967h171l-64 -274h-676l64 274h155l224 967h-174zM1085 1656h-688l43 215h688z" />
    <glyph glyph-name="imacron" unicode="&#x12b;" horiz-adv-x="860" 
d="M141 1036h564l-177 -762h240l-63 -274h-582l176 762h-221zM852 1176h-688l43 215h688z" />
    <glyph glyph-name="Iogonek" unicode="&#x12e;" horiz-adv-x="926" 
d="M-102 -267q0 158 184 267l63 274h136l223 967h-174l63 275h676l-63 -275h-152l-223 -967h170l-64 -274h-315q-100 -4 -194.5 -76t-94.5 -139q0 -39 24.5 -53.5t68.5 -14.5t91 23l50 -170q-79 -41 -159 -41q-141 0 -225.5 55.5t-84.5 148.5z" />
    <glyph glyph-name="iogonek" unicode="&#x12f;" horiz-adv-x="778" 
d="M434 1370q0 74 51.5 126t125.5 52t125.5 -51.5t51.5 -126t-52 -126.5t-126 -52t-125 52t-51 126zM300 -285q42 0 87 23l49 -170q-22 -12 -73.5 -26.5t-108.5 -14.5q-118 0 -202.5 56t-84.5 145q0 162 191 272l176 762h-191l64 274h532l-176 -762h191l-64 -274h-135
q-120 -4 -236 -71.5t-115.5 -140.5t96.5 -73z" />
    <glyph glyph-name="Idotaccent" unicode="&#x130;" horiz-adv-x="926" 
d="M393 1516h676l-63 -275h-151l-225 -967h171l-64 -274h-676l64 274h155l224 967h-174zM532 1850q0 74 52 126t124 52q74 0 126 -52t52 -126t-52 -126t-126 -52t-124 52q-52 52 -52 126z" />
    <glyph glyph-name="dotlessi" unicode="&#x131;" horiz-adv-x="860" 
d="M141 1036h564l-177 -762h240l-63 -274h-582l176 762h-221z" />
    <glyph glyph-name="Kcommaaccent" unicode="&#x136;" horiz-adv-x="1745" 
d="M393 1516h676l-63 -275h-151l-225 -967h171l-64 -274h-676l64 274h155l224 967h-174zM1370 1243l64 273h618l-63 -275h-134l-642 -477l350 -490h147l-61 -274h-564l64 274l-377 519zM784 -29l289 -104l-197 -338l-206 72z" />
    <glyph glyph-name="kcommaaccent" unicode="&#x137;" horiz-adv-x="1311" 
d="M262 1556h539l-202 -874h114l159 169l43 185h457l-63 -274h-140l-235 -223l135 -265h156l-64 -274h-301l-196 406h-129l-93 -406h-340l296 1282h-199zM568 -29l289 -104l-197 -338l-206 72z" />
    <glyph glyph-name="Lacute" unicode="&#x139;" horiz-adv-x="1317" 
d="M915 274q35 0 61 24t36 58l49 201h338l-127 -557h-1211l64 274h153l224 967h-172l63 275h676l-63 -275h-153l-225 -967h287zM1059 1886v-25l-306 -286h-235l215 311h326z" />
    <glyph glyph-name="lacute" unicode="&#x13a;" horiz-adv-x="729" 
d="M262 1556h539l-296 -1282h189l-63 -274h-529l296 1282h-199zM1020 1960v-25l-306 -286h-235l215 311h326z" />
    <glyph glyph-name="Lcommaaccent" unicode="&#x13b;" horiz-adv-x="1317" 
d="M915 274q35 0 61 24t36 58l49 201h338l-127 -557h-1211l64 274h153l224 967h-172l63 275h676l-63 -275h-153l-225 -967h287zM571 -29l289 -104l-197 -338l-206 72z" />
    <glyph glyph-name="lcommaaccent" unicode="&#x13c;" horiz-adv-x="729" 
d="M262 1556h539l-296 -1282h189l-63 -274h-529l296 1282h-199zM277 -29l289 -104l-197 -338l-206 72z" />
    <glyph glyph-name="Lcaron" unicode="&#x13d;" horiz-adv-x="1330" 
d="M915 274q35 0 61 24t36 58l49 201h338l-127 -557h-1211l64 274h153l224 967h-172l63 275h676l-63 -275h-153l-225 -967h287zM1372 999h-219l71 518l289 16z" />
    <glyph glyph-name="lcaron" unicode="&#x13e;" horiz-adv-x="967" 
d="M262 1556h539l-296 -1282h189l-63 -274h-529l296 1282h-199zM1066 1059h-219l71 518l289 16z" />
    <glyph glyph-name="Lslash" unicode="&#x141;" horiz-adv-x="1317" 
d="M915 274q35 0 60.5 24t36.5 58l49 201h338l-127 -557h-1211l64 274h154l55 240l-254 -119l78 350l258 121l86 375h-172l63 275h676l-63 -275h-154l-43 -190l434 204l-78 -350l-438 -207l-98 -424h286z" />
    <glyph glyph-name="lslash" unicode="&#x142;" horiz-adv-x="729" 
d="M262 1556h539l-115 -495l313 147l-77 -350l-316 -149l-100 -435h188l-63 -274h-529l121 528l-282 -133l77 350l287 136l92 401h-198z" />
    <glyph glyph-name="Nacute" unicode="&#x143;" horiz-adv-x="1786" 
d="M1358 1516h612l-63 -275h-130l-286 -1241h-344l-386 935l-153 -661h129l-63 -274h-613l64 274h135l223 967h-164l64 275h516l374 -936l154 661h-133zM1542 1969v-25l-306 -286h-235l215 311h326z" />
    <glyph glyph-name="nacute" unicode="&#x144;" horiz-adv-x="1421" 
d="M717 952q144 109 308 109t246 -113t36 -309l-85 -365h189l-63 -274h-531l129 557q17 73 -9 122q-27 48 -82 48q-91 0 -210 -91l-147 -636h-351l176 762h-180l64 274h526l-15 -74zM1323 1489v-25l-306 -286h-235l215 311h326z" />
    <glyph glyph-name="Ncommaaccent" unicode="&#x145;" horiz-adv-x="1786" 
d="M1358 1516h612l-63 -275h-130l-286 -1241h-344l-386 935l-153 -661h129l-63 -274h-613l64 274h135l223 967h-164l64 275h516l374 -936l154 661h-133zM721 -29l289 -104l-197 -338l-206 72z" />
    <glyph glyph-name="ncommaaccent" unicode="&#x146;" horiz-adv-x="1421" 
d="M717 952q144 109 308 109t246 -113t36 -309l-85 -365h189l-63 -274h-531l129 557q17 73 -9 122q-27 48 -82 48q-91 0 -210 -91l-147 -636h-351l176 762h-180l64 274h526l-15 -74zM530 -29l289 -104l-197 -338l-206 72z" />
    <glyph glyph-name="Ncaron" unicode="&#x147;" horiz-adv-x="1786" 
d="M1358 1516h612l-63 -275h-130l-286 -1241h-344l-386 935l-153 -661h129l-63 -274h-613l64 274h135l223 967h-164l64 275h516l374 -936l154 661h-133zM1640 1983l-356 -325h-240l-196 325h248l96 -157l172 157h276z" />
    <glyph glyph-name="ncaron" unicode="&#x148;" horiz-adv-x="1421" 
d="M717 952q144 109 308 109t246 -113t36 -309l-85 -365h189l-63 -274h-531l129 557q17 73 -9 122q-27 48 -82 48q-91 0 -210 -91l-147 -636h-351l176 762h-180l64 274h526l-15 -74zM1284 1503l-356 -325h-240l-196 325h248l96 -157l172 157h276z" />
    <glyph glyph-name="napostrophe" unicode="&#x149;" horiz-adv-x="1421" 
d="M717 952q144 109 308 109t246 -113t36 -309l-85 -365h189l-63 -274h-531l129 557q17 73 -9 122q-27 48 -82 48q-91 0 -210 -91l-147 -636h-351l176 762h-180l64 274h526l-15 -74zM624 1493l288 -104l-196 -338l-207 71z" />
    <glyph glyph-name="Omacron" unicode="&#x14c;" horiz-adv-x="1597" 
d="M1292 875q0 148 -81 241q-81 92 -220 92q-102 0 -194 -47t-161 -126q-151 -173 -151 -394q0 -151 82 -243q82 -93 218 -93q202 0 355 172q152 171 152 398zM300 146q-176 178 -177 456q0 279 131 493t340 332q210 117 440 117q282 0 454 -178q171 -178 171 -456
t-125 -491t-334 -332q-209 -118 -459 -118q-129 1 -243 47t-198 130zM1400 1696h-688l43 215h688z" />
    <glyph glyph-name="omacron" unicode="&#x14d;" 
d="M477 330q49 -56 114 -56q119 0 203 86q83 86 83 194q-1 109 -51 161q-50 53 -116 53t-116 -24t-86 -63q-80 -87 -80 -191t49 -160zM102 460q0 120 52 236t138 198q182 172 443 173q196 0 332 -134q135 -134 135 -329q0 -271 -180 -450t-451 -179q-198 0 -334 134
q-135 134 -135 351zM1067 1176h-688l43 215h688z" />
    <glyph glyph-name="Ohungarumlaut" unicode="&#x150;" horiz-adv-x="1597" 
d="M1292 875q0 148 -81 241q-81 92 -220 92q-102 0 -194 -47t-161 -126q-151 -173 -151 -394q0 -151 82 -243q82 -93 218 -93q202 0 355 172q152 171 152 398zM300 146q-176 178 -177 456q0 279 131 493t340 332q210 117 440 117q282 0 454 -178q171 -178 171 -456
t-125 -491t-334 -332q-209 -118 -459 -118q-129 1 -243 47t-198 130zM1238 2042l-256 -320h-186l184 320h258zM1636 2042l-281 -320h-188l208 320h261z" />
    <glyph glyph-name="ohungarumlaut" unicode="&#x151;" 
d="M477 330q49 -56 114 -56q119 0 203 86q83 86 83 194q-1 109 -51 161q-50 53 -116 53t-116 -24t-86 -63q-80 -87 -80 -191t49 -160zM102 460q0 120 52 236t138 198q182 172 443 173q196 0 332 -134q135 -134 135 -329q0 -271 -180 -450t-451 -179q-198 0 -334 134
q-135 134 -135 351zM930 1522l-256 -320h-186l184 320h258zM1328 1522l-281 -320h-188l208 320h261z" />
    <glyph glyph-name="OE" unicode="&#x152;" horiz-adv-x="2109" 
d="M481 689q0 -182 82 -298.5t215 -116.5h127l223 967h-90q-102 0 -201.5 -44t-178 -122t-128 -182.5t-49.5 -203.5zM737 0q-273 0 -443.5 183t-170.5 452q0 182 71.5 342t195.5 279.5t292 189.5t360 70h1242l-119 -517h-350l55 240h-410l-76 -324h306l-72 -290h-301
l-80 -351h383l61 269h353l-125 -543h-1172z" />
    <glyph glyph-name="oe" unicode="&#x153;" horiz-adv-x="1950" 
d="M1329.5 772q-65.5 -37 -94.5 -106h434q-4 54 -59.5 98.5t-135.5 44.5q-79 0 -144.5 -37zM428 460q0 -75 49 -130.5t113 -55.5q119 0 203 85t84 219t-71 162t-117 28t-95 -23.5t-86 -63.5t-58.5 -93t-21.5 -128zM1200 440q8 -174 210 -174q105 0 235 109l219 -193
q-195 -209 -516 -209q-224 0 -361 150q-169 -148 -416 -148q-201 0 -335 136t-134 325q0 277 185.5 454t447.5 177q209 0 350 -156q177 156 422 156q196 0 329.5 -128t133.5 -302q0 -108 -31 -197h-739z" />
    <glyph glyph-name="Racute" unicode="&#x154;" horiz-adv-x="1483" 
d="M1212 1085q0 156 -180 156h-198l-86 -367h190q196 0 254 117q20 40 20 94zM1180 1516q187 0 286 -115t99 -291q0 -177 -115 -294q-59 -60 -116 -88t-81 -39q70 -63 74 -197l6 -218h144l-64 -274h-450l24 360q8 131 -39 188q-47 56 -166 56h-96l-77 -330h128l-63 -274
h-613l64 274h134l225 967h-175l64 275h807zM1383 1968v-25l-306 -286h-235l215 311h326z" />
    <glyph glyph-name="racute" unicode="&#x155;" horiz-adv-x="1145" 
d="M963 1036h284l-94 -403h-326l25 104q-109 0 -203 -94l-86 -369h217l-63 -274h-559l176 762h-191l64 274h530l-20 -90q100 90 246 90zM1217 1489v-25l-306 -286h-235l215 311h326z" />
    <glyph glyph-name="Rcommaaccent" unicode="&#x156;" horiz-adv-x="1483" 
d="M1212 1085q0 156 -180 156h-198l-86 -367h190q196 0 254 117q20 40 20 94zM1180 1516q187 0 286 -115t99 -291q0 -177 -115 -294q-59 -60 -116 -88t-81 -39q70 -63 74 -197l6 -218h144l-64 -274h-450l24 360q8 131 -39 188q-47 56 -166 56h-96l-77 -330h128l-63 -274
h-613l64 274h134l225 967h-175l64 275h807zM653 -29l289 -104l-197 -338l-206 72z" />
    <glyph glyph-name="rcommaaccent" unicode="&#x157;" horiz-adv-x="1145" 
d="M963 1036h284l-94 -403h-326l25 104q-109 0 -203 -94l-86 -369h217l-63 -274h-559l176 762h-191l64 274h530l-20 -90q100 90 246 90zM299 -29l289 -104l-197 -338l-206 72z" />
    <glyph glyph-name="Rcaron" unicode="&#x158;" horiz-adv-x="1483" 
d="M1212 1085q0 156 -180 156h-198l-86 -367h190q196 0 254 117q20 40 20 94zM1180 1516q187 0 286 -115t99 -291q0 -177 -115 -294q-59 -60 -116 -88t-81 -39q70 -63 74 -197l6 -218h144l-64 -274h-450l24 360q8 131 -39 188q-47 56 -166 56h-96l-77 -330h128l-63 -274
h-613l64 274h134l225 967h-175l64 275h807zM1480 1982l-356 -325h-240l-196 325h248l96 -157l172 157h276z" />
    <glyph glyph-name="rcaron" unicode="&#x159;" horiz-adv-x="1145" 
d="M963 1036h284l-94 -403h-326l25 104q-109 0 -203 -94l-86 -369h217l-63 -274h-559l176 762h-191l64 274h530l-20 -90q100 90 246 90zM1264 1503l-356 -325h-240l-196 325h248l96 -157l172 157h276z" />
    <glyph glyph-name="Sacute" unicode="&#x15a;" horiz-adv-x="1268" 
d="M808 315q66 55 66 142q0 86 -106 131q-31 13 -66 24l-172 60q-122 41 -196 141t-74 230q0 246 170 372q170 127 453 127q191 0 311 -79t135 -187h115l-60 -256h-362q21 93 12 129t-35 62q-53 53 -153 53q-166 0 -222 -92q-20 -32 -20 -74t16 -66t54 -42q36 -18 108 -46
l207 -76q246 -88 246 -366q0 -242 -180 -385q-180 -142 -469 -142q-212 -1 -338 99q-100 79 -116 202h-112l60 256h364q-27 -101 -19 -143q7 -42 33 -70q54 -59 169 -59t181 55zM1232 1968v-25l-306 -286h-235l215 311h326z" />
    <glyph glyph-name="sacute" unicode="&#x15b;" horiz-adv-x="1018" 
d="M483 739q0 -43 60 -57l164 -35q145 -32 215 -114q69 -82 69 -183q-1 -190 -153 -292q-133 -89 -341 -89q-209 0 -301 97h-165l63 274h299q-7 -42 -1 -62t31 -44q26 -24 94 -23q69 0 109 25q40 24 40 58t-18 52t-66 31l-131 33q-137 35 -212 122q-75 88 -75 184
q0 174 134 262q134 89 308 89t284 -66h210l-64 -274h-270q-9 86 -150 86q-92 -1 -122 -43q-10 -14 -11 -31zM1012 1489v-25l-306 -286h-235l215 311h326z" />
    <glyph glyph-name="Scedilla" unicode="&#x15e;" horiz-adv-x="1268" 
d="M808 315q66 55 66 142q0 86 -106 131q-31 13 -66 24l-172 60q-122 41 -196 141t-74 230q0 246 170 372q170 127 453 127q191 0 311 -79t135 -187h115l-60 -256h-362q21 93 12 129t-35 62q-53 53 -153 53q-166 0 -222 -92q-20 -32 -20 -74t16 -66t54 -42q36 -18 108 -46
l207 -76q246 -88 246 -366q0 -242 -180 -385q-180 -142 -469 -142q-212 -1 -338 99q-100 79 -116 202h-112l60 256h364q-27 -101 -19 -143q7 -42 33 -70q54 -59 169 -59t181 55zM258 -289q147 33 204 151q19 40 32 91l264 -92q-86 -203 -292 -281q-66 -24 -138 -33z" />
    <glyph glyph-name="scedilla" unicode="&#x15f;" horiz-adv-x="1018" 
d="M483 739q0 -43 60 -57l164 -35q145 -32 215 -114q69 -82 69 -183q-1 -190 -153 -292q-133 -89 -341 -89q-209 0 -301 97h-165l63 274h299q-7 -42 -1 -62t31 -44q26 -24 94 -23q69 0 109 25q40 24 40 58t-18 52t-66 31l-131 33q-137 35 -212 122q-75 88 -75 184
q0 174 134 262q134 89 308 89t284 -66h210l-64 -274h-270q-9 86 -150 86q-92 -1 -122 -43q-10 -14 -11 -31zM167 -289q147 33 204 151q19 40 32 91l264 -92q-85 -203 -291 -281q-66 -24 -139 -33z" />
    <glyph glyph-name="Scaron" unicode="&#x160;" horiz-adv-x="1268" 
d="M808 315q66 55 66 142q0 86 -106 131q-31 13 -66 24l-172 60q-122 41 -196 141t-74 230q0 246 170 372q170 127 453 127q191 0 311 -79t135 -187h115l-60 -256h-362q21 93 12 129t-35 62q-53 53 -153 53q-166 0 -222 -92q-20 -32 -20 -74t16 -66t54 -42q36 -18 108 -46
l207 -76q246 -88 246 -366q0 -242 -180 -385q-180 -142 -469 -142q-212 -1 -338 99q-100 79 -116 202h-112l60 256h364q-27 -101 -19 -143q7 -42 33 -70q54 -59 169 -59t181 55zM1344 1982l-356 -325h-240l-196 325h248l96 -157l172 157h276z" />
    <glyph glyph-name="scaron" unicode="&#x161;" horiz-adv-x="1018" 
d="M483 739q0 -43 60 -57l164 -35q145 -32 215 -114q69 -82 69 -183q-1 -190 -153 -292q-133 -89 -341 -89q-209 0 -301 97h-165l63 274h299q-7 -42 -1 -62t31 -44q26 -24 94 -23q69 0 109 25q40 24 40 58t-18 52t-66 31l-131 33q-137 35 -212 122q-75 88 -75 184
q0 174 134 262q134 89 308 89t284 -66h210l-64 -274h-270q-9 86 -150 86q-92 -1 -122 -43q-10 -14 -11 -31zM1119 1503l-356 -325h-240l-196 325h248l96 -157l172 157h276z" />
    <glyph glyph-name="Tcommaaccent" unicode="&#x162;" horiz-adv-x="1368" 
d="M342 274h157l225 967h-194l-43 -186h-344l107 461h1425l-106 -461h-344l43 186h-194l-225 -967h169l-64 -274h-675zM473 -29l289 -104l-197 -338l-206 72z" />
    <glyph glyph-name="tcommaaccent" unicode="&#x163;" horiz-adv-x="762" 
d="M686 27q-139 -52 -289 -52t-212 77t-17 263l105 447h-191l63 274h193l59 248l383 164l-98 -412h190l-63 -274h-192l-87 -371q-40 -151 54 -151q42 0 98 16zM317 -29l289 -104l-197 -338l-206 72z" />
    <glyph glyph-name="Tcaron" unicode="&#x164;" horiz-adv-x="1368" 
d="M342 274h157l225 967h-194l-43 -186h-344l107 461h1425l-106 -461h-344l43 186h-194l-225 -967h169l-64 -274h-675zM1417 1982l-356 -325h-240l-196 325h248l96 -157l172 157h276z" />
    <glyph glyph-name="tcaron" unicode="&#x165;" horiz-adv-x="820" 
d="M686 27q-139 -52 -289 -52t-212 77t-17 263l105 447h-191l63 274h193l59 248l383 164l-98 -412h190l-63 -274h-192l-87 -371q-40 -151 54 -151q42 0 98 16zM1043 1059h-219l71 518l289 16z" />
    <glyph glyph-name="Umacron" unicode="&#x16a;" horiz-adv-x="1534" 
d="M963 359q72 74 112 253l145 629h-137l64 275h612l-63 -275h-130l-155 -674q-105 -461 -441 -564q-112 -34 -237 -34q-125 -1 -219 33q-196 70 -267 240t-22 391l142 608h-150l64 275h612l-64 -275h-116l-146 -629q-21 -100 -12 -156t39 -95q57 -76 177 -76t192 74z
M1346 1656h-688l43 215h688z" />
    <glyph glyph-name="umacron" unicode="&#x16b;" horiz-adv-x="1356" 
d="M793 81q-115 -93 -271 -93q-102 0 -184 39t-114 101q-70 132 -23 298l77 336h-167l63 274h488l-136 -585q-20 -84 20 -136q40 -51 129 -51t171 91l94 407h-158l64 274h477l-177 -762h191l-63 -274h-500zM1100 1176h-688l43 215h688z" />
    <glyph glyph-name="Uring" unicode="&#x16e;" horiz-adv-x="1534" 
d="M1245 1937q88 -88 88 -211.5t-89 -211t-210 -87.5t-210 87.5t-89 211t88 211.5t211 88t211 -88zM911 1726q0 -26 9.5 -48t26 -38.5t39 -26t48.5 -9.5t48.5 9.5t39 26t26 38.5t9.5 48t-9.5 48.5t-26 39t-39 26t-48.5 9.5t-48.5 -9.5t-39 -26t-26 -39t-9.5 -48.5zM555 509
q0 -99 52 -161.5t168 -62.5t187.5 74.5t112.5 252.5l207 904h477l-63 -275h-131l-154 -674q-105 -461 -329 -529.5t-349 -68.5q-241 0 -384.5 131t-143.5 353q0 89 20 180l142 608h-150l64 275h495l-209 -904q-12 -56 -12 -103z" />
    <glyph glyph-name="uring" unicode="&#x16f;" horiz-adv-x="1356" 
d="M793 81q-115 -93 -271 -93q-102 0 -184 39t-114 101q-70 132 -23 298l77 336h-167l63 274h488l-136 -585q-20 -84 20 -136q40 -51 129 -51t171 91l94 407h-158l64 274h477l-177 -762h191l-63 -274h-500zM681 1409q0 -26 10 -49t27 -40q18 -16 40 -26t48 -10t48 10t40 26
q16 17 26 40t9 49q1 27 -9 49t-26 38t-40 26q-22 10 -48 10t-48 -10t-40 -26q-17 -16 -27 -38t-10 -49zM806 1726q65 0 123 -25q57 -25 101 -68t69 -101t25 -123t-25 -123t-69 -102t-101 -68q-58 -25 -123 -25t-123 25q-58 24 -101 68t-68 102t-25 123t25 123t68 101t101 68
t123 25z" />
    <glyph glyph-name="Uhungarumlaut" unicode="&#x170;" horiz-adv-x="1534" 
d="M963 359q72 74 112 253l145 629h-137l64 275h612l-63 -275h-130l-155 -674q-105 -461 -441 -564q-112 -34 -237 -34q-125 -1 -219 33q-196 70 -267 240t-22 391l142 608h-150l64 275h612l-64 -275h-116l-146 -629q-21 -100 -12 -156t39 -95q57 -76 177 -76t192 74z
M1208 2002l-256 -320h-186l184 320h258zM1606 2002l-281 -320h-188l208 320h261z" />
    <glyph glyph-name="uhungarumlaut" unicode="&#x171;" horiz-adv-x="1356" 
d="M793 81q-115 -93 -271 -93q-102 0 -184 39t-114 101q-70 132 -23 298l77 336h-167l63 274h488l-136 -585q-20 -84 20 -136q40 -51 129 -51t171 91l94 407h-158l64 274h477l-177 -762h191l-63 -274h-500zM909 1522l-256 -320h-186l184 320h258zM1307 1522l-281 -320h-188
l208 320h261z" />
    <glyph glyph-name="Uogonek" unicode="&#x172;" horiz-adv-x="1534" 
d="M444 -260q0 138 152 242q-179 32 -285 157t-106 314q0 82 20 180l142 608h-150l64 275h612l-64 -275h-116l-146 -629q-12 -56 -12 -102q0 -99 52.5 -162t169.5 -63t186 73.5t112 253.5l146 629h-138l64 275h612l-63 -275h-131l-154 -674q-60 -252 -160.5 -372
t-300.5 -203q-37 -17 -153.5 -70.5t-116.5 -136.5q0 -39 25 -53.5t69 -14.5t90 23l49 -170q-22 -12 -73.5 -26.5t-108.5 -14.5q-118 0 -202.5 56t-84.5 155z" />
    <glyph glyph-name="uogonek" unicode="&#x173;" horiz-adv-x="1356" 
d="M819 -212.5q0 -72.5 96 -72.5q41 0 89 23l49 -170q-79 -41 -159 -41q-141 0 -225.5 56t-84.5 145q0 163 190 272l19 82q-108 -94 -271 -94q-212 0 -290 128.5t-31 309.5l78 336h-168l63 274h488l-136 -585q-20 -86 21 -136.5t105 -50.5q113 0 194 90l94 408h-158l64 274
h477l-176 -762h190l-63 -274h-103q-121 -4 -236.5 -72t-115.5 -140.5z" />
    <glyph glyph-name="Ydieresis" unicode="&#x178;" horiz-adv-x="1393" 
d="M248 1516h612l-63 -275h-105l133 -328l25 26l262 302h-88l63 275h613l-64 -275h-101l-594 -626l-79 -341h170l-63 -274h-676l63 274h160l82 361l-280 606h-134zM1041 1947q51 53 125 53t126 -53t52 -126q0 -74 -52 -126t-126 -52t-125 52q-52 52 -52 126q0 73 52 126z
M561 1948q51 52 125 52t126 -53t52 -126q0 -74 -52 -126t-126 -52q-74 -1 -124 51q-52 52 -52 127t51 127z" />
    <glyph glyph-name="Zacute" unicode="&#x179;" horiz-adv-x="1320" 
d="M1455 1202l-974 -928h430l59 258h348l-123 -532h-1175l71 313l956 928h-405l-59 -262h-344l125 537h1163zM1295 1968v-25l-306 -286h-235l215 311h326z" />
    <glyph glyph-name="zacute" unicode="&#x17a;" horiz-adv-x="1150" 
d="M62 164l574 606h-206l-36 -156h-260l96 422h907l-41 -180l-578 -588h222l43 183h260l-103 -451h-915zM1057 1489v-25l-306 -286h-235l215 311h326z" />
    <glyph glyph-name="Zdotaccent" unicode="&#x17b;" horiz-adv-x="1320" 
d="M1455 1202l-974 -928h430l59 258h348l-123 -532h-1175l71 313l956 928h-405l-59 -262h-344l125 537h1163zM762 1849q0 75 52 127t124 51q74 0 126 -52t52 -126t-52 -126t-126 -52q-74 -1 -124 51q-52 52 -52 127z" />
    <glyph glyph-name="zdotaccent" unicode="&#x17c;" horiz-adv-x="1150" 
d="M62 164l574 606h-206l-36 -156h-260l96 422h907l-41 -180l-578 -588h222l43 183h260l-103 -451h-915zM522 1370q0 74 52 126t124 52q74 0 126 -52t52 -126t-52 -126t-126 -52t-124 52q-52 52 -52 126z" />
    <glyph glyph-name="Zcaron" unicode="&#x17d;" horiz-adv-x="1320" 
d="M1455 1202l-974 -928h430l59 258h348l-123 -532h-1175l71 313l956 928h-405l-59 -262h-344l125 537h1163zM1392 1982l-356 -325h-240l-196 325h248l96 -157l172 157h276z" />
    <glyph glyph-name="zcaron" unicode="&#x17e;" horiz-adv-x="1150" 
d="M62 164l574 606h-206l-36 -156h-260l96 422h907l-41 -180l-578 -588h222l43 183h260l-103 -451h-915zM1149 1503l-356 -325h-240l-196 325h248l96 -157l172 157h276z" />
    <glyph glyph-name="florin" unicode="&#x192;" horiz-adv-x="815" 
d="M48 -211q61 0 107 35t62 102l195 848h-158l61 262h156l41 172q38 173 174 272t299 99q115 0 174.5 -29.5t81.5 -56.5l-162 -211q-46 37 -107 37t-107 -35t-62 -102l-35 -146h190l-61 -262h-188l-201 -874q-45 -178 -177.5 -274.5t-295.5 -96.5q-115 0 -174.5 29.5
t-81.5 56.5l162 211q46 -37 107 -37z" />
    <glyph glyph-name="Scommaaccent" unicode="&#x218;" horiz-adv-x="1268" 
d="M808 315q66 55 66 142q0 86 -106 131q-31 13 -66 24l-172 60q-122 41 -196 141t-74 230q0 246 170 372q170 127 453 127q191 0 311 -79t135 -187h115l-60 -256h-362q21 93 12 129t-35 62q-53 53 -153 53q-166 0 -222 -92q-20 -32 -20 -74t16 -66t54 -42q36 -18 108 -46
l207 -76q246 -88 246 -366q0 -242 -180 -385q-180 -142 -469 -142q-212 -1 -338 99q-100 79 -116 202h-112l60 256h364q-27 -101 -19 -143q7 -42 33 -70q54 -59 169 -59t181 55zM489 -29l289 -104l-197 -338l-206 72z" />
    <glyph glyph-name="scommaaccent" unicode="&#x219;" horiz-adv-x="1018" 
d="M483 739q0 -43 60 -57l164 -35q145 -32 215 -114q69 -82 69 -183q-1 -190 -153 -292q-133 -89 -341 -89q-209 0 -301 97h-165l63 274h299q-7 -42 -1 -62t31 -44q26 -24 94 -23q69 0 109 25q40 24 40 58t-18 52t-66 31l-131 33q-137 35 -212 122q-75 88 -75 184
q0 174 134 262q134 89 308 89t284 -66h210l-64 -274h-270q-9 86 -150 86q-92 -1 -122 -43q-10 -14 -11 -31zM369 -29l289 -104l-197 -338l-206 72z" />
    <glyph glyph-name="uni021A" unicode="&#x21a;" horiz-adv-x="1368" 
d="M342 274h157l225 967h-194l-43 -186h-344l107 461h1425l-106 -461h-344l43 186h-194l-225 -967h169l-64 -274h-675zM473 -29l289 -104l-197 -338l-206 72z" />
    <glyph glyph-name="uni021B" unicode="&#x21b;" horiz-adv-x="762" 
d="M686 27q-139 -52 -289 -52t-212 77t-17 263l105 447h-191l63 274h193l59 248l383 164l-98 -412h190l-63 -274h-192l-87 -371q-40 -151 54 -151q42 0 98 16zM215 -29l289 -104l-197 -338l-206 72z" />
    <glyph glyph-name="apostrophe" unicode="&#x2bc;" horiz-adv-x="340" 
d="M111 1493l288 -104l-196 -338l-207 71z" />
    <glyph glyph-name="circumflex" unicode="&#x2c6;" horiz-adv-x="991" 
d="M100 1178l357 325h239l197 -325h-248l-96 157l-172 -157h-277z" />
    <glyph glyph-name="caron" unicode="&#x2c7;" horiz-adv-x="991" 
d="M954 1503l-356 -325h-240l-196 325h248l96 -157l172 157h276z" />
    <glyph glyph-name="breve" unicode="&#x2d8;" horiz-adv-x="987" 
d="M479 1358q145 0 193 123h250q-93 -324 -439 -324q-268 0 -343 123t-99 201h252q41 -123 186 -123z" />
    <glyph glyph-name="dotaccent" unicode="&#x2d9;" horiz-adv-x="539" 
d="M92 1370q0 75 51 126.5t125 51.5t126 -52t52 -126t-52 -126t-126 -52t-125 51.5t-51 126.5z" />
    <glyph glyph-name="ring" unicode="&#x2da;" horiz-adv-x="1200" 
d="M481 1409q0 -26 10 -49t27 -40t39.5 -26.5t48.5 -9.5t48.5 9.5t39 26.5t26 40t9.5 49t-9.5 48.5t-26 39t-39 26t-48.5 9.5t-48.5 -9.5t-39.5 -26t-27 -39t-10 -48.5zM606 1726q65 0 123 -25t101.5 -68t68.5 -101t25 -123t-25 -123t-68.5 -101.5t-101.5 -68.5t-123 -25
t-123 25t-101 68.5t-68 101.5t-25 123t25 123t68 101t101 68t123 25z" />
    <glyph glyph-name="ogonek" unicode="&#x2db;" horiz-adv-x="664" 
d="M399 -272q64 0 113 22l49 -166q-75 -41 -157 -41t-133.5 13.5t-89 39.5t-58.5 64.5t-21 89.5t18 95.5t59.5 95.5t126 100t151.5 65l86 -77q-131 -58 -171.5 -99t-52.5 -71t-12 -64q0 -67 92 -67z" />
    <glyph glyph-name="tilde" unicode="&#x2dc;" horiz-adv-x="903" 
d="M289 1257q-79 0 -127 -63l-152 70q25 97 114.5 156t158.5 59t138 -32t104.5 -46.5t70.5 -14.5q86 0 133 68l158 -70q-30 -90 -106 -152.5t-160 -62.5t-152 30t-104 44t-76 14z" />
    <glyph glyph-name="hungarumlaut" unicode="&#x2dd;" horiz-adv-x="1044" 
d="M438 1516l-256 -320h-186l184 320h258zM836 1516l-281 -320h-188l208 320h261z" />
    <glyph glyph-name="Gamma" unicode="&#x393;" horiz-adv-x="1253" 
d="M98 274h159l226 977h-146l62 265h1140l-106 -461h-328l45 196h-317l-225 -977h165l-63 -274h-676z" />
    <glyph glyph-name="Pi" unicode="&#x3a0;" horiz-adv-x="1872" 
d="M380 1516h1621l-64 -274h-156l-223 -968h176l-64 -274h-676l64 274h150l223 969h-592l-223 -969h153l-63 -274h-660l64 274h156l223 968h-173z" />
    <glyph glyph-name="pi" unicode="&#x3c0;" horiz-adv-x="1624" 
d="M1360 264q28 0 63 10l-12 -266q-103 -26 -209 -26t-160.5 14t-99.5 73t0 265l96 428h-225l-113 -488h129l-63 -274h-608l63 274h137l113 488h-137l63 274h1172l-64 -274h-125l-92 -395q-17 -84 13.5 -93.5t58.5 -9.5z" />
    <glyph glyph-name="uni0400" unicode="&#x400;" horiz-adv-x="1505" 
d="M393 1516h1297l-119 -517h-350l55 242h-421l-76 -326h337l-67 -290h-337l-82 -351h396l61 269h351l-125 -543h-1252l64 274h155l224 967h-174zM747 1969h326l196 -311h-229l-293 286v25z" />
    <glyph glyph-name="uni0401" unicode="&#x401;" horiz-adv-x="1505" 
d="M393 1516h1297l-119 -517h-350l55 242h-421l-76 -326h337l-67 -290h-337l-82 -351h396l61 269h351l-125 -543h-1252l64 274h155l224 967h-174zM1153 1947q51 53 125 53t126 -53t52 -126q0 -74 -52 -126t-126 -52t-125 52q-52 52 -52 126q0 73 52 126zM673 1948
q51 52 125 52t126 -53t52 -126q0 -74 -52 -126t-126 -52q-74 -1 -124 51q-52 52 -52 127t51 127z" />
    <glyph glyph-name="uni0402" unicode="&#x402;" horiz-adv-x="1784" 
d="M1396 905q232 0 347 -104.5t115 -272.5q0 -250 -181.5 -398t-388.5 -148h-24q-24 0 -39 2l67 288h29q149 0 190 71.5t41 124.5q0 89 -61.5 125t-149.5 36q-163 0 -290 -43l-73 -312h152l-63 -274h-676l64 274h173l227 977h-200l-45 -196h-325l106 461h1391l-107 -461
h-327l45 196h-188l-89 -383q152 37 280 37z" />
    <glyph glyph-name="uni0403" unicode="&#x403;" horiz-adv-x="1229" 
d="M98 274h159l226 977h-146l62 265h1140l-106 -461h-328l45 196h-317l-225 -977h165l-63 -274h-676zM1416 1968v-25l-306 -286h-235l215 311h326z" />
    <glyph glyph-name="uni0404" unicode="&#x404;" horiz-adv-x="1503" 
d="M1014 1544q306 0 473 -215h190l-63 -274h-389q-27 67 -91.5 110t-147.5 43q-145 0 -263 -78.5t-184 -203.5h622l-59 -264h-637v-21q0 -150 82 -243t219 -93q197 0 330 195l317 -158q-238 -373 -686 -373q-275 0 -450 178.5t-175 460.5q0 213 79 386t207 295t292 188.5
t334 66.5z" />
    <glyph glyph-name="uni0405" unicode="&#x405;" horiz-adv-x="1268" 
d="M808 315q66 55 66 142q0 86 -106 131q-31 13 -66 24l-172 60q-122 41 -196 141t-74 230q0 246 170 372q170 127 453 127q191 0 311 -79t135 -187h115l-60 -256h-362q21 93 12 129t-35 62q-53 53 -153 53q-166 0 -222 -92q-20 -32 -20 -74t16 -66t54 -42q36 -18 108 -46
l207 -76q246 -88 246 -366q0 -242 -180 -385q-180 -142 -469 -142q-212 -1 -338 99q-100 79 -116 202h-112l60 256h364q-27 -101 -19 -143q7 -42 33 -70q54 -59 169 -59t181 55z" />
    <glyph glyph-name="uni0406" unicode="&#x406;" horiz-adv-x="780" 
d="M393 1516h676l-63 -275h-151l-225 -967h171l-64 -274h-676l64 274h155l224 967h-174z" />
    <glyph glyph-name="uni0407" unicode="&#x407;" horiz-adv-x="926" 
d="M393 1516h676l-63 -275h-151l-225 -967h171l-64 -274h-676l64 274h155l224 967h-174zM801 1822q0 66 46 112q46 47 113 47q66 1 112 -45t46 -114t-46 -114t-112 -46q-67 0 -113 47t-46 113zM424 1822q0 66 46 112q46 47 113 47t113 -46q46 -45 46 -113t-46 -114t-113 -46
t-113 47t-46 113z" />
    <glyph glyph-name="uni0408" unicode="&#x408;" horiz-adv-x="782" 
d="M352 1516h676l-63 -275h-149l-247 -1069q-42 -80 -75 -124t-121 -129q-77 -79 -174 -165l-281 23q161 172 220 255q59 82 91 173l239 1036h-179z" />
    <glyph glyph-name="uni0409" unicode="&#x409;" horiz-adv-x="2257" 
d="M1974 516q0 162 -209 162h-131l-92 -404h131q217 0 259 94.5t42 147.5zM281 0h-250l96 414h279l-37 -158q97 47 154 197.5t91 255.5l179 534h-244l63 273h1411l-63 -273h-195l-67 -291h205q205 0 322.5 -113.5t117.5 -289.5q0 -238 -158.5 -393.5t-501.5 -155.5h-727
l64 274h172l223 969h-301l-180 -547q-107 -324 -255 -510t-398 -186z" />
    <glyph glyph-name="uni040A" unicode="&#x40a;" horiz-adv-x="2163" 
d="M1985 516q0 162 -209 162h-131l-93 -404h131q144 0 223 67t79 175zM1913 952q205 0 322.5 -113.5t117.5 -289.5q0 -238 -158.5 -393.5t-500.5 -155.5h-727l63 274h172l92 404h-530l-92 -404h170l-64 -274h-676l64 274h156l223 967h-172l63 275h676l-63 -275h-154
l-68 -289h531l67 289h-174l64 275h676l-64 -275h-151l-68 -289h205z" />
    <glyph glyph-name="uni040B" unicode="&#x40b;" horiz-adv-x="1804" 
d="M1273 905q287 0 409.5 -111.5t53.5 -400.5l-27 -119h160l-63 -274h-650l64 274h158l22 91q36 146 -22.5 194.5t-200.5 48.5q-143 0 -287 -24l-71 -310h159l-63 -274h-649l63 274h158l225 977h-199l-45 -196h-325l106 461h1393l-107 -461h-327l45 196h-209l-86 -374
q182 28 315 28z" />
    <glyph glyph-name="uni040C" unicode="&#x40c;" horiz-adv-x="1563" 
d="M1563 1968v-25l-306 -286h-235l215 311h326zM393 1516h676l-63 -275h-151l-225 -967h171l-64 -274h-676l64 274h155l224 967h-174zM1370 1243l64 273h618l-63 -275h-134l-642 -477l350 -490h147l-61 -274h-564l64 274l-377 519z" />
    <glyph glyph-name="uni040D" unicode="&#x40d;" horiz-adv-x="1843" 
d="M410 1516h575l-63 -275h-125l-170 -739l874 1016h447l-64 -277h-123l-223 -967h123l-64 -274h-575l63 274h129l166 725l-870 -999h-449l64 274h127l221 967h-127zM879 1968h326l196 -311h-229l-293 286v25z" />
    <glyph glyph-name="uni040E" unicode="&#x40e;" horiz-adv-x="1444" 
d="M1755 1516l-63 -275h-136q-158 -237 -312 -473t-312 -473q-203 -307 -475 -307h-41l-201 12h-98q81 351 96 414h309q-25 -107 -41 -170q103 8 174 98l-202 899h-140l64 275h612l-63 -275h-105q23 -123 43 -243t41 -242q71 122 145 242t146 243h-117l64 275h612z
M1048 1837q145 0 193 123h250q-93 -324 -439 -324q-268 0 -382 186q-36 60 -60 138h252q41 -123 186 -123z" />
    <glyph glyph-name="uni040F" unicode="&#x40f;" horiz-adv-x="1838" 
d="M1333 1516h676l-64 -275h-156l-225 -969h154l-64 -272h-635l-80 -348h-309l80 348h-649l63 272h146l225 969h-172l63 275h676l-63 -275h-154l-225 -969h594l225 969h-170z" />
    <glyph glyph-name="uni0410" unicode="&#x410;" horiz-adv-x="1479" 
d="M711 772h243l-30 402zM907 274h84l-16 209h-418l-111 -209h127l-63 -274h-612l63 274h128l689 1242h436l114 -1242h192l-64 -274h-612z" />
    <glyph glyph-name="uni0411" unicode="&#x411;" horiz-adv-x="1473" 
d="M1104 516q0 162 -209 162h-131l-92 -404h131q143 0 222 67t79 175zM1032 952q205 0 323 -114t118 -289q0 -239 -159 -394t-501 -155h-727l64 274h172l225 977h-144l62 265h1188l-107 -461h-327l45 196h-367l-70 -299h205z" />
    <glyph glyph-name="uni0412" unicode="&#x412;" horiz-adv-x="1516" 
d="M1006 901q144 -1 196 113q16 36 17 73q0 68 -38 111t-108 43h-220l-79 -340h232zM877 274q157 0 203 128q14 40 14 78q0 70 -36 108q-36 39 -102 39h-246l-82 -353h249zM1317 747q117 -88 117 -278q0 -97 -40 -190t-116 -155q-150 -124 -418 -124h-799l64 274h153
l224 967h-172l63 275h766q187 0 292 -107t105 -276q0 -270 -239 -386z" />
    <glyph glyph-name="uni0413" unicode="&#x413;" horiz-adv-x="1253" 
d="M111 274h159l226 977h-146l62 265h1140l-106 -461h-328l45 196h-317l-225 -977h165l-63 -274h-676z" />
    <glyph glyph-name="uni0414" unicode="&#x414;" horiz-adv-x="1737" 
d="M782 684q-83 -270 -194 -412h502l225 971h-357zM43 272h158q106 39 153 128.5t119 306.5l170 536h-237l63 273h1411l-63 -273h-152l-225 -971h186l-143 -620h-332l78 348h-918l-80 -348h-331z" />
    <glyph glyph-name="uni0415" unicode="&#x415;" horiz-adv-x="1505" 
d="M393 1516h1297l-119 -517h-350l55 242h-421l-76 -326h337l-67 -290h-337l-82 -351h396l61 269h351l-125 -543h-1252l64 274h155l224 967h-174z" />
    <glyph glyph-name="uni0416" unicode="&#x416;" horiz-adv-x="2304" 
d="M821 274h158l86 371h-141l-334 -371l-64 -274h-503l63 274h123l502 512l-299 455h-115l65 275h517l-66 -273l176 -323h139l74 321h-158l64 275h649l-63 -275h-160l-74 -321h137l322 323l63 273h517l-64 -275h-113l-510 -455l269 -512h123l-66 -274h-504l66 274l-164 371
h-139l-86 -371h159l-63 -274h-649z" />
    <glyph glyph-name="uni0417" unicode="&#x417;" horiz-adv-x="1270" 
d="M670 -18q-356 0 -447 280h-100l67 301h363l-35 -155q11 -125 168 -125q98 0 176 65t78 142t-44 119t-128 42h-139l63 273h142q155 0 191 73.5t36 105.5q0 62 -43 105t-115 43q-106 0 -155.5 -54t-59.5 -81q0 -26 -11 -56t-15 -59h-363l70 302h106q130 174 265.5 210.5
t219.5 36.5q177 0 299.5 -111.5t122.5 -283.5t-90 -251t-139 -107q47 -35 77 -112t30 -173t-50.5 -195.5t-134.5 -173t-193.5 -117.5t-211.5 -44z" />
    <glyph glyph-name="uni0418" unicode="&#x418;" horiz-adv-x="1805" 
d="M410 1516h575l-63 -275h-125l-170 -739l874 1016h447l-64 -277h-123l-223 -967h123l-64 -274h-575l63 274h129l166 725l-870 -999h-449l64 274h127l221 967h-127z" />
    <glyph glyph-name="uni0419" unicode="&#x419;" horiz-adv-x="1843" 
d="M410 1516h575l-63 -275h-125l-170 -739l874 1016h447l-64 -277h-123l-223 -967h123l-64 -274h-575l63 274h129l166 725l-870 -999h-449l64 274h127l221 967h-127zM1194 1837q145 0 193 123h250q-93 -324 -439 -324q-268 0 -382 186q-36 60 -60 138h252q41 -123 186 -123z
" />
    <glyph glyph-name="uni041A" unicode="&#x41a;" horiz-adv-x="1614" 
d="M393 1516h676l-63 -275h-151l-225 -967h171l-64 -274h-676l64 274h155l224 967h-174zM1370 1243l64 273h618l-63 -275h-134l-642 -477l350 -490h147l-61 -274h-564l64 274l-377 519z" />
    <glyph glyph-name="uni041B" unicode="&#x41b;" horiz-adv-x="1880" 
d="M281 0h-250l96 414h279l-37 -158q97 47 154 197.5t91 255.5l179 534h-244l63 273h1411l-63 -273h-139l-224 -969h150l-64 -274h-675l63 274h176l223 969h-356l-180 -547q-107 -324 -255 -510t-398 -186z" />
    <glyph glyph-name="uni041C" unicode="&#x41c;" horiz-adv-x="2419" 
d="M115 274h136l224 967h-174l64 275h688l181 -1016l619 1016h707l-63 -275h-154l-225 -967h149l-63 -274h-613l64 274h115l189 814l-677 -1070h-301l-199 1082l-199 -826h144l-63 -274h-613z" />
    <glyph glyph-name="uni041D" unicode="&#x41d;" horiz-adv-x="1946" 
d="M1413 1516h676l-64 -275h-155l-224 -967h175l-64 -274h-676l64 274h151l90 388h-666l-90 -388h171l-64 -274h-676l64 274h155l224 967h-172l63 275h676l-63 -275h-153l-72 -309h665l72 309h-170z" />
    <glyph glyph-name="uni041E" unicode="&#x41e;" horiz-adv-x="1597" 
d="M1292 875q0 148 -81 241q-81 92 -220 92q-102 0 -194 -47t-161 -126q-151 -173 -151 -394q0 -151 82 -243q82 -93 218 -93q202 0 355 172q152 171 152 398zM300 146q-176 178 -177 456q0 279 131 493t340 332q210 117 440 117q282 0 454 -178q171 -178 171 -456
t-125 -491t-334 -332q-209 -118 -459 -118q-129 1 -243 47t-198 130z" />
    <glyph glyph-name="uni041F" unicode="&#x41f;" horiz-adv-x="1888" 
d="M395 1516h1621l-64 -274h-156l-223 -968h176l-64 -274h-676l64 274h150l223 969h-592l-223 -969h153l-63 -274h-660l64 274h156l223 968h-173z" />
    <glyph glyph-name="uni0420" unicode="&#x420;" horiz-adv-x="1395" 
d="M866 834q216 0 280 134q22 45 21 114q1 69 -51 114t-155 45h-106l-95 -407h106zM1098 1516q203 0 322 -115q118 -115 118 -293q0 -377 -354 -501q-126 -44 -307 -44h-180l-67 -289h171l-64 -274h-676l64 274h155l224 967h-174l63 275h705z" />
    <glyph glyph-name="uni0421" unicode="&#x421;" horiz-adv-x="1513" 
d="M1014 1544q308 0 473 -215h190l-63 -274h-389q-25 69 -91 111t-148 42t-147 -22t-121 -60q-114 -78 -183 -208q-70 -131 -70 -280q0 -148 82 -240q82 -93 219 -93q197 0 330 195l317 -158q-236 -373 -686 -373q-273 0 -449 177t-176 456t131 493t341 332q211 117 440 117
z" />
    <glyph glyph-name="uni0422" unicode="&#x422;" horiz-adv-x="1368" 
d="M342 274h157l225 967h-194l-43 -186h-344l107 461h1425l-106 -461h-344l43 186h-194l-225 -967h169l-64 -274h-675z" />
    <glyph glyph-name="uni0423" unicode="&#x423;" horiz-adv-x="1444" 
d="M1755 1516l-63 -275h-136q-157 -237 -311.5 -473t-312.5 -473q-203 -307 -475 -307h-11l-231 12h-98q81 351 96 414h309q-25 -107 -41 -170q103 8 174 98l-202 899h-140l64 275h612l-63 -275h-105q23 -123 42.5 -242.5t41.5 -242.5q72 123 145.5 242.5t145.5 242.5h-117
l64 275h612z" />
    <glyph glyph-name="uni0424" unicode="&#x424;" horiz-adv-x="1599" 
d="M461 794q0 -92 65.5 -136.5t153.5 -49.5l102 441q-123 -5 -191.5 -52t-99 -97t-30.5 -106zM1346 866q0 96 -71.5 137t-160.5 46l-102 -441q127 5 198.5 53t103.5 97.5t32 107.5zM1683 870q0 -108 -56 -203.5t-204 -189.5t-465 -98l-24 -105h172l-64 -274h-675l63 274h172
l25 105q-219 8 -361.5 111t-142.5 274q0 129 59.5 225t204 188t449.5 101l20 90h-149l51 219h631l-52 -219h-149l-21 -90q222 -8 369 -112.5t147 -295.5z" />
    <glyph glyph-name="uni0425" unicode="&#x425;" horiz-adv-x="1618" 
d="M1208 1516h676l-63 -275h-125l-558 -491l312 -476h170l-64 -274h-675l63 274h118l-170 260l-295 -260h101l-63 -274h-676l64 274h121l584 512l-297 455h-173l64 275h675l-63 -275h-117l156 -239l272 239h-100z" />
    <glyph glyph-name="uni0426" unicode="&#x426;" horiz-adv-x="1867" 
d="M1339 1516h676l-64 -275h-155l-223 -967h293l-144 -622h-309l80 348h-1432l63 274h157l223 967h-172l63 275h677l-63 -275h-154l-223 -967h590l224 967h-170z" />
    <glyph glyph-name="uni0427" unicode="&#x427;" horiz-adv-x="1708" 
d="M922 512q-293 0 -424.5 112.5t-63.5 399.5l49 217h-139l64 275h612l-64 -275h-120l-45 -188q-51 -210 56 -227t207 -17t230 20l94 412h-135l64 275h612l-64 -275h-126l-224 -967h156l-64 -274h-675l63 274h170l62 265q-157 -27 -295 -27z" />
    <glyph glyph-name="uni0428" unicode="&#x428;" horiz-adv-x="2607" 
d="M2030 1516h676l-64 -275h-156l-223 -967h156l-64 -274h-2330l63 274h156l224 967h-163l64 275h665l-63 -275h-154l-223 -967h496l223 967h-170l63 275h676l-63 -275h-156l-223 -967h473l223 967h-170z" />
    <glyph glyph-name="uni0429" unicode="&#x429;" horiz-adv-x="2566" 
d="M2038 1516h676l-64 -275h-156l-223 -967h301l-143 -622h-309l80 348h-2175l63 274h164l223 967h-172l64 275h675l-63 -275h-154l-223 -967h496l223 967h-170l63 275h676l-63 -275h-156l-223 -967h473l223 967h-170z" />
    <glyph glyph-name="uni042A" unicode="&#x42a;" horiz-adv-x="1544" 
d="M1257 516q0 162 -208 162h-121l-92 -404h120q144 0 222.5 66.5t78.5 175.5zM1186 952q205 0 322.5 -113.5t117.5 -289.5q0 -238 -158.5 -393.5t-500.5 -155.5h-727l63 274h182l226 977h-164l-45 -196h-328l107 461h1003l-61 -265h-162l-70 -299h195z" />
    <glyph glyph-name="uni042B" unicode="&#x42b;" horiz-adv-x="2230" 
d="M1104 516q0 162 -209 162h-131l-92 -404h131q143 0 222 67t79 175zM1032 952q205 0 323 -114t118 -289q0 -239 -150 -385q-168 -164 -510 -164h-727l64 274h172l223 967h-174l63 275h676l-63 -275h-152l-68 -289h205zM1697 1516h676l-63 -275h-151l-225 -967h171
l-64 -274h-676l64 274h155l224 967h-174z" />
    <glyph glyph-name="uni042C" unicode="&#x42c;" horiz-adv-x="1386" 
d="M1104 516q0 162 -209 162h-131l-92 -404h131q143 0 222 67t79 175zM1032 952q205 0 323 -114t118 -289q0 -239 -159 -394t-501 -155h-727l64 274h172l223 967h-174l63 275h676l-63 -275h-152l-68 -289h205z" />
    <glyph glyph-name="uni042D" unicode="&#x42d;" horiz-adv-x="1671" 
d="M1071 1208q-205 0 -334 -153h-329q0 2 1 2t1 2q-7 -2 -12 -2t-11 -2q40 172 66 278h133q96 87 241.5 149t294.5 62q286 0 451.5 -175.5t165.5 -465.5q0 -209 -74 -381t-199 -295t-290.5 -190.5t-317.5 -67.5q-267 0 -431.5 131t-180.5 330q172 46 344 90
q27 -150 126.5 -182.5t167.5 -32.5q139 0 272.5 96t191.5 240h-703l64 274h671q-16 173 -118.5 233t-190.5 60z" />
    <glyph glyph-name="uni042E" unicode="&#x42e;" horiz-adv-x="2445" 
d="M2122 854q0 171 -81 262.5t-220 91.5q-103 0 -195 -47t-201.5 -173.5t-109.5 -346.5q0 -150 82 -243t234 -93q85 0 177.5 47t162 125t110.5 181.5t41 195.5zM1600 -31q-298 0 -473 178.5t-175 460.5v24q0 25 2 42h-192l-92 -400h170l-64 -274h-676l64 274h155l224 967
h-174l63 275h676l-64 -275h-151l-68 -293h187q100 273 340 434.5t516 161.5t448 -176t172 -465q0 -209 -73.5 -381t-198.5 -295t-291.5 -190.5t-324.5 -67.5z" />
    <glyph glyph-name="uni042F" unicode="&#x42f;" horiz-adv-x="1682" 
d="M791 1018q0 -144 213 -144h198l84 367h-199q-138 0 -217 -59.5t-79 -163.5zM997 604q-120 0 -193 -57.5t-120 -186.5l-143 -360h-428l65 274h125l100 218q71 158 201 219q-132 77 -153 154t-21 154t45 171t172 210t389 116h789l-64 -275h-143l-223 -967h139l-64 -274
h-628l63 274h158l76 330h-142z" />
    <glyph glyph-name="uni0430" unicode="&#x430;" horiz-adv-x="1391" 
d="M699 758q-44 0 -93 -22q-50 -22 -86 -58q-80 -80 -80 -183t54 -152q54 -50 151 -50t178 79l44 55l50 216q-60 115 -218 115zM786 79q-90 -95 -259 -95q-168 0 -296 122q-129 122 -129 319t94 345q132 208 388 272q80 20 161 19q145 0 251 -76l12 51h340l-177 -762h191
l-64 -274h-530z" />
    <glyph glyph-name="uni0431" unicode="&#x431;" horiz-adv-x="1300" 
d="M669 266q109 0 196 83t87 215t-76 161t-128 29q-110 0 -192.5 -82t-82.5 -197q0 -145 74 -177t122 -32zM567 961q133 92 302 92q170 0 286.5 -130.5t116.5 -318.5q0 -269 -182 -449t-443 -180q-211 0 -345 137.5t-134 315.5q0 179 39 306.5t51 170.5q169 566 752 594
q65 0 86.5 13.5t27.5 41.5h287q-14 -130 -117.5 -231.5t-336.5 -101.5t-303 -97.5t-81 -142.5q-2 -2 -3 -7t-3 -13z" />
    <glyph glyph-name="uni0432" unicode="&#x432;" horiz-adv-x="1333" 
d="M997 700q0 74 -118 74h-263l-36 -160h262q80 0 117.5 18.5t37.5 67.5zM934 354q0 68 -121 68h-278l-39 -170h276q66 0 114 24.5t48 77.5zM1255 373q0 -169 -147.5 -271t-370.5 -102h-594l179 774h-138l62 262h708q183 0 283 -67.5t100 -184.5q0 -194 -176 -266
q94 -55 94 -145z" />
    <glyph glyph-name="uni0433" unicode="&#x433;" 
d="M479 997q128 70 311 70t292.5 -77.5t109.5 -201.5q0 -264 -275.5 -322t-357.5 -74t-102.5 -42t-20.5 -55t33 -53.5t91 -24.5q104 0 170 35t77 92h283q-34 -140 -66 -278h-170q-140 -97 -324 -97t-301.5 81t-117.5 221t103.5 235.5t350.5 140.5q162 28 231.5 46t69.5 60
t-41 54t-111 12t-138 -23.5t-84 -66.5v-2l-3 -8h-258l64 278h184z" />
    <glyph glyph-name="uni0434" unicode="&#x434;" horiz-adv-x="1370" 
d="M969 584q-27 184 -196 184q-44 0 -93.5 -23.5t-108.5 -87.5t-59 -167q0 -104 50.5 -160t122.5 -56q71 0 121 26.5t86 68.5t56.5 93.5t20.5 80.5v41zM1125.5 168q-177.5 -193 -441.5 -193q-218 0 -358 133.5t-140 368.5t175 408.5t407 173.5q73 0 166 -19
q-49 130 -166.5 177t-194.5 67l164 272q272 -86 419 -279.5t147 -554.5t-177.5 -554z" />
    <glyph glyph-name="uni0435" unicode="&#x435;" horiz-adv-x="1178" 
d="M464 666h433q-4 55 -60 99t-120 44q-192 0 -253 -143zM1198 629q0 -92 -31 -189h-739q10 -118 103 -158q38 -16 85 -16q81 0 138 28q58 28 118 81l220 -193q-195 -209 -517 -209q-201 0 -337 126t-136 333q0 278 186 457q186 178 447 178q198 0 330 -128
q133 -129 133 -310z" />
    <glyph glyph-name="uni0436" unicode="&#x436;" horiz-adv-x="1978" 
d="M70 0q37 162 63 274h168l258 238l-168 252h-147l63 274h281l248 -401h141l29 125h-134l64 274h440l-94 -405h121l123 131h-2l63 274h514l-63 -274h-176l-254 -236l168 -252h147l-63 -274h-281l-248 401h-102l-29 -127h133l-63 -274h-441l95 408h-160l-127 -134l-63 -274
h-504z" />
    <glyph glyph-name="uni0437" unicode="&#x437;" horiz-adv-x="1147" 
d="M659 623q113 0 146 20.5t43 41.5t10 61q0 82 -140 81q-140 0 -192.5 -61t-66.5 -100h-6q-2 0 -2 1t-2 1h-275l59 274h148q169 129 391 129q418 0 418 -289q0 -77 -61.5 -159t-172.5 -95q104 -27 119 -91.5t15 -114.5t-32 -118.5t-135 -151.5t-362 -83
q-332 0 -393.5 145.5t-69.5 219.5q74 12 146.5 23.5t146.5 23.5q-8 -72 41 -117t146 -45q200 0 200 123q0 88 -164 88h-88q44 186 45 193h88z" />
    <glyph glyph-name="uni0438" unicode="&#x438;" horiz-adv-x="1356" 
d="M793 81q-115 -93 -271 -93q-102 0 -184 39t-114 101q-70 132 -23 298l77 336h-167l63 274h488l-136 -585q-20 -84 20 -136q40 -51 129 -51t171 91l94 407h-158l64 274h477l-177 -762h191l-63 -274h-500z" />
    <glyph glyph-name="uni0439" unicode="&#x439;" horiz-adv-x="1356" 
d="M793 81q-115 -93 -271 -93q-102 0 -184 39t-114 101q-70 132 -23 298l77 336h-167l63 274h488l-136 -585q-20 -84 20 -136q40 -51 129 -51t171 91l94 407h-158l64 274h477l-177 -762h191l-63 -274h-500zM765 1432q145 0 193 123h250q-93 -324 -439 -324q-267 0 -381 186
q-36 60 -61 138h252q41 -123 186 -123z" />
    <glyph glyph-name="uni043A" unicode="&#x43a;" horiz-adv-x="1290" 
d="M229 1036h496l-98 -420h96l154 164l59 256h457l-64 -274h-98l-236 -223l135 -265h156l-63 -274h-301l-197 406h-145l-95 -406h-342l176 762h-153z" />
    <glyph glyph-name="uni043B" unicode="&#x43b;" horiz-adv-x="1577" 
d="M205 0h-154l64 272q92 0 153.5 19.5t105.5 69t77.5 132t70.5 209.5l19 62h-133l63 272h1178l-64 -272h-149q-29 -123 -56.5 -245t-56.5 -245h145q-26 -112 -63 -274h-487q45 193 88 382t88 382h-215q-13 -39 -31.5 -110.5t-73.5 -220t-197.5 -291t-371.5 -142.5z" />
    <glyph glyph-name="uni043C" unicode="&#x43c;" horiz-adv-x="1997" 
d="M1946 274q-19 -77 -64 -274h-491q30 135 62 271.5t63 271.5h-3q-127 -125 -250.5 -250t-250.5 -250q-60 123 -116 243t-116 242q-47 -137 -96 -237.5t-145.5 -195.5t-329.5 -95h-141l63 272q98 0 155.5 20.5t95.5 75t71.5 149.5t87.5 245h-211l63 274h477
q60 -133 120.5 -265t119.5 -265l516 530h496l-64 -274h-182q-29 -123 -56.5 -244t-56.5 -244h183z" />
    <glyph glyph-name="uni043D" unicode="&#x43d;" horiz-adv-x="1499" 
d="M270 1036h496l-88 -381h389l88 381h342l-176 -762h145l-63 -274h-488l95 412h-389l-95 -412h-342l176 762h-153z" />
    <glyph glyph-name="uni043E" unicode="&#x43e;" 
d="M477 330q49 -56 114 -56q119 0 203 86q83 86 83 194q-1 109 -51 161q-50 53 -116 53t-116 -24t-86 -63q-80 -87 -80 -191t49 -160zM102 460q0 120 52 236t138 198q182 172 443 173q196 0 332 -134q135 -134 135 -329q0 -271 -180 -450t-451 -179q-198 0 -334 134
q-135 134 -135 351z" />
    <glyph glyph-name="uni043F" unicode="&#x43f;" horiz-adv-x="1534" 
d="M289 1036h1317l-64 -272h-137l-113 -490h146l-64 -274h-487l176 764h-348l-113 -490h172l-63 -274h-676l63 274h162l113 490h-148z" />
    <glyph glyph-name="uni0440" unicode="&#x440;" horiz-adv-x="1366" 
d="M801 287q98 0 178 80t80 192q0 139 -116 181q-34 12 -70 12q-153 0 -239 -131l-51 -220q34 -79 140 -105q34 -8 78 -9zM712 963q91 98 261 98q170 1 297 -121t127 -334q0 -278 -193 -450t-450 -172q-113 0 -207 47q-26 12 -44 26l-59 -254h201l-63 -274h-541l286 1233
h-188l64 274h520z" />
    <glyph glyph-name="uni0441" unicode="&#x441;" horiz-adv-x="1171" 
d="M735 1067q187 0 318 -125h192l-63 -274h-330q-16 42 -59 68t-96 26q-110 0 -189 -85q-80 -85 -80 -187t51 -157q51 -54 125 -54q149 0 230 139l272 -148q-67 -130 -209 -213q-142 -82 -334 -82q-191 0 -326 134t-135 327q0 278 186 455q186 176 447 176z" />
    <glyph glyph-name="uni0442" unicode="&#x442;" horiz-adv-x="2083" 
d="M1003 1061q237 0 301 -174q179 174 363 174t265 -113t36 -309l-84 -365h189l-64 -274h-530l129 557q16 75 -11 122q-27 48 -81 48q-88 0 -210 -91l-147 -636h-350l129 557q17 73 -9 122q-27 48 -82 48q-89 0 -211 -91l-147 -636h-350l176 762h-172l64 274h518l-19 -93
q154 118 297 118z" />
    <glyph glyph-name="uni0443" unicode="&#x443;" horiz-adv-x="1296" 
d="M137 -471h-47v274h133q68 0 134.5 38t115.5 120q2 1 2 3v3l-170 795h-106l63 274h512l-63 -274h-80q18 -105 35.5 -206t35.5 -206q60 105 121.5 206t120.5 206h-88q56 242 64 274h512q-8 -32 -64 -274h-100q-121 -197 -241 -390.5t-218 -353.5t-161.5 -246.5
t-166.5 -164.5t-344 -78z" />
    <glyph glyph-name="uni0444" unicode="&#x444;" horiz-adv-x="1882" 
d="M1120 340q64 -53 174 -53t190.5 79t80.5 184t-53.5 158.5t-144.5 53.5t-159 -41q-22 -96 -43.5 -190.5t-44.5 -190.5zM899 715q-61 49 -176 49t-192.5 -76.5t-77.5 -180.5t49 -160t145 -56t166 49zM1456 1061q190 0 318.5 -121t128.5 -334q0 -271 -186.5 -446.5
t-456.5 -175.5q-119 0 -211 45q-13 -58 -26 -113t-26 -113h191l-64 -274h-497q28 125 57 249t57 249q-76 -45 -190 -45q-212 0 -330.5 132.5t-118.5 323.5q0 278 189.5 450.5t449.5 172.5q152 0 230 -35q16 66 29.5 128.5t29.5 127.5h-174q45 197 64 274h481
q-17 -69 -32 -136.5t-31 -135.5t-30 -132.5t-30 -129.5q80 39 178 39z" />
    <glyph glyph-name="uni0445" unicode="&#x445;" horiz-adv-x="1237" 
d="M678 274h73l-97 118l-157 -118h74l-63 -274h-498l64 274h75l328 264l-175 224h-122l64 274h512l-64 -274h-80l89 -104l136 104h-63l64 274h512l-64 -274h-101l-305 -246l189 -242h107l-64 -274h-498z" />
    <glyph glyph-name="uni0446" unicode="&#x446;" horiz-adv-x="1358" 
d="M983 0q-140 0 -172 96q-64 -57 -168 -96t-230 -0.5t-176.5 123t-50.5 163.5t15 140l78 336h-168l63 274h488l-136 -585q-20 -86 21 -136.5t105 -50.5q113 0 194 90l94 408h-158l64 274h477l-149 -649q-16 -58 14 -85.5t80 -27.5h104l-135 -581h-309l71 307h-16z" />
    <glyph glyph-name="uni0447" unicode="&#x447;" horiz-adv-x="1257" 
d="M574 348q-224 0 -305.5 81.5t-32.5 289.5q4 10 5 21.5t5 21.5h-103l64 274h409q-73 -326 -75 -356.5t14.5 -57t106.5 -26.5q89 0 161 14l99 426h309l-176 -762h155l-63 -274h-465q31 138 82 358q-93 -10 -190 -10z" />
    <glyph glyph-name="uni0448" unicode="&#x448;" horiz-adv-x="2083" 
d="M741 264q41 0 73 19.5t83 66.5q43 172 81 342t79 344h321q-16 -73 -33.5 -146t-34 -146.5t-33.5 -146.5t-35 -151t21 -130t103 -52q113 0 195 90q22 103 46.5 204t47.5 204h-129l63 274h471q-45 -192 -88 -380.5t-88 -381.5h191l-64 -274h-524q4 20 10 40.5t10 41.5
q-120 -94 -270 -94q-215 0 -307 155q-144 -155 -327 -155t-280.5 113t-54.5 296q23 92 42.5 182.5t41.5 182.5h-168l64 274h489q-16 -73 -33.5 -146t-34 -146.5t-34 -146.5t-34.5 -149t23 -130t117 -54z" />
    <glyph glyph-name="uni0449" unicode="&#x449;" horiz-adv-x="2105" 
d="M1696 0q-78 0 -120 29.5t-52 66.5q-128 -108 -287 -108q-215 0 -307 155q-144 -155 -327 -155t-280.5 113t-54.5 296q23 92 42.5 182.5t41.5 182.5h-168l64 274h489q-16 -73 -33.5 -146t-34 -146.5t-34 -146.5t-34.5 -149t23 -130t117 -54q41 0 73 19.5t83 66.5
q43 172 81 342t79 344h321q-16 -73 -33.5 -146t-34 -146.5t-33.5 -146.5t-35 -151t21.5 -130t101.5 -52q115 0 194 88q22 105 46.5 205t47.5 205h-127l63 274h447q-37 -164 -75.5 -325t-60.5 -259t-11 -138t91 -40h105l-135 -581h-310q22 90 72 307h-16z" />
    <glyph glyph-name="uni044A" unicode="&#x44a;" horiz-adv-x="1511" 
d="M1083 264q52 0 85.5 32t33.5 70q0 89 -76 89h-249l-43 -191h249zM1110 684q412 0 412 -266q0 -206 -162 -312t-408 -106h-506l177 762h-179l-22 -94h-262l86 368h766l-82 -352h180z" />
    <glyph glyph-name="uni044B" unicode="&#x44b;" horiz-adv-x="1935" 
d="M821 264q53 0 86 33t33 69q0 88 -76 89h-250l-43 -191h250zM848 684q411 0 411 -266q0 -208 -173 -320q-151 -98 -396 -98h-506l176 762h-151l63 274h477l-82 -352h181zM1577 1036h342l-176 -762h191l-64 -274h-532z" />
    <glyph glyph-name="uni044C" unicode="&#x44c;" horiz-adv-x="1212" 
d="M813 264q53 0 86 33t33 69q0 88 -76 89h-250l-43 -191h250zM840 684q411 0 411 -266q0 -207 -162 -312.5t-407 -105.5h-506l176 762h-151l63 274h477l-82 -352h181z" />
    <glyph glyph-name="uni044D" unicode="&#x44d;" horiz-adv-x="1180" 
d="M373 942q179 129 374 129t331 -133.5t136 -331.5q0 -271 -131 -403.5t-245 -180t-230 -47.5q-208 0 -327.5 106t-135.5 247l281 78q8 -68 61 -116t121 -48q231 0 301 188h-401l51 225h373q-25 115 -101.5 137.5t-121.5 22.5q-178 0 -281 -147h-248l64 274h129z" />
    <glyph glyph-name="uni044E" unicode="&#x44e;" horiz-adv-x="1880" 
d="M1126 460q0 -75 50 -130.5t114 -55.5q118 0 201.5 84t83.5 198t-52.5 163t-116.5 49t-113.5 -23.5t-86.5 -63.5t-58.5 -93t-21.5 -128zM1765 933q136 -134 136 -329q0 -270 -181.5 -449.5t-449.5 -179.5q-194 0 -327 127t-141 310h-166l-95 -412h-342l176 762h-191
l64 274h532l-88 -383h144q62 187 227 300.5t365 113.5q201 0 337 -134z" />
    <glyph glyph-name="uni044F" unicode="&#x44f;" horiz-adv-x="1247" 
d="M553 670q0 -70 143 -70h170q16 63 41 170h-172q-88 0 -135 -20t-47 -80zM358 483q-108 71 -108 210t128 243t353 104l575 -2q-1 0 -1 -2h6q-45 -192 -88 -380t-88 -382h145q-26 -112 -63 -274h-488q51 218 90 391h-98q-78 -5 -126 -37t-80 -100q-33 -68 -59 -130
t-55 -124h-395l64 274h118q86 167 170 209z" />
    <glyph glyph-name="uni0450" unicode="&#x450;" horiz-adv-x="1178" 
d="M464 666h433q-4 55 -60 99t-120 44q-192 0 -253 -143zM1198 629q0 -92 -31 -189h-739q10 -118 103 -158q38 -16 85 -16q81 0 138 28q58 28 118 81l220 -193q-195 -209 -517 -209q-201 0 -337 126t-136 333q0 278 186 457q186 178 447 178q198 0 330 -128
q133 -129 133 -310zM408 1489h326l196 -311h-229l-293 286v25z" />
    <glyph glyph-name="uni0451" unicode="&#x451;" horiz-adv-x="1178" 
d="M464 666h433q-4 55 -60 99t-120 44q-192 0 -253 -143zM1198 629q0 -92 -31 -189h-739q10 -118 103 -158q38 -16 85 -16q81 0 138 28q58 28 118 81l220 -193q-195 -209 -517 -209q-201 0 -337 126t-136 333q0 278 186 457q186 178 447 178q198 0 330 -128
q133 -129 133 -310zM848 1469q52 53 126 53t125 -53q52 -53 52 -126q0 -74 -52 -126q-51 -52 -125 -52t-126 52t-52 126q0 73 52 126zM368 1470q51 52 125 52t126 -53t52 -126q0 -74 -52 -126q-51 -52 -125 -52q-74 -1 -126 51t-51 127q0 75 51 127z" />
    <glyph glyph-name="uni0452" unicode="&#x452;" horiz-adv-x="1331" 
d="M732 902q146 112 309 112q162 0 243.5 -116.5t36.5 -311.5l-139 -604q-54 -229 -207.5 -340t-376.5 -111l45 227q71 3 119 57.5t69 145.5l127 547q29 120 -18.5 143t-85.5 23q-79 0 -195 -90l-135 -584h-340l253 1096h-132l37 168h133l14 59h-133l54 233h473l-63 -272
h367l-38 -168h-368z" />
    <glyph glyph-name="uni0453" unicode="&#x453;" 
d="M479 997q128 70 311 70t292 -77q110 -77 110 -202q0 -264 -414 -351q-137 -29 -219 -45q-83 -16 -103 -42t-20 -55t33 -53t91 -25q104 0 170 35t77 92h283q-34 -140 -66 -278h-170q-140 -97 -324 -97t-302 81q-117 81 -117 221t93 226q114 105 361 150q162 28 206 39
q95 25 95 67t-41 54t-111 12q-70 1 -138 -23t-84 -67v-2l-3 -8h-258l64 278h184zM1186 1488v-25l-306 -286h-235l215 311h326z" />
    <glyph glyph-name="uni0454" unicode="&#x454;" horiz-adv-x="1180" 
d="M735 1067q186 0 318 -125h192l-63 -274h-330q-16 41 -59 67.5t-83 26.5q-141 0 -221 -105h375l-59 -262h-365q22 -57 66 -86.5t98 -29.5q152 0 230 139l272 -148q-103 -203 -271.5 -249t-266.5 -46q-199 0 -332.5 136t-133.5 325q0 277 185.5 454t447.5 177z" />
    <glyph glyph-name="uni0455" unicode="&#x455;" horiz-adv-x="1018" 
d="M483 739q0 -43 60 -57l164 -35q145 -32 215 -114q69 -82 69 -183q-1 -190 -153 -292q-133 -89 -341 -89q-209 0 -301 97h-165l63 274h299q-7 -42 -1 -62t31 -44q26 -24 94 -23q69 0 109 25q40 24 40 58t-18 52t-66 31l-131 33q-137 35 -212 122q-75 88 -75 184
q0 174 134 262q134 89 308 89t284 -66h210l-64 -274h-270q-9 86 -150 86q-92 -1 -122 -43q-10 -14 -11 -31z" />
    <glyph glyph-name="uni0456" unicode="&#x456;" horiz-adv-x="778" 
d="M434 1370q0 74 52 126t124 52q74 0 126 -52t52 -126t-52 -126t-126 -52t-124 52q-52 52 -52 126zM207 1036h532l-176 -762h191l-64 -274h-532l176 762h-191z" />
    <glyph glyph-name="uni0457" unicode="&#x457;" horiz-adv-x="860" 
d="M141 1036h564l-177 -762h240l-63 -274h-582l176 762h-221zM610 1342q0 66 46 113t113 47t113 -46t45 -114q1 -68 -45 -114t-113 -45q-67 0 -113 47q-46 46 -46 112zM233 1342q0 66 46 113t113 47t113 -46t46 -114t-46 -113q-46 -46 -113 -46t-113 47q-46 46 -46 112z" />
    <glyph glyph-name="uni0458" unicode="&#x458;" horiz-adv-x="707" 
d="M414 1370q0 74 52 126t124 52q74 0 126 -52t52 -126t-52 -126t-126 -52t-124 52q-52 52 -52 126zM176 1036h569l-239 -1038q-84 -364 -370 -442q-94 -26 -208 -25l39 264q107 0 167 98q20 32 28 74l184 795h-233z" />
    <glyph glyph-name="uni0459" unicode="&#x459;" horiz-adv-x="1931" 
d="M1534 264q53 0 86 33t33 69q0 88 -76 89h-250l-43 -191h250zM1561 684q411 0 411 -266q0 -207 -162 -312.5t-407 -105.5h-506l176 764h-194l-25 -84q-52 -179 -114 -316.5t-194 -250.5t-341 -113h-154l64 272q92 0 153.5 19.5t105.5 69t77.5 132t70.5 209.5l19 62h-133
l63 272h1178l-64 -272h-186l-19 -80h181z" />
    <glyph glyph-name="uni045A" unicode="&#x45a;" horiz-adv-x="2040" 
d="M1599 264q52 0 85.5 32t33.5 70q0 89 -76 89h-249l-43 -191h249zM1626 684q412 0 412 -266q0 -207 -162 -312.5t-408 -105.5h-505l100 436h-408l-100 -436h-342l176 762h-121l64 274h463l-82 -356h407l82 356h326l-82 -352h180z" />
    <glyph glyph-name="uni045B" unicode="&#x45b;" horiz-adv-x="1386" 
d="M731 898q147 116 310 116t244 -115t36 -313l-72 -312h191l-64 -274h-532l117 504q16 75 -19.5 139t-128 25t-155.5 -86l-134 -582h-342l253 1096h-130l37 168h131l14 59h-131l54 233h473l-63 -272h377l-38 -168h-378z" />
    <glyph glyph-name="uni045C" unicode="&#x45c;" horiz-adv-x="1290" 
d="M229 1036h496l-98 -420h96l154 164l59 256h457l-64 -274h-98l-236 -223l135 -265h156l-63 -274h-301l-197 406h-145l-95 -406h-342l176 762h-153zM1207 1489v-25l-306 -286h-235l215 311h326z" />
    <glyph glyph-name="uni045D" unicode="&#x45d;" horiz-adv-x="1356" 
d="M793 81q-115 -93 -271 -93q-102 0 -184 39t-114 101q-70 132 -23 298l77 336h-167l63 274h488l-136 -585q-20 -84 20 -136q40 -51 129 -51t171 91l94 407h-158l64 274h477l-177 -762h191l-63 -274h-500zM430 1563h326l196 -311h-229l-293 286v25z" />
    <glyph glyph-name="uni045E" unicode="&#x45e;" horiz-adv-x="1084" 
d="M825 1358q145 0 193 123h250q-93 -324 -439 -324q-267 0 -381 186q-36 60 -61 138h252q41 -123 186 -123zM137 -471h-47v274h133q69 0 135 38t115 120q2 1 2 3v3l-170 795h-106l63 274h512l-63 -274h-80q17 -105 35 -206t36 -206q60 105 122 206t120 206h-88
q56 242 64 274h512q-8 -32 -64 -274h-100q-121 -196 -241 -390t-218 -354q-97 -160 -161 -247t-136 -141q-134 -102 -375 -101z" />
    <glyph glyph-name="uni045F" unicode="&#x45f;" horiz-adv-x="1491" 
d="M434 -117h309l-81 -354h-310zM522 -12q-212 0 -290 128.5t-31 309.5l78 336h-168l63 274h488l-136 -585q-20 -86 21 -136.5t105 -50.5q113 0 194 90l94 408h-158l64 274h477l-176 -762h190l-63 -274h-500l19 82q-108 -94 -271 -94z" />
    <glyph glyph-name="uni0490" unicode="&#x490;" horiz-adv-x="1267" 
d="M125 274h160l225 977h-152l62 265h833l68 296h307l-129 -561h-639l-225 -977h166l-64 -274h-676z" />
    <glyph glyph-name="uni0491" unicode="&#x491;" horiz-adv-x="1175" 
d="M362 772h-143l61 264h721l71 307h310l-133 -571h-545l-114 -498h190l-64 -274h-532z" />
    <glyph glyph-name="uni04B0" unicode="&#x4b0;" horiz-adv-x="1393" 
d="M1087 1516h613l-64 -275h-102l-575 -575h395l-60 -265h-413l-29 -127h180l-63 -274h-676l63 274h172l29 127h-405l59 265h399l-291 575h-135l64 275h612l-63 -275h-103l142 -303l288 303h-100z" />
    <glyph glyph-name="uni04B1" unicode="&#x4b1;" horiz-adv-x="1257" 
d="M260 1036h512l-63 -274h-77l66 -445l266 445h-98l64 274h512l-64 -274h-105l-491 -762h303l-45 -215h-321l-57 -256h-300l60 256h-295l47 215h293l-135 762h-135z" />
    <glyph glyph-name="endash" unicode="&#x2013;" horiz-adv-x="1393" 
d="M395 733h1024l-63 -274h-1024z" />
    <glyph glyph-name="emdash" unicode="&#x2014;" horiz-adv-x="2396" 
d="M498 733h1843l-64 -274h-1843z" />
    <glyph glyph-name="quoteleft" unicode="&#x2018;" horiz-adv-x="608" 
d="M563 1657l209 -84l-297 -584l-270 107z" />
    <glyph glyph-name="quoteright" unicode="&#x2019;" horiz-adv-x="608" 
d="M563 1663l271 -107l-359 -561l-209 84z" />
    <glyph glyph-name="quotesinglbase" unicode="&#x201a;" horiz-adv-x="551" 
d="M266 285l273 -109l-361 -561l-209 86z" />
    <glyph glyph-name="quotedblleft" unicode="&#x201c;" horiz-adv-x="1096" 
d="M588 1663l209 -92l-322 -572l-270 107zM1051 1657l209 -84l-297 -584l-271 107z" />
    <glyph glyph-name="quotedblright" unicode="&#x201d;" horiz-adv-x="1096" 
d="M938 989l-209 92l322 572l270 -107zM475 995l-209 84l297 584l271 -107z" />
    <glyph glyph-name="quotedblbase" unicode="&#x201e;" horiz-adv-x="1102" 
d="M642 -390l-209 92l322 572l270 -107zM179 -384l-209 84l297 584l271 -107z" />
    <glyph glyph-name="dagger" unicode="&#x2020;" horiz-adv-x="1229" 
d="M184 1036h348l111 480h350l-110 -480h325l-63 -268h-326l-284 -1239h-351l285 1239h-348z" />
    <glyph glyph-name="daggerdbl" unicode="&#x2021;" horiz-adv-x="1180" 
d="M170 1034h328l112 482h351l-113 -482h319l-61 -270h-320l-112 -490h340l-64 -274h-340l-108 -471h-350l108 471h-334l64 274h334l112 490h-327z" />
    <glyph glyph-name="bullet" unicode="&#x2022;" horiz-adv-x="1270" 
d="M307 553q0 81 30.5 151.5t83.5 123.5t123.5 83.5t151.5 30.5t151.5 -30.5t123.5 -83.5t83.5 -123.5t30.5 -151.5t-30.5 -151.5t-83.5 -123.5t-123.5 -83.5t-151.5 -30.5t-151.5 30.5t-123.5 83.5t-83.5 123.5t-30.5 151.5z" />
    <glyph glyph-name="ellipsis" unicode="&#x2026;" horiz-adv-x="1315" 
d="M962 267.5q55 49.5 131 49.5t133.5 -50t57.5 -122t-57.5 -124t-133.5 -52t-131 51.5t-55 124.5t55 122.5zM655 317q76 0 133.5 -50t57.5 -122t-57.5 -124t-133.5 -52t-131 51.5t-55 124.5t55 122.5t131 49.5zM86 267.5q55 49.5 131 49.5t133.5 -50.5t57.5 -121.5
t-57 -123.5t-134 -52.5q-76 0 -131 51.5t-55 124.5t55 122.5z" />
    <glyph glyph-name="perthousand" unicode="&#x2030;" horiz-adv-x="2814" 
d="M1397 318q0 -34 24.5 -62.5t61.5 -28.5q65 0 111 42t46 93q0 52 -26.5 76.5t-63.5 24.5t-63.5 -10.5t-47 -28.5t-31.5 -45t-11 -61zM1575 739q160 0 256 -100t96 -238q0 -182 -139.5 -315t-341.5 -133q-151 0 -246.5 97.5t-95.5 232.5q0 183 103.5 282t191.5 136.5
t176 37.5zM2267 318q0 -34 24.5 -62.5t61.5 -28.5q65 0 111.5 42.5t46.5 93.5t-26.5 75.5t-63.5 24.5t-63.5 -10.5t-47 -28.5t-32 -45t-11.5 -61zM2445 739q160 0 256.5 -100.5t96.5 -237.5q0 -182 -139.5 -315t-342.5 -133q-150 0 -246 97.5t-96 232.5q0 183 103.5 282
t191.5 136.5t176 37.5zM1565 1540h383l-1401 -1556h-383zM461 1140q0 -36 23.5 -63.5t60.5 -27.5q66 0 113 42.5t47 93.5q0 99 -99 99q-60 0 -91.5 -28.5t-42.5 -54t-11 -61.5zM637 1561q160 0 257 -99t97 -237q0 -182 -140 -316.5t-341 -134.5q-151 0 -246.5 101t-95.5 233
q0 183 103.5 282t190.5 135t175 36z" />
    <glyph glyph-name="guilsinglleft" unicode="&#x2039;" horiz-adv-x="629" 
d="M376 545l146 -389h-223l-176 379l18 73l330 361h240z" />
    <glyph glyph-name="guilsinglright" unicode="&#x203a;" horiz-adv-x="629" 
d="M376 579l-147 390h224l176 -379l-19 -74l-329 -360h-240z" />
    <glyph glyph-name="fraction" unicode="&#x2044;" horiz-adv-x="1542" 
d="M1569 1577h301l-1624 -1638h-307z" />
    <glyph glyph-name="foursuperior" unicode="&#x2074;" horiz-adv-x="866" 
d="M76 1186l377 416h215l-381 -422h168l39 166h202l-39 -166h107l-37 -160h-106l-41 -182h-203l41 182h-377z" />
    <glyph glyph-name="Euro" unicode="&#x20ac;" horiz-adv-x="1554" 
d="M219 602q0 189 80 360t211 300t299 205.5t346 76.5q241 0 406 -151h176l-78 -338h-309q-25 71 -93.5 123.5t-173.5 52.5q-149 0 -240 -72t-128 -115h481l-213 -284h-408q-4 -17 -5 -31t-3 -31h496l-213 -284h-219q81 -125 244 -125q162 0 255 93t121 138l299 -90
q-108 -199 -313.5 -328t-452.5 -129t-406 180t-159 449z" />
    <glyph glyph-name="uni2113" unicode="&#x2113;" horiz-adv-x="1153" 
d="M963 1274q-129 0 -215 -338q20 16 39 31t39 31q49 39 114.5 109t65.5 118q0 49 -43 49zM963 109q-169 -129 -338 -129t-244.5 80.5t-75.5 199.5l-86 -67l-133 223q74 59 148.5 116.5t148.5 116.5q16 69 51 222q70 308 225.5 495.5t372.5 187.5q121 0 198 -68.5t77 -193.5
q0 -86 -26 -156.5t-97.5 -151.5t-198.5 -187.5t-332 -266.5q-10 -36 -17.5 -73t-17.5 -77q-37 -140 100 -140q65 0 159 65z" />
    <glyph glyph-name="uni2116" unicode="&#x2116;" horiz-adv-x="2609" 
d="M2404 728q52 50 52 107q0 58 -33 89.5t-79 31.5q-82 0 -136 -47t-54 -106q0 -58 33 -91.5t99 -33.5t118 50zM1866 274h676l-64 -274h-676zM2350 1186q157 0 252 -98.5t95 -223.5q0 -171 -127 -292t-319 -121q-145 0 -240.5 93.5t-95.5 231.5q0 174 93 260t175 118t167 32
zM1358 1516h612l-63 -275h-131l-285 -1241h-344l-387 934l-152 -660h129l-63 -274h-613l64 274h135l223 967h-164l64 275h516l375 -936l151 661h-131z" />
    <glyph glyph-name="trademark" unicode="&#x2122;" horiz-adv-x="2165" 
d="M391 1034h133l76 330h-80l-22 -92h-195l66 284h794l-65 -284h-197l23 92h-84l-76 -330h88l-45 -194h-461zM1044 1034h111l74 318h-66l47 204h383l142 -241l288 241h361l-47 -204h-107l-73 -318h108l-45 -194h-440l45 194h92l57 248l-248 -238h-133l-141 228l-57 -238h90
l-45 -194h-441z" />
    <glyph glyph-name="uni2126" unicode="&#x2126;" horiz-adv-x="2017" 
d="M1579 947q0 139 -102.5 212.5t-223.5 73.5q-65 0 -147 -23.5t-154.5 -70.5t-123 -119t-50.5 -153t26.5 -127t62.5 -75.5t71 -45t51 -23.5l-137 -596h-746l97 416h260l-33 -142h195l41 181q-92 38 -163 146t-71 252t76 275.5t201 224.5t286 144t311 51q291 0 460 -138.5
t169 -360.5t-144.5 -379.5t-309.5 -214.5l-41 -181h194l33 142h260l-96 -416h-746l138 596q26 10 84.5 31.5t119 63.5t106.5 107.5t46 148.5z" />
    <glyph glyph-name="estimated" unicode="&#x212e;" horiz-adv-x="1671" 
d="M821 1247q-82 0 -164 -18.5t-145 -47t-102 -65.5t-39 -76v-340q0 -32 30 -32h852q23 0 29 8t6 24v340q0 39 -43 77t-110.5 66.5t-149.5 46t-164 17.5zM841 -31q-327 0 -533 182t-206 482q0 164 60.5 289t211 251.5t467.5 126.5t510.5 -185.5t207.5 -500.5h-1160
q-12 0 -20 -5t-8 -27v-338q0 -29 32.5 -67t137 -96t269.5 -58t287 58t195 150h133q-131 -141 -275 -201.5t-309 -60.5z" />
    <glyph glyph-name="partialdiff" unicode="&#x2202;" horiz-adv-x="1151" 
d="M858 631q-49 80 -165 80t-201.5 -69.5t-85.5 -161.5t53.5 -137.5t125.5 -45.5q129 0 207 80t78 172q0 25 -12 82zM1171 585q0 -118 -56 -223.5t-147 -185.5t-208.5 -126t-223.5 -46q-200 0 -317 117t-117 295q0 210 167.5 379t301.5 184.5t162 13.5l-182 541h350
l219 -678q51 -153 51 -271z" />
    <glyph glyph-name="uni2206" unicode="&#x2206;" horiz-adv-x="1556" 
d="M1135 340l-111 743l-446 -743h557zM928 1583h387l217 -1479l-25 -104h-1497l25 102z" />
    <glyph glyph-name="product" unicode="&#x220f;" horiz-adv-x="1706" 
d="M516 1516h1311l-64 -275h-104l-334 -1438h178l-63 -274h-676l63 274h148l334 1438h-402l-334 -1438h156l-63 -274h-676l63 274h170l334 1438h-104z" />
    <glyph glyph-name="summation" unicode="&#x2211;" horiz-adv-x="1618" 
d="M1163 72h350l-127 -543h-1476l63 274l713 727l-364 734l57 252h1448l-119 -517h-350l53 242h-684l358 -768l-630 -670h645z" />
    <glyph glyph-name="minus" unicode="&#x2212;" horiz-adv-x="1059" 
d="M61 489l64 275h975l-64 -275h-975z" />
    <glyph glyph-name="divisionslash" unicode="&#x2215;" horiz-adv-x="1495" 
d="M1161 1104h293l-1155 -1165h-299z" />
    <glyph glyph-name="radical" unicode="&#x221a;" horiz-adv-x="1481" 
d="M424 760h-211l63 274h453l78 -579h2l635 1058h387l-979 -1513h-320z" />
    <glyph glyph-name="infinity" unicode="&#x221e;" horiz-adv-x="1706" 
d="M500 623q66 0 124 41t124 131q4 4 6 8q-32 109 -89 137.5t-93 28.5q-80 0 -145 -61.5t-65 -133.5t36 -111.5t102 -39.5zM1256 969q-125 0 -242 -166v-3q0 -3 2 -5q42 -172 156 -172q97 0 164 62t67 132t-39.5 111t-107.5 41zM827 567q-197 -215 -379 -215
q-174 0 -270 100.5t-96 254.5q0 106 46 202.5t123 170t177 116.5t214 43t183.5 -59.5t112.5 -155.5q211 215 414 215q146 0 237.5 -105t91.5 -255q0 -205 -164.5 -366t-376.5 -161t-313 215z" />
    <glyph glyph-name="integral" unicode="&#x222b;" horiz-adv-x="801" 
d="M976 1288q-117 0 -147 -119l-301 -1267q-41 -185 -166.5 -279t-304.5 -94q-116 0 -187 32.5t-87 61.5l184 232q35 -35 103 -35t96.5 45t34.5 74l301 1267q42 187 166 280t305 93q117 0 187.5 -33t86.5 -61l-184 -232q-33 35 -87 35z" />
    <glyph glyph-name="approxequal" unicode="&#x2248;" horiz-adv-x="1212" 
d="M502 848q-93 0 -96 -115l-172 37q0 180 103 270q66 58 169 58q52 0 192 -72t188 -72t70 28t31 87l185 -41q0 -198 -148 -289q-58 -35 -130 -35t-125 24t-101 50t-91 48q-42 22 -75 22zM426 415q-93 0 -96 -115l-172 37q0 179 103 269q66 58 169 59q52 0 192 -72t188 -72
q48 -1 70 27t31 88l185 -41q0 -198 -148 -289q-58 -35 -130 -35q-72 -1 -125 23t-101 50t-91 49q-42 22 -75 22z" />
    <glyph glyph-name="notequal" unicode="&#x2260;" horiz-adv-x="995" 
d="M281 1024h419l162 272h279l-162 -272h174l-63 -274h-273l-129 -222h350l-63 -274h-449l-110 -188h-283l111 188h-142l64 274h242l131 222h-322z" />
    <glyph glyph-name="lessequal" unicode="&#x2264;" horiz-adv-x="1110" 
d="M78 422h745l-63 -275h-746zM219 1036l813 271l-67 -287l-451 -125l393 -129l-57 -254l-686 285z" />
    <glyph glyph-name="greaterequal" unicode="&#x2265;" horiz-adv-x="1018" 
d="M127 422h745l-63 -275h-746zM958 784l-813 -270l68 287l449 123l-392 131l58 254l686 -285z" />
    <glyph glyph-name="lozenge" unicode="&#x25ca;" horiz-adv-x="1296" 
d="M721 406l305 358l-143 344l-275 -344zM246 807l585 711h269l297 -779l-613 -739h-260z" />
    <glyph glyph-name="fi" unicode="&#xfb01;" horiz-adv-x="1579" 
d="M1235 1370q0 74 51 126t125 52t126 -51t52 -126.5t-53 -127t-126 -51.5t-124 52t-51 126zM1008 1036h532l-176 -762h190l-63 -274h-533l177 762h-191zM898 1288q-118 0 -146 -119l-31 -133h221l-68 -293h-223l-282 -1214h-338l284 1214h-200l67 293h201l41 170
q45 195 173 284t298 89q117 0 187.5 -33t86.5 -61l-184 -232q-33 35 -87 35z" />
    <glyph glyph-name="fl" unicode="&#xfb02;" horiz-adv-x="1530" 
d="M895 1579q123 0 201 -38t118 -75l21 90h340l-295 -1282h188l-63 -274h-528l264 1151q-19 72 -77 104.5t-133 32.5q-149 0 -183 -139l-27 -113h221l-68 -293h-223l-282 -1214h-338l284 1214h-200l67 293h201l41 170q45 195 173 284t298 89z" />
    <glyph glyph-name="fourinferior" horiz-adv-x="1141" 
d="M205 102h731v1311h-731v-1311zM102 1516h936v-1516h-936v1516z" />
    <glyph glyph-name="commabelow" horiz-adv-x="532" 
d="M139 -29l289 -104l-197 -338l-206 72z" />
    <glyph glyph-name="commaaccent" horiz-adv-x="340" 
d="M285 1112l-289 105l197 337l206 -71z" />
    <glyph glyph-name="macron#1" horiz-adv-x="860" 
d="M750 1176h-688l43 215h688z" />
    <glyph glyph-name="dieresis.i" horiz-adv-x="1024" 
d="M594 1344q0 66 46 112.5t113 46.5t112.5 -45.5t45.5 -113.5t-45.5 -114t-112.5 -46t-113 47t-46 113zM217 1344q0 66 46 112.5t113 46.5t113 -45.5t46 -113.5t-46 -114t-113 -46t-113 47t-46 113z" />
    <glyph glyph-name="circumflex.i" horiz-adv-x="991" 
d="M130 1178l323 325h246l164 -325h-248l-66 157l-142 -157h-277z" />
    <glyph glyph-name="breve.i" 
d="M203.5 1241q-128.5 84 -176.5 240h252q18 -57 81 -90t121 -33q102 0 169.5 32.5t88.5 90.5h291q-46 -118 -198.5 -221t-326.5 -103q-173 0 -301.5 84z" />
    <glyph glyph-name="caron.i" horiz-adv-x="991" 
d="M954 1503l-356 -325h-240l-196 325h248l96 -157l172 157h276z" />
    <glyph glyph-name="cyr.dotlessi" horiz-adv-x="803" 
d="M444 1036h342l-176 -762h191l-64 -274h-532z" />
    <glyph glyph-name="Ohm" horiz-adv-x="2017" 
d="M1579 947q0 139 -102 213q-102 73 -224 73q-65 1 -147 -23t-154 -71t-124 -119q-50 -72 -50 -153t26 -127t63 -76q36 -30 71 -44q35 -16 51 -24l-137 -596h-746l97 416h260l-33 -142h195l41 181q-92 38 -163 146t-71 252q0 143 76 275t201 225t287 144t310 51
q291 0 460 -139t169 -360q1 -221 -157 -393q-131 -143 -297 -201l-41 -181h194l33 142h260l-96 -416h-746l138 596q27 10 85 32t118 63t107 107q46 66 46 149z" />
    <glyph glyph-name="one.fract" horiz-adv-x="715" 
d="M229 1034h131l56 250l-156 -67l53 233l269 127h112l-125 -543h121l-45 -194h-461z" />
    <glyph glyph-name="two.fract" horiz-adv-x="780" 
d="M444 506q0 31 -38 31q-62 0 -78 -64h-226q49 207 239 261q59 16 113 16q109 0 176 -49q68 -49 68 -143t-62 -144q-13 -10 -18 -15l-243 -174h250l-52 -225h-573l45 193l322 221q51 34 64 60t13 32z" />
    <glyph glyph-name="three.fract" horiz-adv-x="797" 
d="M500 1051q0 41 -58 41h-102l31 133h112q44 0 57 53q3 12 3 20q0 39 -39 39q-67 0 -84 -71h-219q22 116 111 193t237 77q97 0 164 -58t67 -148q0 -89 -80 -154q33 -32 33 -96q0 -117 -109 -205q-109 -87 -250 -87t-202 74q-62 74 -37 195h219q-6 -29 8 -55t51 -27
q39 1 63 27t24 49z" />
    <glyph glyph-name="four.fract" horiz-adv-x="866" 
d="M76 348l377 416h215l-381 -422h168l39 166h202l-39 -166h107l-37 -160h-106l-41 -182h-203l41 182h-377z" />
    <glyph glyph-name="glyph449" horiz-adv-x="2075" 
d="M294 762q0 -122 40 -230t108 -188t162 -126t198 -46h240v1171h-240q-104 0 -198 -45q-94 -46 -162 -124t-108 -184t-40 -228zM814 0q-155 0 -288 60q-134 60 -232 162q-98 104 -154 243t-55 296q-1 157 55 295t154 240t232 160q133 60 288 60h1170v-429h-205v256h-541
v-485h455v-172h-455v-514h541v256h205v-428h-1170z" />
    </font>
</defs>
</svg>
