<?xml version="1.0" standalone="no"?>
<!DOCTYPE svg PUBLIC "-//W3C//DTD SVG 1.1//EN" "http://www.w3.org/Graphics/SVG/1.1/DTD/svg11.dtd" >
<svg xmlns="http://www.w3.org/2000/svg">
<metadata>
Created by FontPrep 20130207 at Sun Jul 26 20:29:46 2015
 By .%( spOoks )%.
</metadata>
<defs>
<font id="fd075cfbc3464c2b760b59f4009525ca" horiz-adv-x='1024' >
  <font-face 
    font-family="Orbitron-Medium"
    font-weight="500"
    font-stretch="normal"
    units-per-em="2048"
    panose-1="2 0 0 0 0 0 0 0 0 0"
    ascent="1536"
    descent="-512"
    x-height="1184"
    cap-height="1475"
    bbox="-383 -471.013 2716 2025"
    underline-thickness="102"
    underline-position="-102"
    unicode-range="U+0020-E00C"
  />
<missing-glyph horiz-adv-x="0" 
 />
    <glyph glyph-name=".notdef" horiz-adv-x="0" 
 />
    <glyph glyph-name=".null" horiz-adv-x="0" 
 />
    <glyph glyph-name="nonmarkingreturn" horiz-adv-x="821" 
 />
    <glyph glyph-name="space" unicode=" " horiz-adv-x="593" 
 />
    <glyph glyph-name="space" unicode="&#xa0;" horiz-adv-x="593" 
 />
    <glyph glyph-name="exclam" unicode="!" horiz-adv-x="450" 
d="M119 1475h221v-1065h-221v1065zM119 0v221h221v-221h-221z" />
    <glyph glyph-name="quotedbl" unicode="&#x22;" horiz-adv-x="761" 
d="M643 1141h-221v332h221v-332zM342 1141h-221v332h221v-332z" />
    <glyph glyph-name="numbersign" unicode="#" horiz-adv-x="1632" 
d="M983 557l119 365h-440l-119 -365h440zM1567 922h-244l-119 -365h299v-221h-368l-103 -336h-221l102 336h-440l-102 -336h-221l102 336h-186v221h256l118 365h-311v221h381l111 325h221l-111 -325h440l111 325h221l-110 -325h174v-221z" />
    <glyph glyph-name="dollar" unicode="$" horiz-adv-x="1613" 
d="M696 848v405h-360q-18 0 -31.5 -13t-13.5 -32v-315q0 -18 13 -31.5t32 -13.5h360zM918 627v-406h360q18 0 31.5 13.5t13.5 31.5v316q0 18 -13.5 31.5t-31.5 13.5h-360zM1544 1122h-221v86q0 18 -13.5 31.5t-31.5 13.5h-360v-405h360q112 0 189 -78.5t77 -187.5v-316
q0 -109 -77 -187.5t-189 -78.5h-360v-221h-222v221h-360q-112 0 -189 78.5t-77 187.5v86h221v-86q0 -18 13 -31.5t32 -13.5h360v406h-360q-111 0 -188.5 77.5t-77.5 188.5v315q0 110 77 188.5t189 78.5h360v221h222v-221h360q112 0 189 -78.5t77 -188.5v-86z" />
    <glyph glyph-name="percent" unicode="%" horiz-adv-x="1978" 
d="M1651 178q18 0 31.5 13.5t13.5 31.5v246q0 18 -13.5 31.5t-31.5 13.5h-267q-18 0 -31.5 -13.5t-13.5 -31.5v-246q0 -18 13.5 -31.5t31.5 -13.5h267zM1610 694q109 0 187.5 -77t78.5 -189v-164q0 -110 -78 -188t-188 -78h-185q-110 0 -188 78t-78 188v164q0 112 78.5 189
t187.5 77h185zM590 958q18 0 31.5 13.5t13.5 32.5v245q0 18 -13.5 31.5t-31.5 13.5h-266q-18 0 -31.5 -13t-13.5 -32v-245q0 -18 13 -32t32 -14h266zM549 1475q110 0 188 -78t78 -189v-164q0 -110 -78 -188t-188 -78h-184q-111 0 -189 78t-78 188v164q0 111 78 189t189 78
h184zM1745 1475v-263l-1444 -1212h-31v262l1444 1213h31z" />
    <glyph glyph-name="ampersand" unicode="&#x26;" horiz-adv-x="1921" 
d="M1317 221q29 0 39 25l-959 483h-22q-18 0 -31.5 -13.5t-13.5 -31.5v-418q0 -18 13 -31.5t32 -13.5h942zM190 995v213q0 111 78 189t189 78h798q151 0 204.5 -87.5t62.5 -134.5v-145h-222v98q0 18 -13 31.5t-32 13.5h-798q-18 0 -31.5 -13t-13.5 -32v-270l950 -479v252
h221v-338l260 -152v-213l-280 160q-29 -74 -94.5 -120t-151.5 -46h-942q-112 0 -189 78.5t-77 187.5v418q0 89 50 122.5t83 33.5q-52 39 -52 155z" />
    <glyph glyph-name="quotesingle" unicode="'" horiz-adv-x="458" 
d="M342 1141h-221v332h221v-332z" />
    <glyph glyph-name="parenleft" unicode="(" horiz-adv-x="567" 
d="M459 221v-221h-86q-111 0 -189 78t-78 188v942q0 111 78 189t189 78h86v-222h-86q-18 0 -31.5 -13t-13.5 -32v-942q0 -18 13 -31.5t32 -13.5h86z" />
    <glyph glyph-name="parenright" unicode=")" horiz-adv-x="569" 
d="M115 221h86q18 0 31.5 13.5t13.5 31.5v942q0 18 -13.5 31.5t-31.5 13.5h-86v222h86q111 0 188.5 -79.5t77.5 -187.5v-942q0 -107 -77.5 -186.5t-188.5 -79.5h-86v221z" />
    <glyph glyph-name="asterisk" unicode="*" horiz-adv-x="1005" 
d="M391 1473h221v-287l273 90l69 -211l-272 -88l168 -234l-178 -129l-170 232l-168 -232l-178 129l168 234l-273 88l68 211l272 -90v287z" />
    <glyph glyph-name="plus" unicode="+" horiz-adv-x="886" 
d="M551 1014v-297h303v-221h-303v-301h-221v301h-295v221h295v297h221z" />
    <glyph glyph-name="comma" unicode="," horiz-adv-x="395" 
d="M332 221v-221q0 -97 -62.5 -171.5t-158.5 -90.5v483h221z" />
    <glyph glyph-name="hyphen" unicode="-" horiz-adv-x="1058" 
d="M940 496h-819v221h819v-221z" />
    <glyph glyph-name="period" unicode="." horiz-adv-x="438" 
d="M332 0h-221v221h221v-221z" />
    <glyph glyph-name="slash" unicode="/" horiz-adv-x="1067" 
d="M1057 1475v-263l-1014 -1212h-31v262l1014 1213h31z" />
    <glyph glyph-name="zero" unicode="0" horiz-adv-x="1708" 
d="M1325 221q18 0 31.5 13.5t13.5 31.5v760l-958 -805h913zM383 1253q-18 0 -31.5 -13t-13.5 -32v-759l958 804h-913zM1325 1475q112 0 189 -78.5t77 -188.5v-942q0 -109 -77 -187.5t-189 -78.5h-942q-112 0 -189 78.5t-77 187.5v942q0 110 77 188.5t189 78.5h942z" />
    <glyph glyph-name="one" unicode="1" horiz-adv-x="800" 
d="M682 1475v-1475h-221v1180l-170 -203h-289l416 498h264z" />
    <glyph glyph-name="two" unicode="2" horiz-adv-x="1699" 
d="M1325 1475q112 0 189 -78.5t77 -188.5v-336q0 -109 -77 -187.5t-189 -78.5h-942q-18 0 -31.5 -13t-13.5 -32v-295q0 -18 13.5 -31.5t31.5 -13.5h1208v-221h-1474v561q0 111 77.5 188.5t188.5 77.5h942q18 0 31.5 13.5t13.5 31.5v336q0 18 -13.5 31.5t-31.5 13.5h-942
q-18 0 -31.5 -13t-13.5 -32v-86h-221v86q0 110 77 188.5t189 78.5h942z" />
    <glyph glyph-name="three" unicode="3" horiz-adv-x="1691" 
d="M1583 596v-330q0 -110 -78 -188t-188 -78h-942q-112 0 -189 78.5t-77 187.5v62h221v-62q0 -18 13 -31.5t32 -13.5h942q18 0 31.5 13.5t13.5 31.5v330q0 18 -13.5 31.5t-31.5 13.5h-942v221h880q18 0 31.5 13.5t13.5 31.5v301q0 18 -13 31.5t-32 13.5h-880
q-18 0 -31.5 -13t-13.5 -32v-82h-221v82q0 110 77 188.5t189 78.5h880q111 0 189 -78t78 -189v-301q0 -57 -27 -114q88 -75 88 -197z" />
    <glyph glyph-name="four" unicode="4" horiz-adv-x="1495" 
d="M987 596v530l-653 -530h653zM1425 596v-221h-217v-375h-221v375h-975v221l975 879h221v-879h217z" />
    <glyph glyph-name="five" unicode="5" horiz-adv-x="1699" 
d="M117 913v562h1474v-222h-1208q-18 0 -31.5 -13.5t-13.5 -31.5v-295q0 -18 13.5 -31.5t31.5 -13.5h942q111 0 188.5 -77.5t77.5 -188.5v-336q0 -109 -77 -187.5t-189 -78.5h-942q-112 0 -189 78.5t-77 187.5v86h221v-86q0 -18 13.5 -31.5t31.5 -13.5h942q18 0 31.5 13.5
t13.5 31.5v336q0 18 -13.5 31.5t-31.5 13.5h-1208v221h4q-4 20 -4 45z" />
    <glyph glyph-name="six" unicode="6" horiz-adv-x="1679" 
d="M1370 602q0 18 -13.5 31.5t-31.5 13.5h-987v-381q0 -18 13.5 -31.5t31.5 -13.5h942q18 0 31.5 13.5t13.5 31.5v336zM1325 868q111 0 188.5 -77.5t77.5 -188.5v-336q0 -109 -77 -187.5t-189 -78.5h-942q-112 0 -189 78.5t-77 187.5v942q0 110 77 188.5t189 78.5h963v-222
h-963q-18 0 -31.5 -13t-13.5 -32v-295q0 -18 13.5 -31.5t31.5 -13.5h942z" />
    <glyph glyph-name="seven" unicode="7" horiz-adv-x="1351" 
d="M6 1475h963q110 0 188 -78t78 -189v-1208h-221v1208q0 18 -13.5 31.5t-31.5 13.5h-963v222z" />
    <glyph glyph-name="eight" unicode="8" horiz-adv-x="1708" 
d="M1370 1206q0 18 -13.5 31.5t-31.5 13.5h-942q-18 0 -31.5 -13t-13.5 -32v-315q0 -18 13.5 -31.5t31.5 -13.5h942q18 0 31.5 13t13.5 32v315zM1370 602q0 18 -13.5 31.5t-31.5 13.5h-942q-18 0 -31.5 -13t-13.5 -32v-336q0 -18 13.5 -31.5t31.5 -13.5h942q18 0 31.5 13.5
t13.5 31.5v336zM1591 913q0 -88 -51 -155q51 -68 51 -156v-336q0 -109 -77 -187.5t-189 -78.5h-942q-112 0 -189 78.5t-77 187.5v336q0 88 51 156q-51 68 -51 155v295q0 110 77 188.5t189 78.5h942q98 0 174 -65.5t92 -156.5v-340z" />
    <glyph glyph-name="nine" unicode="9" 
d="M326 872q0 -18 13 -31.5t32 -13.5h987v381q0 18 -13.5 31.5t-31.5 13.5h-942q-18 0 -31.5 -13t-13.5 -32v-336zM371 606q-111 0 -189 78t-78 188v336q0 111 78 189t189 78h942q110 0 188 -78t78 -189v-942q0 -110 -78 -188t-188 -78h-942q-97 0 -171.5 63.5t-90.5 157.5
h1204q18 0 31.5 13.5t13.5 31.5v295q0 18 -13.5 31.5t-31.5 13.5h-942z" />
    <glyph glyph-name="colon" unicode=":" horiz-adv-x="438" 
d="M332 983h-221v221h221v-221zM332 221v-221h-221v221h221z" />
    <glyph glyph-name="semicolon" unicode=";" horiz-adv-x="395" 
d="M326 221v-221q0 -98 -63.5 -172t-158.5 -90v483h222zM326 983h-222v221h222v-221z" />
    <glyph glyph-name="less" unicode="&#x3c;" horiz-adv-x="968" 
d="M852 264v-256l-842 488v221l842 485v-256l-592 -340z" />
    <glyph glyph-name="equal" unicode="=" horiz-adv-x="1306" 
d="M1186 682h-1065v221h1065v-221zM1186 293h-1065v221h1065v-221z" />
    <glyph glyph-name="greater" unicode="&#x3e;" horiz-adv-x="972" 
d="M121 260l592 342l-592 340v256l842 -485v-221l-842 -488v256z" />
    <glyph glyph-name="question" unicode="?" horiz-adv-x="1388" 
d="M285 0v221h221v-221h-221zM1081 1475q111 0 189 -78t78 -189v-377q0 -110 -78 -188t-189 -78h-530q-18 0 -31.5 -13t-13.5 -32v-112h-221v112q0 111 77.5 188.5t188.5 77.5h530q18 0 31.5 13.5t13.5 31.5v377q0 18 -13 31.5t-32 13.5h-1018v222h1018z" />
    <glyph glyph-name="at" unicode="@" horiz-adv-x="1701" 
d="M1032 569v291q0 18 -13 31.5t-32 13.5h-266q-18 0 -31.5 -13t-13.5 -32v-246q0 -18 13 -31.5t32 -13.5h311zM946 1085q111 0 188.5 -77.5t77.5 -188.5v-250h158v639q0 18 -13.5 31.5t-31.5 13.5h-942q-18 0 -31.5 -13t-13.5 -32v-942q0 -18 13.5 -31.5t31.5 -13.5h1208
v-221h-1208q-112 0 -189 78.5t-77 187.5v942q0 110 77 188.5t189 78.5h942q112 0 189 -78.5t77 -188.5v-819h-829q-112 0 -189 78.5t-77 187.5v164q0 111 77.5 188.5t188.5 77.5h184z" />
    <glyph glyph-name="A" unicode="A" horiz-adv-x="1712" 
d="M1372 737v471q0 18 -13 31.5t-32 13.5h-942q-18 0 -31.5 -13t-13.5 -32v-471h1032zM1327 1475q112 0 189 -78.5t77 -188.5v-1208h-221v516h-1032v-516h-221v1208q0 110 77 188.5t189 78.5h942z" />
    <glyph glyph-name="B" unicode="B" horiz-adv-x="1703" 
d="M1374 596q0 18 -13 31.5t-32 13.5h-942q-18 0 -31.5 -13.5t-13.5 -31.5v-330q0 -18 13.5 -31.5t31.5 -13.5h942q18 0 31.5 13.5t13.5 31.5v330zM387 1253q-18 0 -31.5 -13t-13.5 -32v-301q0 -18 13.5 -31.5t31.5 -13.5h881q18 0 31.5 13.5t13.5 31.5v301q0 18 -13.5 31.5
t-31.5 13.5h-881zM1595 596v-330q0 -109 -77 -187.5t-189 -78.5h-1208v1475h1147q110 0 188 -78t78 -189v-301q0 -57 -27 -114q88 -75 88 -197z" />
    <glyph glyph-name="C" unicode="C" horiz-adv-x="1683" 
d="M381 1253q-18 0 -31.5 -13t-13.5 -32v-942q0 -18 13 -31.5t32 -13.5h1204v-221h-1204q-112 0 -189 78.5t-77 187.5v942q0 110 77 188.5t189 78.5h1204v-222h-1204z" />
    <glyph glyph-name="D" unicode="D" horiz-adv-x="1708" 
d="M1372 1208q0 18 -13 31.5t-32 13.5h-942q-18 0 -31.5 -13t-13.5 -32v-942q0 -18 13.5 -31.5t31.5 -13.5h942q18 0 31.5 13.5t13.5 31.5v942zM1327 1475q112 0 189 -78.5t77 -188.5v-942q0 -109 -77 -187.5t-189 -78.5h-1208v1475h1208z" />
    <glyph glyph-name="E" unicode="E" horiz-adv-x="1568" 
d="M1470 1253h-1130v-405h909v-221h-909v-406h1130v-221h-1351v1475h1351v-222z" />
    <glyph glyph-name="F" unicode="F" horiz-adv-x="1480" 
d="M1470 1475v-222h-1130v-405h909v-221h-909v-627h-221v1475h1351z" />
    <glyph glyph-name="G" unicode="G" horiz-adv-x="1699" 
d="M1589 1120h-221v88q0 18 -13.5 31.5t-31.5 13.5h-942q-18 0 -31.5 -13t-13.5 -32v-942q0 -18 13 -31.5t32 -13.5h942q18 0 31.5 13.5t13.5 31.5v320h-348v221h569v-541q0 -109 -77 -187.5t-189 -78.5h-942q-112 0 -189 78.5t-77 187.5v942q0 110 77 188.5t189 78.5h942
q112 0 189 -78.5t77 -188.5v-88z" />
    <glyph glyph-name="H" unicode="H" horiz-adv-x="1742" 
d="M1626 1475v-1475h-221v627h-1067v-627h-221v1475h221v-627h1067v627h221z" />
    <glyph glyph-name="I" unicode="I" horiz-adv-x="450" 
d="M117 1475h221v-1475h-221v1475z" />
    <glyph glyph-name="J" unicode="J" horiz-adv-x="1597" 
d="M1262 1475h221v-1209q0 -110 -78 -188t-188 -78h-943q-110 0 -188 78t-78 188v144h221v-144q0 -18 13.5 -31.5t31.5 -13.5h943q18 0 31.5 13.5t13.5 31.5v1209z" />
    <glyph glyph-name="K" unicode="K" horiz-adv-x="1632" 
d="M1536 1475v-31l-592 -707l592 -706v-31h-262l-526 627h-410v-627h-221v1475h221v-627h410l526 627h262z" />
    <glyph glyph-name="L" unicode="L" horiz-adv-x="1595" 
d="M117 1477h221v-1256h1253v-221h-1474v1477z" />
    <glyph glyph-name="M" unicode="M" horiz-adv-x="1900" 
d="M1786 1475v-1475h-221v1180l-615 -731l-614 731v-1180h-221v1475h262l573 -682l572 682h264z" />
    <glyph glyph-name="N" unicode="N" horiz-adv-x="1703" 
d="M1368 1475h221v-1475h-262l-991 1180v-1180h-221v1475h262l991 -1180v1180z" />
    <glyph glyph-name="O" unicode="O" 
d="M1319 221q18 0 31.5 13.5t13.5 31.5v942q0 18 -13.5 31.5t-31.5 13.5h-942q-18 0 -31.5 -13t-13.5 -32v-942q0 -18 13 -31.5t32 -13.5h942zM1319 1475q110 0 188 -78t78 -189v-942q0 -110 -78 -188t-188 -78h-942q-112 0 -189 78.5t-77 187.5v942q0 110 77 188.5
t189 78.5h942z" />
    <glyph glyph-name="P" unicode="P" horiz-adv-x="1619" 
d="M1368 1206q0 18 -13.5 31.5t-31.5 13.5h-942q-18 0 -31.5 -13t-13.5 -32v-413q0 -18 13 -31.5t32 -13.5h942q18 0 31.5 13t13.5 32v413zM381 526q-25 0 -45 4v-530h-221v1473h1208q108 0 187 -77.5t79 -189.5v-413q0 -112 -79 -189.5t-187 -77.5h-942z" />
    <glyph glyph-name="Q" unicode="Q" horiz-adv-x="1810" 
d="M1319 221q18 0 31.5 13.5t13.5 31.5v942q0 18 -13.5 31.5t-31.5 13.5h-942q-18 0 -31.5 -13t-13.5 -32v-942q0 -18 13 -31.5t32 -13.5h942zM1585 266q0 -25 -4 -45h188v-221h-1392q-112 0 -189 78.5t-77 187.5v942q0 110 77 188.5t189 78.5h942q110 0 188 -78t78 -189
v-942z" />
    <glyph glyph-name="R" unicode="R" horiz-adv-x="1689" 
d="M1321 748q18 0 31.5 13t13.5 32v413q0 18 -13.5 31.5t-31.5 13.5h-942q-18 0 -31.5 -13t-13.5 -32v-413q0 -18 13 -31.5t32 -13.5h942zM379 526q-25 0 -45 4v-530h-221v1473h1208q108 0 187 -77.5t79 -189.5v-413q0 -112 -79 -189.5t-187 -77.5h-150l416 -495v-31h-262
l-442 526h-504z" />
    <glyph glyph-name="S" unicode="S" horiz-adv-x="1683" 
d="M1579 1122h-221v86q0 18 -13.5 31.5t-31.5 13.5h-942q-18 0 -31.5 -13t-13.5 -32v-315q0 -18 13 -31.5t32 -13.5h942q110 0 188 -78t78 -188v-316q0 -110 -78 -188t-188 -78h-942q-111 0 -189 78t-78 188v86h222v-86q0 -18 13 -31.5t32 -13.5h942q18 0 31.5 13.5
t13.5 31.5v316q0 18 -13.5 31.5t-31.5 13.5h-942q-110 0 -188.5 77t-78.5 189v315q0 111 78 189t189 78h942q110 0 188 -78t78 -189v-86z" />
    <glyph glyph-name="T" unicode="T" horiz-adv-x="1554" 
d="M1516 1475v-222h-627v-1253h-221v1253h-627v222h1475z" />
    <glyph glyph-name="U" unicode="U" 
d="M1364 1475h221v-1209q0 -110 -78 -188t-188 -78h-942q-112 0 -189 78.5t-77 187.5v1209h221v-1209q0 -18 13 -31.5t32 -13.5h942q18 0 31.5 13.5t13.5 31.5v1209z" />
    <glyph glyph-name="V" unicode="V" horiz-adv-x="2054" 
d="M1741 1475h254l-850 -1475h-221l-852 1475h256l706 -1225z" />
    <glyph glyph-name="W" unicode="W" horiz-adv-x="2414" 
d="M2343 1475l-537 -1475h-180l-420 1149l-418 -1149l-4 2l2 -2h-178l-536 1475h235l391 -1076l392 1076h235l391 -1076l391 1076h236z" />
    <glyph glyph-name="X" unicode="X" horiz-adv-x="1662" 
d="M1569 1475v-31l-594 -707l594 -706v-31h-262l-476 565l-475 -565h-262v31l592 706l-592 707v31h262l475 -566l476 566h262z" />
    <glyph glyph-name="Y" unicode="Y" horiz-adv-x="1650" 
d="M936 0h-221v553l-680 922h260l530 -672l529 672h262l-680 -922v-553z" />
    <glyph glyph-name="Z" unicode="Z" horiz-adv-x="1681" 
d="M104 1475h1475v-263l-1180 -991h1180v-221h-1475v262l1180 991h-1180v222z" />
    <glyph glyph-name="bracketleft" unicode="[" horiz-adv-x="563" 
d="M111 1475h352v-222h-131v-1032h131v-221h-352v1475z" />
    <glyph glyph-name="backslash" unicode="\" horiz-adv-x="1064" 
d="M1055 0h-31l-1014 1212v263h31l1014 -1213v-262z" />
    <glyph glyph-name="bracketright" unicode="]" horiz-adv-x="565" 
d="M104 1475h353v-1475h-353v221h132v1032h-132v222z" />
    <glyph glyph-name="underscore" unicode="_" 
d="M1585 -221h-1474v221h1474v-221z" />
    <glyph glyph-name="grave" unicode="`" horiz-adv-x="436" 
d="M369 1694h-222l-81 331h221z" />
    <glyph glyph-name="a" unicode="a" horiz-adv-x="1421" 
d="M1094 483h-766v-217q0 -18 13 -31.5t32 -13.5h721v262zM1049 1188q110 0 188 -78t78 -188v-922h-942q-111 0 -189 78t-78 188v439h988v217q0 18 -13.5 31.5t-31.5 13.5h-943v221h943z" />
    <glyph glyph-name="b" unicode="b" horiz-adv-x="1366" 
d="M1098 922q0 18 -13.5 31.5t-31.5 13.5h-676q-18 0 -31.5 -13.5t-13.5 -31.5v-656q0 -18 13 -31.5t32 -13.5h676q18 0 31.5 13.5t13.5 31.5v656zM1053 1188q110 0 188 -78t78 -188v-656q0 -110 -78 -188t-188 -78h-942v1577h221v-389h721z" />
    <glyph glyph-name="c" unicode="c" horiz-adv-x="1423" 
d="M1313 221v-221h-942q-111 0 -189 78t-78 188v656q0 110 78 188t189 78h938v-221h-938q-18 0 -31.5 -13.5t-13.5 -31.5v-656q0 -18 13 -31.5t32 -13.5h942z" />
    <glyph glyph-name="d" unicode="d" horiz-adv-x="1366" 
d="M989 221q18 0 31.5 13.5t13.5 31.5v656q0 18 -13 31.5t-32 13.5h-676q-18 0 -31.5 -13.5t-13.5 -31.5v-656q0 -18 13.5 -31.5t31.5 -13.5h676zM1255 1577v-1577h-942q-110 0 -188 78t-78 188v656q0 110 78 188t188 78h721v389h221z" />
    <glyph glyph-name="e" unicode="e" horiz-adv-x="1417" 
d="M1092 705v217q0 18 -13.5 31.5t-31.5 13.5h-676q-18 0 -31.5 -13.5t-13.5 -31.5v-217h766zM1047 1188q110 0 188 -78t78 -188v-439h-987v-217q0 -18 13 -31.5t32 -13.5h942v-221h-942q-111 0 -189 78t-78 188v656q0 110 78 188t189 78h676z" />
    <glyph glyph-name="f" unicode="f" horiz-adv-x="833" 
d="M375 1356q-18 0 -31.5 -13.5t-13.5 -31.5v-123h487v-221h-487v-967h-221v1311q0 109 77 187.5t189 78.5h442v-221h-442z" />
    <glyph glyph-name="g" unicode="g" horiz-adv-x="1398" 
d="M1026 221q18 0 31.5 13.5t13.5 31.5v656q0 18 -13.5 31.5t-31.5 13.5h-676q-18 0 -31.5 -13.5t-13.5 -31.5v-656q0 -18 13.5 -31.5t31.5 -13.5h676zM1292 922v-1127q0 -109 -77 -187.5t-189 -78.5h-733v221h733q18 0 31.5 13.5t13.5 31.5v205h-721q-110 0 -188 78
t-78 188v656q0 110 78 188t188 78h676q112 0 189 -78.5t77 -187.5z" />
    <glyph glyph-name="h" unicode="h" horiz-adv-x="1368" 
d="M1053 1188q111 0 188.5 -79.5t77.5 -186.5v-922h-221v922q0 18 -13.5 31.5t-31.5 13.5h-676q-18 0 -31.5 -13.5t-13.5 -31.5v-922h-221v1577h221v-389h721z" />
    <glyph glyph-name="i" unicode="i" horiz-adv-x="425" 
d="M328 1577v-221h-222v221h222zM106 1188h222v-1188h-222v1188z" />
    <glyph glyph-name="j" unicode="j" horiz-adv-x="489" 
d="M391 1184v-1389q0 -110 -78 -188t-188 -78h-508v221h508q18 0 31.5 13.5t13.5 31.5v1389h221zM391 1577v-221h-221v221h221z" />
    <glyph glyph-name="k" unicode="k" horiz-adv-x="1323" 
d="M1305 1188v-31l-510 -563l510 -563v-31h-263l-444 483h-266v-483h-221v1577h221v-872h266l444 483h263z" />
    <glyph glyph-name="l" unicode="l" horiz-adv-x="618" 
d="M106 266v1311h222v-1311q0 -18 13 -31.5t32 -13.5h221v-221h-221q-111 0 -189 78t-78 188z" />
    <glyph glyph-name="m" unicode="m" horiz-adv-x="2002" 
d="M1628 1188q112 0 189 -78.5t77 -187.5v-922h-219v922q0 18 -13 31.5t-34 13.5h-469q-18 0 -31.5 -13.5t-13.5 -31.5v-922h-221v922q0 18 -13.5 31.5t-31.5 13.5h-471q-18 0 -31.5 -13.5t-13.5 -31.5v-922h-221v1188h1517z" />
    <glyph glyph-name="n" unicode="n" horiz-adv-x="1425" 
d="M1053 1188q110 0 188 -78t78 -188v-922h-221v922q0 18 -13.5 31.5t-31.5 13.5h-676q-18 0 -31.5 -13.5t-13.5 -31.5v-922h-221v1188h942z" />
    <glyph glyph-name="o" unicode="o" horiz-adv-x="1417" 
d="M371 967q-18 0 -31.5 -13.5t-13.5 -31.5v-656q0 -18 13 -31.5t32 -13.5h676q18 0 31.5 13.5t13.5 31.5v656q0 18 -13.5 31.5t-31.5 13.5h-676zM1047 1188q110 0 188 -78t78 -188v-656q0 -110 -78 -188t-188 -78h-676q-111 0 -189 78t-78 188v656q0 110 78 188t189 78h676
z" />
    <glyph glyph-name="p" unicode="p" horiz-adv-x="1359" 
d="M1098 922q0 18 -13.5 31.5t-31.5 13.5h-676q-18 0 -31.5 -13.5t-13.5 -31.5v-656q0 -18 13 -31.5t32 -13.5h676q18 0 31.5 13.5t13.5 31.5v656zM1053 1188q110 0 188 -78t78 -188v-656q0 -110 -78 -188t-188 -78h-721v-471h-221v1659h942z" />
    <glyph glyph-name="q" unicode="q" horiz-adv-x="1359" 
d="M262 266q0 -18 13.5 -31.5t31.5 -13.5h676q18 0 31.5 13.5t13.5 31.5v656q0 18 -13.5 31.5t-31.5 13.5h-676q-18 0 -31.5 -13.5t-13.5 -31.5v-656zM41 922q0 110 78 188t188 78h942v-1659h-221v471h-721q-110 0 -188 78t-78 188v656z" />
    <glyph glyph-name="r" unicode="r" horiz-adv-x="1048" 
d="M1036 1188v-221h-663q-18 0 -31.5 -13.5t-13.5 -31.5v-922h-222v922q0 110 78 188t189 78h663z" />
    <glyph glyph-name="s" unicode="s" horiz-adv-x="1404" 
d="M1307 877h-222v45q0 18 -13 31.5t-32 13.5h-675q-18 0 -32 -13.5t-14 -31.5v-172q0 -18 13.5 -31.5t32.5 -13.5h675q111 0 189 -78t78 -189v-172q0 -110 -78 -188t-189 -78h-675q-111 0 -189 78t-78 188v45h221v-45q0 -18 13.5 -31.5t32.5 -13.5h675q18 0 31.5 13.5
t13.5 31.5v172q0 18 -13 31.5t-32 13.5h-675q-111 0 -189 78t-78 189v172q0 110 78 188t189 78h675q111 0 189 -78t78 -188v-45z" />
    <glyph glyph-name="t" unicode="t" horiz-adv-x="839" 
d="M330 967v-701q0 -18 13 -31.5t32 -13.5h442v-221h-442q-112 0 -189 78.5t-77 187.5v1311h221v-389h487v-221h-487z" />
    <glyph glyph-name="u" unicode="u" horiz-adv-x="1423" 
d="M1317 1188v-922q0 -110 -78 -188t-188 -78h-676q-112 0 -189 78.5t-77 187.5v922h221v-922q0 -18 13 -31.5t32 -13.5h676q18 0 31.5 13.5t13.5 31.5v922h221z" />
    <glyph glyph-name="v" unicode="v" horiz-adv-x="1617" 
d="M1575 1188l-655 -1188h-222l-655 1188h256l510 -938l512 938h254z" />
    <glyph glyph-name="w" unicode="w" horiz-adv-x="2170" 
d="M2122 1188l-447 -1188h-180l-399 883l-377 -883l-4 2l2 -2h-178l-467 1188h235l322 -789l342 789h252l362 -789l301 789h236z" />
    <glyph glyph-name="x" unicode="x" horiz-adv-x="1417" 
d="M1323 1188v-31l-471 -553l471 -573v-31h-262l-352 432l-353 -432h-262v31l469 573l-469 553v31h262l353 -412l352 412h262z" />
    <glyph glyph-name="y" unicode="y" horiz-adv-x="1402" 
d="M1294 1184v-1389q0 -109 -77 -187.5t-189 -78.5h-733v221h733q18 0 31.5 13.5t13.5 31.5v205h-721q-110 0 -188 78t-78 188v918h221v-918q0 -18 13.5 -31.5t31.5 -13.5h676q18 0 31.5 13.5t13.5 31.5v918h221z" />
    <glyph glyph-name="z" unicode="z" horiz-adv-x="1429" 
d="M111 1188h1208v-262l-913 -705h913v-221h-1208v262l913 705h-913v221z" />
    <glyph glyph-name="braceleft" unicode="{" horiz-adv-x="591" 
d="M358 266q0 -18 13.5 -31.5t31.5 -13.5h86v-221h-86q-110 0 -188 78t-78 188v320l-90 53v221l90 51v297q0 111 78 189t188 78h86v-222h-86q-18 0 -31.5 -13t-13.5 -32v-346l-143 -112l143 -119v-365z" />
    <glyph glyph-name="bar" unicode="|" horiz-adv-x="438" 
d="M111 1696h221v-1919h-221v1919z" />
    <glyph glyph-name="braceright" unicode="}" horiz-adv-x="591" 
d="M236 1208q0 18 -13.5 31.5t-32.5 13.5h-86v222h86q111 0 189 -78t78 -189v-297l90 -51v-221l-90 -53v-320q0 -110 -78 -188t-189 -78h-86v221h86q18 0 32 13.5t14 31.5v365l143 119l-143 112v346z" />
    <glyph glyph-name="asciitilde" unicode="~" horiz-adv-x="827" 
d="M619 475q-64 0 -112 21.5t-97.5 48t-100.5 48t-108 21.5q-124 0 -152 -47v154q70 29 140 29q69 0 118 -19.5t98.5 -44t98.5 -47.5t106 -29q80 0 160 54v-152q-87 -37 -151 -37z" />
    <glyph glyph-name="exclamdown" unicode="&#xa1;" horiz-adv-x="430" 
d="M109 0v1065h221v-1065h-221zM330 1253h-221v222h221v-222z" />
    <glyph glyph-name="cent" unicode="&#xa2;" horiz-adv-x="1302" 
d="M561 987h-227q-18 0 -31.5 -13t-13.5 -32v-676q0 -18 13 -31.5t32 -13.5h227v766zM782 987v-766h490v-221h-490v-223h-221v223h-227q-112 0 -189 78.5t-77 187.5v676q0 111 77.5 188.5t188.5 77.5h227v262h221v-262h490v-221h-490z" />
    <glyph glyph-name="sterling" unicode="&#xa3;" horiz-adv-x="1503" 
d="M1186 1147v61q0 18 -13.5 31.5t-31.5 13.5h-590q-18 0 -31.5 -13t-13.5 -32v-360h684v-221h-684v-406h901v-221h-1327v221h205v406h-205v221h205v360q0 110 77 188.5t189 78.5h590q110 0 188 -78t78 -189v-61h-221z" />
    <glyph glyph-name="dieresis" unicode="&#xa8;" horiz-adv-x="788" 
d="M332 1694h-221v221h221v-221zM680 1694h-221v221h221v-221z" />
    <glyph glyph-name="degree" unicode="&#xb0;" horiz-adv-x="899" 
d="M584 958q18 0 31.5 13.5t13.5 32.5v245q0 18 -13.5 31.5t-31.5 13.5h-267q-18 0 -31.5 -13t-13.5 -32v-245q0 -18 13.5 -32t31.5 -14h267zM543 1475q110 0 188 -78t78 -189v-164q0 -110 -78 -188t-188 -78h-185q-110 0 -188 78t-78 188v164q0 111 78 189t188 78h185z" />
    <glyph glyph-name="acute" unicode="&#xb4;" horiz-adv-x="436" 
d="M150 2025h221l-82 -331h-221z" />
    <glyph glyph-name="paragraph" unicode="&#xb6;" horiz-adv-x="1705" 
d="M336 793q0 -18 13 -31.5t32 -13.5h559v503h-559q-18 0 -31.5 -13t-13.5 -32v-413zM1161 748h207v503h-207v-503zM115 1206q0 112 79 189.5t187 77.5h1208v-1473h-221v526h-207v-526h-221v526h-559q-108 0 -187 77.5t-79 189.5v413z" />
    <glyph glyph-name="cedilla" unicode="&#xb8;" horiz-adv-x="436" 
d="M150 0h221l-82 -332h-221z" />
    <glyph glyph-name="questiondown" unicode="&#xbf;" horiz-adv-x="1382" 
d="M1102 1253h-221v222h221v-222zM305 0q-110 0 -188 78t-78 188v377q0 112 78.5 189t187.5 77h531q18 0 31.5 13.5t13.5 31.5v125h221v-125q0 -110 -78 -188t-188 -78h-531q-18 0 -31.5 -13t-13.5 -32v-377q0 -18 13.5 -31.5t31.5 -13.5h1018v-221h-1018z" />
    <glyph glyph-name="Agrave" unicode="&#xc0;" horiz-adv-x="1712" 
d="M1372 737v471q0 18 -13 32t-32 13h-942q-17 0 -31 -13t-14 -32v-471h1032zM1327 1475q111 1 189 -77t77 -190v-1208h-221v516h-1032v-516h-221v1208q0 113 77 189t189 78h942zM1008 1681h-222l-81 332h221z" />
    <glyph glyph-name="Aacute" unicode="&#xc1;" horiz-adv-x="1712" 
d="M1372 737v471q0 18 -13 32t-32 13h-942q-17 0 -31 -13t-14 -32v-471h1032zM1327 1475q111 1 189 -77t77 -190v-1208h-221v516h-1032v-516h-221v1208q0 113 77 189t189 78h942zM786 2011h222l-82 -332h-221z" />
    <glyph glyph-name="Acircumflex" unicode="&#xc2;" horiz-adv-x="1712" 
d="M1372 737v471q0 18 -13 32t-32 13h-942q-17 0 -31 -13t-14 -32v-471h1032zM1327 1475q111 1 189 -77t77 -190v-1208h-221v516h-1032v-516h-221v1208q0 113 77 189t189 78h942zM606 1679l174 289h152l174 -289h-154l-96 156l-98 -156h-152z" />
    <glyph glyph-name="Atilde" unicode="&#xc3;" horiz-adv-x="1712" 
d="M1372 737v471q0 18 -13 32t-32 13h-942q-17 0 -31 -13t-14 -32v-471h1032zM1327 1475q111 1 189 -77t77 -190v-1208h-221v516h-1032v-516h-221v1208q0 113 77 189t189 78h942zM1067 1690q-65 0 -113 22t-98 48q-49 26 -100 48t-109 21q-122 0 -151 -47v153q70 29 139 29
t119 -19t98 -44t98 -47t107 -29q82 0 160 53v-152q-85 -36 -150 -36z" />
    <glyph glyph-name="Adieresis" unicode="&#xc4;" horiz-adv-x="1712" 
d="M1372 737v471q0 18 -13 32t-32 13h-942q-17 0 -31 -13t-14 -32v-471h1032zM1327 1475q111 1 189 -77t77 -190v-1208h-221v516h-1032v-516h-221v1208q0 113 77 189t189 78h942zM793 1661h-222v221h222v-221zM1141 1661h-221v221h221v-221z" />
    <glyph glyph-name="Aring" unicode="&#xc5;" horiz-adv-x="1712" 
d="M1372 737v471q0 18 -13 32t-32 13h-942q-17 0 -31 -13t-14 -32v-471h1032zM1327 1475q111 1 189 -77t77 -190v-1208h-221v516h-1032v-516h-221v1208q0 113 77 189t189 78h942zM924 1765q18 0 18 21v123q0 20 -18 20h-136q-18 0 -18 -20v-123q0 -20 18 -21h136zM913 2011
q47 0 79 -32t32 -76v-111q0 -45 -32 -77t-79 -32h-114q-47 0 -79 32t-32 77v111q0 45 32 77t79 31h114z" />
    <glyph glyph-name="AE" unicode="&#xc6;" horiz-adv-x="2816" 
d="M1364 1208q0 18 -13.5 31.5t-31.5 13.5h-942q-18 0 -31.5 -13t-13.5 -32v-471h1032v471zM1585 848h909v-221h-909v-406h1131v-221h-1352v516h-1032v-516h-221v1208q0 110 77 188.5t189 78.5h2339v-222h-1131v-405z" />
    <glyph glyph-name="Ccedilla" unicode="&#xc7;" horiz-adv-x="1683" 
d="M381 1253q-18 0 -31.5 -13t-13.5 -32v-942q0 -18 13 -31.5t32 -13.5h1204v-221h-592l-82 -332h-221l82 332h-391q-112 0 -189 78.5t-77 187.5v942q0 110 77 188.5t189 78.5h1204v-222h-1204z" />
    <glyph glyph-name="Egrave" unicode="&#xc8;" horiz-adv-x="1568" 
d="M1470 1253h-1130v-405h909v-221h-909v-406h1130v-221h-1351v1475h1351v-222zM936 1681h-221l-82 332h221z" />
    <glyph glyph-name="Eacute" unicode="&#xc9;" horiz-adv-x="1568" 
d="M1470 1253h-1130v-405h909v-221h-909v-406h1130v-221h-1351v1475h1351v-222zM715 2013h221l-82 -332h-221z" />
    <glyph glyph-name="Ecircumflex" unicode="&#xca;" horiz-adv-x="1568" 
d="M1470 1253h-1130v-405h909v-221h-909v-406h1130v-221h-1351v1475h1351v-222zM535 1679l174 289h151l174 -289h-153l-97 156l-98 -156h-151z" />
    <glyph glyph-name="Edieresis" unicode="&#xcb;" horiz-adv-x="1568" 
d="M1470 1253h-1130v-405h909v-221h-909v-406h1130v-221h-1351v1475h1351v-222zM721 1681h-221v222h221v-222zM1069 1681h-221v222h221v-222z" />
    <glyph glyph-name="Igrave" unicode="&#xcc;" horiz-adv-x="450" 
d="M117 1475h221v-1475h-221v1475zM377 1681h-221l-82 332h221z" />
    <glyph glyph-name="Iacute" unicode="&#xcd;" horiz-adv-x="450" 
d="M117 1475h221v-1475h-221v1475zM156 2013h221l-82 -332h-221z" />
    <glyph glyph-name="Icircumflex" unicode="&#xce;" horiz-adv-x="450" 
d="M117 1475h221v-1475h-221v1475zM-23 1679l175 289h151l174 -289h-153l-97 156l-98 -156h-152z" />
    <glyph glyph-name="Idieresis" unicode="&#xcf;" horiz-adv-x="450" 
d="M117 1475h221v-1475h-221v1475zM164 1681h-221v222h221v-222zM512 1681h-221v222h221v-222z" />
    <glyph glyph-name="Ntilde" unicode="&#xd1;" horiz-adv-x="1703" 
d="M1368 1475h221v-1475h-262l-991 1180v-1180h-221v1475h262l991 -1180v1180zM1063 1690q-65 0 -113 22t-98 48q-49 26 -100 48t-109 21q-122 0 -151 -47v153q70 29 139 29t119 -19t98 -44t98 -47t107 -29q83 0 159 53v-152q-84 -36 -149 -36z" />
    <glyph glyph-name="Ograve" unicode="&#xd2;" 
d="M1319 221q18 0 32 13q13 13 13 32v942q0 18 -13 32t-32 13h-942q-17 0 -31 -13t-14 -32v-942q0 -18 13 -32t32 -13h942zM1319 1475q110 0 188 -78t78 -189v-942q0 -112 -78 -189t-188 -77h-942q-113 0 -190 78q-76 78 -76 188v942q0 112 76 188t190 79h942zM999 1681
h-221l-82 332h222z" />
    <glyph glyph-name="Oacute" unicode="&#xd3;" 
d="M1319 221q18 0 32 13q13 13 13 32v942q0 18 -13 32t-32 13h-942q-17 0 -31 -13t-14 -32v-942q0 -18 13 -32t32 -13h942zM1319 1475q110 0 188 -78t78 -189v-942q0 -112 -78 -189t-188 -77h-942q-113 0 -190 78q-76 78 -76 188v942q0 112 76 188t190 79h942zM778 2013h221
l-81 -332h-222z" />
    <glyph glyph-name="Ocircumflex" unicode="&#xd4;" 
d="M1319 221q18 0 32 13q13 13 13 32v942q0 18 -13 32t-32 13h-942q-17 0 -31 -13t-14 -32v-942q0 -18 13 -32t32 -13h942zM1319 1475q110 0 188 -78t78 -189v-942q0 -112 -78 -189t-188 -77h-942q-113 0 -190 78q-76 78 -76 188v942q0 112 76 188t190 79h942zM598 1679
l174 289h152l174 -289h-154l-96 156l-98 -156h-152z" />
    <glyph glyph-name="Otilde" unicode="&#xd5;" 
d="M1319 221q18 0 32 13q13 13 13 32v942q0 18 -13 32t-32 13h-942q-17 0 -31 -13t-14 -32v-942q0 -18 13 -32t32 -13h942zM1319 1475q110 0 188 -78t78 -189v-942q0 -112 -78 -189t-188 -77h-942q-113 0 -190 78q-76 78 -76 188v942q0 112 76 188t190 79h942zM1059 1690
q-65 0 -113 22t-98 48q-49 26 -100 48t-109 21q-120 0 -152 -47v153q70 29 140 29q69 0 118 -19t99 -44t98 -47q50 -22 107 -29q83 0 159 53v-152q-84 -36 -149 -36z" />
    <glyph glyph-name="Odieresis" unicode="&#xd6;" 
d="M1319 221q18 0 32 13q13 13 13 32v942q0 18 -13 32t-32 13h-942q-17 0 -31 -13t-14 -32v-942q0 -18 13 -32t32 -13h942zM1319 1475q110 0 188 -78t78 -189v-942q0 -112 -78 -189t-188 -77h-942q-113 0 -190 78q-76 78 -76 188v942q0 112 76 188t190 79h942zM784 1681
h-221v222h221v-222zM1133 1681h-222v222h222v-222z" />
    <glyph glyph-name="multiply" unicode="&#xd7;" horiz-adv-x="1118" 
d="M1010 184h-262l-189 258l-188 -258h-262v31l305 399l-305 400v30h262l188 -258l189 258h262v-30l-308 -400l308 -399v-31z" />
    <glyph glyph-name="Ugrave" unicode="&#xd9;" 
d="M1364 1475h221v-1209q0 -112 -78 -189t-188 -77h-942q-113 0 -190 78q-76 78 -76 188v1209h221v-1209q0 -18 13 -32t32 -13h942q18 0 32 13q13 13 13 32v1209zM999 1681h-221l-82 332h222z" />
    <glyph glyph-name="Uacute" unicode="&#xda;" 
d="M1364 1475h221v-1209q0 -112 -78 -189t-188 -77h-942q-113 0 -190 78q-76 78 -76 188v1209h221v-1209q0 -18 13 -32t32 -13h942q18 0 32 13q13 13 13 32v1209zM778 2013h221l-81 -332h-222z" />
    <glyph glyph-name="Ucircumflex" unicode="&#xdb;" 
d="M1364 1475h221v-1209q0 -112 -78 -189t-188 -77h-942q-113 0 -190 78q-76 78 -76 188v1209h221v-1209q0 -18 13 -32t32 -13h942q18 0 32 13q13 13 13 32v1209zM598 1679l174 289h152l174 -289h-154l-96 156l-98 -156h-152z" />
    <glyph glyph-name="Udieresis" unicode="&#xdc;" 
d="M1364 1475h221v-1209q0 -112 -78 -189t-188 -77h-942q-113 0 -190 78q-76 78 -76 188v1209h221v-1209q0 -18 13 -32t32 -13h942q18 0 32 13q13 13 13 32v1209zM784 1681h-221v222h221v-222zM1133 1681h-222v222h222v-222z" />
    <glyph glyph-name="Yacute" unicode="&#xdd;" horiz-adv-x="1650" 
d="M936 0h-221v553l-680 922h260l530 -672l529 672h262l-680 -922v-553zM756 2013h221l-82 -332h-221z" />
    <glyph glyph-name="germandbls" unicode="&#xdf;" horiz-adv-x="1705" 
d="M1591 913q0 -88 -51 -155q51 -68 51 -156v-336q0 -109 -77 -187.5t-189 -78.5h-766v221h766q18 0 31.5 13.5t13.5 31.5v336q0 18 -13.5 31.5t-31.5 13.5h-766v199h766q18 0 31.5 13t13.5 32v315q0 18 -13.5 31.5t-31.5 13.5h-942q-18 0 -31.5 -13t-13.5 -32v-1206h-221
v1208q0 110 77 188.5t189 78.5h942q98 0 174 -65.5t92 -156.5v-340z" />
    <glyph glyph-name="agrave" unicode="&#xe0;" horiz-adv-x="1484" 
d="M1094 483h-766v-217q0 -18 13 -32t32 -13h721v262zM1049 1188q110 0 187 -77t79 -189v-922h-942q-113 0 -189 77t-78 189v439h988v217q0 18 -14 31t-31 14h-943v221h943zM893 1473h-221l-82 331h221z" />
    <glyph glyph-name="aacute" unicode="&#xe1;" horiz-adv-x="1484" 
d="M1094 483h-766v-217q0 -18 13 -32t32 -13h721v262zM1049 1188q110 0 187 -77t79 -189v-922h-942q-113 0 -189 77t-78 189v439h988v217q0 18 -14 31t-31 14h-943v221h943zM672 1804h221l-82 -331h-221z" />
    <glyph glyph-name="acircumflex" unicode="&#xe2;" horiz-adv-x="1484" 
d="M1094 483h-766v-217q0 -18 13 -32t32 -13h721v262zM1049 1188q110 0 187 -77t79 -189v-922h-942q-113 0 -189 77t-78 189v439h988v217q0 18 -14 31t-31 14h-943v221h943zM492 1473l174 288h151l174 -288h-153l-97 155l-98 -155h-151z" />
    <glyph glyph-name="atilde" unicode="&#xe3;" horiz-adv-x="1484" 
d="M1094 483h-766v-217q0 -18 13 -32t32 -13h721v262zM1049 1188q110 0 187 -77t79 -189v-922h-942q-113 0 -189 77t-78 189v439h988v217q0 18 -14 31t-31 14h-943v221h943zM951 1479q-64 -1 -112 21q-47 22 -97 48t-101 48t-109 22q-119 0 -151 -47v153q70 29 139 29
q68 0 118 -19t99 -44q49 -26 99 -48t106 -28q82 0 160 53v-151q-87 -37 -151 -37z" />
    <glyph glyph-name="adieresis" unicode="&#xe4;" horiz-adv-x="1484" 
d="M1094 483h-766v-217q0 -18 13 -32t32 -13h721v262zM1049 1188q110 0 187 -77t79 -189v-922h-942q-113 0 -189 77t-78 189v439h988v217q0 18 -14 31t-31 14h-943v221h943zM678 1473h-221v221h221v-221zM1026 1473h-221v221h221v-221z" />
    <glyph glyph-name="aring" unicode="&#xe5;" horiz-adv-x="1484" 
d="M1094 483h-766v-217q0 -18 13 -32t32 -13h721v262zM1049 1188q110 0 187 -77t79 -189v-922h-942q-113 0 -189 77t-78 189v439h988v217q0 18 -14 31t-31 14h-943v221h943zM809 1554q18 0 18 21v123q0 20 -18 20h-135q-18 0 -19 -20v-123q0 -20 19 -21h135zM799 1800
q47 0 79 -32t31 -76v-111q1 -45 -31 -77t-79 -31h-115q-47 -1 -79 31t-32 77v111q0 44 32 76t79 32h115z" />
    <glyph glyph-name="ae" unicode="&#xe6;" horiz-adv-x="2412" 
d="M2083 705v217q0 18 -13.5 31.5t-31.5 13.5h-676q-18 0 -31.5 -13.5t-13.5 -31.5v-217h766zM1096 483h-766v-217q0 -18 13 -31.5t32 -13.5h721v262zM2038 1188q110 0 188 -78t78 -188v-439h-987v-223q2 -16 15.5 -27.5t29.5 -11.5h942v-221h-1929q-112 0 -189 78.5
t-77 187.5v439h987v217q0 18 -13.5 31.5t-31.5 13.5h-942v221h1929z" />
    <glyph glyph-name="ccedilla" unicode="&#xe7;" horiz-adv-x="1419" 
d="M1313 221v-221h-453l-82 -332h-221l82 332h-268q-113 0 -189 77t-78 189v656q0 110 77 187t190 79h938v-221h-938q-17 1 -31 -13t-14 -32v-656q0 -18 13 -32t32 -13h942z" />
    <glyph glyph-name="egrave" unicode="&#xe8;" horiz-adv-x="1306" 
d="M1092 705v217q0 18 -14 31t-31 14h-676q-17 1 -31 -13t-14 -32v-217h766zM1047 1188q110 0 187 -77t79 -189v-439h-987v-217q0 -18 13 -32t32 -13h942v-221h-942q-113 0 -189 77t-78 189v656q0 110 77 187t190 79h676zM805 1473h-221l-82 331h221z" />
    <glyph glyph-name="eacute" unicode="&#xe9;" horiz-adv-x="1306" 
d="M1092 705v217q0 18 -14 31t-31 14h-676q-17 1 -31 -13t-14 -32v-217h766zM1047 1188q110 0 187 -77t79 -189v-439h-987v-217q0 -18 13 -32t32 -13h942v-221h-942q-113 0 -189 77t-78 189v656q0 110 77 187t190 79h676zM584 1806h221l-82 -331h-221z" />
    <glyph glyph-name="ecircumflex" unicode="&#xea;" horiz-adv-x="1306" 
d="M1092 705v217q0 18 -14 31t-31 14h-676q-17 1 -31 -13t-14 -32v-217h766zM1047 1188q110 0 187 -77t79 -189v-439h-987v-217q0 -18 13 -32t32 -13h942v-221h-942q-113 0 -189 77t-78 189v656q0 110 77 187t190 79h676zM403 1473l175 288h151l174 -288h-153l-97 155
l-98 -155h-152z" />
    <glyph glyph-name="edieresis" unicode="&#xeb;" horiz-adv-x="1306" 
d="M1092 705v217q0 18 -14 31t-31 14h-676q-17 1 -31 -13t-14 -32v-217h766zM1047 1188q110 0 187 -77t79 -189v-439h-987v-217q0 -18 13 -32t32 -13h942v-221h-942q-113 0 -189 77t-78 189v656q0 110 77 187t190 79h676zM590 1473h-221v221h221v-221zM938 1473h-221v221
h221v-221z" />
    <glyph glyph-name="igrave" unicode="&#xec;" horiz-adv-x="438" 
d="M115 1188h221v-1188h-221v1188zM338 1475h-221l-82 331h221z" />
    <glyph glyph-name="iacute" unicode="&#xed;" horiz-adv-x="438" 
d="M106 1188h222v-1188h-222v1188zM182 1804h221l-81 -331h-222z" />
    <glyph glyph-name="icircumflex" unicode="&#xee;" horiz-adv-x="438" 
d="M106 1188h222v-1188h-222v1188zM-29 1473l174 288h152l174 -288h-154l-96 155l-98 -155h-152z" />
    <glyph glyph-name="idieresis" unicode="&#xef;" horiz-adv-x="438" 
d="M113 1188h221v-1188h-221v1188zM158 1477h-221v221h221v-221zM506 1477h-221v221h221v-221z" />
    <glyph glyph-name="ntilde" unicode="&#xf1;" horiz-adv-x="1449" 
d="M1053 1188q110 0 187 -77t79 -189v-922h-221v922q0 18 -14 31t-31 14h-676q-17 1 -31 -13t-14 -32v-922h-221v1188h942zM936 1477q-66 -1 -114 21t-97 48t-100 48t-109 22q-122 0 -151 -47v153q70 29 139 29q68 0 118 -19t99 -44q49 -26 99 -48t106 -28q83 0 159 53v-152
q-84 -36 -149 -36z" />
    <glyph glyph-name="ograve" unicode="&#xf2;" horiz-adv-x="1417" 
d="M371 967q-17 1 -31 -13t-14 -32v-656q0 -18 13 -32t32 -13h676q18 0 31 13t14 32v656q0 18 -14 31t-31 14h-676zM1047 1188q110 0 187 -77t79 -189v-656q0 -110 -78 -188t-188 -78h-676q-113 0 -189 77t-78 189v656q0 110 77 187t190 79h676zM860 1475h-221l-82 331h221z
" />
    <glyph glyph-name="oacute" unicode="&#xf3;" horiz-adv-x="1417" 
d="M371 967q-17 1 -31 -13t-14 -32v-656q0 -18 13 -32t32 -13h676q18 0 31 13t14 32v656q0 18 -14 31t-31 14h-676zM1047 1188q110 0 187 -77t79 -189v-656q0 -110 -78 -188t-188 -78h-676q-113 0 -189 77t-78 189v656q0 110 77 187t190 79h676zM639 1806h221l-82 -331h-221
z" />
    <glyph glyph-name="ocircumflex" unicode="&#xf4;" horiz-adv-x="1417" 
d="M371 967q-17 1 -31 -13t-14 -32v-656q0 -18 13 -32t32 -13h676q18 0 31 13t14 32v656q0 18 -14 31t-31 14h-676zM1047 1188q110 0 187 -77t79 -189v-656q0 -110 -78 -188t-188 -78h-676q-113 0 -189 77t-78 189v656q0 110 77 187t190 79h676zM459 1473l174 288h151
l174 -288h-153l-96 155l-99 -155h-151z" />
    <glyph glyph-name="otilde" unicode="&#xf5;" horiz-adv-x="1417" 
d="M371 967q-17 1 -31 -13t-14 -32v-656q0 -18 13 -32t32 -13h676q18 0 31 13t14 32v656q0 18 -14 31t-31 14h-676zM1047 1188q110 0 187 -77t79 -189v-656q0 -110 -78 -188t-188 -78h-676q-113 0 -189 77t-78 189v656q0 110 77 187t190 79h676zM919 1477q-65 -1 -113 21
t-97 48t-101 48t-108 22q-120 0 -152 -47v153q70 29 140 29q69 0 118 -19q48 -19 98 -44q50 -26 99 -48t106 -28q82 0 160 53v-152q-85 -36 -150 -36z" />
    <glyph glyph-name="odieresis" unicode="&#xf6;" horiz-adv-x="1417" 
d="M371 967q-17 1 -31 -13t-14 -32v-656q0 -18 13 -32t32 -13h676q18 0 31 13t14 32v656q0 18 -14 31t-31 14h-676zM1047 1188q110 0 187 -77t79 -189v-656q0 -110 -78 -188t-188 -78h-676q-113 0 -189 77t-78 189v656q0 110 77 187t190 79h676zM645 1477h-221v221h221v-221
zM993 1477h-221v221h221v-221z" />
    <glyph glyph-name="divide" unicode="&#xf7;" horiz-adv-x="1028" 
d="M633 983h-221v221h221v-221zM633 221v-221h-221v221h221zM1020 496h-983v221h983v-221z" />
    <glyph glyph-name="ugrave" unicode="&#xf9;" horiz-adv-x="1423" 
d="M1317 1188v-922q0 -110 -78 -188t-188 -78h-676q-113 0 -190 78q-76 78 -76 188v922h221v-922q0 -18 13 -32t32 -13h676q18 0 31 13t14 32v922h221zM862 1475h-221l-82 331h221z" />
    <glyph glyph-name="uacute" unicode="&#xfa;" horiz-adv-x="1423" 
d="M1317 1188v-922q0 -110 -78 -188t-188 -78h-676q-113 0 -190 78q-76 78 -76 188v922h221v-922q0 -18 13 -32t32 -13h676q18 0 31 13t14 32v922h221zM641 1806h221l-82 -331h-221z" />
    <glyph glyph-name="ucircumflex" unicode="&#xfb;" horiz-adv-x="1423" 
d="M1317 1188v-922q0 -110 -78 -188t-188 -78h-676q-113 0 -190 78q-76 78 -76 188v922h221v-922q0 -18 13 -32t32 -13h676q18 0 31 13t14 32v922h221zM461 1475l174 288h151l175 -288h-154l-96 155l-99 -155h-151z" />
    <glyph glyph-name="udieresis" unicode="&#xfc;" horiz-adv-x="1423" 
d="M1317 1188v-922q0 -110 -78 -188t-188 -78h-676q-113 0 -190 78q-76 78 -76 188v922h221v-922q0 -18 13 -32t32 -13h676q18 0 31 13t14 32v922h221zM647 1473h-221v221h221v-221zM995 1473h-221v221h221v-221z" />
    <glyph glyph-name="yacute" unicode="&#xfd;" horiz-adv-x="1409" 
d="M1294 1184v-1389q0 -111 -78 -189t-188 -77h-733v221h733q18 0 32 13q13 13 13 32v205h-721q-112 0 -189 78t-77 188v918h221v-918q-1 -18 13 -32t32 -13h676q18 0 32 13q13 13 13 32v918h221zM635 1806h221l-82 -331h-221z" />
    <glyph glyph-name="ydieresis" unicode="&#xff;" horiz-adv-x="1409" 
d="M1294 1184v-1389q0 -111 -78 -189t-188 -77h-733v221h733q18 0 32 13q13 13 13 32v205h-721q-112 0 -189 78t-77 188v918h221v-918q-1 -18 13 -32t32 -13h676q18 0 32 13q13 13 13 32v918h221zM641 1477h-221v221h221v-221zM989 1477h-221v221h221v-221z" />
    <glyph glyph-name="dotlessi" unicode="&#x131;" horiz-adv-x="438" 
d="M106 1188h222v-1188h-222v1188z" />
    <glyph glyph-name="OE" unicode="&#x152;" horiz-adv-x="2813" 
d="M1317 221q18 0 31.5 13.5t13.5 31.5v942q0 18 -13.5 31.5t-31.5 13.5h-942q-18 0 -31.5 -13t-13.5 -32v-942q0 -18 13 -31.5t32 -13.5h942zM1583 848h909v-221h-909v-406h1131v-221h-2339q-112 0 -189 78.5t-77 187.5v942q0 110 77 188.5t189 78.5h2339v-222h-1131v-405z
" />
    <glyph glyph-name="oe" unicode="&#x153;" horiz-adv-x="2410" 
d="M1049 221q18 0 31.5 13.5t13.5 31.5v656q0 18 -13.5 31.5t-31.5 13.5h-676q-18 0 -31.5 -13.5t-13.5 -31.5v-656q0 -18 13 -31.5t32 -13.5h676zM1360 967q-18 0 -31.5 -13.5t-13.5 -31.5v-217h766v217q0 18 -13.5 31.5t-31.5 13.5h-676zM1315 483v-217q0 -18 13 -31.5
t32 -13.5h942v-221h-1929q-111 0 -189 78t-78 188v656q0 110 78 188t189 78h1663q110 0 188 -78t78 -188v-439h-987z" />
    <glyph glyph-name="Scaron" unicode="&#x160;" horiz-adv-x="1683" 
d="M1579 1122h-221v86q0 18 -13 32t-32 13h-942q-17 0 -31 -13t-14 -32v-315q0 -17 13 -31t32 -14h942q110 0 188 -78t78 -188v-316q0 -112 -78 -189t-188 -77h-942q-113 0 -189 77t-78 189v86h222v-86q0 -18 13 -32t32 -13h942q18 0 32 13q13 13 13 32v316q0 18 -13 31
t-32 14h-942q-113 0 -189 77t-78 189v315q0 111 77 188t190 79h942q110 0 188 -78t78 -189v-86zM743 1968l99 -156l96 156h154l-174 -289h-152l-174 289h151z" />
    <glyph glyph-name="scaron" unicode="&#x161;" horiz-adv-x="1406" 
d="M1307 877h-222v45q0 18 -13 31t-32 14h-675q-17 1 -31 -13t-15 -32v-172q-1 -18 13 -32t33 -13h675q111 0 188 -77t79 -190v-172q0 -110 -78 -188t-189 -78h-675q-113 0 -189 77t-78 189v45h221v-45q-1 -18 13 -32t33 -13h675q18 0 32 13q13 13 13 32v172q0 18 -13 32
t-32 13h-675q-111 0 -188 77t-79 190v172q0 110 77 187t190 79h675q111 0 188 -77t79 -189v-45zM604 1761l98 -155l97 155h153l-174 -288h-151l-174 288h151z" />
    <glyph glyph-name="Ydieresis" unicode="&#x178;" horiz-adv-x="1650" 
d="M936 0h-221v553l-680 922h260l530 -672l529 672h262l-680 -922v-553zM762 1681h-221v222h221v-222zM1110 1681h-221v222h221v-222z" />
    <glyph glyph-name="Zcaron" unicode="&#x17d;" horiz-adv-x="1681" 
d="M104 1475h1475v-263l-1180 -991h1180v-221h-1475v262l1180 991h-1180v222zM741 1968l99 -156l96 156h154l-175 -289h-151l-174 289h151z" />
    <glyph glyph-name="zcaron" unicode="&#x17e;" horiz-adv-x="1429" 
d="M111 1188h1208v-262l-913 -705h913v-221h-1208v262l913 705h-913v221zM616 1767l99 -155l96 155h154l-174 -288h-152l-174 288h151z" />
    <glyph glyph-name="circumflex" unicode="&#x2c6;" horiz-adv-x="614" 
d="M57 1692l174 288h152l174 -288h-154l-96 155l-98 -155h-152z" />
    <glyph glyph-name="caron" unicode="&#x2c7;" horiz-adv-x="608" 
d="M207 1980l98 -155l96 155h154l-174 -288h-152l-174 288h152z" />
    <glyph glyph-name="breve" unicode="&#x2d8;" horiz-adv-x="587" 
d="M504 1866v-15q0 -66 -45 -111.5t-113 -45.5h-106q-68 0 -113 46t-45 111v15h104v-37q0 -29 29 -29h156q29 0 28 29v37h105z" />
    <glyph glyph-name="dotaccent" unicode="&#x2d9;" horiz-adv-x="477" 
d="M276 1982q47 0 79 -31.5t32 -76.5v-70q0 -45 -31.5 -76.5t-79.5 -31.5h-73q-47 0 -79 31.5t-32 76.5v70q0 45 32 76.5t79 31.5h73z" />
    <glyph glyph-name="ring" unicode="&#x2da;" horiz-adv-x="477" 
d="M307 1778q18 0 19 20v123q0 20 -19 21h-135q-18 0 -18 -21v-123q0 -20 18 -20h135zM297 2023q47 0 79 -31.5t32 -76.5v-111q0 -45 -32 -76.5t-79 -31.5h-115q-47 0 -78.5 31.5t-31.5 76.5v111q0 45 31.5 76.5t78.5 31.5h115z" />
    <glyph glyph-name="tilde" unicode="&#x2dc;" horiz-adv-x="825" 
d="M617 1702q-64 0 -112 21.5t-97.5 48t-100.5 48t-108 21.5q-123 0 -152 -47v154q68 28 138 28q71 0 120 -19.5t98.5 -44t98.5 -47t106 -28.5q78 0 160 53v-151q-87 -37 -151 -37z" />
    <glyph glyph-name="endash" unicode="&#x2013;" horiz-adv-x="1449" 
d="M1339 494h-1228v221h1228v-221z" />
    <glyph glyph-name="emdash" unicode="&#x2014;" horiz-adv-x="1683" 
d="M1573 494h-1462v221h1462v-221z" />
    <glyph glyph-name="quoteleft" unicode="&#x2018;" horiz-adv-x="397" 
d="M70 991v221q0 101 62.5 173t158.5 90v-484h-221z" />
    <glyph glyph-name="quoteright" unicode="&#x2019;" horiz-adv-x="395" 
d="M332 1475v-222q0 -97 -62.5 -171.5t-158.5 -90.5v484h221z" />
    <glyph glyph-name="quotedblleft" unicode="&#x201c;" horiz-adv-x="774" 
d="M444 991v221q0 100 63 172.5t159 90.5v-484h-222zM94 991v221q0 99 62 171.5t159 91.5v-484h-221z" />
    <glyph glyph-name="quotedblright" unicode="&#x201d;" horiz-adv-x="774" 
d="M332 1475v-222q0 -97 -62.5 -171.5t-158.5 -90.5v484h221zM682 1475v-222q0 -97 -62.5 -171.5t-158.5 -90.5v484h221z" />
    <glyph glyph-name="bullet" unicode="&#x2022;" horiz-adv-x="759" 
d="M401 844q88 0 88 -86v-41q0 -86 -88 -86h-47q-86 0 -86 86v41q0 86 86 86h47z" />
    <glyph glyph-name="ellipsis" unicode="&#x2026;" horiz-adv-x="1175" 
d="M698 0h-221v221h221v-221zM1065 0h-221v221h221v-221zM332 0h-221v221h221v-221z" />
    <glyph glyph-name="Euro" unicode="&#x20ac;" horiz-adv-x="1636" 
d="M1542 221v-221h-999q-111 0 -189 78t-78 188v180h-204v222h204v139h-204v221h204v180q0 111 78 189t189 78h999v-222h-999q-18 0 -31.5 -13t-13.5 -32v-180h823v-221h-823v-139h823v-222h-823v-180q0 -18 13 -31.5t32 -13.5h999z" />
    <glyph glyph-name="minus" unicode="&#x2212;" horiz-adv-x="1058" 
d="M940 496h-819v221h819v-221z" />
    <glyph glyph-name="uniE000" unicode="&#xe000;" horiz-adv-x="0" 
 />
    <glyph glyph-name="seven.alt" unicode="&#xe002;" horiz-adv-x="1579" 
d="M94 1475h1475v-31l-1213 -1444h-262v31l1026 1222h-1026v222z" />
    <glyph glyph-name="nine.alt" unicode="&#xe003;" horiz-adv-x="1605" 
d="M1278 823v381q0 18 -13.5 31.5t-31.5 13.5h-942q-18 0 -31.5 -13t-13.5 -32v-336q0 -18 13 -31.5t32 -13.5h987zM1233 1470q111 0 188.5 -77.5t77.5 -188.5v-1204h-221v557q0 18 -13.5 31.5t-31.5 13.5h-942q-112 0 -189 78.5t-77 187.5v336q0 110 76.5 188t189.5 78h942
z" />
    <glyph glyph-name="two.alt" unicode="&#xe005;" horiz-adv-x="1669" 
d="M322 221h1249v-221h-1209q-96 0 -167.5 59.5t-92.5 149.5l-2 250l1250 649v145h-983q-18 0 -31.5 -13t-13.5 -32v-112h-222v112q0 111 78 189t189 78h942q96 0 171 -64.5t91 -157.5v-280l-1249 -649v-103z" />
    <glyph glyph-name="question.alt" unicode="&#xe006;" horiz-adv-x="1366" 
d="M399 0v221h222v-221h-222zM1055 1475q110 0 188 -78t78 -189v-377q0 -110 -78 -188t-188 -78h-389q-18 0 -31.5 -13t-13.5 -32v-211h-222v211q0 112 78.5 189t188.5 77h389q18 0 31.5 13.5t13.5 31.5v377q0 18 -13.5 31.5t-31.5 13.5h-779v-221h-221v221q16 92 90.5 157
t171.5 65h738z" />
    <glyph glyph-name="four.alt" unicode="&#xe007;" horiz-adv-x="1480" 
d="M1432 596v-221h-218v-375h-221v375h-975v221l750 879h221v-103l-702 -776h706v305h221v-305h218z" />
    <glyph glyph-name="W.alt2" unicode="&#xe008;" horiz-adv-x="2316" 
d="M776 1475h262l992 -1180v1180h221v-1475h-262l-514 612v-612h-263l-1212 1444v31h262l991 -1180v582l-477 567v31z" />
    <glyph glyph-name="W.alt" unicode="&#xe009;" horiz-adv-x="2353" 
d="M2347 1475v-31l-1212 -1444h-263v612l-514 -612h-262v1475h221v-1180l992 1180h262v-31l-477 -567v-582l991 1180h262z" />
    <glyph glyph-name="V.alt" unicode="&#xe00a;" horiz-adv-x="1585" 
d="M332 1475v-1180l991 1180h262v-31l-1212 -1444h-262v1475h221z" />
    <glyph glyph-name="A.alt" unicode="&#xe00b;" horiz-adv-x="1585" 
d="M1253 614v566l-475 -566h475zM1475 1475v-1475h-222v393h-661l-330 -393h-262v31l1212 1444h263z" />
    <glyph glyph-name="A.alt2" unicode="&#xe00c;" horiz-adv-x="1585" 
d="M332 614h475l-475 566v-566zM1585 0h-262l-332 393h-659v-393h-221v1475h262l1212 -1444v-31z" />
    <glyph glyph-name="A.alt3" horiz-adv-x="1693" 
d="M532 580h621l-309 643zM1489 0l-209 358h-874l-207 -358h-256l790 1475h221l789 -1475h-254z" />
    <glyph glyph-name="C.alt" horiz-adv-x="1683" 
d="M1583 1032h-221v221h-989q-18 0 -31.5 -13t-13.5 -32v-942q0 -18 13 -31.5t32 -13.5h989v221h215v-221q-16 -94 -91.5 -157.5t-170.5 -63.5h-942q-111 0 -189 78t-78 188v942q0 111 78 189t189 78h942q96 0 171 -64.5t91 -157.5h6v-221z" />
    <glyph glyph-name="I.alt" horiz-adv-x="1675" 
d="M1575 1253h-627v-1032h627v-221h-1475v221h627v1032h-627v222h1475v-222z" />
    <glyph glyph-name="J.alt" horiz-adv-x="1320" 
d="M993 1475h221v-1209q0 -111 -77.5 -188.5t-188.5 -77.5h-942v221h942q18 0 31.5 13.5t13.5 31.5v1209z" />
    <glyph glyph-name="K.alt" horiz-adv-x="1697" 
d="M1366 1475h221v-547q0 -78 -86.5 -137.5t-216.5 -59.5q127 0 214 -60t87 -136v-535h-221v575q0 18 -13.5 32t-31.5 14h-942q-18 0 -31.5 -13.5t-13.5 -32.5v-575h-221v1475h221v-588q0 -18 13 -31.5t32 -13.5h944q18 0 31.5 13t13.5 32v588z" />
    <glyph glyph-name="M.alt" horiz-adv-x="2365" 
d="M1991 1475q110 0 188 -78t78 -189v-1208h-221v1208q0 18 -13.5 31.5t-31.5 13.5h-721v-1253h-221v1208q0 18 -13.5 31.5t-31.5 13.5h-672v-1253h-221v1475h1880z" />
    <glyph glyph-name="N.alt" horiz-adv-x="1693" 
d="M111 0v1475h1208q110 0 188 -78t78 -189v-1208h-221v1208q0 18 -13.5 31.5t-31.5 13.5h-987v-1253h-221z" />
    <glyph glyph-name="O.alt" horiz-adv-x="1687" 
d="M733 627v221h221v-221h-221zM1360 1208q0 18 -13.5 31.5t-31.5 13.5h-942q-18 0 -31.5 -13t-13.5 -32v-942q0 -18 13 -31.5t32 -13.5h942q18 0 31.5 13.5t13.5 31.5v942zM1315 1475q110 0 188 -78t78 -189v-942q0 -110 -78 -188t-188 -78h-942q-111 0 -189 78t-78 188
v942q0 111 78 189t189 78h942z" />
    <glyph glyph-name="Q.alt" horiz-adv-x="1777" 
d="M1364 1208q0 18 -13.5 31.5t-31.5 13.5h-942q-18 0 -31.5 -13t-13.5 -32v-942q0 -18 13 -31.5t32 -13.5h942q18 0 31.5 13.5t13.5 31.5v942zM1319 1475q110 0 188 -78t78 -189v-942q0 -110 -78 -188t-188 -78h-361v-221h-221v221h-360q-112 0 -189 78.5t-77 187.5v942
q0 110 77 188.5t189 78.5h942z" />
    <glyph glyph-name="R.alt" horiz-adv-x="1691" 
d="M377 1251q-18 0 -31.5 -13t-13.5 -32v-413q0 -18 13 -31.5t32 -13.5h942q18 0 31.5 13t13.5 32v413q0 18 -13.5 31.5t-31.5 13.5h-942zM1585 793q0 -129 -108.5 -142.5t-133.5 -13.5q147 0 194.5 -51t47.5 -105v-481h-221v481q0 18 -13.5 31.5t-31.5 13.5h-942
q-18 0 -31.5 -13t-13.5 -32v-481h-221v1475l1208 -2q107 0 186.5 -77.5t79.5 -189.5v-413z" />
    <glyph glyph-name="S.alt" horiz-adv-x="1662" 
d="M1303 848q110 0 188 -78t78 -188v-316q0 -110 -78 -188t-188 -78h-1209v221h1209q18 0 31.5 13.5t13.5 31.5v316q0 18 -13.5 31.5t-31.5 13.5h-943q-109 0 -187.5 77t-78.5 189v315q0 111 78 189t188 78h1209v-222h-1209q-18 0 -31.5 -13t-13.5 -32v-315
q0 -18 13.5 -31.5t31.5 -13.5h943z" />
    <glyph glyph-name="V.alt2" horiz-adv-x="1585" 
d="M1253 1475h222v-1475h-263l-1212 1444v31h262l991 -1180v1180z" />
    <glyph glyph-name="V.alt3" horiz-adv-x="1693" 
d="M1583 1475v-1475h-1208q-112 0 -189 78.5t-77 187.5v1209h221v-1209q0 -18 13 -31.5t32 -13.5h987v1254h221z" />
    <glyph glyph-name="W.alt3" horiz-adv-x="2105" 
d="M111 0v1475h221v-1180l721 858l721 -858v1180h221v-1475h-262l-680 809l-680 -809h-262z" />
    <glyph glyph-name="W.alt4" horiz-adv-x="2365" 
d="M375 0q-112 0 -189 78.5t-77 187.5v1209h221v-1209q0 -18 13 -31.5t32 -13.5h721v1254h221v-1209q0 -18 13 -31.5t32 -13.5h672v1254h221v-1475h-1880z" />
    <glyph glyph-name="X.alt" horiz-adv-x="1697" 
d="M1587 1475v-547q0 -86 -91.5 -141.5t-211.5 -55.5q120 0 210.5 -55t90.5 -141v-535h-221v575q0 18 -13.5 32t-31.5 14h-940q-18 0 -31.5 -13.5t-13.5 -32.5v-575h-221v535q0 86 89 141t212 55q-122 0 -212.5 55t-90.5 142v547h221v-588q0 -18 13 -31.5t32 -13.5h944
q18 0 31.5 13t13.5 32v588h221z" />
    <glyph glyph-name="Y.alt" horiz-adv-x="1687" 
d="M1579 1475v-1209q0 -110 -78 -188t-188 -78h-1209v221h1209q18 0 31.5 13.5t13.5 31.5v316q0 18 -13.5 31.5t-31.5 13.5h-942q-110 0 -188.5 77t-78.5 189v582h222v-582q0 -18 13 -31.5t32 -13.5h987v627h221z" />
    <glyph glyph-name="Z.alt" horiz-adv-x="1675" 
d="M367 848h942q18 0 31.5 13t13.5 32v315q0 18 -13.5 31.5t-31.5 13.5h-1209v222h1209q110 0 188 -78t78 -189v-315q0 -112 -78.5 -189t-187.5 -77h-942q-18 0 -31.5 -13.5t-13.5 -31.5v-316q0 -18 13 -31.5t32 -13.5h1208v-221h-1208q-111 0 -189 78t-78 188v316
q0 110 78 188t189 78z" />
    <glyph glyph-name="a.alt" horiz-adv-x="1419" 
d="M1092 221v701q0 18 -13.5 31.5t-31.5 13.5h-676q-18 0 -31.5 -13.5t-13.5 -31.5v-656q0 -18 13 -31.5t32 -13.5h721zM1047 1188q110 0 188 -78t78 -188v-922h-942q-111 0 -189 78t-78 188v656q0 110 78 188t189 78h676z" />
    <glyph glyph-name="a.sc" horiz-adv-x="1484" 
d="M1157 532v390q0 18 -13.5 31.5t-31.5 13.5h-737q-18 0 -31.5 -13.5t-13.5 -31.5v-390h827zM1112 1188q112 0 189 -78.5t77 -187.5v-922h-221v311h-827v-311h-221v922q0 109 77 187.5t189 78.5h737z" />
    <glyph glyph-name="b.sc" horiz-adv-x="1433" 
d="M1118 432q0 18 -13 31.5t-32 13.5h-696q-18 0 -31.5 -13t-13.5 -32v-166q0 -18 13 -31.5t32 -13.5h696q18 0 31.5 13.5t13.5 31.5v166zM377 969q-18 0 -31.5 -13.5t-13.5 -31.5v-181q0 -18 13 -31.5t32 -13.5h635q18 0 31.5 13.5t13.5 31.5v181q0 18 -13.5 31.5
t-31.5 13.5h-635zM1339 432v-166q0 -109 -77 -187.5t-189 -78.5h-962v1190h901q110 0 188 -78t78 -188v-181q0 -57 -27 -114q88 -75 88 -197z" />
    <glyph glyph-name="c.sc" horiz-adv-x="1419" 
d="M371 969q-18 0 -31.5 -13.5t-13.5 -31.5v-658q0 -18 13 -31.5t32 -13.5h938v-221h-938q-111 0 -189 78t-78 188v658q0 110 78 188t189 78h938v-221h-938z" />
    <glyph glyph-name="d.sc" horiz-adv-x="1443" 
d="M1118 924q0 18 -13 31.5t-32 13.5h-696q-18 0 -31.5 -13.5t-13.5 -31.5v-658q0 -18 13 -31.5t32 -13.5h696q18 0 31.5 13.5t13.5 31.5v658zM1073 1190q112 0 189 -78.5t77 -187.5v-658q0 -109 -77 -187.5t-189 -78.5h-962v1190h962z" />
    <glyph glyph-name="e.sc" horiz-adv-x="1306" 
d="M1196 969h-864v-264h643v-222h-643v-262h864v-221h-1085v1190h1085v-221z" />
    <glyph glyph-name="f.sc" horiz-adv-x="1210" 
d="M1196 1190v-221h-864v-264h643v-222h-643v-483h-221v1190h1085z" />
    <glyph glyph-name="g.sc" horiz-adv-x="1413" 
d="M1313 866h-221v58q0 18 -13.5 31.5t-31.5 13.5h-676q-18 0 -31.5 -13.5t-13.5 -31.5v-658q0 -18 13 -31.5t32 -13.5h676q18 0 31.5 13.5t13.5 31.5v156h-349v221h570v-377q0 -110 -78 -188t-188 -78h-676q-111 0 -189 78t-78 188v658q0 110 78 188t189 78h676
q110 0 188 -78t78 -188v-58z" />
    <glyph glyph-name="h.sc" horiz-adv-x="1464" 
d="M1354 1188v-1188h-221v483h-801v-483h-221v1188h221v-483h801v483h221z" />
    <glyph glyph-name="i.sc" horiz-adv-x="438" 
d="M111 1188h221v-1188h-221v1188z" />
    <glyph glyph-name="j.sc" horiz-adv-x="1345" 
d="M1018 1188h221v-922q0 -110 -78 -188t-188 -78h-697q-110 0 -188 78t-78 188v123h221v-123q0 -18 13.5 -31.5t31.5 -13.5h697q18 0 31.5 13.5t13.5 31.5v922z" />
    <glyph glyph-name="k.alt" horiz-adv-x="1370" 
d="M1319 438v-438h-221v438q0 18 -13.5 31.5t-31.5 13.5h-721v-483h-221v1577h221v-872h721q18 0 31.5 13t13.5 32v438h221v-438q0 -82 -49 -156q49 -70 49 -156z" />
    <glyph glyph-name="k.sc" horiz-adv-x="1396" 
d="M1305 1188v-31l-510 -563l510 -563v-31h-263l-444 483h-266v-483h-221v1188h221v-483h266l444 483h263z" />
    <glyph glyph-name="l.sc" horiz-adv-x="1349" 
d="M111 1188h221v-967h1007v-221h-1228v1188z" />
    <glyph glyph-name="m.sc" horiz-adv-x="1687" 
d="M1577 1190v-1190h-221v913l-512 -731l-512 731v-913h-221v1190h262l471 -674l469 674h264z" />
    <glyph glyph-name="n.sc" horiz-adv-x="1449" 
d="M1118 1188h221v-1188h-262l-745 895v-895h-221v1188h262l745 -893v893z" />
    <glyph glyph-name="o.sc" horiz-adv-x="1417" 
d="M1047 221q18 0 31.5 13.5t13.5 31.5v656q0 18 -13.5 31.5t-31.5 13.5h-676q-18 0 -31.5 -13.5t-13.5 -31.5v-656q0 -18 13 -31.5t32 -13.5h676zM1047 1188q110 0 188 -78t78 -188v-656q0 -110 -78 -188t-188 -78h-676q-111 0 -189 78t-78 188v656q0 110 78 188t189 78
h676z" />
    <glyph glyph-name="p.sc" horiz-adv-x="1351" 
d="M1098 922q0 18 -13.5 31.5t-31.5 13.5h-676q-18 0 -31.5 -13.5t-13.5 -31.5v-252q0 -18 13 -31.5t32 -13.5h676q18 0 31.5 13t13.5 32v252zM377 403q-20 0 -45 5v-408h-221v1188h942q107 0 186.5 -77.5t79.5 -188.5v-252q0 -112 -79.5 -189.5t-186.5 -77.5h-676z" />
    <glyph glyph-name="q.sc" horiz-adv-x="1576" 
d="M1049 221q18 0 31.5 13.5t13.5 31.5v656q0 18 -13.5 31.5t-31.5 13.5h-676q-18 0 -31.5 -13.5t-13.5 -31.5v-656q0 -18 13 -31.5t32 -13.5h676zM1315 266q0 -25 -4 -45h188v-221h-1126q-111 0 -189 78t-78 188v656q0 110 78 188t189 78h676q110 0 188 -78t78 -188v-656z
" />
    <glyph glyph-name="r.sc" horiz-adv-x="1433" 
d="M1053 625q18 0 31.5 13t13.5 32v252q0 18 -13.5 31.5t-31.5 13.5h-676q-18 0 -31.5 -13.5t-13.5 -31.5v-252q0 -18 13 -31.5t32 -13.5h676zM1319 670q0 -112 -79.5 -189.5t-186.5 -77.5h-129l415 -372v-31h-262l-442 403h-303v-403h-221v1188h942q107 0 186.5 -77.5
t79.5 -188.5v-252z" />
    <glyph glyph-name="s.sc" horiz-adv-x="1406" 
d="M1309 856h-222v66q0 18 -13 31.5t-32 13.5h-675q-18 0 -31.5 -13.5t-13.5 -31.5v-172q0 -18 13 -31.5t32 -13.5h675q111 0 189 -78t78 -189v-172q0 -110 -78 -188t-189 -78h-675q-111 0 -189 78t-78 188v66h222v-66q0 -18 13 -31.5t32 -13.5h675q18 0 31.5 13.5
t13.5 31.5v172q0 18 -13 31.5t-32 13.5h-675q-111 0 -189 78t-78 189v172q0 110 78 188t189 78h675q111 0 189 -78t78 -188v-66z" />
    <glyph glyph-name="t.sc" horiz-adv-x="1318" 
d="M1274 1188v-221h-504v-967h-221v967h-504v221h1229z" />
    <glyph glyph-name="u.sc" horiz-adv-x="1423" 
d="M1096 1188h221v-922q0 -110 -78 -188t-188 -78h-676q-112 0 -189 78.5t-77 187.5v922h221v-922q0 -18 13 -31.5t32 -13.5h676q18 0 31.5 13.5t13.5 31.5v922z" />
    <glyph glyph-name="v.alt" horiz-adv-x="1427" 
d="M1317 1188v-1188h-942q-112 0 -189 78.5t-77 187.5v922h221v-922q0 -18 13 -31.5t32 -13.5h721v967h221z" />
    <glyph glyph-name="v.sc" horiz-adv-x="1640" 
d="M1343 1188h254l-665 -1188h-221l-668 1188h256l522 -938z" />
    <glyph glyph-name="w.alt" horiz-adv-x="2002" 
d="M375 0q-112 0 -189 78.5t-77 187.5v922h219v-922q0 -18 13 -31.5t34 -13.5h469q18 0 31.5 13.5t13.5 31.5v922h221v-922q0 -18 13.5 -31.5t31.5 -13.5h471q18 0 31.5 13.5t13.5 31.5v922h221v-1188h-1517z" />
    <glyph glyph-name="w.sc" horiz-adv-x="2207" 
d="M2136 1188l-455 -1188h-180l-399 862l-377 -862l-4 2l2 -2h-178l-475 1188h235l330 -789l350 789h236l370 -789l310 789h235z" />
    <glyph glyph-name="x.alt" horiz-adv-x="1429" 
d="M111 750v438h221v-438q0 -18 13 -31.5t32 -13.5h676q18 0 31.5 13t13.5 32v438h221v-438q0 -82 -49 -156q49 -70 49 -156v-438h-221v438q0 18 -13.5 31.5t-31.5 13.5h-676q-18 0 -31.5 -13t-13.5 -32v-438h-221v438q0 86 49 156q-49 70 -49 156z" />
    <glyph glyph-name="x.sc" horiz-adv-x="1417" 
d="M1323 1188v-31l-471 -551l471 -575v-31h-262l-352 434l-353 -434h-262v31l469 575l-469 551v31h262l353 -410l352 410h262z" />
    <glyph glyph-name="y.sc" horiz-adv-x="1409" 
d="M815 0h-221v410l-557 778h260l408 -529l405 529h262l-557 -778v-410z" />
    <glyph glyph-name="z.alt" horiz-adv-x="1417" 
d="M371 483q-18 0 -31.5 -13t-13.5 -32v-172q0 -18 13 -31.5t32 -13.5h942v-221h-942q-111 0 -189 78t-78 188v172q0 111 78 189t189 78h676q18 0 31.5 13t13.5 32v172q0 18 -13.5 31.5t-31.5 13.5h-943v221h943q110 0 188 -78t78 -188v-172q0 -111 -78 -189t-188 -78h-676z
" />
    <glyph glyph-name="z.sc" horiz-adv-x="1429" 
d="M111 1188h1208v-262l-913 -705h913v-221h-1208v262l913 705h-913v221z" />
    </font>
</defs>
</svg>
