<?xml version="1.0" encoding="utf-8"?>
<!-- Generator: Adobe Illustrator 16.0.0, SVG Export Plug-In . SVG Version: 6.00 Build 0)  -->
<!DOCTYPE svg PUBLIC "-//W3C//DTD SVG 1.1//EN" "http://www.w3.org/Graphics/SVG/1.1/DTD/svg11.dtd">
<svg version="1.1" id="Layer_1" xmlns="http://www.w3.org/2000/svg" xmlns:xlink="http://www.w3.org/1999/xlink" x="0px" y="0px"
	 width="512px" height="512px" viewBox="0 0 512 512" enable-background="new 0 0 512 512" xml:space="preserve">
<path id="antenna-4-icon" fill="#F9429E" d="M146.735,462l13.078-11.801c22.857-20.618,57.602-20.618,80.459,0.001L253.35,462
	h59.335L200.043,360.376L87.399,462H146.735z M312.297,229.663l53.449-85.778c3.154-5.056,9.004-7.778,14.9-6.93
	c9.274,1.332,19.002-2.103,25.334-9.911c9.59-11.812,7.786-29.164-4.029-38.75c-11.814-9.587-29.168-7.781-38.752,4.035
	c-5.043,6.21-6.93,13.95-5.871,21.29c0.852,5.901-1.869,11.753-6.93,14.905l-85.785,53.455
	C275.156,201.914,292.361,219.121,312.297,229.663z M424.354,319.104c5.904,60.822-95.297,63.755-164.649,35.56
	c-117.37-47.717-165.35-168.066-134.25-260.424c14.43-42.852,31.793-65.924,108.762-15.829
	c18.887,12.293,38.966,28.305,59.001,46.725l-24.924,15.53c-17.564-15.953-34.982-29.756-51.199-40.472
	c-95.064-62.838-29.283,58.192,29.734,122.839c54.753,59.978,181.603,151.212,134.482,56.362
	c-7.117-14.326-17.89-30.952-30.875-48.313l16.006-25.686C393.369,241.335,421.244,287.085,424.354,319.104z"/>
</svg>
