<?xml version="1.0" encoding="utf-8"?>
<!-- Generator: Adobe Illustrator 16.0.0, SVG Export Plug-In . SVG Version: 6.00 Build 0)  -->
<!DOCTYPE svg PUBLIC "-//W3C//DTD SVG 1.1//EN" "http://www.w3.org/Graphics/SVG/1.1/DTD/svg11.dtd">
<svg version="1.1" id="Layer_1" xmlns="http://www.w3.org/2000/svg" xmlns:xlink="http://www.w3.org/1999/xlink" x="0px" y="0px"
	 width="512px" height="512px" viewBox="0 0 512 512" enable-background="new 0 0 512 512" xml:space="preserve">
<path id="smartphone-8-icon" fill="#2C75FF" d="M319.76,262.152V377.12H181.938V179.196h36.686
	c-5.014-14.564-7.049-30.1-5.705-45.922h-40.084c-10.667,0-19.315,8.646-19.315,19.314c0,0,0.006,255.191,0,265.115
	c-0.025,41.063,60.669,44.271,97.197,44.295c36.525,0.023,97.461-3.129,97.461-44.295c0-5.394,0-82.785,0-152.564
	C338.824,264.898,329.314,263.9,319.76,262.152z M250.849,436.63c-10.664,0-19.309-8.646-19.309-19.311s8.645-19.308,19.309-19.308
	c10.665,0,19.308,8.644,19.308,19.308S261.514,436.63,250.849,436.63z M351.754,50.001c-58.234,0-110.249,39.199-110.249,92.816
	c0,19.016,6.789,37.688,18.804,52.174c0.506,16.979-9.392,41.33-18.312,59.07c23.903-4.361,57.887-13.994,73.299-23.521
	C400.152,251.378,462,198.954,462,142.817C462,88.907,409.623,50.001,351.754,50.001z M311.363,159.538
	c-8.131,0-14.719-6.588-14.719-14.719c0-8.127,6.588-14.715,14.719-14.715c8.129,0,14.717,6.588,14.717,14.715
	C326.08,152.95,319.492,159.538,311.363,159.538z M355.246,159.538c-8.129,0-14.717-6.588-14.717-14.719
	c0-8.127,6.588-14.715,14.717-14.715c8.131,0,14.719,6.588,14.719,14.715C369.965,152.95,363.377,159.538,355.246,159.538z
	 M398.598,159.538c-8.131,0-14.719-6.588-14.719-14.719c0-8.127,6.588-14.715,14.719-14.715c8.125,0,14.715,6.588,14.715,14.715
	C413.312,152.95,406.723,159.538,398.598,159.538z"/>
</svg>
